<?xml version="1.0" standalone="no"?>
<!DOCTYPE svg PUBLIC "-//W3C//DTD SVG 1.1//EN" "http://www.w3.org/Graphics/SVG/1.1/DTD/svg11.dtd" >
<svg xmlns="http://www.w3.org/2000/svg" width="100%" height="100%">
<metadata>
Created by FontXChange 20110222 at Wed Sep  7 14:40:38 2016
 By Raymond Gardener
 The digitally encoded machine readable software for producing the
 Typefaces licensed to you is copyrighted (c) 1990, 2002 Adobe Systems.
 All Rights Reserved. This software is the property of Adobe Systems
 Incorporated and its licensors, and may not be reproduced, used,
 displayed, modified, disclosed or transferred without the express
 written approval of Adobe.

 The digitally encoded machine readable outline data for producing the Typefaces
 provided as part of your laser printer is copyrighted (c) 1981, 2002 Heidelberger Druckmaschinen AG.
 All rights reserved. This data is the property of Heidelberger Druckmaschinen AG,
 and may not be reproduced, used, displayed, modified, disclosed or transferred
 without the express written approval of Heidelberger Druckmaschinen AG. 
</metadata>
<defs>
<font id="HelveticaNeueLTStd-LtCnO" horiz-adv-x="426" >
  <font-face 
    font-family="HelveticaNeueLTStd"
    font-weight="300"
    font-style="italic"
    font-stretch="condensed"
    units-per-em="1000"
    panose-1="2 11 4 6 2 2 2 3 2 4"
    ascent="714"
    descent="-286"
    x-height="531"
    cap-height="714"
    bbox="-173 -272 1066 927"
    underline-thickness="50"
    underline-position="-50"
    slope="-12"
    stemh="50"
    stemv="60"
    unicode-range="U+0020-FB02"
  />
<missing-glyph horiz-adv-x="648" 
d="M148 0v700h500v-700h-500zM398 395l170 255h-340zM428 350l170 -255v510zM228 50h340l-170 255zM198 605v-510l170 255z" />
    <glyph glyph-name="fi" unicode="fi" 
d="M304 0l113 531h60l-113 -531h-60zM434 612l22 102h60l-22 -102h-60zM80 0l102 481h-73l11 50h73l13 63c16 73 42 128 143 128c18 0 27 -1 38 -3l-11 -50c-8 2 -17 3 -28 3c-44 0 -69 -17 -82 -78l-13 -63h94l-11 -50h-94l-102 -481h-60z" />
    <glyph glyph-name="fl" unicode="fl" 
d="M304 0l152 714h60l-152 -714h-60zM80 0l102 481h-73l11 50h73l13 63c16 73 42 128 143 128c18 0 27 -1 38 -3l-11 -50c-8 2 -17 3 -28 3c-44 0 -69 -17 -82 -78l-13 -63h94l-11 -50h-94l-102 -481h-60z" />
    <glyph glyph-name=".notdef" horiz-adv-x="648" 
d="M148 0v700h500v-700h-500zM398 395l170 255h-340zM428 350l170 -255v510zM228 50h340l-170 255zM198 605v-510l170 255z" />
    <glyph glyph-name="space" unicode=" " horiz-adv-x="240" 
 />
    <glyph glyph-name="exclam" unicode="!" horiz-adv-x="240" 
d="M190 488l48 226h68l-48 -226l-76 -302h-44zM86 0l22 102h68l-22 -102h-68z" />
    <glyph glyph-name="quotedbl" unicode="&#x22;" horiz-adv-x="352" 
d="M172 474l51 240h60l-51 -240h-60zM322 474l51 240h60l-51 -240h-60z" />
    <glyph glyph-name="numbersign" unicode="#" horiz-adv-x="480" 
d="M280 426l-54 -156h122l54 156h-122zM51 226l9 44h116l54 156h-110l9 44h116l78 226h50l-78 -226h122l78 226h50l-78 -226h110l-9 -44h-116l-54 -156h110l-9 -44h-116l-78 -226h-50l78 226h-122l-78 -226h-50l78 226h-110z" />
    <glyph glyph-name="dollar" unicode="$" horiz-adv-x="480" 
d="M303 396l55 258c-76 -8 -127 -60 -140 -124c-17 -79 27 -112 85 -134zM331 321l-59 -279c75 8 135 53 154 140c18 84 -33 114 -95 139zM70 195l5 20h64l-6 -26c-18 -84 13 -141 95 -147l62 294c-83 26 -165 59 -138 188c22 103 103 175 217 184l16 71h44l-16 -71
c115 -9 154 -74 129 -190h-64c17 78 -7 128 -76 136l-58 -273c85 -30 175 -59 148 -189c-27 -125 -115 -194 -232 -204l-17 -83h-44l17 83c-121 7 -173 76 -146 207z" />
    <glyph glyph-name="percent" unicode="%" horiz-adv-x="722" 
d="M218 524c-22 -107 1 -140 43 -140c43 0 79 33 101 140c23 106 1 140 -42 140c-42 0 -79 -34 -102 -140zM179 -12l460 720h50l-460 -720h-50zM508 172c-23 -107 0 -140 42 -140c43 0 79 33 102 140c22 106 0 140 -43 140c-42 0 -79 -34 -101 -140zM164 524
c31 145 85 184 165 184s118 -39 87 -184c-30 -145 -85 -184 -165 -184s-117 39 -87 184zM454 172c30 145 85 184 165 184s117 -39 87 -184c-31 -145 -86 -184 -166 -184s-117 39 -86 184z" />
    <glyph glyph-name="ampersand" unicode="&#x26;" horiz-adv-x="537" 
d="M475 0l-45 87c-52 -60 -123 -99 -211 -99c-123 0 -182 84 -159 189c16 75 66 134 142 184l68 45c-36 67 -56 120 -44 176c18 86 95 132 174 132c83 0 125 -53 109 -132c-13 -58 -48 -112 -165 -184l108 -216c27 44 44 91 54 135h60c-13 -62 -45 -128 -89 -185l66 -132
h-68zM286 584c-8 -38 8 -91 36 -145c92 60 119 106 127 145c10 46 -18 80 -64 80c-47 0 -89 -34 -99 -80zM409 132l-117 234c-116 -70 -155 -126 -167 -182c-18 -85 36 -142 115 -142c58 0 129 35 169 90z" />
    <glyph glyph-name="quoteright" unicode="&#x2019;" horiz-adv-x="240" 
d="M219 612l22 102h68l-22 -102c-12 -59 -36 -115 -103 -138l8 40c30 16 44 44 56 98h-29z" />
    <glyph glyph-name="parenleft" unicode="(" horiz-adv-x="222" 
d="M339 714h43c-107 -136 -178 -292 -212 -449c-33 -157 -28 -313 21 -449h-43c-64 160 -67 310 -38 449c30 139 97 289 229 449z" />
    <glyph glyph-name="parenright" unicode=")" horiz-adv-x="222" 
d="M-4 -184h-43c107 136 178 292 211 449c34 157 29 313 -20 449h43c64 -160 67 -310 37 -449c-29 -139 -96 -289 -228 -449z" />
    <glyph glyph-name="asterisk" unicode="*" horiz-adv-x="334" 
d="M297 714h44l-24 -111l113 34l4 -42l-112 -34l46 -90l-41 -26l-46 90l-84 -90l-31 26l84 90l-98 34l22 42l99 -34z" />
    <glyph glyph-name="plus" unicode="+" horiz-adv-x="600" 
d="M275 0l48 228h-228l11 50h228l49 228h50l-49 -228h228l-11 -50h-228l-48 -228h-50z" />
    <glyph glyph-name="comma" unicode="," horiz-adv-x="240" 
d="M86 0l22 102h68l-22 -102c-13 -59 -36 -115 -103 -138l8 40c30 16 44 44 56 98h-29z" />
    <glyph glyph-name="hyphen" unicode="-" horiz-adv-x="333" 
d="M124 311h217l-11 -54h-217z" />
    <glyph glyph-name="period" unicode="." horiz-adv-x="240" 
d="M86 0l22 102h68l-22 -102h-68z" />
    <glyph glyph-name="slash" unicode="/" horiz-adv-x="278" 
d="M388 726h54l-401 -738h-54z" />
    <glyph glyph-name="zero" unicode="0" horiz-adv-x="480" 
d="M179 348c-48 -227 -28 -310 69 -310s153 83 201 310s28 310 -69 310s-153 -83 -201 -310zM115 348c44 209 114 360 275 360s167 -151 123 -360s-115 -360 -276 -360s-166 151 -122 360z" />
    <glyph glyph-name="one" unicode="1" horiz-adv-x="480" 
d="M230 0l115 542h-162l10 44c119 1 182 48 201 122h46l-150 -708h-60z" />
    <glyph glyph-name="two" unicode="2" horiz-adv-x="480" 
d="M214 486h-64c31 137 114 222 247 222c96 0 171 -57 143 -192c-19 -86 -57 -143 -164 -218l-90 -63c-87 -61 -136 -107 -163 -181h324l-11 -54h-392c25 117 94 193 206 273l90 64c83 60 121 108 135 176c20 94 -21 145 -94 145c-81 0 -138 -54 -167 -172z" />
    <glyph glyph-name="three" unicode="3" horiz-adv-x="480" 
d="M260 343l11 50h33c85 0 144 48 162 132c17 82 -12 133 -89 133c-71 0 -134 -46 -156 -146h-64c25 118 105 196 230 196c109 0 167 -66 144 -175c-16 -78 -67 -141 -148 -160v-2c81 -12 118 -81 99 -168c-27 -128 -116 -215 -249 -215c-122 0 -178 69 -155 201h64
c-17 -83 11 -151 102 -151c72 0 148 44 174 163c19 92 -25 142 -111 142h-47z" />
    <glyph glyph-name="four" unicode="4" horiz-adv-x="480" 
d="M305 0l39 182h-273l12 60l372 466h60l-100 -472h83l-11 -54h-83l-39 -182h-60zM136 236h219l79 370h-2z" />
    <glyph glyph-name="five" unicode="5" horiz-adv-x="480" 
d="M244 696h310l-12 -54h-262l-83 -247l2 -2c38 52 100 72 152 72c109 0 170 -77 137 -234c-30 -142 -123 -243 -262 -243c-110 0 -173 69 -147 193h64c-17 -80 16 -143 101 -143s154 70 182 203c21 98 -6 174 -101 174c-53 0 -107 -25 -139 -82h-60z" />
    <glyph glyph-name="six" unicode="6" horiz-adv-x="480" 
d="M542 542h-64c12 69 -17 116 -87 116c-98 0 -165 -88 -218 -322l2 -2c39 73 102 116 177 116c123 0 167 -90 139 -220c-29 -134 -113 -242 -249 -242c-160 0 -181 118 -134 341c49 232 126 379 296 379c112 0 157 -69 138 -166zM161 219c-20 -91 -4 -181 93 -181
c98 0 151 90 171 181c19 91 4 181 -94 181c-97 0 -151 -90 -170 -181z" />
    <glyph glyph-name="seven" unicode="7" horiz-adv-x="480" 
d="M177 642l12 54h398l-12 -54c-191 -187 -334 -450 -390 -642h-68c52 195 223 473 398 642h-338z" />
    <glyph glyph-name="eight" unicode="8" horiz-adv-x="480" 
d="M146 195c-18 -85 12 -157 102 -157s150 72 168 157c19 86 -11 158 -101 158s-150 -72 -169 -158zM84 200c17 83 76 166 165 175v2c-66 18 -88 89 -74 156c25 116 112 175 215 175c104 0 166 -59 141 -175c-14 -67 -65 -138 -140 -156v-2c85 -9 108 -92 91 -175
c-29 -134 -126 -212 -245 -212c-118 0 -182 78 -153 212zM239 530c-16 -75 11 -127 87 -127c77 0 125 52 141 127c16 76 -10 128 -87 128c-76 0 -125 -52 -141 -128z" />
    <glyph glyph-name="nine" unicode="9" horiz-adv-x="480" 
d="M86 154h64c-12 -69 17 -116 87 -116c98 0 165 88 218 322l-2 2c-39 -73 -102 -116 -177 -116c-123 0 -167 90 -139 220c29 134 112 242 248 242c160 0 182 -118 135 -341c-49 -232 -127 -379 -297 -379c-112 0 -156 69 -137 166zM203 477c-19 -91 -4 -181 94 -181
c97 0 151 90 170 181c20 91 4 181 -93 181c-98 0 -151 -90 -171 -181z" />
    <glyph glyph-name="colon" unicode=":" horiz-adv-x="240" 
d="M171 399l21 102h68l-21 -102h-68zM86 0l22 102h68l-22 -102h-68z" />
    <glyph glyph-name="semicolon" unicode=";" horiz-adv-x="240" 
d="M86 0l22 102h68l-22 -102c-13 -59 -36 -115 -103 -138l8 40c30 16 44 44 56 98h-29zM171 399l21 102h68l-21 -102h-68z" />
    <glyph glyph-name="less" unicode="&#x3c;" horiz-adv-x="600" 
d="M95 226l12 54l555 234l-11 -54l-490 -207l402 -207l-12 -54z" />
    <glyph glyph-name="equal" unicode="=" horiz-adv-x="600" 
d="M116 325l11 50h506l-11 -50h-506zM75 131l10 50h506l-10 -50h-506z" />
    <glyph glyph-name="greater" unicode="&#x3e;" horiz-adv-x="600" 
d="M45 -8l12 54l490 207l-402 207l11 54l457 -234l-12 -54z" />
    <glyph glyph-name="question" unicode="?" 
d="M267 185h-60l8 35c15 74 37 106 100 160l51 45c47 41 71 89 79 127c15 71 -17 124 -85 124c-86 0 -141 -61 -164 -168h-64c27 124 106 218 234 218c111 0 165 -71 143 -175c-11 -52 -35 -102 -98 -157l-53 -46c-50 -43 -72 -76 -85 -135zM164 0l22 102h68l-22 -102h-68z
" />
    <glyph glyph-name="at" unicode="@" horiz-adv-x="800" 
d="M304 288c-13 -61 5 -102 65 -102c107 0 217 152 236 243c14 65 -5 96 -65 96c-108 0 -216 -142 -236 -237zM652 492l39 66h57l-165 -294c-11 -21 -22 -43 -25 -59c-4 -15 4 -25 21 -25c89 0 208 138 230 242c33 157 -89 260 -244 260c-197 0 -371 -152 -408 -325
c-38 -180 80 -325 270 -325c108 0 232 53 304 138h60c-92 -112 -238 -182 -374 -182c-221 0 -353 167 -310 369c43 205 253 369 467 369c194 0 322 -129 284 -307c-33 -154 -189 -283 -297 -283c-38 0 -65 21 -54 68h-2c-55 -45 -100 -68 -155 -68c-78 0 -120 56 -101 147
c29 138 163 292 306 292c47 0 86 -22 95 -83h2z" />
    <glyph glyph-name="A" unicode="A" horiz-adv-x="500" 
d="M195 262h222l-25 402h-2zM-1 0l363 714h80l59 -714h-68l-14 208h-250l-102 -208h-68z" />
    <glyph glyph-name="B" unicode="B" horiz-adv-x="500" 
d="M260 660l-55 -260h101c110 0 170 47 188 130c20 95 -22 130 -122 130h-112zM194 346l-63 -292h119c111 0 176 50 197 146c20 96 -23 146 -134 146h-119zM56 0l152 714h197c138 0 176 -73 154 -179c-15 -70 -67 -137 -143 -155l-1 -2c85 -17 115 -85 96 -178
c-27 -125 -124 -200 -259 -200h-196z" />
    <glyph glyph-name="C" unicode="C" horiz-adv-x="519" 
d="M477 242h64c-43 -163 -138 -254 -266 -254c-146 0 -204 113 -149 369c54 256 160 369 306 369c145 0 183 -103 159 -220h-64c20 97 -14 166 -106 166c-102 0 -182 -84 -231 -315s-5 -315 97 -315c90 0 157 77 190 200z" />
    <glyph glyph-name="D" unicode="D" horiz-adv-x="537" 
d="M56 0l152 714h172c208 0 232 -124 183 -357c-50 -233 -127 -357 -335 -357h-172zM260 660l-129 -606h104c140 0 214 70 264 302c49 234 5 304 -135 304h-104z" />
    <glyph glyph-name="E" unicode="E" horiz-adv-x="444" 
d="M56 0l152 714h354l-12 -54h-290l-55 -260h271l-11 -54h-271l-63 -292h299l-11 -54h-363z" />
    <glyph glyph-name="F" unicode="F" 
d="M56 0l152 714h354l-12 -54h-290l-55 -260h271l-11 -54h-271l-74 -346h-64z" />
    <glyph glyph-name="G" unicode="G" horiz-adv-x="537" 
d="M493 310h-169l11 54h229l-77 -364h-50l25 118h-2c-39 -79 -114 -130 -185 -130c-146 0 -204 113 -149 369c54 256 160 369 306 369c136 0 178 -89 160 -212h-64c19 86 -13 158 -107 158c-102 0 -182 -84 -231 -315s-5 -315 97 -315c96 0 167 86 203 253z" />
    <glyph glyph-name="H" unicode="H" horiz-adv-x="519" 
d="M399 0l76 356h-279l-76 -356h-64l152 714h64l-65 -304h279l65 304h64l-152 -714h-64z" />
    <glyph glyph-name="I" unicode="I" horiz-adv-x="184" 
d="M60 0l152 714h64l-152 -714h-64z" />
    <glyph glyph-name="J" unicode="J" horiz-adv-x="407" 
d="M57 180l6 29h64l-3 -17c-21 -97 -7 -150 63 -150s115 30 140 144l112 528h64l-114 -535c-26 -123 -98 -191 -211 -191c-102 0 -150 53 -121 192z" />
    <glyph glyph-name="K" unicode="K" horiz-adv-x="480" 
d="M56 0l152 714h64l-80 -374h2l353 374h68l-282 -298l154 -416h-68l-137 362l-109 -112l-53 -250h-64z" />
    <glyph glyph-name="L" unicode="L" 
d="M56 0l152 714h64l-141 -660h296l-11 -54h-360z" />
    <glyph glyph-name="M" unicode="M" horiz-adv-x="686" 
d="M62 0l152 714h111l37 -634h2l307 634h105l-152 -714h-64l139 654h-2l-324 -654h-60l-46 654h-2l-139 -654h-64z" />
    <glyph glyph-name="N" unicode="N" horiz-adv-x="537" 
d="M56 0l152 714h86l141 -622h2l132 622h64l-152 -714h-86l-141 622h-2l-132 -622h-64z" />
    <glyph glyph-name="O" unicode="O" horiz-adv-x="556" 
d="M126 357c54 256 160 369 306 369s204 -113 150 -369c-55 -256 -161 -369 -307 -369s-204 113 -149 369zM190 357c-49 -231 -5 -315 97 -315s182 84 231 315s5 315 -97 315s-182 -84 -231 -315z" />
    <glyph glyph-name="P" unicode="P" horiz-adv-x="480" 
d="M260 660l-63 -296h109c85 0 160 38 184 148c23 107 -23 148 -121 148h-109zM56 0l152 714h193c138 0 179 -81 153 -202c-24 -110 -98 -202 -261 -202h-107l-66 -310h-64z" />
    <glyph glyph-name="Q" unicode="Q" horiz-adv-x="556" 
d="M471 -38l-57 70c-42 -30 -88 -44 -139 -44c-146 0 -204 113 -149 369c54 256 160 369 306 369s204 -113 150 -369c-29 -134 -72 -229 -126 -287l58 -70zM384 74l-65 78l43 38l61 -75c39 51 71 130 95 242c49 231 5 315 -97 315s-182 -84 -231 -315s-5 -315 97 -315
c35 0 66 9 97 32z" />
    <glyph glyph-name="R" unicode="R" horiz-adv-x="500" 
d="M56 0l152 714h213c119 0 170 -68 147 -179c-19 -86 -69 -163 -168 -181v-2c87 -8 106 -59 86 -169l-15 -78c-7 -39 -11 -77 8 -105h-75c-10 25 -5 62 2 100l11 60c23 126 8 166 -107 166h-121l-69 -326h-64zM260 660l-59 -280h110c101 0 170 46 190 140
c18 87 -8 140 -124 140h-117z" />
    <glyph glyph-name="S" unicode="S" horiz-adv-x="480" 
d="M546 531h-64c19 88 -11 141 -98 141s-147 -57 -162 -128c-46 -213 325 -96 272 -347c-29 -138 -131 -209 -261 -209c-134 0 -192 72 -162 212l4 21h64l-6 -27c-19 -91 16 -152 110 -152c90 0 163 45 185 145c45 212 -327 91 -272 350c24 112 113 189 237 189
c133 0 180 -68 153 -195z" />
    <glyph glyph-name="T" unicode="T" horiz-adv-x="444" 
d="M190 0l140 660h-184l12 54h432l-12 -54h-184l-140 -660h-64z" />
    <glyph glyph-name="U" unicode="U" horiz-adv-x="500" 
d="M89 200l109 514h64l-109 -513c-23 -107 12 -159 106 -159s151 52 174 159l109 513h64l-109 -514c-32 -150 -119 -212 -250 -212s-190 62 -158 212z" />
    <glyph glyph-name="V" unicode="V" horiz-adv-x="462" 
d="M191 0l-36 714h68l21 -646h2l297 646h68l-340 -714h-80z" />
    <glyph glyph-name="W" unicode="W" horiz-adv-x="722" 
d="M162 0l1 714h64l-9 -628h2l256 628h74l-12 -628h2l259 628h64l-303 -714h-80l15 628h-2l-251 -628h-80z" />
    <glyph glyph-name="X" unicode="X" horiz-adv-x="462" 
d="M395 0l-101 307l-231 -307h-64l273 364l-108 350h68l90 -290l216 290h64l-259 -350l120 -364h-68z" />
    <glyph glyph-name="Y" unicode="Y" horiz-adv-x="444" 
d="M190 0l61 286l-102 428h68l81 -356l233 356h68l-284 -428l-61 -286h-64z" />
    <glyph glyph-name="Z" unicode="Z" horiz-adv-x="462" 
d="M22 0l13 60l475 600h-328l12 54h393l-13 -60l-470 -600h347l-11 -54h-418z" />
    <glyph glyph-name="bracketleft" unicode="[" horiz-adv-x="241" 
d="M44 -184l191 898h158l-11 -50h-98l-169 -798h98l-11 -50h-158z" />
    <glyph glyph-name="backslash" unicode="\" horiz-adv-x="278" 
d="M144 726h54l87 -738h-54z" />
    <glyph glyph-name="bracketright" unicode="]" horiz-adv-x="241" 
d="M-39 -184l11 50h98l169 798h-98l11 50h158l-191 -898h-158z" />
    <glyph glyph-name="asciicircum" unicode="^" horiz-adv-x="600" 
d="M554 243l-119 393l-285 -393h-54l327 453h50l135 -453h-54z" />
    <glyph glyph-name="underscore" unicode="_" horiz-adv-x="500" 
d="M-27 -125l11 50h500l-11 -50h-500z" />
    <glyph glyph-name="quoteleft" unicode="&#x2018;" horiz-adv-x="240" 
d="M184 474l21 102c13 59 37 115 104 138l-9 -40c-29 -16 -43 -44 -56 -98h29l-21 -102h-68z" />
    <glyph glyph-name="a" unicode="a" 
d="M186 373h-60c23 109 88 170 200 170c110 0 138 -57 120 -141l-66 -314c-7 -30 0 -44 21 -44h17l-9 -44c-12 -4 -21 -6 -29 -6c-47 0 -75 11 -63 66l4 18h-2c-39 -70 -98 -90 -157 -90c-93 0 -122 58 -103 150c15 70 59 126 139 147l119 32c45 12 56 22 69 84
c15 68 -18 92 -72 92c-71 0 -111 -43 -128 -120zM341 188l24 112h-2c-10 -18 -46 -29 -72 -35l-52 -13c-64 -16 -101 -47 -115 -110c-13 -62 10 -104 62 -104c73 0 135 55 155 150z" />
    <glyph glyph-name="b" unicode="b" horiz-adv-x="444" 
d="M52 0l152 714h60l-56 -263h2c25 56 77 92 143 92c117 0 150 -94 112 -277c-40 -184 -113 -278 -230 -278c-63 0 -105 39 -108 100h-2l-19 -88h-54zM169 266c-42 -197 6 -228 67 -228c60 0 123 31 165 228c41 196 -8 227 -68 227c-61 0 -123 -31 -164 -227z" />
    <glyph glyph-name="c" unicode="c" horiz-adv-x="407" 
d="M354 176h60c-33 -113 -111 -188 -209 -188c-112 0 -161 78 -118 278c39 184 124 277 241 277c100 0 145 -61 128 -170h-60c11 83 -14 120 -78 120c-65 0 -128 -40 -168 -228c-42 -200 9 -227 65 -227c61 0 110 45 139 138z" />
    <glyph glyph-name="d" unicode="d" horiz-adv-x="444" 
d="M338 0l19 88h-2c-29 -61 -89 -100 -152 -100c-117 0 -150 94 -110 278c38 183 111 277 228 277c66 0 104 -36 105 -92h2l56 263h60l-152 -714h-54zM157 266c-42 -197 7 -228 67 -228c61 0 123 31 165 228c41 196 -7 227 -68 227c-60 0 -123 -31 -164 -227z" />
    <glyph glyph-name="e" unicode="e" 
d="M362 176h60c-33 -113 -111 -188 -211 -188c-112 0 -161 78 -118 278c39 184 124 277 241 277c118 0 154 -81 117 -258l-5 -22h-290l-5 -25c-33 -153 11 -200 70 -200c63 0 112 45 141 138zM167 313h226c26 132 -1 180 -75 180s-121 -48 -151 -180z" />
    <glyph glyph-name="f" unicode="f" horiz-adv-x="241" 
d="M80 0l102 481h-73l11 50h73l13 63c16 73 42 128 143 128c18 0 27 -1 38 -3l-11 -50c-8 2 -17 3 -28 3c-44 0 -69 -17 -82 -78l-13 -63h94l-11 -50h-94l-102 -481h-60z" />
    <glyph glyph-name="g" unicode="g" horiz-adv-x="444" 
d="M427 449l18 82h54l-105 -493c-31 -147 -101 -222 -221 -222c-103 0 -146 54 -130 130h60c-11 -50 30 -80 83 -80c73 0 122 51 142 145l18 84h-2c-33 -65 -89 -95 -144 -95c-82 0 -153 54 -107 266c38 183 111 277 228 277c58 0 98 -34 104 -94h2zM158 272
c-36 -170 -5 -222 66 -222s124 52 160 222c36 169 5 221 -66 221s-124 -52 -160 -221z" />
    <glyph glyph-name="h" unicode="h" horiz-adv-x="444" 
d="M58 0l152 714h60l-55 -257h2c27 54 85 86 148 86c81 0 127 -42 106 -142l-85 -401h-60l82 384c15 73 -7 109 -68 109c-70 0 -129 -54 -146 -136l-76 -357h-60z" />
    <glyph glyph-name="i" unicode="i" horiz-adv-x="184" 
d="M62 0l113 531h60l-113 -531h-60zM192 612l22 102h60l-22 -102h-60z" />
    <glyph glyph-name="j" unicode="j" horiz-adv-x="184" 
d="M53 -42l122 573h60l-126 -593c-20 -91 -77 -122 -141 -122c-12 0 -23 1 -32 3l10 50c7 -1 14 -3 23 -3c42 0 68 18 84 92zM192 612l22 102h60l-22 -102h-60z" />
    <glyph glyph-name="k" unicode="k" horiz-adv-x="407" 
d="M52 0l152 714h60l-95 -447h2l262 264h74l-202 -197l118 -334h-74l-98 280l-99 -94l-40 -186h-60z" />
    <glyph glyph-name="l" unicode="l" horiz-adv-x="184" 
d="M62 0l152 714h60l-152 -714h-60z" />
    <glyph glyph-name="m" unicode="m" horiz-adv-x="686" 
d="M62 0l113 531h54l-16 -74h2c41 59 94 86 153 86c64 0 95 -39 92 -93h2c36 59 86 93 154 93c74 0 114 -42 94 -137l-86 -406h-60l84 397c14 63 -8 96 -62 96c-60 0 -120 -54 -137 -136l-76 -357h-60l84 397c14 63 -8 96 -62 96c-60 0 -120 -54 -137 -136l-76 -357h-60z
" />
    <glyph glyph-name="n" unicode="n" horiz-adv-x="444" 
d="M58 0l113 531h54l-16 -74h2c43 59 100 86 154 86c81 0 127 -42 106 -142l-85 -401h-60l82 384c15 73 -7 109 -68 109c-70 0 -129 -54 -146 -136l-76 -357h-60z" />
    <glyph glyph-name="o" unicode="o" 
d="M87 266c39 184 124 277 241 277s164 -93 125 -277c-40 -185 -126 -278 -243 -278s-163 93 -123 278zM151 266c-37 -170 3 -228 70 -228s131 58 168 228c35 169 -4 227 -71 227s-132 -58 -167 -227z" />
    <glyph glyph-name="p" unicode="p" horiz-adv-x="444" 
d="M15 -176l150 707h54l-16 -76h2c29 49 81 88 149 88c118 0 149 -94 110 -278c-39 -183 -112 -277 -229 -277c-66 0 -103 36 -104 92h-2l-54 -256h-60zM400 265c41 193 -7 228 -65 228c-34 0 -68 -18 -94 -47c-34 -37 -53 -89 -73 -181c-41 -196 7 -227 68 -227
c60 0 123 31 164 227z" />
    <glyph glyph-name="q" unicode="q" horiz-adv-x="444" 
d="M295 -176l54 256h-2c-25 -56 -78 -92 -144 -92c-117 0 -150 94 -111 277c39 184 110 278 228 278c68 0 104 -39 113 -88h2l16 76h54l-150 -707h-60zM156 265c-41 -196 8 -227 68 -227c61 0 123 31 164 227c20 92 23 144 5 181c-14 29 -40 47 -74 47
c-58 0 -122 -35 -163 -228z" />
    <glyph glyph-name="r" unicode="r" horiz-adv-x="278" 
d="M58 0l113 531h60l-18 -83h2c36 59 92 95 154 95c7 0 14 -1 21 -3l-13 -60c-10 2 -19 3 -28 3c-66 0 -139 -48 -160 -151l-71 -332h-60z" />
    <glyph glyph-name="s" unicode="s" horiz-adv-x="389" 
d="M275 231l-77 33c-69 29 -86 73 -75 126c23 109 100 153 190 153c100 0 136 -51 115 -148l-3 -15h-60l3 15c15 69 -11 98 -66 98c-70 0 -105 -37 -116 -90c-8 -37 -2 -66 53 -89l80 -33c66 -27 82 -77 70 -135c-19 -91 -86 -158 -198 -158c-109 0 -153 45 -127 165l3 17
h60l-3 -14c-16 -78 9 -118 77 -118c64 0 113 36 125 95c10 47 -2 77 -51 98z" />
    <glyph glyph-name="t" unicode="t" horiz-adv-x="241" 
d="M98 87l84 394h-73l11 50h73l31 147h60l-31 -147h94l-11 -50h-94l-81 -381c-9 -42 6 -56 45 -56c12 0 25 2 39 6l-11 -50c-8 -4 -23 -6 -43 -6c-81 0 -108 22 -93 93z" />
    <glyph glyph-name="u" unicode="u" horiz-adv-x="444" 
d="M86 130l85 401h60l-80 -374c-18 -86 4 -119 67 -119c68 0 128 54 145 136l76 357h60l-113 -531h-54l16 74h-2c-43 -59 -101 -86 -155 -86c-81 0 -127 42 -105 142z" />
    <glyph glyph-name="v" unicode="v" horiz-adv-x="370" 
d="M155 0l-35 531h64l19 -463h2l207 463h64l-253 -531h-68z" />
    <glyph glyph-name="w" unicode="w" horiz-adv-x="592" 
d="M128 0l-5 531h64l-10 -471h2l196 471h74l-10 -471h2l190 471h64l-231 -531h-71l4 471h-2l-196 -471h-71z" />
    <glyph glyph-name="x" unicode="x" horiz-adv-x="370" 
d="M296 0l-63 228l-159 -228h-68l201 274l-82 257h68l60 -210l150 210h68l-192 -257l85 -274h-68z" />
    <glyph glyph-name="y" unicode="y" horiz-adv-x="370" 
d="M159 -5l-39 536h64l21 -460h2l205 460h64l-277 -574c-50 -104 -88 -133 -169 -133c-16 0 -28 1 -40 2l11 50c12 -1 25 -2 38 -2c37 0 65 15 94 71z" />
    <glyph glyph-name="z" unicode="z" horiz-adv-x="352" 
d="M18 0l11 50l343 431h-239l11 50h303l-11 -50l-343 -431h252l-11 -50h-316z" />
    <glyph glyph-name="braceleft" unicode="{" horiz-adv-x="241" 
d="M180 419l37 175c16 73 58 120 133 120h51l-11 -50h-50c-30 0 -51 -16 -62 -68l-40 -186c-19 -94 -52 -135 -98 -144l-1 -2c43 -9 58 -50 38 -144l-40 -186c-11 -52 4 -68 34 -68h50l-11 -50h-51c-75 0 -97 47 -82 120l38 175c21 101 13 128 -31 129l11 50
c44 1 64 28 85 129z" />
    <glyph glyph-name="bar" unicode="|" horiz-adv-x="377" 
d="M239 817h51v-1089h-51v1089z" />
    <glyph glyph-name="braceright" unicode="}" horiz-adv-x="241" 
d="M174 111l-38 -175c-15 -73 -57 -120 -132 -120h-51l11 50h50c30 0 51 16 62 68l40 186c18 94 51 135 98 144l1 2c-44 9 -59 50 -38 144l40 186c11 52 -4 68 -34 68h-50l11 50h51c75 0 97 -47 81 -120l-37 -175c-21 -101 -13 -128 31 -129l-11 -50
c-44 -1 -64 -28 -85 -129z" />
    <glyph glyph-name="asciitilde" unicode="~" horiz-adv-x="600" 
d="M562 316l29 -36c-55 -58 -90 -86 -144 -86c-29 0 -51 6 -95 33c-48 30 -75 35 -107 35c-44 0 -76 -37 -100 -72l-28 36c31 42 76 86 143 86c29 0 59 -10 105 -32c58 -28 76 -36 94 -36c32 0 62 23 103 72z" />
    <glyph glyph-name="exclamdown" unicode="&#xa1;" horiz-adv-x="240" 
d="M49 -172l48 226l77 302h44l-53 -302l-48 -226h-68zM180 440l21 102h68l-21 -102h-68z" />
    <glyph glyph-name="cent" unicode="&#xa2;" horiz-adv-x="480" 
d="M240 38l97 455c-59 -8 -114 -56 -151 -228c-39 -187 3 -223 54 -227zM212 -95l17 83c-103 6 -147 86 -106 278c37 175 117 268 224 277l18 83h30l-18 -83c93 -6 132 -66 116 -170h-60c10 76 -10 114 -66 120l-97 -455c53 11 95 56 121 138h60
c-30 -106 -100 -178 -192 -188l-17 -83h-30z" />
    <glyph glyph-name="sterling" unicode="&#xa3;" horiz-adv-x="480" 
d="M551 504h-60c17 101 -17 154 -106 154c-76 0 -144 -45 -160 -121c-7 -34 1 -82 14 -122l15 -45h151l-10 -44h-134c9 -21 7 -48 2 -73c-16 -73 -71 -139 -160 -199l2 -2c29 13 57 24 83 24c14 0 38 -10 64 -18s52 -16 70 -16c41 0 83 21 131 50l17 -46
c-47 -36 -102 -58 -168 -58c-50 0 -98 38 -149 38c-43 0 -84 -23 -103 -32l-21 49c87 54 152 126 168 200c6 29 3 59 -4 83h-98l10 44h81l-21 65c-9 31 -12 65 -5 96c24 114 130 177 239 177c123 0 178 -83 152 -204z" />
    <glyph glyph-name="fraction" unicode="&#x2044;" horiz-adv-x="167" 
d="M-173 -30l611 756h50l-611 -756h-50z" />
    <glyph glyph-name="yen" unicode="&#xa5;" horiz-adv-x="480" 
d="M208 0l37 174h-140l9 44h140l14 63l-6 24h-129l9 44h109l-88 347h68l84 -344l230 344h68l-236 -347h109l-9 -44h-129l-16 -24l-14 -63h140l-9 -44h-140l-37 -174h-64z" />
    <glyph glyph-name="florin" unicode="&#x192;" horiz-adv-x="480" 
d="M196 397l18 44h105l53 130c52 126 133 143 191 143c14 0 29 -2 46 -4l-22 -50c-8 2 -17 4 -26 4c-59 0 -98 -12 -152 -148l-30 -75h112l-18 -44h-112l-154 -382c-57 -141 -105 -191 -204 -191c-21 0 -40 2 -52 7l22 50c8 -4 17 -7 31 -7c65 0 92 17 151 162l146 361h-105
z" />
    <glyph glyph-name="section" unicode="&#xa7;" horiz-adv-x="481" 
d="M528 577h-60c13 61 -21 99 -82 99s-110 -38 -121 -87c-7 -35 7 -60 57 -97l113 -86c63 -47 79 -86 66 -148c-13 -60 -65 -113 -124 -139c30 -29 45 -74 35 -118c-18 -85 -93 -151 -198 -151c-106 0 -159 65 -141 152l5 20h60c-15 -71 7 -122 85 -122c62 0 112 39 123 91
c10 48 -7 77 -58 115l-104 77c-66 50 -91 88 -77 154c12 59 73 116 132 137c-32 26 -48 67 -38 112c18 89 105 140 198 140c102 0 147 -62 129 -149zM394 354l-123 93c-66 -32 -95 -68 -104 -106c-8 -39 14 -71 62 -107l113 -86c57 24 88 59 99 113c7 33 -14 68 -47 93z" />
    <glyph glyph-name="currency" unicode="&#xa4;" horiz-adv-x="480" 
d="M84 128l-27 37l57 47c-23 38 -31 85 -20 136s39 99 78 137l-37 47l43 36l37 -47c43 29 94 47 146 47s95 -17 127 -48l57 48l27 -36l-57 -47c22 -37 30 -85 19 -137s-39 -99 -76 -136l36 -47l-43 -37l-36 49c-45 -31 -97 -49 -148 -49c-52 0 -97 19 -127 48zM148 348
c-21 -98 44 -170 130 -170s181 72 202 170s-44 170 -130 170s-181 -72 -202 -170z" />
    <glyph glyph-name="quotesingle" unicode="'" horiz-adv-x="240" 
d="M191 474l51 240h60l-51 -240h-60z" />
    <glyph glyph-name="quotedblleft" unicode="&#x201c;" horiz-adv-x="352" 
d="M306 474l21 102c13 59 37 115 104 138l-9 -40c-29 -16 -43 -44 -56 -98h29l-21 -102h-68zM174 474l21 102c13 59 37 115 104 138l-9 -40c-29 -16 -43 -44 -56 -98h29l-21 -102h-68z" />
    <glyph glyph-name="guillemotleft" unicode="&#xab;" horiz-adv-x="370" 
d="M242 254l13 60l154 139l-14 -68l-111 -101l68 -101l-15 -68zM111 254l13 60l154 139l-14 -68l-111 -101l68 -101l-15 -68z" />
    <glyph glyph-name="guilsinglleft" unicode="&#x2039;" horiz-adv-x="241" 
d="M112 254l13 60l154 139l-14 -68l-111 -101l68 -101l-15 -68z" />
    <glyph glyph-name="guilsinglright" unicode="&#x203a;" horiz-adv-x="241" 
d="M82 115l15 68l110 101l-67 101l14 68l96 -139l-13 -60z" />
    <glyph glyph-name="endash" unicode="&#x2013;" horiz-adv-x="500" 
d="M66 311h500l-11 -54h-500z" />
    <glyph glyph-name="dagger" unicode="&#x2020;" horiz-adv-x="480" 
d="M314 490l48 224h60l-48 -224h176l-10 -50h-176l-125 -585h-60l125 585h-176l10 50h176z" />
    <glyph glyph-name="daggerdbl" unicode="&#x2021;" horiz-adv-x="480" 
d="M362 714h60l-44 -206h176l-11 -50h-176l-73 -347h176l-11 -50h-176l-44 -206h-60l44 206h-176l11 50h176l73 347h-176l11 50h176z" />
    <glyph glyph-name="periodcentered" unicode="&#xb7;" horiz-adv-x="240" 
d="M135 328c6 30 36 55 66 55s50 -25 44 -55c-7 -30 -37 -55 -67 -55s-50 25 -43 55z" />
    <glyph glyph-name="paragraph" unicode="&#xb6;" horiz-adv-x="481" 
d="M165 -138l100 472c-89 0 -147 81 -125 182c27 129 120 198 231 198h182l-181 -852h-50l171 808h-107l-171 -808h-50z" />
    <glyph glyph-name="bullet" unicode="&#x2022;" horiz-adv-x="500" 
d="M148 357c21 98 118 178 216 178s161 -80 140 -178s-118 -178 -216 -178s-161 80 -140 178z" />
    <glyph glyph-name="quotesinglbase" unicode="&#x201a;" horiz-adv-x="240" 
d="M89 0l22 102h68l-22 -102c-13 -59 -36 -115 -103 -138l8 40c30 16 44 44 56 98h-29z" />
    <glyph glyph-name="quotedblbase" unicode="&#x201e;" horiz-adv-x="352" 
d="M79 0l22 102h68l-22 -102c-13 -59 -36 -115 -103 -138l8 40c30 16 44 44 56 98h-29zM211 0l22 102h68l-22 -102c-13 -59 -36 -115 -103 -138l8 40c30 16 44 44 56 98h-29z" />
    <glyph glyph-name="quotedblright" unicode="&#x201d;" horiz-adv-x="352" 
d="M209 612l22 102h68l-22 -102c-12 -59 -36 -115 -103 -138l8 40c30 16 44 44 56 98h-29zM341 612l22 102h68l-22 -102c-12 -59 -36 -115 -103 -138l8 40c30 16 44 44 56 98h-29z" />
    <glyph glyph-name="guillemotright" unicode="&#xbb;" horiz-adv-x="370" 
d="M81 115l15 68l110 101l-67 101l14 68l96 -139l-13 -60zM212 115l15 68l110 101l-67 101l14 68l96 -139l-13 -60z" />
    <glyph glyph-name="ellipsis" unicode="&#x2026;" horiz-adv-x="1000" 
d="M133 0l22 102h68l-22 -102h-68zM466 0l22 102h68l-22 -102h-68zM799 0l22 102h68l-22 -102h-68z" />
    <glyph glyph-name="perthousand" unicode="&#x2030;" horiz-adv-x="1000" 
d="M218 524c-22 -107 1 -140 43 -140c43 0 79 33 101 140c23 106 1 140 -42 140c-42 0 -79 -34 -102 -140zM170 -12l460 720h50l-460 -720h-50zM485 172c-23 -107 0 -140 42 -140c43 0 79 33 102 140c22 106 0 140 -43 140c-42 0 -79 -34 -101 -140zM164 524
c31 145 85 184 165 184s118 -39 87 -184c-30 -145 -85 -184 -165 -184s-117 39 -87 184zM431 172c30 145 85 184 165 184s117 -39 87 -184c-31 -145 -86 -184 -166 -184s-117 39 -86 184zM786 172c-23 -107 0 -140 42 -140c43 0 79 33 102 140c22 106 0 140 -43 140
c-42 0 -79 -34 -101 -140zM732 172c30 145 85 184 165 184s117 -39 87 -184c-31 -145 -86 -184 -166 -184s-117 39 -86 184z" />
    <glyph glyph-name="questiondown" unicode="&#xbf;" 
d="M274 357h60l-8 -35c-15 -74 -37 -106 -100 -160l-51 -45c-47 -41 -71 -89 -79 -127c-15 -71 18 -124 86 -124c86 0 140 61 163 168h64c-27 -124 -106 -218 -234 -218c-111 0 -165 71 -143 175c11 52 35 102 98 157l53 46c50 43 72 76 85 135zM288 440l21 102h68l-21 -102
h-68z" />
    <glyph glyph-name="grave" unicode="`" horiz-adv-x="186" 
d="M147 738h71l45 -141h-48z" />
    <glyph glyph-name="acute" unicode="&#xb4;" horiz-adv-x="186" 
d="M282 738h71l-128 -141h-48z" />
    <glyph glyph-name="circumflex" unicode="&#x2c6;" horiz-adv-x="186" 
d="M154 597h-60l126 141h60l66 -141h-60l-45 100z" />
    <glyph glyph-name="tilde" unicode="&#x2dc;" horiz-adv-x="186" 
d="M336 718h44c-10 -41 -50 -98 -98 -98c-18 0 -31 5 -46 15l-34 21c-9 5 -16 8 -22 8c-19 0 -37 -25 -46 -48h-44c11 42 54 98 97 98c23 0 33 -5 53 -18l23 -15c8 -6 18 -11 27 -11c22 0 43 31 46 48z" />
    <glyph glyph-name="macron" unicode="&#xaf;" horiz-adv-x="186" 
d="M111 646l10 44h238l-10 -44h-238z" />
    <glyph glyph-name="breve" unicode="&#x2d8;" horiz-adv-x="186" 
d="M126 726h44c-2 -25 4 -44 14 -58c10 -13 27 -20 47 -20c40 0 76 27 93 78h44c-21 -75 -79 -122 -147 -122s-106 47 -95 122z" />
    <glyph glyph-name="dotaccent" unicode="&#x2d9;" horiz-adv-x="186" 
d="M194 618l22 102h60l-22 -102h-60z" />
    <glyph glyph-name="dieresis" unicode="&#xa8;" horiz-adv-x="186" 
d="M119 618l22 102h60l-22 -102h-60zM269 618l22 102h60l-22 -102h-60z" />
    <glyph glyph-name="ring" unicode="&#x2da;" horiz-adv-x="186" 
d="M143 681c11 52 63 95 115 95s86 -43 75 -95s-63 -95 -115 -95s-86 43 -75 95zM179 681c-7 -33 13 -59 46 -59s65 26 72 59s-14 59 -47 59s-64 -26 -71 -59z" />
    <glyph glyph-name="cedilla" unicode="&#xb8;" horiz-adv-x="186" 
d="M90 0h37l-55 -56l2 -1c10 4 22 5 35 5c43 0 71 -30 63 -67c-12 -56 -78 -85 -124 -85c-31 0 -67 10 -85 20l18 31c15 -8 35 -15 57 -15c48 0 74 20 79 44c5 25 -19 36 -46 36c-19 0 -33 -3 -46 -10l-9 17z" />
    <glyph glyph-name="hungarumlaut" unicode="&#x2dd;" horiz-adv-x="186" 
d="M206 738h71l-128 -141h-47zM357 738h71l-128 -141h-47z" />
    <glyph glyph-name="ogonek" unicode="&#x2db;" horiz-adv-x="186" 
d="M117 6h47c-82 -49 -114 -87 -123 -127c-6 -30 9 -47 45 -47c20 0 41 7 63 19l7 -29c-25 -15 -63 -26 -97 -26c-66 0 -82 35 -74 72c11 51 55 106 132 138z" />
    <glyph glyph-name="caron" unicode="&#x2c7;" horiz-adv-x="186" 
d="M123 738h60l45 -101l89 101h60l-128 -141h-60z" />
    <glyph glyph-name="emdash" unicode="&#x2014;" horiz-adv-x="1000" 
d="M66 311h1000l-11 -54h-1000z" />
    <glyph glyph-name="AE" unicode="&#xc6;" horiz-adv-x="704" 
d="M332 0l44 208h-191l-125 -208h-68l442 714h395l-12 -54h-281l-55 -260h262l-11 -54h-262l-63 -292h290l-11 -54h-354zM217 262h171l84 398h-10z" />
    <glyph glyph-name="ordfeminine" unicode="&#xaa;" horiz-adv-x="277" 
d="M193 602h-50c15 69 55 106 139 106c83 0 102 -34 91 -85l-39 -185c-4 -18 0 -27 14 -27h11l-8 -38c-10 -4 -22 -6 -35 -6c-24 0 -44 7 -36 40l2 14h-2c-23 -42 -61 -54 -100 -54c-66 0 -88 42 -77 94c10 49 41 81 99 95l78 19c29 7 36 14 43 44c6 30 -16 45 -51 45
c-46 0 -71 -26 -79 -62zM297 499l11 52h-2c-6 -11 -29 -17 -45 -21l-35 -8c-38 -9 -62 -28 -68 -55c-6 -31 9 -56 40 -56c47 0 87 33 99 88z" />
    <glyph glyph-name="Lslash" unicode="&#x141;" 
d="M56 0l61 286l-80 -48l12 60l81 48l78 368h64l-69 -324l213 127l-13 -60l-213 -127l-59 -276h296l-11 -54h-360z" />
    <glyph glyph-name="Oslash" unicode="&#xd8;" horiz-adv-x="556" 
d="M180 119l329 515c-20 26 -50 38 -88 38c-102 0 -182 -84 -231 -315c-23 -109 -26 -188 -10 -238zM527 595l-327 -515c19 -27 49 -38 87 -38c102 0 182 84 231 315c23 111 25 189 9 238zM124 -42l-34 16l50 78c-40 57 -46 157 -14 305c54 256 160 369 306 369
c47 0 84 -11 111 -34l41 64l34 -14l-50 -79c40 -58 45 -158 14 -306c-55 -256 -161 -369 -307 -369c-46 0 -82 11 -110 34z" />
    <glyph glyph-name="OE" unicode="&#x152;" horiz-adv-x="778" 
d="M460 237l54 254c30 140 -4 181 -101 181c-102 0 -182 -84 -231 -315s-5 -315 97 -315c98 0 151 54 181 195zM549 656l13 58h339l-12 -54h-275l-55 -260h256l-11 -54h-256l-63 -292h284l-11 -54h-348l14 64h-2c-32 -51 -91 -76 -155 -76c-146 0 -204 113 -149 369
c54 256 160 369 306 369c76 0 109 -26 123 -70h2z" />
    <glyph glyph-name="ordmasculine" unicode="&#xba;" horiz-adv-x="277" 
d="M123 538c25 114 78 170 165 170c88 0 119 -56 94 -170c-24 -115 -78 -171 -166 -171c-87 0 -117 56 -93 171zM177 538c-19 -92 7 -127 48 -127c42 0 84 35 103 127c20 91 -7 126 -49 126c-41 0 -82 -35 -102 -126z" />
    <glyph glyph-name="ae" unicode="&#xe6;" horiz-adv-x="648" 
d="M186 373h-60c23 109 88 170 193 170c61 0 107 -26 108 -86h2c30 57 89 86 142 86c119 0 143 -90 103 -280h-274l-6 -29c-29 -135 3 -196 62 -196c58 0 116 58 134 138h60c-32 -120 -108 -188 -203 -188c-70 0 -106 44 -113 110h-2c-38 -77 -99 -110 -170 -110
c-93 0 -122 58 -103 150c19 90 64 127 164 152l76 19c40 11 56 24 67 78c16 76 -1 106 -59 106c-64 0 -104 -43 -121 -120zM293 264l-65 -17c-65 -17 -92 -48 -104 -105c-13 -62 10 -104 62 -104c47 0 114 38 135 137l24 111h-2c-8 -9 -29 -17 -50 -22zM411 313h210
c27 132 -5 180 -67 180c-61 0 -113 -48 -143 -180z" />
    <glyph glyph-name="dotlessi" unicode="&#x131;" horiz-adv-x="184" 
d="M62 0l113 531h60l-113 -531h-60z" />
    <glyph glyph-name="lslash" unicode="&#x142;" horiz-adv-x="184" 
d="M62 0l67 316l-76 -66l13 60l76 66l72 338h60l-58 -274l76 66l-13 -60l-76 -66l-81 -380h-60z" />
    <glyph glyph-name="oslash" unicode="&#xf8;" 
d="M143 101l233 368c-15 17 -35 24 -58 24c-67 0 -132 -58 -167 -227c-17 -76 -18 -129 -8 -165zM395 430l-232 -367c15 -18 35 -25 58 -25c67 0 131 58 168 228c15 75 17 129 6 164zM88 -55l-34 15l49 76c-33 44 -40 121 -16 230c39 184 124 277 241 277c33 0 60 -7 81 -22
l41 65l34 -16l-48 -75c33 -44 39 -121 17 -229c-40 -185 -126 -278 -243 -278c-33 0 -59 7 -80 23z" />
    <glyph glyph-name="oe" unicode="&#x153;" horiz-adv-x="704" 
d="M638 176h60c-32 -120 -108 -188 -203 -188c-58 0 -103 23 -114 110h-2c-35 -71 -94 -110 -161 -110c-117 0 -163 93 -123 278c39 184 124 277 241 277c69 0 116 -35 120 -111h2c33 70 88 111 161 111c119 0 143 -90 103 -280h-274l-6 -29c-29 -135 3 -196 62 -196
c58 0 116 58 134 138zM159 266c-37 -170 3 -228 66 -228s127 58 164 228c35 169 -4 227 -67 227s-128 -58 -163 -227zM459 313h210c27 132 -5 180 -67 180c-61 0 -113 -48 -143 -180z" />
    <glyph glyph-name="germandbls" unicode="&#xdf;" horiz-adv-x="444" 
d="M52 0l115 539c25 121 101 183 205 183c100 0 149 -60 126 -165c-12 -59 -53 -129 -134 -145l-1 -2c112 -13 113 -120 97 -194c-30 -139 -120 -222 -239 -222c-15 0 -31 2 -40 6l11 50c7 -4 17 -6 31 -6c75 0 148 54 174 176c22 105 -13 160 -108 160h-22l10 50h17
c69 0 122 41 140 124c14 67 -7 118 -75 118c-60 0 -112 -35 -134 -139l-113 -533h-60z" />
    <glyph glyph-name="onesuperior" unicode="&#xb9;" horiz-adv-x="312" 
d="M204 280l68 320h-108l7 36c80 1 120 29 132 72h45l-90 -428h-54z" />
    <glyph glyph-name="logicalnot" unicode="&#xac;" horiz-adv-x="600" 
d="M526 108l46 217h-456l11 50h506l-57 -267h-50z" />
    <glyph glyph-name="mu" unicode="&#xb5;" horiz-adv-x="444" 
d="M21 -176l150 707h60l-80 -374c-18 -86 4 -119 67 -119c68 0 128 54 145 136l76 357h60l-113 -531h-54l16 74h-2c-43 -59 -101 -86 -155 -86c-34 0 -61 7 -68 24h-2l-40 -188h-60z" />
    <glyph glyph-name="trademark" unicode="&#x2122;" horiz-adv-x="990" 
d="M241 302l78 368h-135l10 44h320l-10 -44h-135l-78 -368h-50zM735 380l199 334h86l-88 -412h-50l78 368h-2l-227 -368h-30l-71 368h-2l-78 -368h-50l88 412h86z" />
    <glyph glyph-name="Eth" unicode="&#xd0;" horiz-adv-x="537" 
d="M56 0l74 346h-56l11 54h56l67 314h172c208 0 232 -124 183 -357c-50 -233 -127 -357 -335 -357h-172zM205 400h160l-11 -54h-160l-63 -292h104c140 0 214 70 264 302c49 234 5 304 -135 304h-104z" />
    <glyph glyph-name="onehalf" unicode="&#xbd;" horiz-adv-x="721" 
d="M54 -30l611 756h50l-611 -756h-50zM204 280l68 320h-108l7 36c80 1 120 29 132 72h45l-90 -428h-54zM509 293h-54c19 84 72 135 166 135c68 0 118 -34 101 -115c-11 -51 -32 -86 -101 -131l-58 -37c-57 -36 -87 -65 -104 -101h207l-9 -44h-261c16 74 60 118 131 167
l58 39c53 36 74 65 82 105c11 51 -18 73 -59 73c-47 0 -83 -32 -99 -91z" />
    <glyph glyph-name="plusminus" unicode="&#xb1;" horiz-adv-x="600" 
d="M346 334l37 172h50l-37 -172h228l-11 -50h-228l-36 -172h-50l36 172h-228l11 50h228zM47 0l11 50h506l-11 -50h-506z" />
    <glyph glyph-name="Thorn" unicode="&#xde;" horiz-adv-x="480" 
d="M231 520l-63 -296h109c85 0 160 38 183 148s-35 148 -120 148h-109zM56 0l152 714h64l-30 -140h134c133 0 173 -83 148 -202c-23 -110 -98 -202 -261 -202h-107l-36 -170h-64z" />
    <glyph glyph-name="onequarter" unicode="&#xbc;" horiz-adv-x="721" 
d="M567 0l23 110h-186l8 36l236 282h60l-60 -282h54l-8 -36h-54l-23 -110h-50zM456 146h142l46 214h-2zM84 -30l611 756h50l-611 -756h-50zM204 280l68 320h-108l7 36c80 1 120 29 132 72h45l-90 -428h-54z" />
    <glyph glyph-name="divide" unicode="&#xf7;" horiz-adv-x="600" 
d="M95 228l11 50h506l-11 -50h-506zM343 459c6 30 36 55 66 55s50 -25 44 -55c-7 -30 -37 -55 -67 -55s-50 25 -43 55zM255 47c6 30 37 55 67 55s49 -25 43 -55s-37 -55 -67 -55s-49 25 -43 55z" />
    <glyph glyph-name="brokenbar" unicode="&#xa6;" horiz-adv-x="377" 
d="M239 735h50v-381h-50v381zM239 190h50v-380h-50v380z" />
    <glyph glyph-name="degree" unicode="&#xb0;" horiz-adv-x="400" 
d="M221 565c-12 -55 23 -99 78 -99s108 44 120 99s-23 99 -78 99s-108 -44 -120 -99zM177 565c17 79 94 143 173 143s130 -64 113 -143s-94 -143 -173 -143s-130 64 -113 143z" />
    <glyph glyph-name="thorn" unicode="&#xfe;" horiz-adv-x="444" 
d="M15 -176l189 890h60l-58 -271h2c29 61 88 100 145 100c117 0 150 -94 111 -278c-39 -183 -112 -277 -229 -277c-66 0 -103 36 -104 92h-2l-54 -256h-60zM168 265c-41 -196 7 -227 68 -227c60 0 123 31 164 227c42 197 -7 228 -67 228c-61 0 -123 -31 -165 -228z" />
    <glyph glyph-name="threequarters" unicode="&#xbe;" horiz-adv-x="721" 
d="M567 0l23 110h-186l8 36l236 282h60l-60 -282h54l-8 -36h-54l-23 -110h-50zM456 146h142l46 214h-2zM114 -30l611 756h50l-611 -756h-50zM221 481l10 44h18c55 0 93 29 101 69c9 39 -11 70 -55 70c-40 0 -80 -28 -91 -74h-54c15 71 66 118 154 118c78 0 116 -40 102 -105
c-10 -48 -42 -86 -94 -97l-1 -2c54 -7 78 -48 67 -101c-17 -77 -73 -130 -166 -130c-84 0 -122 42 -108 122h54c-7 -37 12 -78 63 -78c40 0 90 27 102 85c11 49 -19 79 -75 79h-27z" />
    <glyph glyph-name="twosuperior" unicode="&#xb2;" horiz-adv-x="312" 
d="M200 573h-54c19 84 71 135 165 135c68 0 118 -34 101 -115c-11 -51 -31 -86 -101 -131l-58 -37c-56 -36 -86 -65 -103 -101h207l-9 -44h-261c15 74 60 118 131 167l57 39c54 36 74 65 83 105c10 51 -19 73 -60 73c-47 0 -83 -32 -98 -91z" />
    <glyph glyph-name="registered" unicode="&#xae;" horiz-adv-x="800" 
d="M562 138l-88 195h-92l-42 -195h-50l94 439h169c99 0 133 -44 117 -122c-17 -77 -75 -112 -136 -122l88 -195h-60zM424 533l-33 -156h108c58 -1 108 17 121 79s-35 77 -88 77h-108zM107 357c43 204 243 369 447 369s334 -165 291 -369s-244 -369 -448 -369
s-333 165 -290 369zM157 357c-38 -176 75 -319 251 -319s349 143 387 319c37 176 -75 319 -251 319s-350 -143 -387 -319z" />
    <glyph glyph-name="minus" unicode="&#x2212;" horiz-adv-x="600" 
d="M95 228l11 50h506l-11 -50h-506z" />
    <glyph glyph-name="eth" unicode="&#xf0;" 
d="M149 260c-35 -164 5 -222 72 -222s131 58 166 222c35 163 -5 221 -72 221s-131 -58 -166 -221zM245 598l-31 32l83 44c-17 24 -37 46 -58 68l54 32c22 -23 42 -46 60 -72l81 42l30 -30l-85 -45c71 -100 112 -222 74 -403c-40 -185 -126 -278 -243 -278s-163 93 -125 272
c38 178 129 271 230 271c35 0 66 -12 87 -53l2 2c-22 58 -48 111 -81 159z" />
    <glyph glyph-name="multiply" unicode="&#xd7;" horiz-adv-x="600" 
d="M496 28l-150 190l-230 -190l-29 35l232 190l-151 191l44 35l149 -190l231 190l28 -35l-231 -191l150 -190z" />
    <glyph glyph-name="threesuperior" unicode="&#xb3;" horiz-adv-x="312" 
d="M221 481l10 44h18c55 0 93 29 101 69c9 39 -11 70 -55 70c-40 0 -80 -28 -91 -74h-54c15 71 66 118 154 118c78 0 116 -40 102 -105c-10 -48 -42 -86 -94 -97l-1 -2c54 -7 78 -48 67 -101c-17 -77 -73 -130 -166 -130c-84 0 -122 42 -108 122h54c-7 -37 12 -78 63 -78
c40 0 90 27 102 85c11 49 -19 79 -75 79h-27z" />
    <glyph glyph-name="copyright" unicode="&#xa9;" horiz-adv-x="800" 
d="M605 281h54c-42 -93 -127 -158 -221 -158c-136 0 -201 102 -173 234c29 135 131 233 269 233c97 0 165 -55 158 -153h-54c-1 58 -40 103 -114 103c-109 0 -183 -80 -205 -183c-20 -95 23 -184 130 -184c72 0 131 47 156 108zM107 357c43 204 243 369 447 369
s334 -165 291 -369s-244 -369 -448 -369s-333 165 -290 369zM157 357c-38 -176 75 -319 251 -319s349 143 387 319c37 176 -75 319 -251 319s-350 -143 -387 -319z" />
    <glyph glyph-name="Aacute" unicode="&#xc1;" horiz-adv-x="500" 
d="M195 262h222l-25 402h-2zM-1 0l363 714h80l59 -714h-68l-14 208h-250l-102 -208h-68zM471 889h71l-128 -141h-48z" />
    <glyph glyph-name="Acircumflex" unicode="&#xc2;" horiz-adv-x="500" 
d="M195 262h222l-25 402h-2zM-1 0l363 714h80l59 -714h-68l-14 208h-250l-102 -208h-68zM343 748h-60l126 141h60l66 -141h-60l-45 100z" />
    <glyph glyph-name="Adieresis" unicode="&#xc4;" horiz-adv-x="500" 
d="M195 262h222l-25 402h-2zM-1 0l363 714h80l59 -714h-68l-14 208h-250l-102 -208h-68zM308 769l22 102h60l-22 -102h-60zM458 769l22 102h60l-22 -102h-60z" />
    <glyph glyph-name="Agrave" unicode="&#xc0;" horiz-adv-x="500" 
d="M195 262h222l-25 402h-2zM-1 0l363 714h80l59 -714h-68l-14 208h-250l-102 -208h-68zM336 889h71l45 -141h-48z" />
    <glyph glyph-name="Aring" unicode="&#xc5;" horiz-adv-x="500" 
d="M195 262h222l-25 402h-2zM-1 0l363 714h80l59 -714h-68l-14 208h-250l-102 -208h-68zM332 832c11 52 63 95 115 95s86 -43 75 -95s-63 -95 -115 -95s-86 43 -75 95zM368 832c-7 -33 13 -59 46 -59s65 26 72 59s-14 59 -47 59s-64 -26 -71 -59z" />
    <glyph glyph-name="Atilde" unicode="&#xc3;" horiz-adv-x="500" 
d="M195 262h222l-25 402h-2zM-1 0l363 714h80l59 -714h-68l-14 208h-250l-102 -208h-68zM525 869h44c-10 -41 -50 -98 -98 -98c-18 0 -31 5 -46 15l-33 21c-9 5 -17 8 -23 8c-19 0 -37 -25 -46 -48h-44c11 42 54 98 97 98c23 0 33 -5 53 -18l23 -15c9 -6 19 -11 28 -11
c22 0 42 31 45 48z" />
    <glyph glyph-name="Ccedilla" unicode="&#xc7;" horiz-adv-x="519" 
d="M201 -81l63 69c-138 7 -191 120 -138 369c54 256 160 369 306 369c145 0 183 -103 159 -220h-64c20 97 -14 166 -106 166c-102 0 -182 -84 -231 -315s-5 -315 97 -315c90 0 157 77 190 200h64c-40 -151 -125 -241 -239 -252l-45 -46l2 -1c10 4 22 5 35 5
c43 0 71 -30 63 -67c-12 -56 -78 -85 -124 -85c-31 0 -67 10 -85 20l18 31c15 -8 35 -15 57 -15c48 0 74 20 79 44c5 25 -19 36 -46 36c-19 0 -33 -3 -46 -10z" />
    <glyph glyph-name="Eacute" unicode="&#xc9;" horiz-adv-x="444" 
d="M56 0l152 714h354l-12 -54h-290l-55 -260h271l-11 -54h-271l-63 -292h299l-11 -54h-363zM461 889h71l-128 -141h-48z" />
    <glyph glyph-name="Ecircumflex" unicode="&#xca;" horiz-adv-x="444" 
d="M56 0l152 714h354l-12 -54h-290l-55 -260h271l-11 -54h-271l-63 -292h299l-11 -54h-363zM333 748h-60l126 141h60l66 -141h-60l-45 100z" />
    <glyph glyph-name="Edieresis" unicode="&#xcb;" horiz-adv-x="444" 
d="M56 0l152 714h354l-12 -54h-290l-55 -260h271l-11 -54h-271l-63 -292h299l-11 -54h-363zM298 769l22 102h60l-22 -102h-60zM448 769l22 102h60l-22 -102h-60z" />
    <glyph glyph-name="Egrave" unicode="&#xc8;" horiz-adv-x="444" 
d="M56 0l152 714h354l-12 -54h-290l-55 -260h271l-11 -54h-271l-63 -292h299l-11 -54h-363zM326 889h71l45 -141h-48z" />
    <glyph glyph-name="Iacute" unicode="&#xcd;" horiz-adv-x="184" 
d="M60 0l152 714h64l-152 -714h-64zM313 889h71l-128 -141h-48z" />
    <glyph glyph-name="Icircumflex" unicode="&#xce;" horiz-adv-x="184" 
d="M60 0l152 714h64l-152 -714h-64zM185 748h-60l126 141h60l66 -141h-60l-45 100z" />
    <glyph glyph-name="Idieresis" unicode="&#xcf;" horiz-adv-x="184" 
d="M60 0l152 714h64l-152 -714h-64zM150 769l22 102h60l-22 -102h-60zM300 769l22 102h60l-22 -102h-60z" />
    <glyph glyph-name="Igrave" unicode="&#xcc;" horiz-adv-x="184" 
d="M60 0l152 714h64l-152 -714h-64zM178 889h71l45 -141h-48z" />
    <glyph glyph-name="Ntilde" unicode="&#xd1;" horiz-adv-x="537" 
d="M56 0l152 714h86l141 -622h2l132 622h64l-152 -714h-86l-141 622h-2l-132 -622h-64zM544 869h44c-10 -41 -50 -98 -98 -98c-18 0 -31 5 -46 15l-33 21c-9 5 -17 8 -23 8c-19 0 -37 -25 -46 -48h-44c11 42 54 98 97 98c23 0 33 -5 53 -18l23 -15c9 -6 19 -11 28 -11
c22 0 42 31 45 48z" />
    <glyph glyph-name="Oacute" unicode="&#xd3;" horiz-adv-x="556" 
d="M126 357c54 256 160 369 306 369s204 -113 150 -369c-55 -256 -161 -369 -307 -369s-204 113 -149 369zM190 357c-49 -231 -5 -315 97 -315s182 84 231 315s5 315 -97 315s-182 -84 -231 -315zM499 889h71l-128 -141h-48z" />
    <glyph glyph-name="Ocircumflex" unicode="&#xd4;" horiz-adv-x="556" 
d="M126 357c54 256 160 369 306 369s204 -113 150 -369c-55 -256 -161 -369 -307 -369s-204 113 -149 369zM190 357c-49 -231 -5 -315 97 -315s182 84 231 315s5 315 -97 315s-182 -84 -231 -315zM371 748h-60l126 141h60l66 -141h-60l-45 100z" />
    <glyph glyph-name="Odieresis" unicode="&#xd6;" horiz-adv-x="556" 
d="M126 357c54 256 160 369 306 369s204 -113 150 -369c-55 -256 -161 -369 -307 -369s-204 113 -149 369zM190 357c-49 -231 -5 -315 97 -315s182 84 231 315s5 315 -97 315s-182 -84 -231 -315zM336 769l22 102h60l-22 -102h-60zM486 769l22 102h60l-22 -102h-60z" />
    <glyph glyph-name="Ograve" unicode="&#xd2;" horiz-adv-x="556" 
d="M126 357c54 256 160 369 306 369s204 -113 150 -369c-55 -256 -161 -369 -307 -369s-204 113 -149 369zM190 357c-49 -231 -5 -315 97 -315s182 84 231 315s5 315 -97 315s-182 -84 -231 -315zM364 889h71l45 -141h-48z" />
    <glyph glyph-name="Otilde" unicode="&#xd5;" horiz-adv-x="556" 
d="M126 357c54 256 160 369 306 369s204 -113 150 -369c-55 -256 -161 -369 -307 -369s-204 113 -149 369zM190 357c-49 -231 -5 -315 97 -315s182 84 231 315s5 315 -97 315s-182 -84 -231 -315zM553 869h44c-10 -41 -50 -98 -98 -98c-18 0 -31 5 -46 15l-33 21
c-9 5 -17 8 -23 8c-19 0 -37 -25 -46 -48h-44c11 42 54 98 97 98c23 0 33 -5 53 -18l23 -15c9 -6 19 -11 28 -11c22 0 42 31 45 48z" />
    <glyph glyph-name="Scaron" unicode="&#x160;" horiz-adv-x="480" 
d="M546 531h-64c19 88 -11 141 -98 141s-147 -57 -162 -128c-46 -213 325 -96 272 -347c-29 -138 -131 -209 -261 -209c-134 0 -192 72 -162 212l4 21h64l-6 -27c-19 -91 16 -152 110 -152c90 0 163 45 185 145c45 212 -327 91 -272 350c24 112 113 189 237 189
c133 0 180 -68 153 -195zM302 889h60l45 -101l89 101h60l-128 -141h-60z" />
    <glyph glyph-name="Uacute" unicode="&#xda;" horiz-adv-x="500" 
d="M89 200l109 514h64l-109 -513c-23 -107 12 -159 106 -159s151 52 174 159l109 513h64l-109 -514c-32 -150 -119 -212 -250 -212s-190 62 -158 212zM471 889h71l-128 -141h-48z" />
    <glyph glyph-name="Ucircumflex" unicode="&#xdb;" horiz-adv-x="500" 
d="M89 200l109 514h64l-109 -513c-23 -107 12 -159 106 -159s151 52 174 159l109 513h64l-109 -514c-32 -150 -119 -212 -250 -212s-190 62 -158 212zM343 748h-60l126 141h60l66 -141h-60l-45 100z" />
    <glyph glyph-name="Udieresis" unicode="&#xdc;" horiz-adv-x="500" 
d="M89 200l109 514h64l-109 -513c-23 -107 12 -159 106 -159s151 52 174 159l109 513h64l-109 -514c-32 -150 -119 -212 -250 -212s-190 62 -158 212zM308 769l22 102h60l-22 -102h-60zM458 769l22 102h60l-22 -102h-60z" />
    <glyph glyph-name="Ugrave" unicode="&#xd9;" horiz-adv-x="500" 
d="M89 200l109 514h64l-109 -513c-23 -107 12 -159 106 -159s151 52 174 159l109 513h64l-109 -514c-32 -150 -119 -212 -250 -212s-190 62 -158 212zM336 889h71l45 -141h-48z" />
    <glyph glyph-name="Yacute" unicode="&#xdd;" horiz-adv-x="444" 
d="M190 0l61 286l-102 428h68l81 -356l233 356h68l-284 -428l-61 -286h-64zM443 889h71l-128 -141h-48z" />
    <glyph glyph-name="Ydieresis" unicode="&#x178;" horiz-adv-x="444" 
d="M190 0l61 286l-102 428h68l81 -356l233 356h68l-284 -428l-61 -286h-64zM280 769l22 102h60l-22 -102h-60zM430 769l22 102h60l-22 -102h-60z" />
    <glyph glyph-name="Zcaron" unicode="&#x17d;" horiz-adv-x="462" 
d="M22 0l13 60l475 600h-328l12 54h393l-13 -60l-470 -600h347l-11 -54h-418zM293 889h60l45 -101l89 101h60l-128 -141h-60z" />
    <glyph glyph-name="aacute" unicode="&#xe1;" 
d="M186 373h-60c23 109 88 170 200 170c110 0 138 -57 120 -141l-66 -314c-7 -30 0 -44 21 -44h17l-9 -44c-12 -4 -21 -6 -29 -6c-47 0 -75 11 -63 66l4 18h-2c-39 -70 -98 -90 -157 -90c-93 0 -122 58 -103 150c15 70 59 126 139 147l119 32c45 12 56 22 69 84
c15 68 -18 92 -72 92c-71 0 -111 -43 -128 -120zM341 188l24 112h-2c-10 -18 -46 -29 -72 -35l-52 -13c-64 -16 -101 -47 -115 -110c-13 -62 10 -104 62 -104c73 0 135 55 155 150zM402 738h71l-128 -141h-48z" />
    <glyph glyph-name="acircumflex" unicode="&#xe2;" 
d="M186 373h-60c23 109 88 170 200 170c110 0 138 -57 120 -141l-66 -314c-7 -30 0 -44 21 -44h17l-9 -44c-12 -4 -21 -6 -29 -6c-47 0 -75 11 -63 66l4 18h-2c-39 -70 -98 -90 -157 -90c-93 0 -122 58 -103 150c15 70 59 126 139 147l119 32c45 12 56 22 69 84
c15 68 -18 92 -72 92c-71 0 -111 -43 -128 -120zM341 188l24 112h-2c-10 -18 -46 -29 -72 -35l-52 -13c-64 -16 -101 -47 -115 -110c-13 -62 10 -104 62 -104c73 0 135 55 155 150zM274 597h-60l126 141h60l66 -141h-60l-45 100z" />
    <glyph glyph-name="adieresis" unicode="&#xe4;" 
d="M186 373h-60c23 109 88 170 200 170c110 0 138 -57 120 -141l-66 -314c-7 -30 0 -44 21 -44h17l-9 -44c-12 -4 -21 -6 -29 -6c-47 0 -75 11 -63 66l4 18h-2c-39 -70 -98 -90 -157 -90c-93 0 -122 58 -103 150c15 70 59 126 139 147l119 32c45 12 56 22 69 84
c15 68 -18 92 -72 92c-71 0 -111 -43 -128 -120zM341 188l24 112h-2c-10 -18 -46 -29 -72 -35l-52 -13c-64 -16 -101 -47 -115 -110c-13 -62 10 -104 62 -104c73 0 135 55 155 150zM239 618l22 102h60l-22 -102h-60zM389 618l22 102h60l-22 -102h-60z" />
    <glyph glyph-name="agrave" unicode="&#xe0;" 
d="M186 373h-60c23 109 88 170 200 170c110 0 138 -57 120 -141l-66 -314c-7 -30 0 -44 21 -44h17l-9 -44c-12 -4 -21 -6 -29 -6c-47 0 -75 11 -63 66l4 18h-2c-39 -70 -98 -90 -157 -90c-93 0 -122 58 -103 150c15 70 59 126 139 147l119 32c45 12 56 22 69 84
c15 68 -18 92 -72 92c-71 0 -111 -43 -128 -120zM341 188l24 112h-2c-10 -18 -46 -29 -72 -35l-52 -13c-64 -16 -101 -47 -115 -110c-13 -62 10 -104 62 -104c73 0 135 55 155 150zM267 738h71l45 -141h-48z" />
    <glyph glyph-name="aring" unicode="&#xe5;" 
d="M186 373h-60c23 109 88 170 200 170c110 0 138 -57 120 -141l-66 -314c-7 -30 0 -44 21 -44h17l-9 -44c-12 -4 -21 -6 -29 -6c-47 0 -75 11 -63 66l4 18h-2c-39 -70 -98 -90 -157 -90c-93 0 -122 58 -103 150c15 70 59 126 139 147l119 32c45 12 56 22 69 84
c15 68 -18 92 -72 92c-71 0 -111 -43 -128 -120zM341 188l24 112h-2c-10 -18 -46 -29 -72 -35l-52 -13c-64 -16 -101 -47 -115 -110c-13 -62 10 -104 62 -104c73 0 135 55 155 150zM263 681c11 52 63 95 115 95s86 -43 75 -95s-63 -95 -115 -95s-86 43 -75 95zM299 681
c-7 -33 13 -59 46 -59s65 26 72 59s-14 59 -47 59s-64 -26 -71 -59z" />
    <glyph glyph-name="atilde" unicode="&#xe3;" 
d="M186 373h-60c23 109 88 170 200 170c110 0 138 -57 120 -141l-66 -314c-7 -30 0 -44 21 -44h17l-9 -44c-12 -4 -21 -6 -29 -6c-47 0 -75 11 -63 66l4 18h-2c-39 -70 -98 -90 -157 -90c-93 0 -122 58 -103 150c15 70 59 126 139 147l119 32c45 12 56 22 69 84
c15 68 -18 92 -72 92c-71 0 -111 -43 -128 -120zM341 188l24 112h-2c-10 -18 -46 -29 -72 -35l-52 -13c-64 -16 -101 -47 -115 -110c-13 -62 10 -104 62 -104c73 0 135 55 155 150zM456 718h44c-10 -41 -50 -98 -98 -98c-18 0 -31 5 -46 15l-34 21c-9 5 -16 8 -22 8
c-19 0 -37 -25 -46 -48h-44c11 42 54 98 97 98c23 0 33 -5 53 -18l23 -15c8 -6 18 -11 27 -11c22 0 43 31 46 48z" />
    <glyph glyph-name="ccedilla" unicode="&#xe7;" horiz-adv-x="407" 
d="M136 -81l63 69c-107 3 -154 82 -112 278c39 184 124 277 241 277c100 0 145 -61 128 -170h-60c11 83 -14 120 -78 120c-65 0 -128 -40 -168 -228c-42 -200 9 -227 65 -227c61 0 110 45 139 138h60c-29 -100 -94 -171 -176 -186l-46 -46l2 -1c10 4 22 5 35 5
c43 0 71 -30 63 -67c-12 -56 -78 -85 -124 -85c-31 0 -67 10 -85 20l18 31c15 -8 35 -15 57 -15c48 0 74 20 79 44c5 25 -19 36 -46 36c-19 0 -33 -3 -46 -10z" />
    <glyph glyph-name="eacute" unicode="&#xe9;" 
d="M362 176h60c-33 -113 -111 -188 -211 -188c-112 0 -161 78 -118 278c39 184 124 277 241 277c118 0 154 -81 117 -258l-5 -22h-290l-5 -25c-33 -153 11 -200 70 -200c63 0 112 45 141 138zM167 313h226c26 132 -1 180 -75 180s-121 -48 -151 -180zM407 738h71l-128 -141
h-48z" />
    <glyph glyph-name="ecircumflex" unicode="&#xea;" 
d="M362 176h60c-33 -113 -111 -188 -211 -188c-112 0 -161 78 -118 278c39 184 124 277 241 277c118 0 154 -81 117 -258l-5 -22h-290l-5 -25c-33 -153 11 -200 70 -200c63 0 112 45 141 138zM167 313h226c26 132 -1 180 -75 180s-121 -48 -151 -180zM279 597h-60l126 141
h60l66 -141h-60l-45 100z" />
    <glyph glyph-name="edieresis" unicode="&#xeb;" 
d="M362 176h60c-33 -113 -111 -188 -211 -188c-112 0 -161 78 -118 278c39 184 124 277 241 277c118 0 154 -81 117 -258l-5 -22h-290l-5 -25c-33 -153 11 -200 70 -200c63 0 112 45 141 138zM167 313h226c26 132 -1 180 -75 180s-121 -48 -151 -180zM244 618l22 102h60
l-22 -102h-60zM394 618l22 102h60l-22 -102h-60z" />
    <glyph glyph-name="egrave" unicode="&#xe8;" 
d="M362 176h60c-33 -113 -111 -188 -211 -188c-112 0 -161 78 -118 278c39 184 124 277 241 277c118 0 154 -81 117 -258l-5 -22h-290l-5 -25c-33 -153 11 -200 70 -200c63 0 112 45 141 138zM167 313h226c26 132 -1 180 -75 180s-121 -48 -151 -180zM272 738h71l45 -141
h-48z" />
    <glyph glyph-name="iacute" unicode="&#xed;" horiz-adv-x="184" 
d="M62 0l113 531h60l-113 -531h-60zM281 738h71l-128 -141h-48z" />
    <glyph glyph-name="icircumflex" unicode="&#xee;" horiz-adv-x="184" 
d="M62 0l113 531h60l-113 -531h-60zM153 597h-60l126 141h60l66 -141h-60l-45 100z" />
    <glyph glyph-name="idieresis" unicode="&#xef;" horiz-adv-x="184" 
d="M62 0l113 531h60l-113 -531h-60zM118 618l22 102h60l-22 -102h-60zM268 618l22 102h60l-22 -102h-60z" />
    <glyph glyph-name="igrave" unicode="&#xec;" horiz-adv-x="184" 
d="M62 0l113 531h60l-113 -531h-60zM146 738h71l45 -141h-48z" />
    <glyph glyph-name="ntilde" unicode="&#xf1;" horiz-adv-x="444" 
d="M58 0l113 531h54l-16 -74h2c43 59 100 86 154 86c81 0 127 -42 106 -142l-85 -401h-60l82 384c15 73 -7 109 -68 109c-70 0 -129 -54 -146 -136l-76 -357h-60zM465 718h44c-10 -41 -50 -98 -98 -98c-18 0 -31 5 -46 15l-34 21c-9 5 -16 8 -22 8c-19 0 -37 -25 -46 -48
h-44c11 42 54 98 97 98c23 0 33 -5 53 -18l23 -15c8 -6 18 -11 27 -11c22 0 43 31 46 48z" />
    <glyph glyph-name="oacute" unicode="&#xf3;" 
d="M87 266c39 184 124 277 241 277s164 -93 125 -277c-40 -185 -126 -278 -243 -278s-163 93 -123 278zM151 266c-37 -170 3 -228 70 -228s131 58 168 228c35 169 -4 227 -71 227s-132 -58 -167 -227zM402 738h71l-128 -141h-48z" />
    <glyph glyph-name="ocircumflex" unicode="&#xf4;" 
d="M87 266c39 184 124 277 241 277s164 -93 125 -277c-40 -185 -126 -278 -243 -278s-163 93 -123 278zM151 266c-37 -170 3 -228 70 -228s131 58 168 228c35 169 -4 227 -71 227s-132 -58 -167 -227zM274 597h-60l126 141h60l66 -141h-60l-45 100z" />
    <glyph glyph-name="odieresis" unicode="&#xf6;" 
d="M87 266c39 184 124 277 241 277s164 -93 125 -277c-40 -185 -126 -278 -243 -278s-163 93 -123 278zM151 266c-37 -170 3 -228 70 -228s131 58 168 228c35 169 -4 227 -71 227s-132 -58 -167 -227zM239 618l22 102h60l-22 -102h-60zM389 618l22 102h60l-22 -102h-60z" />
    <glyph glyph-name="ograve" unicode="&#xf2;" 
d="M87 266c39 184 124 277 241 277s164 -93 125 -277c-40 -185 -126 -278 -243 -278s-163 93 -123 278zM151 266c-37 -170 3 -228 70 -228s131 58 168 228c35 169 -4 227 -71 227s-132 -58 -167 -227zM267 738h71l45 -141h-48z" />
    <glyph glyph-name="otilde" unicode="&#xf5;" 
d="M87 266c39 184 124 277 241 277s164 -93 125 -277c-40 -185 -126 -278 -243 -278s-163 93 -123 278zM151 266c-37 -170 3 -228 70 -228s131 58 168 228c35 169 -4 227 -71 227s-132 -58 -167 -227zM456 718h44c-10 -41 -50 -98 -98 -98c-18 0 -31 5 -46 15l-34 21
c-9 5 -16 8 -22 8c-19 0 -37 -25 -46 -48h-44c11 42 54 98 97 98c23 0 33 -5 53 -18l23 -15c8 -6 18 -11 27 -11c22 0 43 31 46 48z" />
    <glyph glyph-name="scaron" unicode="&#x161;" horiz-adv-x="389" 
d="M275 231l-77 33c-69 29 -86 73 -75 126c23 109 100 153 190 153c100 0 136 -51 115 -148l-3 -15h-60l3 15c15 69 -11 98 -66 98c-70 0 -105 -37 -116 -90c-8 -37 -2 -66 53 -89l80 -33c66 -27 82 -77 70 -135c-19 -91 -86 -158 -198 -158c-109 0 -153 45 -127 165l3 17
h60l-3 -14c-16 -78 9 -118 77 -118c64 0 113 36 125 95c10 47 -2 77 -51 98zM225 738h60l45 -101l89 101h60l-128 -141h-60z" />
    <glyph glyph-name="uacute" unicode="&#xfa;" horiz-adv-x="444" 
d="M86 130l85 401h60l-80 -374c-18 -86 4 -119 67 -119c68 0 128 54 145 136l76 357h60l-113 -531h-54l16 74h-2c-43 -59 -101 -86 -155 -86c-81 0 -127 42 -105 142zM411 738h71l-128 -141h-48z" />
    <glyph glyph-name="ucircumflex" unicode="&#xfb;" horiz-adv-x="444" 
d="M86 130l85 401h60l-80 -374c-18 -86 4 -119 67 -119c68 0 128 54 145 136l76 357h60l-113 -531h-54l16 74h-2c-43 -59 -101 -86 -155 -86c-81 0 -127 42 -105 142zM283 597h-60l126 141h60l66 -141h-60l-45 100z" />
    <glyph glyph-name="udieresis" unicode="&#xfc;" horiz-adv-x="444" 
d="M86 130l85 401h60l-80 -374c-18 -86 4 -119 67 -119c68 0 128 54 145 136l76 357h60l-113 -531h-54l16 74h-2c-43 -59 -101 -86 -155 -86c-81 0 -127 42 -105 142zM248 618l22 102h60l-22 -102h-60zM398 618l22 102h60l-22 -102h-60z" />
    <glyph glyph-name="ugrave" unicode="&#xf9;" horiz-adv-x="444" 
d="M86 130l85 401h60l-80 -374c-18 -86 4 -119 67 -119c68 0 128 54 145 136l76 357h60l-113 -531h-54l16 74h-2c-43 -59 -101 -86 -155 -86c-81 0 -127 42 -105 142zM276 738h71l45 -141h-48z" />
    <glyph glyph-name="yacute" unicode="&#xfd;" horiz-adv-x="370" 
d="M159 -5l-39 536h64l21 -460h2l205 460h64l-277 -574c-50 -104 -88 -133 -169 -133c-16 0 -28 1 -40 2l11 50c12 -1 25 -2 38 -2c37 0 65 15 94 71zM374 738h71l-128 -141h-48z" />
    <glyph glyph-name="ydieresis" unicode="&#xff;" horiz-adv-x="370" 
d="M159 -5l-39 536h64l21 -460h2l205 460h64l-277 -574c-50 -104 -88 -133 -169 -133c-16 0 -28 1 -40 2l11 50c12 -1 25 -2 38 -2c37 0 65 15 94 71zM211 618l22 102h60l-22 -102h-60zM361 618l22 102h60l-22 -102h-60z" />
    <glyph glyph-name="zcaron" unicode="&#x17e;" horiz-adv-x="352" 
d="M18 0l11 50l343 431h-239l11 50h303l-11 -50l-343 -431h252l-11 -50h-316zM206 738h60l45 -101l89 101h60l-128 -141h-60z" />
    <glyph glyph-name="Delta" unicode="&#x2206;" horiz-adv-x="560" 
d="M30 0l9 41l363 671h62l76 -670l-9 -42h-501zM95 47h387l-47 407c-4 54 -18 133 -19 181h-4c-17 -42 -61 -114 -88 -168z" />
    <glyph glyph-name="Omega" unicode="&#x2126;" horiz-adv-x="622" 
d="M188 49l1 3c-51 67 -83 179 -53 321c44 204 184 332 328 332c150 0 218 -144 179 -328c-31 -148 -116 -265 -190 -325l-1 -3h133l-10 -49h-202l8 36c81 57 171 177 204 329c27 131 -2 290 -133 290c-122 0 -227 -127 -261 -290c-31 -144 8 -275 65 -329l-8 -36h-202
l10 49h132z" />
    <glyph glyph-name="uni03BC" unicode="&#x3bc;" horiz-adv-x="444" 
d="M21 -176l150 707h60l-80 -374c-18 -86 4 -119 67 -119c68 0 128 54 145 136l76 357h60l-113 -531h-54l16 74h-2c-43 -59 -101 -86 -155 -86c-34 0 -61 7 -68 24h-2l-40 -188h-60z" />
    <glyph glyph-name="pi" unicode="&#x3c0;" horiz-adv-x="491" 
d="M564 465h-71l-69 -324c-17 -81 -19 -117 -17 -141h-53c-5 15 -3 55 14 135l70 330h-165c-34 -136 -111 -371 -165 -465h-54c58 106 130 323 164 465c-57 0 -82 -5 -101 -12l-2 38c24 14 61 24 126 24h339z" />
    <glyph glyph-name="Euro" unicode="&#x20ac;" horiz-adv-x="480" 
d="M618 665l-35 -55c-39 27 -71 47 -124 47c-121 0 -176 -106 -208 -207h257l-30 -54h-243c-3 -11 -5 -21 -8 -32l-6 -32h229l-31 -54h-209c-15 -109 -19 -240 117 -240c59 0 100 27 151 64l-16 -73c-51 -31 -92 -41 -147 -41c-181 0 -195 135 -173 290h-69l30 54h49l6 32
c3 11 5 21 8 32h-68l30 54h54c46 143 131 260 292 260c57 0 101 -18 144 -45z" />
    <glyph glyph-name="afii61289" unicode="&#x2113;" horiz-adv-x="421" 
d="M398 128l23 -23c-50 -70 -111 -112 -180 -112c-103 0 -123 86 -102 194l3 14c-19 -14 -41 -30 -61 -46l-13 34c30 24 60 45 86 68l59 277c38 179 117 231 179 231c69 0 90 -64 71 -153c-27 -126 -125 -248 -259 -366l-7 -34c-27 -128 8 -173 63 -173c56 0 107 48 138 89z
M266 538l-49 -230c100 95 184 197 207 303c14 67 4 108 -43 108c-36 0 -86 -47 -115 -181z" />
    <glyph glyph-name="estimated" unicode="&#x212e;" horiz-adv-x="1018" 
d="M984 338h-648c-3 0 -5 -1 -5 -4v-196c0 -9 3 -16 9 -23c62 -65 149 -106 245 -106c103 0 194 47 257 119h58c-72 -84 -188 -139 -316 -139c-221 0 -400 160 -400 359s179 360 400 360s400 -161 400 -360v-10zM837 363v198c0 8 -3 17 -10 23c-62 62 -148 102 -242 102
c-95 0 -181 -41 -244 -105c-7 -7 -10 -15 -10 -25v-193c0 -2 2 -6 5 -6h497c3 0 4 4 4 6z" />
    <glyph glyph-name="partialdiff" unicode="&#x2202;" horiz-adv-x="473" 
d="M235 682l-12 43c36 26 85 53 153 53c109 0 194 -109 138 -373c-52 -246 -164 -412 -311 -412c-109 0 -143 102 -117 225c33 155 145 254 242 254c79 0 117 -57 126 -88h1c3 11 7 30 10 42c38 183 -14 303 -104 303c-54 0 -96 -24 -126 -47zM217 41h1
c87 0 172 126 215 276c-4 48 -39 107 -108 107c-76 0 -159 -92 -183 -205c-23 -108 6 -178 75 -178z" />
    <glyph glyph-name="product" unicode="&#x220f;" horiz-adv-x="751" 
d="M727 641h-94v-737h-55v737h-257v-737h-55v737h-94v53h555v-53z" />
    <glyph glyph-name="summation" unicode="&#x2211;" horiz-adv-x="631" 
d="M611 -96h-442v40l242 354l-231 355v41h416v-50h-340v-3l219 -335l-236 -343v-4h372v-55z" />
    <glyph glyph-name="uni2219" unicode="&#x2219;" horiz-adv-x="240" 
d="M135 328c6 30 36 55 66 55s50 -25 44 -55c-7 -30 -37 -55 -67 -55s-50 25 -43 55z" />
    <glyph glyph-name="radical" unicode="&#x221a;" horiz-adv-x="654" 
d="M650 824l-194 -976h-51l-146 470l-65 -24l-12 37l114 43l117 -374c6 -24 12 -55 15 -73h1c3 18 7 46 12 71l167 826h42z" />
    <glyph glyph-name="infinity" unicode="&#x221e;" horiz-adv-x="797" 
d="M751 290v-1c0 -86 -66 -142 -138 -142c-58 0 -103 37 -168 109c-48 -54 -99 -109 -173 -109s-135 61 -135 139c0 81 59 142 141 142c69 0 122 -54 170 -111c49 55 96 111 172 111c79 0 131 -57 131 -138zM277 185h1c60 0 106 59 145 100c-41 50 -85 106 -152 106
c-59 0 -93 -50 -92 -106c0 -56 39 -100 98 -100zM616 391h-1c-63 0 -114 -70 -146 -103c62 -66 97 -103 148 -103c59 0 93 51 93 101c0 67 -41 105 -94 105z" />
    <glyph glyph-name="integral" unicode="&#x222b;" horiz-adv-x="466" 
d="M451 832l-12 -40c-7 5 -20 9 -32 9c-15 0 -33 -7 -45 -24c-23 -30 -32 -80 -32 -180c0 -154 12 -350 12 -507c0 -111 -19 -168 -41 -202c-19 -29 -50 -44 -83 -44c-22 0 -45 8 -54 15l11 42c8 -3 23 -10 40 -10c15 0 32 8 42 24c18 25 31 72 31 175
c0 159 -11 359 -11 512c0 107 12 167 47 206c21 24 50 37 80 37c17 0 37 -7 47 -13z" />
    <glyph glyph-name="approxequal" unicode="&#x2248;" horiz-adv-x="588" 
d="M521 412l25 -20c-22 -48 -57 -88 -114 -88c-35 0 -61 15 -104 39c-29 17 -55 31 -84 31c-42 0 -67 -31 -89 -69l-27 20c27 55 70 87 122 87c44 0 77 -25 101 -38c31 -17 53 -32 85 -32c36 0 60 24 85 70zM521 261l25 -20c-22 -48 -57 -87 -113 -87c-36 0 -61 14 -105 38
c-29 17 -54 32 -84 32c-42 0 -67 -33 -89 -70l-27 20c27 55 70 88 121 88c45 0 78 -25 102 -38c30 -17 53 -32 85 -32c37 0 60 24 85 69z" />
    <glyph glyph-name="notequal" unicode="&#x2260;" horiz-adv-x="604" 
d="M458 479l-41 -90h141v-40h-157l-61 -134h218v-39h-234l-48 -106l-31 14l41 92h-135v39h152l60 134h-212v40h228l47 104z" />
    <glyph glyph-name="lessequal" unicode="&#x2264;" horiz-adv-x="620" 
d="M572 106l-400 210v40l399 210v-49l-356 -179v-2l357 -181v-49zM574 25h-407v41h407v-41z" />
    <glyph glyph-name="greaterequal" unicode="&#x2265;" horiz-adv-x="620" 
d="M172 566l400 -210v-40l-400 -210v49l356 180v2l-356 180v49zM574 25h-407v41h407v-41z" />
    <glyph glyph-name="lozenge" unicode="&#x25ca;" horiz-adv-x="656" 
d="M606 347l-181 -385h-46l-178 385l180 385h46zM553 345l-132 283c-7 16 -14 38 -17 52h-2c-4 -15 -9 -33 -17 -52l-132 -280l133 -284c8 -20 14 -39 16 -51h3c3 12 10 36 16 50z" />
    <glyph glyph-name="uni00A0" unicode="&#xa0;" horiz-adv-x="240" 
 />
    <glyph glyph-name="uni00AD" unicode="&#xad;" horiz-adv-x="333" 
d="M124 311h217l-11 -54h-217z" />
    <glyph glyph-name="uni02C9" unicode="&#x2c9;" horiz-adv-x="186" 
d="M111 646l10 44h238l-10 -44h-238z" />
    <glyph glyph-name="uni03A9" unicode="&#x3a9;" horiz-adv-x="622" 
d="M188 49l1 3c-51 67 -83 179 -53 321c44 204 184 332 328 332c150 0 218 -144 179 -328c-31 -148 -116 -265 -190 -325l-1 -3h133l-10 -49h-202l8 36c81 57 171 177 204 329c27 131 -2 290 -133 290c-122 0 -227 -127 -261 -290c-31 -144 8 -275 65 -329l-8 -36h-202
l10 49h132z" />
    <glyph glyph-name="uni2215" unicode="&#x2215;" horiz-adv-x="167" 
d="M-173 -30l611 756h50l-611 -756h-50z" />
    </font>
</defs>
</svg>
