<?xml version="1.0" standalone="no"?>
<!DOCTYPE svg PUBLIC "-//W3C//DTD SVG 1.1//EN" "http://www.w3.org/Graphics/SVG/1.1/DTD/svg11.dtd" >
<svg xmlns="http://www.w3.org/2000/svg" width="100%" height="100%">
<metadata>
Created by FontXChange 20110222 at Wed Sep  7 14:40:38 2016
 By Raymond Gardener
 The digitally encoded machine readable software for producing the
 Typefaces licensed to you is copyrighted (c) 1990, 2002 Adobe Systems.
 All Rights Reserved. This software is the property of Adobe Systems
 Incorporated and its licensors, and may not be reproduced, used,
 displayed, modified, disclosed or transferred without the express
 written approval of Adobe.

 The digitally encoded machine readable outline data for producing the Typefaces
 provided as part of your laser printer is copyrighted (c) 1981, 2002 Heidelberger Druckmaschinen AG.
 All rights reserved. This data is the property of Heidelberger Druckmaschinen AG,
 and may not be reproduced, used, displayed, modified, disclosed or transferred
 without the express written approval of Heidelberger Druckmaschinen AG. 
</metadata>
<defs>
<font id="HelveticaNeueLTStd-LtExO" horiz-adv-x="668" >
  <font-face 
    font-family="HelveticaNeueLTStd"
    font-weight="300"
    font-style="italic"
    font-stretch="expanded"
    units-per-em="1000"
    panose-1="2 11 5 3 2 2 2 2 2 4"
    ascent="714"
    descent="-286"
    x-height="520"
    cap-height="714"
    bbox="-163 -277 1283 953"
    underline-thickness="50"
    underline-position="-50"
    slope="-12"
    stemh="62"
    stemv="74"
    unicode-range="U+0020-FB02"
  />
<missing-glyph horiz-adv-x="648" 
d="M148 0v700h500v-700h-500zM398 395l170 255h-340zM428 350l170 -255v510zM228 50h340l-170 255zM198 605v-510l170 255z" />
    <glyph glyph-name="fi" unicode="fi" horiz-adv-x="500" 
d="M107 0l99 464h-113l12 56h113l14 69c21 98 77 131 174 131c28 0 60 -2 82 -4l-13 -62c-23 2 -45 4 -68 4c-66 0 -90 -17 -103 -77l-12 -61h147l-12 -56h-147l-99 -464h-74zM371 0l111 520h74l-111 -520h-74zM501 610l23 110h74l-23 -110h-74z" />
    <glyph glyph-name="fl" unicode="fl" horiz-adv-x="500" 
d="M371 0l153 720h74l-153 -720h-74zM107 0l99 464h-113l12 56h113l14 69c21 98 77 131 174 131c28 0 60 -2 82 -4l-13 -62c-23 2 -45 4 -68 4c-66 0 -90 -17 -103 -77l-12 -61h147l-12 -56h-147l-99 -464h-74z" />
    <glyph glyph-name=".notdef" horiz-adv-x="648" 
d="M148 0v700h500v-700h-500zM398 395l170 255h-340zM428 350l170 -255v510zM228 50h340l-170 255zM198 605v-510l170 255z" />
    <glyph glyph-name="space" unicode=" " horiz-adv-x="278" 
 />
    <glyph glyph-name="exclam" unicode="!" horiz-adv-x="296" 
d="M105 0l23 110h86l-23 -110h-86zM165 185l55 340l40 189h80l-40 -189l-91 -340h-44z" />
    <glyph glyph-name="quotedbl" unicode="&#x22;" horiz-adv-x="407" 
d="M200 464l53 250h56l-53 -250h-56zM349 464l53 250h56l-53 -250h-56z" />
    <glyph glyph-name="numbersign" unicode="#" 
d="M164 0l80 226h-114l9 44h120l55 154h-114l9 44h120l81 226h50l-81 -226h142l81 226h50l-81 -226h114l-9 -44h-120l-55 -154h114l-9 -44h-120l-80 -226h-50l80 226h-142l-80 -226h-50zM451 270l55 154h-142l-55 -154h142z" />
    <glyph glyph-name="dollar" unicode="$" 
d="M391 396l52 244c-112 -4 -192 -44 -209 -123s61 -105 157 -121zM430 317l-56 -265c102 1 209 32 231 134c14 66 -30 112 -175 131zM318 52l58 273c-128 21 -253 49 -224 185c31 144 172 195 305 198l13 61h56l-13 -61c132 -7 243 -62 216 -213h-74
c13 104 -59 138 -156 145l-54 -255c197 -27 265 -81 242 -186c-35 -164 -192 -213 -327 -215l-21 -97h-56l21 97c-162 8 -269 70 -232 245h74c-28 -128 57 -170 172 -177z" />
    <glyph glyph-name="percent" unicode="%" horiz-adv-x="963" 
d="M733 34c71 0 125 54 144 144s-12 144 -83 144s-124 -54 -143 -144s11 -144 82 -144zM210 -16l629 724h59l-629 -724h-59zM316 370c71 0 124 54 143 144s-11 144 -82 144s-125 -54 -144 -144s12 -144 83 -144zM723 -16c-100 0 -161 66 -134 194s116 194 216 194
s161 -66 134 -194s-116 -194 -216 -194zM305 320c-100 0 -161 66 -134 194s116 194 216 194s161 -66 134 -194s-116 -194 -216 -194z" />
    <glyph glyph-name="ampersand" unicode="&#x26;" horiz-adv-x="778" 
d="M586 132l-197 234c-122 -42 -186 -94 -203 -173c-16 -75 30 -147 169 -147c84 0 152 19 231 86zM698 0l-74 89c-65 -64 -172 -105 -286 -105c-181 0 -251 91 -225 213c21 99 92 155 243 212c-42 49 -71 90 -57 157c19 88 101 148 206 148c130 0 157 -79 143 -145
c-20 -92 -105 -142 -186 -173l175 -207c28 29 54 90 64 120h68c-8 -38 -41 -108 -92 -165l122 -144h-101zM579 565c10 46 -13 87 -93 87c-51 0 -107 -32 -118 -83c-6 -29 -5 -55 58 -134c94 37 142 79 153 130z" />
    <glyph glyph-name="quoteright" unicode="&#x2019;" horiz-adv-x="278" 
d="M224 604l24 110h86l-24 -112c-18 -83 -66 -123 -124 -138l8 38c44 18 56 52 66 102h-36z" />
    <glyph glyph-name="parenleft" unicode="(" horiz-adv-x="352" 
d="M414 714h56c-83 -90 -210 -227 -258 -452s21 -362 66 -452h-56c-6 9 -139 193 -84 452s266 443 276 452z" />
    <glyph glyph-name="parenright" unicode=")" horiz-adv-x="352" 
d="M50 -190h-56c83 90 210 227 258 452s-21 362 -66 452h56c6 -9 139 -193 84 -452s-266 -443 -276 -452z" />
    <glyph glyph-name="asterisk" unicode="*" horiz-adv-x="426" 
d="M308 580l29 134h56l-29 -134l137 48l10 -49l-143 -50l71 -103l-46 -36l-74 109l-120 -109l-30 36l113 103l-121 50l30 49z" />
    <glyph glyph-name="plus" unicode="+" horiz-adv-x="600" 
d="M275 0l48 228h-228l11 50h228l49 228h50l-49 -228h228l-11 -50h-228l-48 -228h-50z" />
    <glyph glyph-name="comma" unicode="," horiz-adv-x="278" 
d="M96 0l23 110h86l-23 -112c-18 -83 -67 -123 -125 -138l8 38c44 18 56 52 67 102h-36z" />
    <glyph glyph-name="hyphen" unicode="-" horiz-adv-x="444" 
d="M120 237l16 74h304l-16 -74h-304z" />
    <glyph glyph-name="period" unicode="." horiz-adv-x="278" 
d="M96 0l23 110h86l-23 -110h-86z" />
    <glyph glyph-name="slash" unicode="/" horiz-adv-x="407" 
d="M0 -18l503 750h56l-503 -750h-56z" />
    <glyph glyph-name="zero" unicode="0" 
d="M471 646c-164 0 -244 -124 -282 -301c-37 -175 -9 -299 155 -299s244 124 281 299c38 177 10 301 -154 301zM484 708c172 0 269 -110 215 -363c-53 -251 -196 -361 -368 -361s-269 110 -216 361c54 253 197 363 369 363z" />
    <glyph glyph-name="one" unicode="1" horiz-adv-x="444" 
d="M236 0l111 520h-216l11 56h49c116 0 162 15 207 132h62l-150 -708h-74z" />
    <glyph glyph-name="two" unicode="2" 
d="M608 68l-14 -68h-542c26 81 68 167 305 279c176 83 240 122 260 216c22 102 -35 151 -145 151c-158 0 -212 -95 -234 -189h-74c38 177 158 251 322 251c189 0 226 -113 205 -214c-26 -121 -113 -172 -221 -225c-219 -107 -281 -143 -312 -201h450z" />
    <glyph glyph-name="three" unicode="3" 
d="M353 336l14 62h48c109 0 181 26 201 118c19 89 -42 130 -141 130c-142 0 -210 -69 -232 -171h-74c30 126 133 233 319 233c120 0 231 -52 202 -192c-14 -64 -72 -132 -161 -142v-2c86 -7 142 -71 120 -176c-34 -157 -171 -212 -323 -212c-181 0 -260 85 -228 241h74
c-23 -130 43 -179 178 -179c149 0 209 77 224 148c25 117 -57 142 -161 142h-60z" />
    <glyph glyph-name="four" unicode="4" 
d="M468 236l78 368h-2l-378 -368h302zM418 0l37 174h-376l14 68l478 466h65l-100 -472h132l-13 -62h-132l-37 -174h-68z" />
    <glyph glyph-name="five" unicode="5" 
d="M141 326l148 366h417l-13 -62h-361l-98 -229l2 -2c40 32 110 68 195 68c174 0 251 -97 220 -241c-21 -101 -109 -242 -328 -242c-174 0 -244 83 -232 215h74c-4 -101 48 -153 171 -153c114 0 215 56 241 180c24 113 -37 179 -170 179c-104 0 -168 -53 -197 -82z" />
    <glyph glyph-name="six" unicode="6" 
d="M707 528h-74c9 71 -40 118 -154 118c-138 0 -230 -83 -284 -309l1 -2c37 49 116 129 245 129c162 0 252 -86 219 -241c-33 -159 -172 -239 -321 -239c-168 0 -269 86 -216 338c50 231 168 386 369 386c174 0 226 -89 215 -180zM189 226c-18 -85 19 -180 163 -180
c110 0 211 67 235 178c21 100 -36 178 -160 178c-163 0 -224 -108 -238 -176z" />
    <glyph glyph-name="seven" unicode="7" horiz-adv-x="593" 
d="M699 692l-14 -68c-98 -73 -339 -312 -450 -624h-80c77 231 306 507 459 624h-454l14 68h525z" />
    <glyph glyph-name="eight" unicode="8" 
d="M163 193c-22 -103 60 -147 181 -147s221 44 243 147c23 106 -62 153 -179 153s-222 -47 -245 -153zM89 193c29 136 149 172 206 185l1 2c-35 10 -125 39 -102 147c16 76 86 181 290 181s230 -105 214 -181c-23 -108 -125 -137 -164 -147l-1 -2c53 -13 157 -49 128 -185
c-20 -96 -106 -209 -330 -209s-262 113 -242 209zM421 408c121 0 188 49 202 115c21 98 -66 123 -152 123s-183 -25 -204 -123c-14 -66 33 -115 154 -115z" />
    <glyph glyph-name="nine" unicode="9" 
d="M108 164h74c-9 -71 40 -118 154 -118c138 0 230 83 284 309l-1 2c-37 -49 -116 -129 -245 -129c-162 0 -252 86 -219 241c33 159 172 239 321 239c168 0 269 -86 216 -338c-49 -231 -168 -386 -369 -386c-174 0 -225 89 -215 180zM626 466c18 85 -19 180 -163 180
c-110 0 -211 -67 -235 -178c-21 -100 36 -178 160 -178c163 0 224 108 238 176z" />
    <glyph glyph-name="colon" unicode=":" horiz-adv-x="278" 
d="M96 0l23 110h86l-23 -110h-86zM180 396l24 110h86l-24 -110h-86z" />
    <glyph glyph-name="semicolon" unicode=";" horiz-adv-x="278" 
d="M96 0l23 110h86l-23 -112c-18 -83 -67 -123 -125 -138l8 38c44 18 56 52 67 102h-36zM180 396l24 110h86l-24 -110h-86z" />
    <glyph glyph-name="less" unicode="&#x3c;" horiz-adv-x="600" 
d="M95 225l12 56l555 233l-12 -56l-487 -205l400 -205l-12 -56z" />
    <glyph glyph-name="equal" unicode="=" horiz-adv-x="600" 
d="M116 325l11 50h506l-11 -50h-506zM75 131l10 50h506l-10 -50h-506z" />
    <glyph glyph-name="greater" unicode="&#x3e;" horiz-adv-x="600" 
d="M545 253l-401 205l12 56l457 -233l-12 -56l-556 -233l12 56z" />
    <glyph glyph-name="question" unicode="?" horiz-adv-x="648" 
d="M232 491h-74c28 131 137 241 311 241c133 0 245 -63 215 -206c-20 -92 -73 -130 -185 -199c-101 -62 -106 -75 -121 -142h-68c23 105 30 109 174 202c59 38 111 69 126 139c18 86 -51 138 -156 138c-130 0 -198 -73 -222 -173zM262 0l23 110h86l-23 -110h-86z" />
    <glyph glyph-name="at" unicode="@" horiz-adv-x="800" 
d="M309 287c-13 -62 3 -104 61 -104c103 0 211 155 230 247c14 66 -3 99 -61 99c-105 0 -209 -145 -230 -242zM646 494l38 67h56l-162 -298c-12 -22 -21 -44 -25 -60c-3 -16 4 -26 21 -26c84 0 200 141 222 246c34 161 -82 265 -231 265c-187 0 -358 -155 -395 -331
c-39 -182 75 -331 255 -331c104 0 224 55 295 141h56c-88 -114 -230 -185 -361 -185c-214 0 -339 170 -295 375c44 208 248 375 455 375c187 0 309 -131 270 -312c-33 -156 -186 -287 -291 -287c-36 0 -61 21 -51 69h-2c-32 -29 -86 -69 -150 -69c-85 0 -122 67 -105 149
c30 140 161 297 308 297c46 0 82 -23 92 -85z" />
    <glyph glyph-name="A" unicode="A" horiz-adv-x="722" 
d="M578 285l-82 355l-234 -355h316zM642 0l-49 217h-376l-143 -217h-80l476 714h86l172 -714h-86z" />
    <glyph glyph-name="B" unicode="B" horiz-adv-x="741" 
d="M66 0l152 714h406c140 0 182 -79 161 -180c-15 -69 -67 -133 -156 -153v-2c91 -14 133 -83 113 -175c-31 -149 -169 -204 -279 -204h-397zM277 646l-51 -242h293c100 0 171 32 191 127c18 87 -34 115 -115 115h-318zM211 336l-57 -268h311c96 0 177 38 197 136
c22 103 -36 132 -122 132h-329z" />
    <glyph glyph-name="C" unicode="C" horiz-adv-x="815" 
d="M758 272h74c-50 -160 -210 -290 -415 -290c-232 0 -349 146 -300 375c35 163 181 375 460 375c156 0 309 -71 292 -259h-74c6 136 -104 191 -233 191c-177 0 -321 -99 -365 -307c-34 -159 18 -307 235 -307c170 0 272 86 326 222z" />
    <glyph glyph-name="D" unicode="D" horiz-adv-x="778" 
d="M66 0l152 714h347c208 0 287 -133 240 -357c-43 -201 -181 -357 -381 -357h-358zM277 646l-123 -578h270c128 0 254 70 301 289c40 189 -13 289 -178 289h-270z" />
    <glyph glyph-name="E" unicode="E" horiz-adv-x="685" 
d="M78 0l152 714h568l-15 -68h-494l-51 -242h476l-15 -68h-476l-57 -268h502l-14 -68h-576z" />
    <glyph glyph-name="F" unicode="F" horiz-adv-x="611" 
d="M66 0l152 714h535l-15 -68h-461l-51 -242h438l-15 -68h-438l-71 -336h-74z" />
    <glyph glyph-name="G" unicode="G" horiz-adv-x="852" 
d="M729 0l19 135h-2c-96 -105 -190 -153 -330 -153c-242 0 -342 152 -294 375c46 216 225 375 462 375c199 0 302 -112 293 -244h-80c-4 121 -100 176 -228 176c-195 0 -327 -119 -367 -307c-41 -192 33 -307 223 -307c214 0 308 122 357 250h-262l14 68h330l-78 -368h-57z
" />
    <glyph glyph-name="H" unicode="H" horiz-adv-x="796" 
d="M66 0l152 714h74l-64 -302h516l64 302h74l-152 -714h-74l73 344h-516l-73 -344h-74z" />
    <glyph glyph-name="I" unicode="I" horiz-adv-x="222" 
d="M74 0l152 714h74l-152 -714h-74z" />
    <glyph glyph-name="J" unicode="J" horiz-adv-x="556" 
d="M149 234l-6 -26c-23 -103 12 -164 123 -164c99 0 167 36 197 176l105 494h74l-109 -514c-28 -128 -121 -218 -284 -218c-223 0 -191 163 -174 252h74z" />
    <glyph glyph-name="K" unicode="K" horiz-adv-x="741" 
d="M78 0l152 714h74l-82 -386l543 386h107l-417 -295l289 -419h-105l-253 369l-183 -128l-51 -241h-74z" />
    <glyph glyph-name="L" unicode="L" horiz-adv-x="593" 
d="M66 0l152 714h74l-138 -646h453l-14 -68h-527z" />
    <glyph glyph-name="M" unicode="M" horiz-adv-x="981" 
d="M512 93l450 621h105l-152 -714h-74l131 617h-2l-446 -617h-68l-183 618h-2l-131 -618h-74l152 714h108z" />
    <glyph glyph-name="N" unicode="N" horiz-adv-x="796" 
d="M66 0l152 714h89l369 -610h2l130 610h74l-152 -714h-86l-372 610h-2l-130 -610h-74z" />
    <glyph glyph-name="O" unicode="O" horiz-adv-x="852" 
d="M114 357c53 252 265 375 468 375s361 -123 308 -375c-54 -252 -265 -375 -468 -375s-362 123 -308 375zM194 357c-46 -215 86 -307 243 -307s327 92 373 307s-86 307 -243 307s-327 -92 -373 -307z" />
    <glyph glyph-name="P" unicode="P" horiz-adv-x="704" 
d="M289 646l-59 -278h286c124 0 172 57 190 140c23 107 -31 138 -116 138h-301zM78 0l152 714h385c110 0 203 -55 171 -206c-29 -135 -133 -208 -292 -208h-278l-64 -300h-74z" />
    <glyph glyph-name="Q" unicode="Q" horiz-adv-x="852" 
d="M508 152l50 49l93 -86c75 48 134 127 159 242c46 215 -86 307 -243 307s-327 -92 -373 -307s86 -307 243 -307c50 0 101 9 149 30zM791 -14l-49 -49l-103 95c-68 -34 -143 -50 -217 -50c-203 0 -362 123 -308 375c53 252 265 375 468 375s361 -123 308 -375
c-28 -131 -99 -228 -188 -288z" />
    <glyph glyph-name="R" unicode="R" horiz-adv-x="741" 
d="M78 0l152 714h389c121 0 223 -43 191 -193c-16 -76 -80 -152 -177 -173v-2c97 -16 104 -81 84 -198c-7 -45 -20 -132 -6 -148h-80c-10 15 -4 68 12 146c25 126 -14 168 -137 168h-287l-67 -314h-74zM289 646l-56 -264h313c81 0 161 30 184 139c22 105 -53 125 -121 125
h-320z" />
    <glyph glyph-name="S" unicode="S" 
d="M732 510h-74c16 122 -76 154 -191 154s-211 -45 -229 -126c-19 -93 63 -115 231 -144c125 -22 249 -52 220 -189c-38 -175 -207 -223 -346 -223c-181 0 -300 62 -270 254h74c-19 -150 74 -186 211 -186c107 0 224 29 248 142c23 109 -104 122 -230 143
c-164 27 -245 75 -220 190c33 156 188 207 326 207c146 0 282 -52 250 -222z" />
    <glyph glyph-name="T" unicode="T" horiz-adv-x="630" 
d="M278 0l137 646h-280l15 68h634l-15 -68h-280l-137 -646h-74z" />
    <glyph glyph-name="U" unicode="U" horiz-adv-x="778" 
d="M860 714l-93 -438c-28 -130 -99 -294 -382 -294s-284 164 -256 294l93 438h74l-93 -438c-40 -187 73 -226 197 -226s253 39 293 226l93 438h74z" />
    <glyph glyph-name="V" unicode="V" horiz-adv-x="685" 
d="M365 84l407 630h80l-468 -714h-80l-167 714h86z" />
    <glyph glyph-name="W" unicode="W" horiz-adv-x="1056" 
d="M808 98l331 616h80l-392 -714h-86l-85 610h-2l-342 -610h-86l-85 714h83l67 -616h2l342 616h91l80 -616h2z" />
    <glyph glyph-name="X" unicode="X" horiz-adv-x="667" 
d="M-8 0l367 362l-203 352h99l169 -294l302 294h92l-354 -348l211 -366h-98l-179 307l-311 -307h-95z" />
    <glyph glyph-name="Y" unicode="Y" horiz-adv-x="686" 
d="M306 0l64 300l-233 414h96l189 -340l335 340h96l-409 -414l-64 -300h-74z" />
    <glyph glyph-name="Z" unicode="Z" horiz-adv-x="648" 
d="M5 0l14 68l653 578h-496l15 68h596l-15 -68l-656 -578h541l-14 -68h-638z" />
    <glyph glyph-name="bracketleft" unicode="[" horiz-adv-x="352" 
d="M68 -190l192 904h196l-12 -56h-128l-168 -792h128l-12 -56h-196z" />
    <glyph glyph-name="backslash" unicode="\" horiz-adv-x="407" 
d="M344 -18l-185 750h56l185 -750h-56z" />
    <glyph glyph-name="bracketright" unicode="]" horiz-adv-x="352" 
d="M396 714l-192 -904h-196l12 56h128l168 792h-128l12 56h196z" />
    <glyph glyph-name="asciicircum" unicode="^" horiz-adv-x="600" 
d="M551 239l-117 391l-283 -391h-56l327 453h50l135 -453h-56z" />
    <glyph glyph-name="underscore" unicode="_" horiz-adv-x="500" 
d="M-27 -125l11 50h500l-11 -50h-500z" />
    <glyph glyph-name="quoteleft" unicode="&#x2018;" horiz-adv-x="278" 
d="M195 464l23 112c18 83 67 123 125 138l-8 -38c-44 -18 -56 -52 -67 -102h36l-23 -110h-86z" />
    <glyph glyph-name="a" unicode="a" horiz-adv-x="611" 
d="M514 201l17 79c-38 -21 -89 -25 -240 -39c-87 -8 -143 -34 -156 -96c-17 -81 48 -105 128 -105c100 0 228 54 251 161zM198 360h-68c34 109 107 176 285 176c174 0 226 -54 205 -154l-58 -272c-9 -43 0 -58 29 -58c13 0 26 1 39 2l-10 -50c-16 -3 -40 -8 -64 -8
c-75 0 -68 51 -60 92h-2c-31 -34 -95 -104 -265 -104c-89 0 -194 39 -169 156c30 141 178 157 293 163c164 9 186 18 197 69c16 75 -28 102 -150 102c-117 0 -180 -31 -202 -114z" />
    <glyph glyph-name="b" unicode="b" horiz-adv-x="667" 
d="M57 0l153 720h74l-65 -304h2c48 66 139 120 238 120c194 0 255 -131 224 -276c-27 -127 -128 -276 -341 -276c-126 0 -176 76 -187 120h-2l-22 -104h-74zM182 260c-29 -136 50 -214 173 -214c151 0 232 110 254 214c28 132 -46 214 -163 214c-151 0 -241 -107 -264 -214z
" />
    <glyph glyph-name="c" unicode="c" horiz-adv-x="611" 
d="M552 186h74c-29 -68 -117 -202 -306 -202c-188 0 -269 113 -235 276c33 156 155 276 352 276c178 0 223 -111 219 -186h-74c-4 89 -66 124 -158 124c-149 0 -239 -94 -265 -214c-27 -129 33 -214 174 -214c109 0 182 59 219 140z" />
    <glyph glyph-name="d" unicode="d" horiz-adv-x="667" 
d="M595 260c23 107 -21 214 -172 214c-117 0 -227 -82 -255 -214c-22 -104 13 -214 164 -214c123 0 234 78 263 214zM536 0l22 104h-2c-29 -44 -111 -120 -237 -120c-213 0 -252 149 -225 276c31 145 148 276 342 276c99 0 166 -54 186 -120h2l65 304h74l-153 -720h-74z" />
    <glyph glyph-name="e" unicode="e" horiz-adv-x="648" 
d="M176 298h428c7 128 -77 176 -176 176c-95 0 -208 -49 -252 -176zM563 166h74c-49 -92 -146 -182 -318 -182c-213 0 -252 149 -225 276c31 145 148 276 342 276c134 0 281 -58 230 -294h-502c-23 -108 36 -196 168 -196c124 0 188 41 231 120z" />
    <glyph glyph-name="f" unicode="f" horiz-adv-x="315" 
d="M107 0l99 464h-113l12 56h113l14 69c21 98 77 131 174 131c28 0 60 -2 82 -4l-13 -62c-23 2 -45 4 -68 4c-66 0 -90 -17 -103 -77l-12 -61h147l-12 -56h-147l-99 -464h-74z" />
    <glyph glyph-name="g" unicode="g" horiz-adv-x="667" 
d="M598 271c23 109 -32 203 -179 203c-130 0 -230 -75 -257 -203c-33 -152 50 -209 175 -209c122 0 233 77 261 209zM627 419l22 101h74l-107 -500c-41 -192 -206 -240 -343 -240c-237 0 -236 113 -230 169h68c-1 -56 2 -113 177 -113c136 0 229 64 255 189l20 93h-2
c-39 -53 -121 -118 -255 -118c-132 0 -262 68 -218 271c29 138 144 265 340 265c101 0 179 -38 197 -117h2z" />
    <glyph glyph-name="h" unicode="h" horiz-adv-x="630" 
d="M57 0l153 720h74l-64 -302h2c34 55 125 118 240 118c173 0 206 -90 179 -214l-68 -322h-74l71 335c22 103 -33 139 -127 139c-145 0 -227 -74 -252 -192l-60 -282h-74z" />
    <glyph glyph-name="i" unicode="i" horiz-adv-x="184" 
d="M55 0l111 520h74l-111 -520h-74zM185 610l23 110h74l-23 -110h-74z" />
    <glyph glyph-name="j" unicode="j" horiz-adv-x="184" 
d="M-122 -217l13 62c16 -2 28 -3 49 -3c67 0 87 26 98 79l128 599h74l-128 -599c-17 -81 -62 -141 -165 -141c-22 0 -46 2 -69 3zM185 610l23 110h74l-23 -110h-74z" />
    <glyph glyph-name="k" unicode="k" horiz-adv-x="574" 
d="M57 0l153 720h74l-96 -453l371 253h110l-297 -197l205 -323h-98l-173 275l-135 -89l-40 -186h-74z" />
    <glyph glyph-name="l" unicode="l" horiz-adv-x="184" 
d="M55 0l153 720h74l-153 -720h-74z" />
    <glyph glyph-name="m" unicode="m" horiz-adv-x="1000" 
d="M869 0l70 330c20 95 -17 144 -124 144c-114 0 -191 -66 -213 -167l-65 -307h-74l75 352c14 66 -21 122 -122 122c-106 0 -197 -61 -223 -181l-62 -293h-74l111 520h74l-21 -96h2c43 55 111 112 230 112c117 0 158 -62 162 -114c36 52 124 114 228 114
c146 0 198 -74 175 -181l-75 -355h-74z" />
    <glyph glyph-name="n" unicode="n" horiz-adv-x="630" 
d="M499 0l71 335c22 103 -33 139 -127 139c-145 0 -227 -74 -252 -192l-60 -282h-74l111 520h74l-22 -102h2c34 55 125 118 240 118c173 0 206 -90 179 -214l-68 -322h-74z" />
    <glyph glyph-name="o" unicode="o" 
d="M168 260c-26 -125 36 -214 176 -214s240 89 266 214c27 125 -35 214 -175 214s-240 -89 -267 -214zM94 260c31 145 154 276 354 276s267 -131 236 -276s-153 -276 -353 -276s-268 131 -237 276z" />
    <glyph glyph-name="p" unicode="p" horiz-adv-x="667" 
d="M14 -202l154 722h74l-23 -104h2c30 44 94 120 238 120c213 0 251 -149 224 -276c-31 -145 -147 -276 -341 -276c-98 0 -167 54 -187 120h-2l-65 -306h-74zM182 260c-22 -107 22 -214 173 -214c117 0 226 82 254 214c22 104 -12 214 -163 214c-123 0 -235 -78 -264 -214z
" />
    <glyph glyph-name="q" unicode="q" horiz-adv-x="667" 
d="M624 416l23 104h74l-154 -722h-74l65 306h-2c-48 -66 -139 -120 -237 -120c-194 0 -256 131 -225 276c27 127 143 276 336 276c128 0 185 -72 192 -120h2zM595 260c29 136 -49 214 -172 214c-151 0 -233 -110 -255 -214c-28 -132 47 -214 164 -214c151 0 241 107 263 214
z" />
    <glyph glyph-name="r" unicode="r" horiz-adv-x="370" 
d="M57 0l111 520h74l-26 -119h2c40 62 105 135 228 135c21 0 33 -2 43 -4l-16 -76c-22 4 -44 6 -67 6c-80 0 -187 -49 -219 -197l-56 -265h-74z" />
    <glyph glyph-name="s" unicode="s" horiz-adv-x="556" 
d="M590 366h-68c-1 84 -48 108 -156 108c-78 0 -154 -17 -169 -89c-12 -54 21 -65 175 -86s214 -49 193 -150c-22 -103 -119 -165 -282 -165c-165 0 -252 54 -225 179h68c-6 -87 37 -117 170 -117c103 0 177 21 194 99c11 52 -21 75 -180 91c-158 16 -207 54 -188 146
c19 90 106 154 257 154c169 0 225 -61 211 -170z" />
    <glyph glyph-name="t" unicode="t" horiz-adv-x="352" 
d="M218 520l34 164h74l-34 -164h147l-12 -56h-147l-73 -344c-10 -45 -1 -66 59 -66c36 0 60 3 75 6l-13 -62c-29 -4 -59 -6 -83 -6c-115 0 -130 45 -112 129l73 343h-113l12 56h113z" />
    <glyph glyph-name="u" unicode="u" horiz-adv-x="630" 
d="M499 0l22 102h-2c-34 -55 -125 -118 -240 -118c-173 0 -206 90 -180 214l69 322h74l-72 -335c-22 -103 34 -139 128 -139c145 0 227 74 252 192l60 282h74l-111 -520h-74z" />
    <glyph glyph-name="v" unicode="v" horiz-adv-x="556" 
d="M296 85l297 435h80l-355 -520h-80l-133 520h80z" />
    <glyph glyph-name="w" unicode="w" horiz-adv-x="889" 
d="M663 97l257 423h80l-322 -520h-80l-69 416l-243 -416h-80l-95 520h80l74 -426l248 426h80z" />
    <glyph glyph-name="x" unicode="x" horiz-adv-x="574" 
d="M-3 0l296 270l-168 250h96l133 -198l218 198h97l-279 -250l187 -270h-98l-147 216l-238 -216h-97z" />
    <glyph glyph-name="y" unicode="y" horiz-adv-x="556" 
d="M304 87l289 433h80l-414 -617c-55 -82 -92 -105 -174 -105c-23 0 -49 0 -71 2l14 62c15 -1 32 -2 52 -2c53 0 82 12 117 64l49 72l-141 524h80z" />
    <glyph glyph-name="z" unicode="z" horiz-adv-x="556" 
d="M20 0l13 62l479 396h-372l14 62h478l-14 -62l-487 -396h418l-13 -62h-516z" />
    <glyph glyph-name="braceleft" unicode="{" horiz-adv-x="352" 
d="M100 243l8 38c46 0 66 28 89 137l37 175c16 74 58 121 133 121h58l-8 -38h-49c-30 0 -52 -16 -66 -83l-37 -175c-21 -105 -74 -146 -111 -155l-1 -2c34 -9 69 -50 46 -155l-38 -175c-14 -67 1 -83 31 -83h49l-8 -38h-58c-75 0 -97 47 -82 121l38 175
c23 109 15 137 -31 137z" />
    <glyph glyph-name="bar" unicode="|" horiz-adv-x="442" 
d="M268 830h55v-1107h-55v1107z" />
    <glyph glyph-name="braceright" unicode="}" horiz-adv-x="352" 
d="M39 -190l8 38h49c30 0 51 16 65 83l38 175c21 105 74 146 110 155l1 2c-33 9 -68 50 -45 155l37 175c14 67 0 83 -30 83h-49l8 38h58c75 0 97 -47 81 -121l-37 -175c-23 -109 -15 -137 31 -137l-8 -38c-46 0 -66 -28 -89 -137l-38 -175c-15 -74 -57 -121 -132 -121h-58z
" />
    <glyph glyph-name="asciitilde" unicode="~" horiz-adv-x="600" 
d="M562 316l29 -36c-39 -42 -82 -86 -144 -86c-37 0 -66 15 -95 33c-28 18 -61 35 -107 35c-44 0 -76 -37 -100 -72l-28 36c31 42 76 86 143 86c34 0 70 -15 105 -32c33 -16 67 -36 94 -36c40 0 73 37 103 72z" />
    <glyph glyph-name="exclamdown" unicode="&#xa1;" horiz-adv-x="296" 
d="M196 426l23 110h86l-23 -110h-86zM70 -178l40 189l91 340h44l-55 -340l-40 -189h-80z" />
    <glyph glyph-name="cent" unicode="&#xa2;" 
d="M331 47l91 426c-137 -13 -214 -108 -237 -213c-25 -120 24 -202 146 -213zM295 -124l23 109c-169 11 -239 121 -207 275c23 108 120 263 324 276l18 84h44l-18 -84c164 -7 207 -113 203 -186h-74c-4 84 -59 120 -142 124l-91 -428c100 6 168 63 203 140h74
c-28 -66 -113 -194 -290 -202l-23 -108h-44z" />
    <glyph glyph-name="sterling" unicode="&#xa3;" 
d="M121 320l9 44h72c-16 45 -30 84 -20 130c26 122 144 214 314 214c178 0 249 -90 220 -230h-74c27 127 -73 168 -165 168c-94 0 -200 -52 -220 -148c-12 -56 15 -111 19 -134h221l-9 -44h-203c7 -28 7 -62 0 -93c-11 -52 -77 -127 -137 -163l1 -2c57 21 92 28 119 28
c30 0 66 -10 101 -19s68 -19 92 -19c40 0 91 19 161 65l12 -62c-28 -26 -113 -71 -187 -71c-35 0 -76 11 -115 22c-38 11 -76 22 -106 22c-57 0 -108 -21 -148 -42l-23 57c65 39 147 113 163 188c5 25 -1 57 -7 89h-90z" />
    <glyph glyph-name="fraction" unicode="&#x2044;" horiz-adv-x="167" 
d="M-163 -16l578 724h62l-578 -724h-62z" />
    <glyph glyph-name="yen" unicode="&#xa5;" 
d="M338 194l21 96l-6 11h-198l11 50h160l-186 341h86l183 -340l327 340h86l-330 -341h160l-11 -50h-198l-10 -11l-21 -96h206l-10 -50h-206l-31 -144h-74l31 144h-206l10 50h206z" />
    <glyph glyph-name="florin" unicode="&#x192;" 
d="M237 356l18 44h135l66 156c58 136 133 152 203 152c26 0 55 -3 84 -8l-24 -60c-29 4 -49 6 -68 6c-55 0 -88 -11 -132 -116l-55 -130h139l-20 -44h-137l-157 -371c-40 -95 -86 -181 -215 -181c-29 0 -58 3 -86 7l25 60c21 -2 44 -5 66 -5c73 0 95 19 143 133l150 357
h-135z" />
    <glyph glyph-name="section" unicode="&#xa7;" horiz-adv-x="667" 
d="M101 17h74c-16 -97 57 -129 145 -129c73 0 147 29 161 92c13 60 -41 92 -124 131l-117 55c-85 40 -139 78 -122 157c25 118 135 144 150 148c-13 10 -50 41 -37 101c17 82 87 160 245 160c128 0 219 -51 191 -181h-74c8 41 3 119 -131 119c-86 0 -143 -30 -155 -86
c-13 -60 52 -90 129 -125l119 -55c80 -37 133 -74 114 -164c-21 -97 -103 -125 -149 -141c17 -14 51 -42 36 -111c-17 -81 -99 -162 -249 -162c-186 0 -221 89 -206 191zM189 341c-19 -92 78 -92 292 -212c20 0 102 27 118 100c19 89 -91 114 -292 212
c-23 -3 -104 -36 -118 -100z" />
    <glyph glyph-name="currency" unicode="&#xa4;" 
d="M115 136l66 56c-28 44 -33 100 -21 154c11 54 40 110 86 154l-42 56l46 38l44 -55c52 37 113 55 166 55s106 -18 144 -55l66 55l30 -38l-66 -56c28 -44 33 -100 22 -154c-12 -54 -41 -110 -87 -154l42 -56l-46 -38l-43 55c-53 -37 -114 -55 -167 -55s-106 18 -143 55
l-67 -55zM210 346c-24 -109 48 -198 155 -198s217 89 241 198c23 109 -49 198 -156 198s-217 -89 -240 -198z" />
    <glyph glyph-name="quotesingle" unicode="'" horiz-adv-x="278" 
d="M210 464l53 250h56l-53 -250h-56z" />
    <glyph glyph-name="quotedblleft" unicode="&#x201c;" horiz-adv-x="407" 
d="M349 464l23 112c18 83 67 123 125 138l-8 -38c-44 -18 -56 -52 -67 -102h36l-23 -110h-86zM170 464l23 112c18 83 67 123 125 138l-8 -38c-44 -18 -56 -52 -67 -102h36l-23 -110h-86z" />
    <glyph glyph-name="guillemotleft" unicode="&#xab;" horiz-adv-x="500" 
d="M309 238l15 72l186 135l-17 -77l-133 -94l93 -94l-16 -77zM124 238l15 72l186 135l-17 -77l-133 -94l93 -94l-16 -77z" />
    <glyph glyph-name="guilsinglleft" unicode="&#x2039;" horiz-adv-x="315" 
d="M124 238l15 72l186 135l-17 -77l-133 -94l93 -94l-16 -77z" />
    <glyph glyph-name="guilsinglright" unicode="&#x203a;" horiz-adv-x="315" 
d="M256 274l-93 94l17 77l128 -135l-15 -72l-186 -135l16 77z" />
    <glyph glyph-name="endash" unicode="&#x2013;" horiz-adv-x="500" 
d="M52 243l13 62h500l-13 -62h-500z" />
    <glyph glyph-name="dagger" unicode="&#x2020;" 
d="M264 -156l123 581h-241l14 62h241l48 227h74l-48 -227h241l-14 -62h-241l-123 -581h-74z" />
    <glyph glyph-name="daggerdbl" unicode="&#x2021;" 
d="M264 -156l46 217h-241l13 62h241l68 317h-241l13 62h241l45 212h74l-45 -212h241l-13 -62h-241l-68 -317h241l-13 -62h-241l-46 -217h-74z" />
    <glyph glyph-name="periodcentered" unicode="&#xb7;" horiz-adv-x="278" 
d="M139 312c8 36 44 66 80 66s60 -30 52 -66c-7 -36 -44 -66 -80 -66s-59 30 -52 66z" />
    <glyph glyph-name="paragraph" unicode="&#xb6;" horiz-adv-x="600" 
d="M216 -156l103 484c-117 0 -189 87 -167 190c27 126 125 196 265 196h217l-185 -870h-56l175 826h-121l-175 -826h-56z" />
    <glyph glyph-name="bullet" unicode="&#x2022;" horiz-adv-x="501" 
d="M148 357c21 99 117 179 216 179s162 -80 141 -179s-118 -178 -217 -178s-161 79 -140 178z" />
    <glyph glyph-name="quotesinglbase" unicode="&#x201a;" horiz-adv-x="278" 
d="M96 0l23 110h86l-23 -112c-18 -83 -67 -123 -125 -138l8 38c44 18 56 52 67 102h-36z" />
    <glyph glyph-name="quotedblbase" unicode="&#x201e;" horiz-adv-x="407" 
d="M71 0l23 110h86l-23 -112c-18 -83 -67 -123 -125 -138l8 38c44 18 56 52 67 102h-36zM250 0l23 110h86l-23 -112c-18 -83 -67 -123 -125 -138l8 38c44 18 56 52 67 102h-36z" />
    <glyph glyph-name="quotedblright" unicode="&#x201d;" horiz-adv-x="407" 
d="M378 604l24 110h86l-24 -112c-18 -83 -66 -123 -124 -138l8 38c44 18 56 52 66 102h-36zM199 604l24 110h86l-24 -112c-18 -83 -66 -123 -124 -138l8 38c44 18 56 52 66 102h-36z" />
    <glyph glyph-name="guillemotright" unicode="&#xbb;" horiz-adv-x="500" 
d="M256 274l-93 94l17 77l128 -135l-15 -72l-186 -135l16 77zM441 274l-93 94l17 77l128 -135l-15 -72l-186 -135l16 77z" />
    <glyph glyph-name="ellipsis" unicode="&#x2026;" horiz-adv-x="1000" 
d="M124 0l23 110h86l-23 -110h-86zM457 0l23 110h86l-23 -110h-86zM790 0l23 110h86l-23 -110h-86z" />
    <glyph glyph-name="perthousand" unicode="&#x2030;" horiz-adv-x="1167" 
d="M993 34c71 0 125 54 144 144s-12 144 -83 144s-124 -54 -143 -144s11 -144 82 -144zM117 -16l629 724h59l-629 -724h-59zM260 370c71 0 124 54 143 144s-11 144 -82 144s-125 -54 -144 -144s12 -144 83 -144zM983 -16c-100 0 -161 66 -134 194s116 194 216 194
s161 -66 134 -194s-116 -194 -216 -194zM249 320c-100 0 -161 66 -134 194s116 194 216 194s161 -66 134 -194s-116 -194 -216 -194zM591 -16c-100 0 -161 66 -134 194s116 194 216 194s161 -66 134 -194s-116 -194 -216 -194zM601 34c71 0 125 54 144 144s-12 144 -83 144
s-124 -54 -143 -144s11 -144 82 -144z" />
    <glyph glyph-name="questiondown" unicode="&#xbf;" horiz-adv-x="648" 
d="M530 45h74c-28 -131 -137 -241 -311 -241c-133 0 -245 63 -215 206c20 92 73 130 185 199c101 62 106 75 121 142h68c-23 -105 -31 -109 -174 -202c-59 -38 -111 -69 -126 -139c-18 -86 51 -138 156 -138c130 0 198 73 222 173zM500 536l-23 -110h-86l23 110h86z" />
    <glyph glyph-name="grave" unicode="`" horiz-adv-x="184" 
d="M198 740l85 -142h-61l-115 142h91z" />
    <glyph glyph-name="acute" unicode="&#xb4;" horiz-adv-x="184" 
d="M155 598l145 142h91l-175 -142h-61z" />
    <glyph glyph-name="circumflex" unicode="&#x2c6;" horiz-adv-x="184" 
d="M36 598l173 142h80l113 -142h-75l-86 101l-130 -101h-75z" />
    <glyph glyph-name="tilde" unicode="&#x2dc;" horiz-adv-x="184" 
d="M387 723h44c-9 -21 -22 -48 -42 -70c-20 -21 -46 -38 -84 -38c-35 0 -62 13 -85 26c-24 13 -46 26 -73 26c-44 0 -58 -31 -65 -52h-44c9 21 22 48 42 70c19 22 47 38 84 38c35 0 61 -13 84 -26c24 -13 47 -26 74 -26c44 0 57 31 65 52z" />
    <glyph glyph-name="macron" unicode="&#xaf;" horiz-adv-x="184" 
d="M35 641l12 56h386l-12 -56h-386z" />
    <glyph glyph-name="breve" unicode="&#x2d8;" horiz-adv-x="184" 
d="M83 732h50c-8 -55 28 -76 98 -76s116 21 132 76h50c-28 -90 -96 -132 -193 -132s-149 42 -137 132z" />
    <glyph glyph-name="dotaccent" unicode="&#x2d9;" horiz-adv-x="184" 
d="M183 604l24 110h74l-24 -110h-74z" />
    <glyph glyph-name="dieresis" unicode="&#xa8;" horiz-adv-x="184" 
d="M70 604l24 110h74l-24 -110h-74zM296 604l24 110h74l-24 -110h-74z" />
    <glyph glyph-name="ring" unicode="&#x2da;" horiz-adv-x="184" 
d="M124 669c13 60 73 110 134 110c59 0 99 -49 86 -110s-74 -110 -133 -110c-61 0 -100 50 -87 110zM162 669c-8 -40 17 -72 57 -72s79 32 87 72c9 40 -16 72 -56 72s-79 -32 -88 -72z" />
    <glyph glyph-name="cedilla" unicode="&#xb8;" horiz-adv-x="184" 
d="M7 -78l74 80h41l-54 -57l2 -2c10 3 24 5 41 5c51 0 80 -26 71 -68c-8 -41 -66 -76 -142 -76c-36 0 -78 11 -95 17l19 35c14 -4 50 -14 80 -14c44 0 71 12 76 38c6 27 -21 36 -44 36c-21 0 -42 -5 -55 -11z" />
    <glyph glyph-name="hungarumlaut" unicode="&#x2dd;" horiz-adv-x="184" 
d="M44 598l145 142h91l-175 -142h-61zM266 598l145 142h91l-175 -142h-61z" />
    <glyph glyph-name="ogonek" unicode="&#x2db;" horiz-adv-x="184" 
d="M170 -144l5 -35c-25 -8 -68 -17 -106 -17c-76 0 -99 30 -89 78c13 63 93 105 131 118h54c-55 -24 -112 -66 -122 -112c-7 -33 14 -46 42 -46c35 0 60 7 85 14z" />
    <glyph glyph-name="caron" unicode="&#x2c7;" horiz-adv-x="184" 
d="M432 740l-173 -142h-80l-113 142h75l87 -101l129 101h75z" />
    <glyph glyph-name="emdash" unicode="&#x2014;" horiz-adv-x="1000" 
d="M52 243l13 62h1000l-13 -62h-1000z" />
    <glyph glyph-name="AE" unicode="&#xc6;" horiz-adv-x="1093" 
d="M592 300l73 346h-53l-295 -346h275zM-23 0l610 714h622l-15 -68h-455l-51 -242h433l-15 -68h-433l-57 -268h460l-14 -68h-534l49 232h-317l-197 -232h-86z" />
    <glyph glyph-name="ordfeminine" unicode="&#xaa;" horiz-adv-x="397" 
d="M409 513l8 39c-21 -13 -117 -21 -133 -22c-82 -5 -100 -24 -107 -55c-10 -45 30 -59 76 -59c65 0 142 32 156 97zM494 432l-8 -38c-9 -1 -25 -4 -47 -4c-49 0 -46 26 -41 51h-2c-13 -21 -55 -63 -165 -63c-58 0 -126 24 -111 94s83 97 198 102c92 4 106 10 111 35
c9 39 -14 55 -94 55c-71 0 -111 -18 -123 -62h-50c22 65 68 106 184 106c113 0 147 -33 135 -93l-33 -152c-5 -26 1 -35 20 -35c8 0 17 2 26 4z" />
    <glyph glyph-name="Lslash" unicode="&#x141;" horiz-adv-x="593" 
d="M217 360l241 146l-14 -62l-241 -146l-49 -230h453l-14 -68h-527l53 247l-90 -54l13 62l90 54l86 405h74z" />
    <glyph glyph-name="Oslash" unicode="&#xd8;" horiz-adv-x="852" 
d="M217 153l547 438c-47 50 -119 73 -197 73c-157 0 -327 -92 -373 -307c-19 -88 -8 -155 23 -204zM786 561l-547 -438c46 -50 118 -73 198 -73c157 0 327 92 373 307c19 88 7 156 -24 204zM41 12l110 89c-43 63 -60 147 -37 256c53 252 265 375 468 375
c100 0 189 -30 247 -89l112 89l22 -30l-110 -88c44 -61 60 -147 37 -257c-54 -252 -265 -375 -468 -375c-100 0 -188 30 -247 90l-112 -90z" />
    <glyph glyph-name="OE" unicode="&#x152;" horiz-adv-x="1167" 
d="M654 178l79 373c5 23 -45 113 -200 113c-148 0 -297 -107 -339 -307c-45 -209 53 -307 209 -307c154 0 245 100 251 128zM616 0l17 78c-65 -61 -147 -96 -245 -96c-196 0 -328 123 -274 375c40 191 200 375 434 375c94 0 167 -25 203 -86h2l15 68h515l-15 -68h-441
l-51 -242h418l-15 -68h-418l-57 -268h446l-14 -68h-520z" />
    <glyph glyph-name="ordmasculine" unicode="&#xba;" horiz-adv-x="434" 
d="M197 544c-16 -75 27 -122 110 -122s146 47 162 122c15 73 -28 120 -111 120s-146 -47 -161 -120zM141 544c18 85 96 164 226 164s176 -79 158 -164c-19 -87 -98 -166 -228 -166s-175 79 -156 166z" />
    <glyph glyph-name="ae" unicode="&#xe6;" horiz-adv-x="1074" 
d="M1089 242h-493c-23 -116 36 -196 164 -196c119 0 183 41 225 120h74c-48 -92 -145 -182 -312 -182c-140 0 -205 72 -214 140c-35 -56 -120 -140 -298 -140c-89 0 -194 39 -169 156c30 141 178 157 293 163c164 9 186 18 197 69c16 75 -28 102 -150 102
c-117 0 -180 -31 -202 -114h-68c34 109 107 176 285 176c151 0 191 -38 204 -110c63 76 149 110 234 110c134 0 281 -58 230 -294zM608 298h419c7 128 -77 176 -176 176c-124 0 -209 -70 -243 -176zM520 201l17 79c-38 -21 -89 -25 -240 -39c-87 -8 -143 -34 -156 -96
c-17 -81 48 -105 128 -105c100 0 228 54 251 161z" />
    <glyph glyph-name="dotlessi" unicode="&#x131;" horiz-adv-x="184" 
d="M55 0l111 520h74l-111 -520h-74z" />
    <glyph glyph-name="lslash" unicode="&#x142;" horiz-adv-x="184" 
d="M215 405l64 41l-12 -56l-64 -41l-74 -349h-74l64 299l-64 -42l12 56l63 42l78 365h74z" />
    <glyph glyph-name="oslash" unicode="&#xf8;" 
d="M185 121l390 303c-30 32 -77 50 -140 50c-140 0 -240 -89 -267 -214c-11 -55 -5 -102 17 -139zM41 10l82 63c-36 51 -44 117 -29 187c31 145 154 276 354 276c88 0 150 -25 188 -65l83 65l18 -26l-81 -63c35 -49 43 -116 28 -187c-31 -145 -153 -276 -353 -276
c-87 0 -149 25 -189 65l-82 -65zM594 399l-391 -303c30 -32 77 -50 141 -50c140 0 240 89 266 214c12 55 6 103 -16 139z" />
    <glyph glyph-name="oe" unicode="&#x153;" horiz-adv-x="1093" 
d="M1012 166h74c-49 -92 -150 -182 -295 -182c-106 0 -202 40 -215 137c-48 -63 -131 -137 -279 -137c-166 0 -245 122 -213 276c31 145 160 276 334 276c151 0 199 -63 221 -140c53 79 141 140 269 140c107 0 258 -58 207 -294h-475c-24 -125 24 -196 164 -196
c99 0 165 41 208 120zM158 260c-26 -125 36 -214 167 -214c124 -3 221 72 251 214c25 115 -13 214 -157 214c-136 0 -234 -89 -261 -214zM652 298h401c7 128 -79 176 -158 176c-117 0 -194 -52 -243 -176z" />
    <glyph glyph-name="germandbls" unicode="&#xdf;" horiz-adv-x="630" 
d="M342 359l14 65c10 -1 19 -3 40 -3c91 0 173 26 193 118c18 87 -56 119 -142 119c-140 0 -190 -63 -209 -155l-107 -503h-74l108 506c28 136 117 214 295 214c194 0 219 -105 203 -180c-17 -80 -80 -126 -150 -141l-1 -2c33 -6 149 -33 114 -199
c-27 -128 -137 -214 -295 -214c-29 0 -55 5 -75 8l13 61c21 -4 42 -7 63 -7c127 0 203 71 222 162c24 113 -46 151 -175 151h-37z" />
    <glyph glyph-name="onesuperior" unicode="&#xb9;" horiz-adv-x="289" 
d="M207 286l65 306h-133l8 38h32c68 0 100 9 129 78h44l-89 -422h-56z" />
    <glyph glyph-name="logicalnot" unicode="&#xac;" horiz-adv-x="600" 
d="M526 108l46 217h-456l11 50h506l-57 -267h-50z" />
    <glyph glyph-name="mu" unicode="&#xb5;" horiz-adv-x="630" 
d="M499 0l22 102h-2c-34 -55 -125 -118 -240 -118c-68 0 -116 17 -141 50l-50 -236h-74l154 722h74l-72 -335c-22 -103 46 -139 128 -139c145 0 227 74 252 192l60 282h74l-111 -520h-74z" />
    <glyph glyph-name="trademark" unicode="&#x2122;" horiz-adv-x="990" 
d="M241 302l78 368h-135l10 44h320l-10 -44h-135l-78 -368h-50zM735 380l199 334h86l-88 -412h-50l78 368h-2l-227 -368h-30l-71 368h-2l-78 -368h-50l88 412h86z" />
    <glyph glyph-name="Eth" unicode="&#xd0;" horiz-adv-x="778" 
d="M66 0l74 347h-66l12 56h66l66 311h347c208 0 287 -133 240 -357c-43 -201 -181 -357 -381 -357h-358zM277 646l-51 -243h258l-12 -56h-258l-60 -279h270c128 0 254 70 301 289c40 189 -13 289 -178 289h-270z" />
    <glyph glyph-name="onehalf" unicode="&#xbd;" horiz-adv-x="1000" 
d="M173 -16l578 724h62l-578 -724h-62zM207 286l65 306h-133l8 38h32c68 0 100 9 129 78h44l-89 -422h-56zM963 50l-11 -50h-352c16 49 41 100 187 165c113 50 155 74 166 129c12 54 -18 84 -89 84c-95 0 -129 -57 -140 -104h-56c22 104 100 148 206 148
c123 0 148 -68 135 -128c-15 -72 -69 -107 -133 -135c-149 -65 -181 -83 -197 -109h284z" />
    <glyph glyph-name="plusminus" unicode="&#xb1;" horiz-adv-x="600" 
d="M344 324l39 182h50l-39 -182h228l-11 -50h-228l-38 -182h-50l38 182h-228l11 50h228zM47 0l11 50h506l-11 -50h-506z" />
    <glyph glyph-name="Thorn" unicode="&#xde;" horiz-adv-x="704" 
d="M262 516l-59 -278h286c124 0 172 57 189 140c23 107 -30 138 -115 138h-301zM78 0l152 714h74l-28 -130h311c110 0 203 -55 171 -206c-28 -135 -133 -208 -292 -208h-278l-36 -170h-74z" />
    <glyph glyph-name="onequarter" unicode="&#xbc;" horiz-adv-x="1000" 
d="M846 143l44 205h-2l-224 -205h182zM816 0l21 99h-238l9 44l304 279h50l-60 -279h80l-9 -44h-80l-21 -99h-56zM173 -16l578 724h62l-578 -724h-62zM207 286l65 306h-133l8 38h32c68 0 100 9 129 78h44l-89 -422h-56z" />
    <glyph glyph-name="divide" unicode="&#xf7;" horiz-adv-x="600" 
d="M95 228l11 50h506l-11 -50h-506zM343 459c6 30 36 55 66 55s50 -25 44 -55c-7 -30 -37 -55 -67 -55s-50 25 -43 55zM255 47c6 30 37 55 67 55s49 -25 43 -55s-37 -55 -67 -55s-49 25 -43 55z" />
    <glyph glyph-name="brokenbar" unicode="&#xa6;" horiz-adv-x="441" 
d="M268 747h54v-387h-54v387zM268 193h54v-385h-54v385z" />
    <glyph glyph-name="degree" unicode="&#xb0;" horiz-adv-x="400" 
d="M177 565c17 79 94 143 173 143s130 -64 113 -143s-94 -143 -173 -143s-130 64 -113 143zM221 565c-12 -55 23 -99 78 -99s108 44 120 99s-23 99 -78 99s-108 -44 -120 -99z" />
    <glyph glyph-name="thorn" unicode="&#xfe;" horiz-adv-x="667" 
d="M14 -202l196 922h74l-65 -304h2c33 44 96 120 238 120c213 0 251 -149 224 -276c-31 -145 -147 -276 -341 -276c-98 0 -167 54 -187 120h-2l-65 -306h-74zM182 260c-22 -107 22 -214 173 -214c117 0 226 82 254 214c22 104 -12 214 -163 214c-123 0 -235 -78 -264 -214z
" />
    <glyph glyph-name="threequarters" unicode="&#xbe;" horiz-adv-x="1000" 
d="M846 143l44 205h-2l-224 -205h182zM816 0l21 99h-238l9 44l304 279h50l-60 -279h80l-9 -44h-80l-21 -99h-56zM275 -16l578 724h62l-578 -724h-62zM289 484l9 44c8 -2 19 -2 32 -2c65 0 109 15 120 67c10 46 -30 71 -86 71c-85 0 -129 -42 -140 -96h-56
c18 76 84 140 205 140c78 0 151 -31 133 -115c-8 -38 -46 -79 -102 -85v-2c55 -3 93 -41 79 -104c-20 -95 -113 -128 -196 -128c-124 0 -184 42 -162 145h56c-19 -88 55 -101 119 -101c80 0 119 46 127 82c16 76 -61 82 -138 84z" />
    <glyph glyph-name="twosuperior" unicode="&#xb2;" horiz-adv-x="434" 
d="M457 336l-10 -50h-352c16 49 41 100 187 165c112 50 155 74 166 129c12 54 -18 84 -89 84c-95 0 -129 -57 -141 -107h-56c23 107 100 151 206 151c123 0 149 -68 136 -128c-15 -72 -69 -107 -133 -135c-149 -65 -181 -83 -198 -109h284z" />
    <glyph glyph-name="registered" unicode="&#xae;" horiz-adv-x="800" 
d="M101 357c44 207 248 375 455 375s339 -168 295 -375s-248 -375 -455 -375s-339 168 -295 375zM151 357c-39 -184 72 -331 255 -331c184 0 356 147 395 332c39 182 -71 330 -255 330c-183 0 -356 -148 -395 -331zM564 134l-88 198h-95l-43 -198h-50l95 446h171
c101 0 136 -44 119 -124c-17 -78 -76 -114 -138 -124l91 -198h-62zM424 536l-34 -160h111c59 0 108 16 122 81c14 63 -34 79 -88 79h-111z" />
    <glyph glyph-name="minus" unicode="&#x2212;" horiz-adv-x="600" 
d="M95 228l11 50h506l-11 -50h-506z" />
    <glyph glyph-name="eth" unicode="&#xf0;" 
d="M610 260c27 125 -35 214 -175 214s-240 -89 -267 -214c-26 -125 36 -214 176 -214s240 89 266 214zM94 260c31 145 154 276 354 276c65 0 131 -23 165 -87h3c-21 63 -63 147 -152 196l-135 -57l-26 26l124 52c-29 18 -62 33 -107 48l59 40c49 -15 82 -30 123 -57l132 55
l24 -27l-124 -52c143 -93 178 -283 152 -404c-19 -90 -106 -285 -355 -285c-200 0 -268 131 -237 276z" />
    <glyph glyph-name="multiply" unicode="&#xd7;" horiz-adv-x="600" 
d="M360 288l232 191l28 -36l-231 -190l150 -190l-43 -36l-151 191l-229 -191l-29 36l231 190l-150 190l44 36z" />
    <glyph glyph-name="threesuperior" unicode="&#xb3;" horiz-adv-x="434" 
d="M289 484l9 44c8 -2 19 -2 32 -2c65 0 109 15 120 67c10 46 -30 71 -86 71c-85 0 -129 -42 -140 -96h-56c18 76 84 140 205 140c78 0 151 -31 133 -115c-8 -38 -46 -79 -102 -85v-2c55 -3 93 -41 79 -104c-20 -95 -113 -128 -196 -128c-124 0 -184 42 -162 145h56
c-19 -88 55 -101 119 -101c80 0 119 46 127 82c16 76 -61 82 -138 84z" />
    <glyph glyph-name="copyright" unicode="&#xa9;" horiz-adv-x="800" 
d="M151 357c-39 -184 72 -331 255 -331c184 0 356 147 395 332c39 182 -71 330 -255 330c-183 0 -356 -148 -395 -331zM606 280h56c-44 -95 -130 -161 -225 -161c-138 0 -205 104 -176 238c29 137 133 237 274 237c98 0 167 -56 160 -156h-56c1 60 -39 106 -114 106
c-109 0 -186 -81 -208 -187c-21 -98 24 -188 131 -188c73 0 133 48 158 111zM101 357c44 207 248 375 455 375s339 -168 295 -375s-248 -375 -455 -375s-339 168 -295 375z" />
    <glyph glyph-name="Aacute" unicode="&#xc1;" horiz-adv-x="722" 
d="M578 285l-82 355l-234 -355h316zM642 0l-49 217h-376l-143 -217h-80l476 714h86l172 -714h-86zM457 752l145 142h91l-175 -142h-61z" />
    <glyph glyph-name="Acircumflex" unicode="&#xc2;" horiz-adv-x="722" 
d="M578 285l-82 355l-234 -355h316zM642 0l-49 217h-376l-143 -217h-80l476 714h86l172 -714h-86zM338 752l173 142h80l113 -142h-75l-87 101l-129 -101h-75z" />
    <glyph glyph-name="Adieresis" unicode="&#xc4;" horiz-adv-x="722" 
d="M578 285l-82 355l-234 -355h316zM642 0l-49 217h-376l-143 -217h-80l476 714h86l172 -714h-86zM372 758l23 110h74l-23 -110h-74zM598 758l23 110h74l-23 -110h-74z" />
    <glyph glyph-name="Agrave" unicode="&#xc0;" horiz-adv-x="722" 
d="M578 285l-82 355l-234 -355h316zM642 0l-49 217h-376l-143 -217h-80l476 714h86l172 -714h-86zM500 894l85 -142h-61l-115 142h91z" />
    <glyph glyph-name="Aring" unicode="&#xc5;" horiz-adv-x="722" 
d="M578 285l-82 355l-234 -355h316zM642 0l-49 217h-376l-143 -217h-80l476 714h86l172 -714h-86zM430 843c13 60 73 110 134 110c59 0 99 -49 86 -110s-74 -110 -133 -110c-61 0 -100 50 -87 110zM468 843c-8 -40 17 -72 57 -72s79 32 87 72c9 40 -17 72 -57 72
s-78 -32 -87 -72z" />
    <glyph glyph-name="Atilde" unicode="&#xc3;" horiz-adv-x="722" 
d="M578 285l-82 355l-234 -355h316zM642 0l-49 217h-376l-143 -217h-80l476 714h86l172 -714h-86zM688 877h44c-8 -21 -21 -48 -41 -70c-20 -21 -47 -38 -85 -38c-35 0 -61 13 -84 26c-24 13 -46 26 -73 26c-44 0 -58 -31 -66 -52h-44c10 21 23 48 42 70c20 22 47 38 84 38
c35 0 62 -13 85 -26c24 -13 46 -26 73 -26c44 0 58 31 65 52z" />
    <glyph glyph-name="Ccedilla" unicode="&#xc7;" horiz-adv-x="815" 
d="M758 272h74c-50 -159 -209 -289 -413 -290l-35 -37l2 -2c10 3 24 5 41 5c51 0 80 -26 71 -68c-8 -41 -66 -76 -142 -76c-36 0 -78 11 -95 17l19 35c14 -4 50 -14 80 -14c44 0 71 12 76 38c6 27 -21 36 -44 36c-21 0 -42 -5 -55 -11l-14 17l57 62
c-207 15 -309 157 -263 373c35 163 181 375 460 375c156 0 309 -71 292 -259h-74c6 136 -104 191 -233 191c-177 0 -321 -99 -365 -307c-34 -159 18 -307 235 -307c170 0 272 86 326 222z" />
    <glyph glyph-name="Eacute" unicode="&#xc9;" horiz-adv-x="685" 
d="M78 0l152 714h568l-15 -68h-494l-51 -242h476l-15 -68h-476l-57 -268h502l-14 -68h-576zM439 752l145 142h91l-175 -142h-61z" />
    <glyph glyph-name="Ecircumflex" unicode="&#xca;" horiz-adv-x="685" 
d="M78 0l152 714h568l-15 -68h-494l-51 -242h476l-15 -68h-476l-57 -268h502l-14 -68h-576zM320 752l173 142h80l113 -142h-75l-87 101l-129 -101h-75z" />
    <glyph glyph-name="Edieresis" unicode="&#xcb;" horiz-adv-x="685" 
d="M78 0l152 714h568l-15 -68h-494l-51 -242h476l-15 -68h-476l-57 -268h502l-14 -68h-576zM354 758l23 110h74l-23 -110h-74zM580 758l23 110h74l-23 -110h-74z" />
    <glyph glyph-name="Egrave" unicode="&#xc8;" horiz-adv-x="685" 
d="M78 0l152 714h568l-15 -68h-494l-51 -242h476l-15 -68h-476l-57 -268h502l-14 -68h-576zM482 894l85 -142h-61l-115 142h91z" />
    <glyph glyph-name="Iacute" unicode="&#xcd;" horiz-adv-x="222" 
d="M74 0l152 714h74l-152 -714h-74zM207 752l145 142h91l-175 -142h-61z" />
    <glyph glyph-name="Icircumflex" unicode="&#xce;" horiz-adv-x="222" 
d="M74 0l152 714h74l-152 -714h-74zM88 752l173 142h80l113 -142h-75l-87 101l-129 -101h-75z" />
    <glyph glyph-name="Idieresis" unicode="&#xcf;" horiz-adv-x="222" 
d="M74 0l152 714h74l-152 -714h-74zM122 758l23 110h74l-23 -110h-74zM348 758l23 110h74l-23 -110h-74z" />
    <glyph glyph-name="Igrave" unicode="&#xcc;" horiz-adv-x="222" 
d="M74 0l152 714h74l-152 -714h-74zM250 894l85 -142h-61l-115 142h91z" />
    <glyph glyph-name="Ntilde" unicode="&#xd1;" horiz-adv-x="796" 
d="M66 0l152 714h89l369 -610h2l130 610h74l-152 -714h-86l-372 610h-2l-130 -610h-74zM725 877h44c-8 -21 -21 -48 -41 -70c-20 -21 -47 -38 -85 -38c-35 0 -61 13 -84 26c-24 13 -46 26 -73 26c-44 0 -58 -31 -66 -52h-44c10 21 23 48 42 70c20 22 47 38 84 38
c35 0 62 -13 85 -26c24 -13 46 -26 73 -26c44 0 58 31 65 52z" />
    <glyph glyph-name="Oacute" unicode="&#xd3;" horiz-adv-x="852" 
d="M114 357c53 252 265 375 468 375s361 -123 308 -375c-54 -252 -265 -375 -468 -375s-362 123 -308 375zM194 357c-46 -215 86 -307 243 -307s327 92 373 307s-86 307 -243 307s-327 -92 -373 -307zM522 752l145 142h91l-175 -142h-61z" />
    <glyph glyph-name="Ocircumflex" unicode="&#xd4;" horiz-adv-x="852" 
d="M114 357c53 252 265 375 468 375s361 -123 308 -375c-54 -252 -265 -375 -468 -375s-362 123 -308 375zM194 357c-46 -215 86 -307 243 -307s327 92 373 307s-86 307 -243 307s-327 -92 -373 -307zM403 752l173 142h80l113 -142h-75l-87 101l-129 -101h-75z" />
    <glyph glyph-name="Odieresis" unicode="&#xd6;" horiz-adv-x="852" 
d="M114 357c53 252 265 375 468 375s361 -123 308 -375c-54 -252 -265 -375 -468 -375s-362 123 -308 375zM194 357c-46 -215 86 -307 243 -307s327 92 373 307s-86 307 -243 307s-327 -92 -373 -307zM437 758l23 110h74l-23 -110h-74zM663 758l23 110h74l-23 -110h-74z" />
    <glyph glyph-name="Ograve" unicode="&#xd2;" horiz-adv-x="852" 
d="M114 357c53 252 265 375 468 375s361 -123 308 -375c-54 -252 -265 -375 -468 -375s-362 123 -308 375zM194 357c-46 -215 86 -307 243 -307s327 92 373 307s-86 307 -243 307s-327 -92 -373 -307zM565 894l85 -142h-61l-115 142h91z" />
    <glyph glyph-name="Otilde" unicode="&#xd5;" horiz-adv-x="852" 
d="M114 357c53 252 265 375 468 375s361 -123 308 -375c-54 -252 -265 -375 -468 -375s-362 123 -308 375zM194 357c-46 -215 86 -307 243 -307s327 92 373 307s-86 307 -243 307s-327 -92 -373 -307zM753 877h44c-8 -21 -21 -48 -41 -70c-20 -21 -47 -38 -85 -38
c-35 0 -61 13 -84 26c-24 13 -46 26 -73 26c-44 0 -58 -31 -66 -52h-44c10 21 23 48 42 70c20 22 47 38 84 38c35 0 62 -13 85 -26c24 -13 46 -26 73 -26c44 0 58 31 65 52z" />
    <glyph glyph-name="Scaron" unicode="&#x160;" 
d="M732 510h-74c16 122 -76 154 -191 154s-211 -45 -229 -126c-19 -93 63 -115 231 -144c125 -22 249 -52 220 -189c-38 -175 -207 -223 -346 -223c-181 0 -300 62 -270 254h74c-19 -150 74 -186 211 -186c107 0 224 29 248 142c23 109 -104 122 -230 143
c-164 27 -245 75 -220 190c33 156 188 207 326 207c146 0 282 -52 250 -222zM707 894l-173 -142h-80l-113 142h75l87 -101l129 101h75z" />
    <glyph glyph-name="Uacute" unicode="&#xda;" horiz-adv-x="778" 
d="M860 714l-93 -438c-28 -130 -99 -294 -382 -294s-284 164 -256 294l93 438h74l-93 -438c-40 -187 73 -226 197 -226s253 39 293 226l93 438h74zM485 752l145 142h91l-175 -142h-61z" />
    <glyph glyph-name="Ucircumflex" unicode="&#xdb;" horiz-adv-x="778" 
d="M860 714l-93 -438c-28 -130 -99 -294 -382 -294s-284 164 -256 294l93 438h74l-93 -438c-40 -187 73 -226 197 -226s253 39 293 226l93 438h74zM366 752l173 142h80l113 -142h-75l-87 101l-129 -101h-75z" />
    <glyph glyph-name="Udieresis" unicode="&#xdc;" horiz-adv-x="778" 
d="M860 714l-93 -438c-28 -130 -99 -294 -382 -294s-284 164 -256 294l93 438h74l-93 -438c-40 -187 73 -226 197 -226s253 39 293 226l93 438h74zM400 758l23 110h74l-23 -110h-74zM626 758l23 110h74l-23 -110h-74z" />
    <glyph glyph-name="Ugrave" unicode="&#xd9;" horiz-adv-x="778" 
d="M860 714l-93 -438c-28 -130 -99 -294 -382 -294s-284 164 -256 294l93 438h74l-93 -438c-40 -187 73 -226 197 -226s253 39 293 226l93 438h74zM528 894l85 -142h-61l-115 142h91z" />
    <glyph glyph-name="Yacute" unicode="&#xdd;" horiz-adv-x="686" 
d="M306 0l64 300l-233 414h96l189 -340l335 340h96l-409 -414l-64 -300h-74zM439 752l145 142h91l-175 -142h-61z" />
    <glyph glyph-name="Ydieresis" unicode="&#x178;" horiz-adv-x="686" 
d="M306 0l64 300l-233 414h96l189 -340l335 340h96l-409 -414l-64 -300h-74zM354 758l23 110h74l-23 -110h-74zM580 758l23 110h74l-23 -110h-74z" />
    <glyph glyph-name="Zcaron" unicode="&#x17d;" horiz-adv-x="648" 
d="M5 0l14 68l653 578h-496l15 68h596l-15 -68l-656 -578h541l-14 -68h-638zM697 894l-173 -142h-80l-113 142h75l87 -101l129 101h75z" />
    <glyph glyph-name="aacute" unicode="&#xe1;" horiz-adv-x="611" 
d="M514 201l17 79c-38 -21 -89 -25 -240 -39c-87 -8 -143 -34 -156 -96c-17 -81 48 -105 128 -105c100 0 228 54 251 161zM198 360h-68c34 109 107 176 285 176c174 0 226 -54 205 -154l-58 -272c-9 -43 0 -58 29 -58c13 0 26 1 39 2l-10 -50c-16 -3 -40 -8 -64 -8
c-75 0 -68 51 -60 92h-2c-31 -34 -95 -104 -265 -104c-89 0 -194 39 -169 156c30 141 178 157 293 163c164 9 186 18 197 69c16 75 -28 102 -150 102c-117 0 -180 -31 -202 -114zM369 598l145 142h91l-175 -142h-61z" />
    <glyph glyph-name="acircumflex" unicode="&#xe2;" horiz-adv-x="611" 
d="M514 201l17 79c-38 -21 -89 -25 -240 -39c-87 -8 -143 -34 -156 -96c-17 -81 48 -105 128 -105c100 0 228 54 251 161zM198 360h-68c34 109 107 176 285 176c174 0 226 -54 205 -154l-58 -272c-9 -43 0 -58 29 -58c13 0 26 1 39 2l-10 -50c-16 -3 -40 -8 -64 -8
c-75 0 -68 51 -60 92h-2c-31 -34 -95 -104 -265 -104c-89 0 -194 39 -169 156c30 141 178 157 293 163c164 9 186 18 197 69c16 75 -28 102 -150 102c-117 0 -180 -31 -202 -114zM250 598l173 142h80l113 -142h-75l-86 101l-130 -101h-75z" />
    <glyph glyph-name="adieresis" unicode="&#xe4;" horiz-adv-x="611" 
d="M514 201l17 79c-38 -21 -89 -25 -240 -39c-87 -8 -143 -34 -156 -96c-17 -81 48 -105 128 -105c100 0 228 54 251 161zM198 360h-68c34 109 107 176 285 176c174 0 226 -54 205 -154l-58 -272c-9 -43 0 -58 29 -58c13 0 26 1 39 2l-10 -50c-16 -3 -40 -8 -64 -8
c-75 0 -68 51 -60 92h-2c-31 -34 -95 -104 -265 -104c-89 0 -194 39 -169 156c30 141 178 157 293 163c164 9 186 18 197 69c16 75 -28 102 -150 102c-117 0 -180 -31 -202 -114zM284 604l24 110h74l-24 -110h-74zM510 604l24 110h74l-24 -110h-74z" />
    <glyph glyph-name="agrave" unicode="&#xe0;" horiz-adv-x="611" 
d="M514 201l17 79c-38 -21 -89 -25 -240 -39c-87 -8 -143 -34 -156 -96c-17 -81 48 -105 128 -105c100 0 228 54 251 161zM198 360h-68c34 109 107 176 285 176c174 0 226 -54 205 -154l-58 -272c-9 -43 0 -58 29 -58c13 0 26 1 39 2l-10 -50c-16 -3 -40 -8 -64 -8
c-75 0 -68 51 -60 92h-2c-31 -34 -95 -104 -265 -104c-89 0 -194 39 -169 156c30 141 178 157 293 163c164 9 186 18 197 69c16 75 -28 102 -150 102c-117 0 -180 -31 -202 -114zM412 740l85 -142h-61l-115 142h91z" />
    <glyph glyph-name="aring" unicode="&#xe5;" horiz-adv-x="611" 
d="M514 201l17 79c-38 -21 -89 -25 -240 -39c-87 -8 -143 -34 -156 -96c-17 -81 48 -105 128 -105c100 0 228 54 251 161zM198 360h-68c34 109 107 176 285 176c174 0 226 -54 205 -154l-58 -272c-9 -43 0 -58 29 -58c13 0 26 1 39 2l-10 -50c-16 -3 -40 -8 -64 -8
c-75 0 -68 51 -60 92h-2c-31 -34 -95 -104 -265 -104c-89 0 -194 39 -169 156c30 141 178 157 293 163c164 9 186 18 197 69c16 75 -28 102 -150 102c-117 0 -180 -31 -202 -114zM342 689c13 60 73 110 134 110c59 0 99 -49 86 -110s-74 -110 -133 -110
c-61 0 -99 50 -87 110zM380 689c-8 -40 17 -72 57 -72s79 32 87 72c9 40 -16 72 -56 72s-79 -32 -88 -72z" />
    <glyph glyph-name="atilde" unicode="&#xe3;" horiz-adv-x="611" 
d="M514 201l17 79c-38 -21 -89 -25 -240 -39c-87 -8 -143 -34 -156 -96c-17 -81 48 -105 128 -105c100 0 228 54 251 161zM198 360h-68c34 109 107 176 285 176c174 0 226 -54 205 -154l-58 -272c-9 -43 0 -58 29 -58c13 0 26 1 39 2l-10 -50c-16 -3 -40 -8 -64 -8
c-75 0 -68 51 -60 92h-2c-31 -34 -95 -104 -265 -104c-89 0 -194 39 -169 156c30 141 178 157 293 163c164 9 186 18 197 69c16 75 -28 102 -150 102c-117 0 -180 -31 -202 -114zM601 723h44c-9 -21 -22 -48 -42 -70c-20 -21 -46 -38 -84 -38c-35 0 -62 13 -85 26
c-24 13 -46 26 -73 26c-44 0 -58 -31 -65 -52h-44c9 21 22 48 42 70c19 22 47 38 84 38c35 0 61 -13 84 -26c24 -13 47 -26 74 -26c44 0 57 31 65 52z" />
    <glyph glyph-name="ccedilla" unicode="&#xe7;" horiz-adv-x="611" 
d="M552 186h74c-29 -68 -117 -202 -306 -202h-1l-37 -39l2 -2c10 3 24 5 41 5c51 0 80 -26 71 -68c-8 -41 -66 -76 -142 -76c-36 0 -78 11 -95 17l19 35c14 -4 50 -14 80 -14c44 0 71 12 76 38c6 27 -21 36 -44 36c-21 0 -42 -5 -55 -11l-14 17l60 65
c-161 14 -228 122 -196 273c33 156 155 276 352 276c178 0 223 -111 219 -186h-74c-4 89 -66 124 -158 124c-149 0 -239 -94 -265 -214c-27 -129 33 -214 174 -214c109 0 182 59 219 140z" />
    <glyph glyph-name="eacute" unicode="&#xe9;" horiz-adv-x="648" 
d="M176 298h428c7 128 -77 176 -176 176c-95 0 -208 -49 -252 -176zM563 166h74c-49 -92 -146 -182 -318 -182c-213 0 -252 149 -225 276c31 145 148 276 342 276c134 0 281 -58 230 -294h-502c-23 -108 36 -196 168 -196c124 0 188 41 231 120zM387 598l145 142h91
l-175 -142h-61z" />
    <glyph glyph-name="ecircumflex" unicode="&#xea;" horiz-adv-x="648" 
d="M176 298h428c7 128 -77 176 -176 176c-95 0 -208 -49 -252 -176zM563 166h74c-49 -92 -146 -182 -318 -182c-213 0 -252 149 -225 276c31 145 148 276 342 276c134 0 281 -58 230 -294h-502c-23 -108 36 -196 168 -196c124 0 188 41 231 120zM268 598l173 142h80
l113 -142h-75l-86 101l-130 -101h-75z" />
    <glyph glyph-name="edieresis" unicode="&#xeb;" horiz-adv-x="648" 
d="M176 298h428c7 128 -77 176 -176 176c-95 0 -208 -49 -252 -176zM563 166h74c-49 -92 -146 -182 -318 -182c-213 0 -252 149 -225 276c31 145 148 276 342 276c134 0 281 -58 230 -294h-502c-23 -108 36 -196 168 -196c124 0 188 41 231 120zM302 604l24 110h74l-24 -110
h-74zM528 604l24 110h74l-24 -110h-74z" />
    <glyph glyph-name="egrave" unicode="&#xe8;" horiz-adv-x="648" 
d="M176 298h428c7 128 -77 176 -176 176c-95 0 -208 -49 -252 -176zM563 166h74c-49 -92 -146 -182 -318 -182c-213 0 -252 149 -225 276c31 145 148 276 342 276c134 0 281 -58 230 -294h-502c-23 -108 36 -196 168 -196c124 0 188 41 231 120zM430 740l85 -142h-61
l-115 142h91z" />
    <glyph glyph-name="iacute" unicode="&#xed;" horiz-adv-x="184" 
d="M55 0l111 520h74l-111 -520h-74zM155 598l145 142h91l-175 -142h-61z" />
    <glyph glyph-name="icircumflex" unicode="&#xee;" horiz-adv-x="184" 
d="M55 0l111 520h74l-111 -520h-74zM36 598l173 142h80l113 -142h-75l-86 101l-130 -101h-75z" />
    <glyph glyph-name="idieresis" unicode="&#xef;" horiz-adv-x="184" 
d="M55 0l111 520h74l-111 -520h-74zM70 604l24 110h74l-24 -110h-74zM296 604l24 110h74l-24 -110h-74z" />
    <glyph glyph-name="igrave" unicode="&#xec;" horiz-adv-x="184" 
d="M55 0l111 520h74l-111 -520h-74zM198 740l85 -142h-61l-115 142h91z" />
    <glyph glyph-name="ntilde" unicode="&#xf1;" horiz-adv-x="630" 
d="M499 0l71 335c22 103 -33 139 -127 139c-145 0 -227 -74 -252 -192l-60 -282h-74l111 520h74l-22 -102h2c34 55 125 118 240 118c173 0 206 -90 179 -214l-68 -322h-74zM610 723h44c-9 -21 -22 -48 -42 -70c-20 -21 -46 -38 -84 -38c-35 0 -62 13 -85 26
c-24 13 -46 26 -73 26c-44 0 -58 -31 -65 -52h-44c9 21 22 48 42 70c19 22 47 38 84 38c35 0 61 -13 84 -26c24 -13 47 -26 74 -26c44 0 57 31 65 52z" />
    <glyph glyph-name="oacute" unicode="&#xf3;" 
d="M168 260c-26 -125 36 -214 176 -214s240 89 266 214c27 125 -35 214 -175 214s-240 -89 -267 -214zM94 260c31 145 154 276 354 276s267 -131 236 -276s-153 -276 -353 -276s-268 131 -237 276zM397 598l145 142h91l-175 -142h-61z" />
    <glyph glyph-name="ocircumflex" unicode="&#xf4;" 
d="M168 260c-26 -125 36 -214 176 -214s240 89 266 214c27 125 -35 214 -175 214s-240 -89 -267 -214zM94 260c31 145 154 276 354 276s267 -131 236 -276s-153 -276 -353 -276s-268 131 -237 276zM278 598l173 142h80l113 -142h-75l-86 101l-130 -101h-75z" />
    <glyph glyph-name="odieresis" unicode="&#xf6;" 
d="M168 260c-26 -125 36 -214 176 -214s240 89 266 214c27 125 -35 214 -175 214s-240 -89 -267 -214zM94 260c31 145 154 276 354 276s267 -131 236 -276s-153 -276 -353 -276s-268 131 -237 276zM312 604l24 110h74l-24 -110h-74zM538 604l24 110h74l-24 -110h-74z" />
    <glyph glyph-name="ograve" unicode="&#xf2;" 
d="M168 260c-26 -125 36 -214 176 -214s240 89 266 214c27 125 -35 214 -175 214s-240 -89 -267 -214zM94 260c31 145 154 276 354 276s267 -131 236 -276s-153 -276 -353 -276s-268 131 -237 276zM440 740l85 -142h-61l-115 142h91z" />
    <glyph glyph-name="otilde" unicode="&#xf5;" 
d="M168 260c-26 -125 36 -214 176 -214s240 89 266 214c27 125 -35 214 -175 214s-240 -89 -267 -214zM94 260c31 145 154 276 354 276s267 -131 236 -276s-153 -276 -353 -276s-268 131 -237 276zM629 723h44c-9 -21 -22 -48 -42 -70c-20 -21 -46 -38 -84 -38
c-35 0 -62 13 -85 26c-24 13 -46 26 -73 26c-44 0 -58 -31 -65 -52h-44c9 21 22 48 42 70c19 22 47 38 84 38c35 0 61 -13 84 -26c24 -13 47 -26 74 -26c44 0 57 31 65 52z" />
    <glyph glyph-name="scaron" unicode="&#x161;" horiz-adv-x="556" 
d="M590 366h-68c-1 84 -48 108 -156 108c-78 0 -154 -17 -169 -89c-12 -54 21 -65 175 -86s214 -49 193 -150c-22 -103 -119 -165 -282 -165c-165 0 -252 54 -225 179h68c-6 -87 37 -117 170 -117c103 0 177 21 194 99c11 52 -21 75 -180 91c-158 16 -207 54 -188 146
c19 90 106 154 257 154c169 0 225 -61 211 -170zM618 740l-173 -142h-80l-113 142h75l87 -101l129 101h75z" />
    <glyph glyph-name="uacute" unicode="&#xfa;" horiz-adv-x="630" 
d="M499 0l22 102h-2c-34 -55 -125 -118 -240 -118c-173 0 -206 90 -180 214l69 322h74l-72 -335c-22 -103 34 -139 128 -139c145 0 227 74 252 192l60 282h74l-111 -520h-74zM378 598l145 142h91l-175 -142h-61z" />
    <glyph glyph-name="ucircumflex" unicode="&#xfb;" horiz-adv-x="630" 
d="M499 0l22 102h-2c-34 -55 -125 -118 -240 -118c-173 0 -206 90 -180 214l69 322h74l-72 -335c-22 -103 34 -139 128 -139c145 0 227 74 252 192l60 282h74l-111 -520h-74zM259 598l173 142h80l113 -142h-75l-86 101l-130 -101h-75z" />
    <glyph glyph-name="udieresis" unicode="&#xfc;" horiz-adv-x="630" 
d="M499 0l22 102h-2c-34 -55 -125 -118 -240 -118c-173 0 -206 90 -180 214l69 322h74l-72 -335c-22 -103 34 -139 128 -139c145 0 227 74 252 192l60 282h74l-111 -520h-74zM293 604l24 110h74l-24 -110h-74zM519 604l24 110h74l-24 -110h-74z" />
    <glyph glyph-name="ugrave" unicode="&#xf9;" horiz-adv-x="630" 
d="M499 0l22 102h-2c-34 -55 -125 -118 -240 -118c-173 0 -206 90 -180 214l69 322h74l-72 -335c-22 -103 34 -139 128 -139c145 0 227 74 252 192l60 282h74l-111 -520h-74zM421 740l85 -142h-61l-115 142h91z" />
    <glyph glyph-name="yacute" unicode="&#xfd;" horiz-adv-x="556" 
d="M304 87l289 433h80l-414 -617c-55 -82 -92 -105 -174 -105c-23 0 -49 0 -71 2l14 62c15 -1 32 -2 52 -2c53 0 82 12 117 64l49 72l-141 524h80zM341 598l145 142h91l-175 -142h-61z" />
    <glyph glyph-name="ydieresis" unicode="&#xff;" horiz-adv-x="556" 
d="M304 87l289 433h80l-414 -617c-55 -82 -92 -105 -174 -105c-23 0 -49 0 -71 2l14 62c15 -1 32 -2 52 -2c53 0 82 12 117 64l49 72l-141 524h80zM256 604l24 110h74l-24 -110h-74zM482 604l24 110h74l-24 -110h-74z" />
    <glyph glyph-name="zcaron" unicode="&#x17e;" horiz-adv-x="556" 
d="M20 0l13 62l479 396h-372l14 62h478l-14 -62l-487 -396h418l-13 -62h-516zM618 740l-173 -142h-80l-113 142h75l87 -101l129 101h75z" />
    <glyph glyph-name="Delta" unicode="&#x2206;" horiz-adv-x="770" 
d="M36 0l10 48l454 671h78l166 -671l-10 -48h-698zM116 52h554l-102 411c-10 51 -37 150 -42 195h-5c-19 -32 -80 -123 -113 -174z" />
    <glyph glyph-name="Omega" unicode="&#x2126;" horiz-adv-x="877" 
d="M259 51v3c-75 60 -132 166 -101 313c42 198 233 342 434 342c213 0 321 -164 284 -339c-33 -153 -142 -264 -239 -316v-3h187l-11 -51h-280l8 38c108 48 230 155 266 324c29 136 -39 296 -225 296c-179 0 -325 -139 -359 -299c-33 -158 40 -273 129 -321l-8 -38h-281
l11 51h185z" />
    <glyph glyph-name="uni03BC" unicode="&#x3bc;" horiz-adv-x="630" 
d="M499 0l22 102h-2c-34 -55 -125 -118 -240 -118c-68 0 -116 17 -141 50l-50 -236h-74l154 722h74l-72 -335c-22 -103 46 -139 128 -139c145 0 227 74 252 192l60 282h74l-111 -520h-74z" />
    <glyph glyph-name="pi" unicode="&#x3c0;" horiz-adv-x="665" 
d="M734 464h-101l-66 -307c-20 -94 -18 -130 -16 -157h-65c-8 15 -8 54 12 147l68 317h-237c-37 -135 -128 -378 -189 -464h-66c67 102 151 323 188 464c-81 0 -117 -6 -145 -16l-3 42c34 16 81 27 168 27h471z" />
    <glyph glyph-name="Euro" unicode="&#x20ac;" 
d="M788 613l-50 -60c-9 25 -24 48 -58 67c-40 22 -87 26 -125 26c-42 0 -127 -6 -194 -68c-33 -30 -62 -78 -78 -122h381l-39 -50h-360c-10 -36 -18 -72 -22 -107h305l-39 -50h-272c-4 -46 4 -95 24 -130c38 -65 103 -73 158 -73c54 0 100 8 156 35c40 20 73 44 102 73
l-19 -86c-24 -19 -55 -39 -87 -52c-50 -21 -117 -32 -169 -32c-70 0 -157 15 -206 96c-26 42 -38 106 -33 169h-100l39 50h67c4 35 12 71 22 107h-95l39 50h74c21 56 60 120 111 165c89 79 186 87 250 87c43 0 104 -4 153 -31c35 -19 54 -44 65 -64z" />
    <glyph glyph-name="afii61289" unicode="&#x2113;" horiz-adv-x="560" 
d="M528 152l29 -28c-71 -90 -154 -135 -244 -135c-125 0 -163 92 -149 185l3 12c-25 -15 -54 -35 -81 -52l-14 39c37 25 74 46 106 70l59 281c40 188 144 242 223 242c98 0 125 -79 107 -164c-28 -131 -154 -252 -331 -380l-5 -23c-22 -111 38 -159 106 -159
c79 0 152 61 191 112zM303 536l-54 -252c133 105 243 206 266 313c14 68 2 122 -67 122c-45 0 -116 -44 -145 -183z" />
    <glyph glyph-name="estimated" unicode="&#x212e;" horiz-adv-x="1022" 
d="M988 336h-651c-3 0 -5 -1 -5 -4v-197c0 -9 3 -17 8 -23c63 -65 150 -107 247 -107c104 0 196 47 259 120h58c-72 -85 -189 -140 -318 -140c-222 0 -402 161 -402 360c0 201 180 363 402 363s402 -162 402 -363v-9zM840 362v198c0 8 -3 17 -9 23c-63 62 -149 103 -244 103
c-96 0 -182 -42 -246 -106c-6 -6 -9 -15 -9 -25v-193c0 -3 2 -7 5 -7h499c3 0 4 4 4 7z" />
    <glyph glyph-name="partialdiff" unicode="&#x2202;" horiz-adv-x="634" 
d="M261 674l-17 43c43 28 111 58 205 58c150 0 260 -134 208 -381c-43 -202 -184 -407 -387 -407c-156 0 -196 130 -174 233c32 152 169 249 299 249c120 0 174 -88 185 -120h1c4 15 9 39 13 54c42 201 -41 321 -162 321c-76 0 -134 -27 -171 -50zM286 38h1
c121 0 225 121 270 250c-8 47 -61 131 -163 131s-207 -86 -231 -196c-21 -101 25 -185 123 -185z" />
    <glyph glyph-name="product" unicode="&#x220f;" horiz-adv-x="967" 
d="M939 639h-137v-735h-66v735h-357v-735h-66v735h-137v57h763v-57z" />
    <glyph glyph-name="summation" unicode="&#x2211;" horiz-adv-x="800" 
d="M773 -96h-601v41l327 353l-312 355v43h570v-56h-471v-4l292 -331l-312 -339v-2h507v-60z" />
    <glyph glyph-name="uni2219" unicode="&#x2219;" horiz-adv-x="278" 
d="M139 312c8 36 44 66 80 66s60 -30 52 -66c-7 -36 -44 -66 -80 -66s-59 30 -52 66z" />
    <glyph glyph-name="radical" unicode="&#x221a;" horiz-adv-x="803" 
d="M808 823l-261 -975h-64l-190 469l-88 -33l-16 40l144 57l162 -407c6 -19 14 -41 19 -61h1c4 19 11 42 15 62l225 848h53z" />
    <glyph glyph-name="infinity" unicode="&#x221e;" horiz-adv-x="969" 
d="M910 289v-1c0 -104 -81 -172 -168 -172c-72 0 -128 51 -208 137c-60 -68 -122 -137 -214 -137c-88 0 -164 75 -164 169c0 98 74 172 173 172c84 0 150 -69 210 -138c61 69 120 138 212 138c97 -1 159 -70 159 -168zM327 160h2c74 0 133 76 180 124
c-50 60 -106 131 -189 131c-73 0 -116 -63 -116 -132c0 -67 48 -123 123 -123zM746 415h-2c-78 0 -141 -87 -182 -127c78 -82 124 -128 185 -128c74 0 116 64 116 125c0 82 -52 130 -117 130z" />
    <glyph glyph-name="integral" unicode="&#x222b;" horiz-adv-x="537" 
d="M526 832l-14 -44c-9 7 -29 13 -44 13c-18 0 -43 -5 -59 -22c-31 -32 -42 -88 -42 -182c0 -155 16 -349 16 -507c0 -111 -26 -169 -50 -200c-23 -31 -62 -48 -102 -48c-28 0 -60 11 -73 19l13 46c10 -5 31 -15 56 -15c19 0 40 8 53 22c25 28 45 71 45 178
c0 159 -17 357 -17 511c0 107 16 170 59 209c29 27 63 36 97 36c23 0 50 -9 62 -16z" />
    <glyph glyph-name="approxequal" unicode="&#x2248;" horiz-adv-x="757" 
d="M670 439l28 -26c-32 -55 -75 -100 -146 -100c-49 0 -82 19 -140 49c-35 18 -71 37 -112 37c-55 0 -89 -40 -120 -83l-29 26c36 63 92 100 157 100c56 0 98 -30 132 -47c42 -21 68 -38 115 -38c48 0 81 26 115 82zM670 252l28 -26c-32 -54 -74 -99 -146 -99
c-49 0 -82 19 -140 49c-35 18 -71 37 -111 37c-57 0 -90 -40 -121 -84l-29 27c36 63 93 100 157 100c57 0 98 -29 131 -46c39 -20 68 -39 116 -39c49 0 80 26 115 81z" />
    <glyph glyph-name="notequal" unicode="&#x2260;" horiz-adv-x="780" 
d="M581 529l-55 -116h194v-44h-214l-82 -170h296v-44h-316l-66 -139l-37 19l58 120h-183v44h203l82 170h-285v44h305l64 135z" />
    <glyph glyph-name="lessequal" unicode="&#x2264;" horiz-adv-x="795" 
d="M732 81l-533 247v47l533 247v-52l-482 -217v-2l482 -218v-52zM735 -8h-544v43h544v-43z" />
    <glyph glyph-name="greaterequal" unicode="&#x2265;" horiz-adv-x="795" 
d="M199 622l533 -247v-47l-533 -247v52l481 217v3l-481 217v52zM734 -8h-542v43h542v-43z" />
    <glyph glyph-name="lozenge" unicode="&#x25ca;" horiz-adv-x="805" 
d="M741 348l-238 -402h-53l-236 402l237 401h53zM679 346l-180 306c-8 14 -17 34 -22 46h-2c-6 -15 -14 -30 -23 -46l-177 -303l181 -307c10 -19 18 -34 21 -44h3c4 11 13 31 21 44z" />
    <glyph glyph-name="uni00A0" unicode="&#xa0;" horiz-adv-x="278" 
 />
    <glyph glyph-name="uni00AD" unicode="&#xad;" horiz-adv-x="444" 
d="M120 237l16 74h304l-16 -74h-304z" />
    <glyph glyph-name="uni02C9" unicode="&#x2c9;" horiz-adv-x="184" 
d="M35 641l12 56h386l-12 -56h-386z" />
    <glyph glyph-name="uni03A9" unicode="&#x3a9;" horiz-adv-x="877" 
d="M259 51v3c-75 60 -132 166 -101 313c42 198 233 342 434 342c213 0 321 -164 284 -339c-33 -153 -142 -264 -239 -316v-3h187l-11 -51h-280l8 38c108 48 230 155 266 324c29 136 -39 296 -225 296c-179 0 -325 -139 -359 -299c-33 -158 40 -273 129 -321l-8 -38h-281
l11 51h185z" />
    <glyph glyph-name="uni2215" unicode="&#x2215;" horiz-adv-x="167" 
d="M-163 -16l578 724h62l-578 -724h-62z" />
    </font>
</defs>
</svg>
