<?xml version="1.0" standalone="no"?>
<!DOCTYPE svg PUBLIC "-//W3C//DTD SVG 1.1//EN" "http://www.w3.org/Graphics/SVG/1.1/DTD/svg11.dtd" >
<svg xmlns="http://www.w3.org/2000/svg" width="100%" height="100%">
<metadata>
Created by FontXChange 20110222 at Wed Sep  7 14:39:23 2016
 By Raymond Gardener
Typeface (c) Vi't Conda'k. 2014. http://fonty.condak.cz
</metadata>
<defs>
<font id="OctagonalLight" horiz-adv-x="820" >
  <font-face 
    font-family="OctagonalLight"
    font-weight="300"
    font-stretch="normal"
    units-per-em="2048"
    panose-1="2 1 3 3 0 2 0 0 0 3"
    ascent="1638"
    descent="-410"
    x-height="820"
    cap-height="1220"
    bbox="-210 -430 1730 1620"
    underline-thickness="150"
    underline-position="-125"
    unicode-range="U+0020-F001"
  />
<missing-glyph horiz-adv-x="1020" 
d="M550 200q0 -18 -12 -29t-28 -11t-28 11t-12 29t12 29t28 11t28 -11t12 -29zM530 492v-192q0 -8 -6 -14t-14 -6t-14 6t-6 14v200q0 8 6 14l194 194v184l-88 88h-184l-94 -94q-6 -6 -14 -6t-14 6t-6 14t6 14l100 100q6 6 14 6h200q8 0 14 -6l100 -100q6 -6 6 -14v-200
q0 -8 -6 -14zM910 1220q8 0 14 -6t6 -14v-1200q0 -8 -6 -14t-14 -6h-800q-8 0 -14 6t-6 14v1200q0 8 6 14t14 6h800zM130 1180v-1160h760v1160h-760z" />
    <glyph glyph-name=".notdef" horiz-adv-x="1020" 
d="M550 200q0 -18 -12 -29t-28 -11t-28 11t-12 29t12 29t28 11t28 -11t12 -29zM530 492v-192q0 -8 -6 -14t-14 -6t-14 6t-6 14v200q0 8 6 14l194 194v184l-88 88h-184l-94 -94q-6 -6 -14 -6t-14 6t-6 14t6 14l100 100q6 6 14 6h200q8 0 14 -6l100 -100q6 -6 6 -14v-200
q0 -8 -6 -14zM910 1220q8 0 14 -6t6 -14v-1200q0 -8 -6 -14t-14 -6h-800q-8 0 -14 6t-6 14v1200q0 8 6 14t14 6h800zM130 1180v-1160h760v1160h-760z" />
    <glyph glyph-name=".null" horiz-adv-x="25" 
 />
    <glyph glyph-name="nonmarkingreturn" horiz-adv-x="528" 
 />
    <glyph glyph-name="space" unicode=" " horiz-adv-x="528" 
 />
    <glyph glyph-name="space" unicode="&#xa0;" horiz-adv-x="528" 
 />
    <glyph glyph-name="exclam" unicode="!" horiz-adv-x="220" 
d="M90 1200q0 8 6 14t14 6t14 -6t6 -14v-1000q0 -8 -6 -14t-14 -6t-14 6t-6 14v1000zM150 0q0 -18 -12 -29t-28 -11t-28 11t-12 29t12 29t28 11t28 -11t12 -29z" />
    <glyph glyph-name="quotedbl" unicode="&#x22;" horiz-adv-x="420" 
d="M130 1000q0 -8 -6 -14t-14 -6t-14 6t-6 14v200q0 8 6 14t14 6t14 -6t6 -14v-200zM330 1000q0 -8 -6 -14t-14 -6t-14 6t-6 14v200q0 8 6 14t14 6t14 -6t6 -14v-200z" />
    <glyph glyph-name="numbersign" unicode="#" horiz-adv-x="920" 
d="M240 320v360h-180q-8 0 -14 6t-6 14t6 14t14 6h180v180q0 8 6 14t14 6t14 -6t6 -14v-180h360v180q0 8 6 14t14 6t14 -6t6 -14v-180h180q8 0 14 -6t6 -14t-6 -14t-14 -6h-180v-360h180q8 0 14 -6t6 -14t-6 -14t-14 -6h-180v-180q0 -8 -6 -14t-14 -6t-14 6t-6 14v180h-360
v-180q0 -8 -6 -14t-14 -6t-14 6t-6 14v180h-180q-8 0 -14 6t-6 14t6 14t14 6h180zM280 680v-360h360v360h-360z" />
    <glyph glyph-name="dollar" unicode="$" horiz-adv-x="1020" 
d="M530 -20v-180q0 -8 -6 -14t-14 -6t-14 6t-6 14v180h-180q-8 0 -14 6l-200 200q-6 6 -6 14t6 14t14 6t14 -6l194 -194h172v560h-180q-8 0 -14 6l-200 200q-6 6 -6 14v200q0 8 6 14l200 200q6 6 14 6h180v180q0 8 6 14t14 6t14 -6t6 -14v-180h180q8 0 14 -6l200 -200
q6 -6 6 -14t-6 -14t-14 -6t-14 6l-194 194h-172v-560h180q8 0 14 -6l200 -200q6 -6 6 -14v-200q0 -8 -206 -214q-6 -6 -14 -6h-180zM490 620v560h-172l-188 -188v-184l188 -188h172zM530 580v-560h172l188 188v184l-188 188h-172z" />
    <glyph glyph-name="percent" unicode="%" horiz-adv-x="1620" 
d="M510 580h-200q-8 0 -14 6l-200 200q-6 6 -6 14v200q0 8 6 14l200 200q6 6 14 6h200q8 0 14 -6l200 -200q6 -6 6 -14v-200q0 -8 -6 -14l-200 -200q-6 -6 -14 -6zM318 620h184l188 188v184l-188 188h-184l-188 -188v-184zM1310 -120h-200q-8 0 -14 6l-200 200q-6 6 -6 14
v200q0 8 6 14l200 200q6 6 14 6h200q8 0 14 -6l200 -200q6 -6 6 -14v-200q0 -8 -6 -14l-200 -200q-6 -6 -14 -6zM1118 -80h184l188 188v184l-188 188h-184l-188 -188v-184zM996 1114l200 200q6 6 14 6t14 -6t6 -14t-6 -14l-194 -194v-192q0 -8 -6 -14l-194 -194v-192
q0 -8 -6 -14l-194 -194v-192q0 -8 -6 -14l-200 -200q-6 -6 -14 -6t-14 6t-6 14t6 14l194 194v192q0 8 6 14l194 194v192q0 8 6 14l194 194v192q0 8 6 14z" />
    <glyph glyph-name="ampersand" unicode="&#x26;" horiz-adv-x="1220" 
d="M230 1042v-184l138 -138h184l138 138v184l-138 138h-184zM332 700l-136 136q-6 6 -6 14v200q0 8 6 14l150 150q6 6 14 6h200q8 0 14 -6l150 -150q6 -6 6 -14v-200q0 -8 -6 -14l-136 -136l322 -322l236 236q6 6 14 6t14 -6t6 -14t-6 -14l-236 -236l236 -236q6 -6 6 -14
t-6 -14t-14 -6t-14 6l-236 236l-336 -336q-6 -6 -14 -6h-200q-8 0 -14 6l-250 250q-6 6 -6 14v200q0 8 6 14zM552 680h-184l-238 -238v-184l238 -238h184l330 330z" />
    <glyph glyph-name="quotesingle" unicode="'" horiz-adv-x="220" 
d="M130 1000q0 -8 -6 -14t-14 -6t-14 6t-6 14v200q0 8 6 14t14 6t14 -6t6 -14v-200z" />
    <glyph glyph-name="parenleft" unicode="(" horiz-adv-x="370" 
d="M130 108l194 -194q6 -6 6 -14t-6 -14t-14 -6t-14 6l-200 200q-6 6 -6 14v1000q0 8 6 14l200 200q6 6 14 6t14 -6t6 -14t-6 -14l-194 -194v-984z" />
    <glyph glyph-name="parenright" unicode=")" horiz-adv-x="370" 
d="M274 86l-200 -200q-6 -6 -14 -6t-14 6t-6 14t6 14l194 194v984l-194 194q-6 6 -6 14t6 14t14 6t14 -6l200 -200q6 -6 6 -14v-1000q0 -8 -6 -14z" />
    <glyph glyph-name="asterisk" unicode="*" horiz-adv-x="720" 
d="M380 452v-252q0 -8 -6 -14t-14 -6t-14 6t-6 14v252l-166 -166q-6 -6 -14 -6t-14 6t-6 14t6 14l166 166h-252q-8 0 -14 6t-6 14t6 14t14 6h252l-166 166q-6 6 -6 14t6 14t14 6t14 -6l166 -166v252q0 8 6 14t14 6t14 -6t6 -14v-252l166 166q6 6 14 6t14 -6t6 -14t-6 -14
l-166 -166h252q8 0 14 -6t6 -14t-6 -14t-14 -6h-252l166 -166q6 -6 6 -14t-6 -14t-14 -6t-14 6z" />
    <glyph glyph-name="plus" unicode="+" horiz-adv-x="720" 
d="M380 200q0 -8 -6 -14t-14 -6t-14 6t-6 14v280h-280q-8 0 -14 6t-6 14t6 14t14 6h280v280q0 8 6 14t14 6t14 -6t6 -14v-280h280q8 0 14 -6t6 -14t-6 -14t-14 -6h-280v-280z" />
    <glyph glyph-name="comma" unicode="," horiz-adv-x="220" 
d="M130 -100q0 -8 -6 -14t-14 -6t-14 6t-6 14v200q0 8 6 14t14 6t14 -6t6 -14v-200z" />
    <glyph glyph-name="hyphen" unicode="-" horiz-adv-x="720" 
d="M60 480q-8 0 -14 6t-6 14t6 14t14 6h600q8 0 14 -6t6 -14t-6 -14t-14 -6h-600z" />
    <glyph glyph-name="hyphen" unicode="&#xad;" horiz-adv-x="720" 
d="M60 480q-8 0 -14 6t-6 14t6 14t14 6h600q8 0 14 -6t6 -14t-6 -14t-14 -6h-600z" />
    <glyph glyph-name="period" unicode="." horiz-adv-x="220" 
d="M138 29q12 -11 12 -29t-12 -29t-28 -11t-28 11t-12 29t12 29t28 11t28 -11z" />
    <glyph glyph-name="slash" unicode="/" 
d="M596 1114l200 200q6 6 14 6t14 -6t6 -14t-6 -14l-194 -194v-192q0 -8 -6 -14l-194 -194v-192q0 -8 -6 -14l-194 -194v-192q0 -8 -6 -14l-200 -200q-6 -6 -14 -6t-14 6t-6 14t6 14l194 194v192q0 8 6 14l194 194v192q0 8 6 14l194 194v192q0 8 6 14z" />
    <glyph glyph-name="zero" unicode="0" horiz-adv-x="920" 
d="M646 814q6 6 14 6t14 -6t6 -14t-6 -14l-400 -400q-6 -6 -14 -6t-14 6t-6 14t6 14zM130 208l188 -188h284l188 188v784l-188 188h-284l-188 -188v-784zM296 -14l-200 200q-6 6 -6 14v800q0 8 6 14l200 200q6 6 14 6h300q8 0 14 -6l200 -200q6 -6 6 -14v-800q0 -8 -6 -14
l-200 -200q-6 -6 -14 -6h-300q-8 0 -14 6z" />
    <glyph glyph-name="one" unicode="1" horiz-adv-x="520" 
d="M110 -20q-8 0 -14 6t-6 14t6 14t14 6h180v932l-166 -166q-6 -6 -14 -6t-14 6t-6 14t6 14l194 194v192q0 8 6 14t14 6t14 -6t6 -14v-1180h180q8 0 14 -6t6 -14t-6 -14t-14 -6h-400z" />
    <glyph glyph-name="two" unicode="2" horiz-adv-x="920" 
d="M318 1180l-194 -194q-6 -6 -14 -6t-14 6t-6 14t6 14l200 200q6 6 14 6h300q8 0 14 -6l200 -200q6 -6 6 -14v-300q0 -8 -6 -14l-666 -666h652q8 0 14 -6t6 -14t-6 -14t-14 -6h-700q-8 0 -14 6t-6 14t6 14l694 694v284l-188 188h-284z" />
    <glyph glyph-name="three" unicode="3" horiz-adv-x="920" 
d="M602 1180h-284l-194 -194q-6 -6 -14 -6t-14 6t-6 14t6 14l200 200q6 6 14 6h300q8 0 14 -6l200 -200q6 -6 6 -14v-200q0 -8 -6 -14l-186 -186l186 -186q6 -6 6 -14v-200q0 -8 -6 -14l-200 -200q-6 -6 -14 -6h-300q-8 0 -14 6l-200 200q-6 6 -6 14t6 14t14 6t14 -6
l194 -194h284l188 188v184l-188 188h-292q-8 0 -14 6t-6 14t6 14t14 6h292l188 188v184z" />
    <glyph glyph-name="four" unicode="4" horiz-adv-x="920" 
d="M96 714l500 500q6 6 14 6t14 -6t6 -14t-6 -14l-494 -494v-372h460v180q0 8 6 14t14 6t14 -6t6 -14v-180h180q8 0 14 -6t6 -14t-6 -14t-14 -6h-180v-280q0 -8 -6 -14t-14 -6t-14 6t-6 14v280h-480q-8 0 -14 6t-6 14v400q0 8 6 14z" />
    <glyph glyph-name="five" unicode="5" horiz-adv-x="920" 
d="M790 208v384l-188 188h-392q-8 0 -14 6t-6 14v400q0 8 6 14t14 6h600q8 0 14 -6t6 -14t-6 -14t-14 -6h-580v-360h380q8 0 14 -6l200 -200q6 -6 6 -14v-400q0 -8 -6 -14l-200 -200q-6 -6 -14 -6h-300q-8 0 -14 6l-200 200q-6 6 -6 14t6 14t14 6t14 -6l194 -194h284z" />
    <glyph glyph-name="six" unicode="6" horiz-adv-x="920" 
d="M130 592v-384l188 -188h284l188 188v384l-188 188h-284zM624 1214l200 -200q6 -6 6 -14t-6 -14t-14 -6t-14 6l-194 194h-284l-188 -188v-344l166 166q6 6 14 6h300q8 0 14 -6l200 -200q6 -6 6 -14v-400q0 -8 -6 -14l-200 -200q-6 -6 -14 -6h-300q-8 0 -14 6l-200 200
q-6 6 -6 14v800q0 8 6 14l200 200q6 6 14 6h300q8 0 14 -6z" />
    <glyph glyph-name="seven" unicode="7" horiz-adv-x="920" 
d="M130 1180v-180q0 -8 -6 -14t-14 -6t-14 6t-6 14v200q0 8 6 14t14 6h700q8 0 14 -6t6 -14v-400q0 -8 -6 -14l-394 -394v-392q0 -8 -6 -14t-14 -6t-14 6t-6 14v400q0 8 6 14l394 394v372h-660z" />
    <glyph glyph-name="eight" unicode="8" horiz-adv-x="920" 
d="M602 580h-284l-188 -188v-184l188 -188h284l188 188v184zM602 620l188 188v184l-188 188h-284l-188 -188v-184l188 -188h284zM282 600l-186 186q-6 6 -6 14v200q0 8 6 14l200 200q6 6 14 6h300q8 0 14 -6l200 -200q6 -6 6 -14v-200q0 -8 -6 -14l-186 -186l186 -186
q6 -6 6 -14v-200q0 -8 -6 -14l-200 -200q-6 -6 -14 -6h-300q-8 0 -14 6l-200 200q-6 6 -6 14v200q0 8 6 14z" />
    <glyph glyph-name="nine" unicode="9" horiz-adv-x="920" 
d="M790 608v384l-188 188h-284l-188 -188v-384l188 -188h284zM296 -14l-200 200q-6 6 -6 14t6 14t14 6t14 -6l194 -194h284l188 188v344l-166 -166q-6 -6 -14 -6h-300q-8 0 -14 6l-200 200q-6 6 -6 14v400q0 8 6 14l200 200q6 6 14 6h300q8 0 14 -6l200 -200q6 -6 6 -14
v-800q0 -8 -6 -14l-200 -200q-6 -6 -14 -6h-300q-8 0 -14 6z" />
    <glyph glyph-name="colon" unicode=":" horiz-adv-x="220" 
d="M138 229q12 -11 12 -29t-12 -29t-28 -11t-28 11t-12 29t12 29t28 11t28 -11zM138 629q12 -11 12 -29t-12 -29t-28 -11t-28 11t-12 29t12 29t28 11t28 -11z" />
    <glyph glyph-name="semicolon" unicode=";" horiz-adv-x="220" 
d="M130 0q0 -8 -6 -14t-14 -6t-14 6t-6 14v200q0 8 6 14t14 6t14 -6t6 -14v-200zM138 629q12 -11 12 -29t-12 -29t-28 -11t-28 11t-12 29t12 29t28 11t28 -11z" />
    <glyph glyph-name="semicolon" unicode="&#x37e;" horiz-adv-x="220" 
d="M130 0q0 -8 -6 -14t-14 -6t-14 6t-6 14v200q0 8 6 14t14 6t14 -6t6 -14v-200zM138 629q12 -11 12 -29t-12 -29t-28 -11t-28 11t-12 29t12 29t28 11t28 -11z" />
    <glyph glyph-name="less" unicode="&#x3c;" horiz-adv-x="420" 
d="M374 214q6 -6 6 -14t-6 -14t-14 -6t-14 6l-300 300q-6 6 -6 14t6 14l300 300q6 6 14 6t14 -6t6 -14t-6 -14l-286 -286z" />
    <glyph glyph-name="equal" unicode="=" horiz-adv-x="720" 
d="M60 580q-8 0 -14 6t-6 14t6 14t14 6h600q8 0 14 -6t6 -14t-6 -14t-14 -6h-600zM60 380q-8 0 -14 6t-6 14t6 14t14 6h600q8 0 14 -6t6 -14t-6 -14t-14 -6h-600z" />
    <glyph glyph-name="greater" unicode="&#x3e;" horiz-adv-x="420" 
d="M332 500l-286 286q-6 6 -6 14t6 14t14 6t14 -6l300 -300q6 -6 6 -14t-6 -14l-300 -300q-6 -6 -14 -6t-14 6t-6 14t6 14z" />
    <glyph glyph-name="question" unicode="?" 
d="M438 29q12 -11 12 -29t-12 -29t-28 -11t-28 11t-12 29t12 29t28 11t28 -11zM430 492v-292q0 -8 -6 -14t-14 -6t-14 6t-6 14v300q0 8 6 14l294 294v184l-188 188h-184l-194 -194q-6 -6 -14 -6t-14 6t-6 14t6 14l200 200q6 6 14 6h200q8 0 14 -6l200 -200q6 -6 6 -14v-200
q0 -8 -6 -14z" />
    <glyph glyph-name="at" unicode="@" horiz-adv-x="1220" 
d="M890 208v384l-188 188h-184l-188 -188v-384l188 -188h184zM1130 700v-700q0 -8 -6 -14t-14 -6h-200q-8 0 -14 6t-6 14v152l-166 -166q-6 -6 -14 -6h-200q-8 0 -14 6l-200 200q-6 6 -6 14v400q0 8 6 14l200 200q6 6 14 6h200q8 0 14 -6l200 -200q6 -6 6 -14v-580h160v672
l-288 288h-384l-288 -288v-584l288 -288h392q8 0 14 -6t6 -14t-6 -14t-14 -6h-400q-8 0 -14 6l-300 300q-6 6 -6 14v600q0 8 6 14l300 300q6 6 14 6h400q8 0 14 -6l300 -300q6 -6 6 -14z" />
    <glyph glyph-name="A" unicode="A" horiz-adv-x="1020" 
d="M510 1172l-380 -380v-372h760v372zM96 814l400 400q6 6 14 6t414 -406q6 -6 6 -14v-800q0 -8 -6 -14t-14 -6t-14 6t-6 14v380h-760v-380q0 -8 -6 -14t-14 -6t-14 6t-6 14v800q0 8 6 14z" />
    <glyph glyph-name="B" unicode="B" horiz-adv-x="1020" 
d="M130 620h572l188 188v184l-188 188h-572v-560zM90 1200q0 8 6 14t14 6h600q8 0 14 -6l200 -200q6 -6 6 -14v-200q0 -8 -6 -14l-186 -186l186 -186q6 -6 6 -14v-200q0 -8 -6 -14l-200 -200q-6 -6 -14 -6h-600q-8 0 -14 6t-6 14v1200zM702 580h-572v-560h572l188 188v184z
" />
    <glyph glyph-name="C" unicode="C" horiz-adv-x="1020" 
d="M890 208v192q0 8 6 14t14 6t14 -6t6 -14v-200q0 -8 -206 -214q-6 -6 -14 -6h-400q-8 0 -14 6l-200 200q-6 6 -6 14v800q0 8 6 14l200 200q6 6 14 6h400q8 0 14 -6l200 -200q6 -6 6 -14v-200q0 -8 -6 -14t-14 -6t-14 6t-6 14v192l-188 188h-384l-188 -188v-784l188 -188
h384z" />
    <glyph glyph-name="D" unicode="D" horiz-adv-x="1020" 
d="M930 200q0 -8 -6 -14l-200 -200q-6 -6 -14 -6h-600q-8 0 -14 6t-6 14v1200q0 8 6 14t14 6h600q8 0 14 -6l200 -200q6 -6 6 -14v-800zM890 208v784l-188 188h-572v-1160h572z" />
    <glyph glyph-name="E" unicode="E" horiz-adv-x="720" 
d="M710 20q8 0 14 -6t6 -14t-6 -14t-14 -6h-600q-8 0 -14 6t-6 14v1200q0 8 6 14t14 6h600q8 0 14 -6t6 -14t-6 -14t-14 -6h-580v-560h380q8 0 14 -6t6 -14t-6 -14t-14 -6h-380v-560h580z" />
    <glyph glyph-name="F" unicode="F" horiz-adv-x="620" 
d="M710 1220q8 0 14 -6t6 -14t-6 -14t-14 -6h-580v-560h380q8 0 14 -6t6 -14t-6 -14t-14 -6h-380v-580q0 -8 -6 -14t-14 -6t-14 6t-6 14v1200q0 8 6 14t14 6h600z" />
    <glyph glyph-name="G" unicode="G" horiz-adv-x="1020" 
d="M930 1000v-200q0 -8 -6 -14t-14 -6t-14 6t-6 14v192l-188 188h-384l-188 -188v-784l188 -188h384l188 188v372h-180q-8 0 -14 6t-6 14t6 14t14 6h200q8 0 14 -6t6 -14v-400q0 -8 -6 -14l-200 -200q-6 -6 -14 -6h-400q-8 0 -14 6l-200 200q-6 6 -6 14v800q0 8 6 14
l200 200q6 6 14 6h400q8 0 14 -6l200 -200q6 -6 6 -14z" />
    <glyph glyph-name="H" unicode="H" horiz-adv-x="1020" 
d="M130 0q0 -8 -6 -14t-14 -6t-14 6t-6 14v1200q0 8 6 14t14 6t14 -6t6 -14v-580h760v580q0 8 6 14t14 6t14 -6t6 -14v-1200q0 -8 -6 -14t-14 -6t-14 6t-6 14v580h-760v-580z" />
    <glyph glyph-name="I" unicode="I" horiz-adv-x="220" 
d="M130 0q0 -8 -6 -14t-14 -6t-14 6t-6 14v1200q0 8 6 14t14 6t14 -6t6 -14v-1200z" />
    <glyph glyph-name="J" unicode="J" 
d="M296 -14l-200 200q-6 6 -6 14t6 14t14 6t14 -6l194 -194h184l188 188v972h-380q-8 0 -14 6t-6 14t6 14t14 6h400q8 0 14 -6t6 -14v-1000q0 -8 -6 -14l-200 -200q-6 -6 -14 -6h-200q-8 0 -14 6z" />
    <glyph glyph-name="K" unicode="K" horiz-adv-x="920" 
d="M90 1200q0 8 6 14t14 6t14 -6t6 -14v-752l766 766q6 6 14 6t14 -6t6 -14t-6 -14l-586 -586l586 -586q6 -6 6 -14t-6 -14t-14 -6t-14 6l-586 586l-180 -180v-392q0 -8 -6 -14t-14 -6t-14 6t-6 14v1200z" />
    <glyph glyph-name="L" unicode="L" horiz-adv-x="720" 
d="M710 20q8 0 14 -6t6 -14t-6 -14t-14 -6h-600q-8 0 -14 6t-6 14v1200q0 8 6 14t14 6t14 -6t6 -14v-1180h580z" />
    <glyph glyph-name="M" unicode="M" horiz-adv-x="1020" 
d="M130 1152v-1152q0 -8 -6 -14t-14 -6t-14 6t-6 14v1200q0 8 6 14t14 6t14 -6l386 -386l386 386q6 6 14 6t14 -6t6 -14v-1200q0 -8 -6 -14t-14 -6t-14 6t-6 14v1152l-366 -366q-6 -6 -14 -6t-14 6z" />
    <glyph glyph-name="N" unicode="N" horiz-adv-x="1020" 
d="M130 1152v-1152q0 -8 -6 -14t-14 -6t-14 6t-6 14v1200q0 8 6 14t14 6t14 -6l766 -766v752q0 8 6 14t14 6t14 -6t6 -14v-1200q0 -8 -6 -14t-14 -6t-14 6t-6 14v392z" />
    <glyph glyph-name="O" unicode="O" horiz-adv-x="1020" 
d="M296 -14l-200 200q-6 6 -6 14v800q0 8 6 14l200 200q6 6 14 6h400q8 0 14 -6l200 -200q6 -6 6 -14v-800q0 -8 -6 -14l-200 -200q-6 -6 -14 -6h-400q-8 0 -14 6zM130 208l188 -188h384l188 188v784l-188 188h-384l-188 -188v-784z" />
    <glyph glyph-name="P" unicode="P" horiz-adv-x="1020" 
d="M890 992l-188 188h-572v-760h572l188 188v384zM724 1214l200 -200q6 -6 6 -14v-400q0 -8 -6 -14l-200 -200q-6 -6 -14 -6h-580v-380q0 -8 -6 -14t-14 -6t-14 6t-6 14v1200q0 8 6 14t14 6h600q8 0 14 -6z" />
    <glyph glyph-name="Q" unicode="Q" horiz-adv-x="1020" 
d="M296 -14l-200 200q-6 6 -6 14v800q0 8 6 14l200 200q6 6 14 6h400q8 0 14 -6l200 -200q6 -6 6 -14v-800q0 -8 -6 -14l-186 -186l186 -186q6 -6 6 -14t-6 -14t-14 -6t-14 6l-194 194h-392q-8 0 -14 6zM130 208l188 -188h384l188 188v784l-188 188h-384l-188 -188v-784z
" />
    <glyph glyph-name="R" unicode="R" horiz-adv-x="1020" 
d="M724 1214l200 -200q6 -6 6 -14v-400q0 -8 -6 -14l-186 -186l186 -186q6 -6 6 -14v-200q0 -8 -6 -14t-14 -6t-14 6t-6 14v192l-188 188h-572v-380q0 -8 -6 -14t-14 -6t-14 6t-6 14v1200q0 8 6 14t14 6h600q8 0 14 -6zM890 992l-188 188h-572v-760h572l188 188v384z" />
    <glyph glyph-name="S" unicode="S" horiz-adv-x="1020" 
d="M724 1214l200 -200q6 -6 6 -14t-6 -14t-14 -6t-14 6l-194 194h-384l-188 -188v-184l188 -188h392q8 0 14 -6l200 -200q6 -6 6 -14v-200q0 -8 -206 -214q-6 -6 -14 -6h-400q-8 0 -14 6l-200 200q-6 6 -6 14t6 14t14 6t14 -6l194 -194h384l188 188v184l-188 188h-392
q-8 0 -14 6l-200 200q-6 6 -6 14v200q0 8 6 14l200 200q6 6 14 6h400q8 0 14 -6z" />
    <glyph glyph-name="T" unicode="T" horiz-adv-x="620" 
d="M330 0q0 -8 -6 -14t-14 -6t-14 6t-6 14v1180h-280q-8 0 -14 6t-6 14t6 14t14 6h600q8 0 14 -6t6 -14t-6 -14t-14 -6h-280v-1180z" />
    <glyph glyph-name="U" unicode="U" horiz-adv-x="1020" 
d="M890 208v992q0 8 6 14t14 6t14 -6t6 -14v-1000q0 -8 -6 -14l-200 -200q-6 -6 -14 -6h-400q-8 0 -14 6l-200 200q-6 6 -6 14v1000q0 8 6 14t14 6t14 -6t6 -14v-992l188 -188h384z" />
    <glyph glyph-name="V" unicode="V" horiz-adv-x="1020" 
d="M90 400v800q0 8 6 14t14 6t14 -6t6 -14v-792l380 -380l380 380v792q0 8 6 14t14 6t14 -6t6 -14v-800q0 -8 -6 -14l-400 -400q-6 -6 -14 -6t-14 6l-400 400q-6 6 -6 14z" />
    <glyph glyph-name="W" unicode="W" horiz-adv-x="1820" 
d="M910 372l-386 -386q-6 -6 -14 -6t-14 6l-400 400q-6 6 -6 14v800q0 8 6 14t14 6t14 -6t6 -14v-792l380 -380l380 380v792q0 8 6 14t14 6t14 -6t6 -14v-792l380 -380l380 380v792q0 8 6 14t14 6t14 -6t6 -14v-800q0 -8 -6 -14l-400 -400q-6 -6 -14 -6t-14 6z" />
    <glyph glyph-name="X" unicode="X" horiz-adv-x="1020" 
d="M930 200v-200q0 -8 -6 -14t-14 -6t-14 6t-6 14v192l-380 380l-380 -380v-192q0 -8 -6 -14t-14 -6t-14 6t-6 14v200q0 8 6 14l386 386l-386 386q-6 6 -6 14v200q0 8 6 14t14 6t14 -6t6 -14v-192l380 -380l380 380v192q0 8 6 14t14 6t14 -6t6 -14v-200q0 -8 -6 -14
l-386 -386l386 -386q6 -6 6 -14z" />
    <glyph glyph-name="Y" unicode="Y" horiz-adv-x="1020" 
d="M890 808v392q0 8 6 14t14 6t14 -6t6 -14v-400q0 -8 -6 -14l-394 -394v-392q0 -8 -6 -14t-14 -6t-14 6t-6 14v392l-394 394q-6 6 -6 14v400q0 8 6 14t14 6t14 -6t6 -14v-392l380 -380z" />
    <glyph glyph-name="Z" unicode="Z" horiz-adv-x="1020" 
d="M924 986l-794 -794v-172h780q8 0 14 -6t6 -14t-6 -14t-14 -6h-800q-8 0 -14 6t-6 14v200q0 8 6 14l794 794v172h-780q-8 0 -14 6t-6 14t6 14t14 6h800q8 0 14 -6t6 -14v-200q0 -8 -6 -14z" />
    <glyph glyph-name="bracketleft" unicode="[" horiz-adv-x="370" 
d="M110 1320h200q8 0 14 -6t6 -14t-6 -14t-14 -6h-180v-1360h180q8 0 14 -6t6 -14t-6 -14t-14 -6h-200q-8 0 -14 6t-6 14v1400q0 8 6 14t14 6z" />
    <glyph glyph-name="backslash" unicode="\" 
d="M230 1100v-192l194 -194q6 -6 6 -14v-192l194 -194q6 -6 6 -14v-192l194 -194q6 -6 6 -14t-6 -14t-14 -6t-14 6l-200 200q-6 6 -6 14v192l-194 194q-6 6 -6 14v192l-194 194q-6 6 -6 14v192l-194 194q-6 6 -6 14t6 14t14 6t14 -6l200 -200q6 -6 6 -14z" />
    <glyph glyph-name="bracketright" unicode="]" horiz-adv-x="370" 
d="M240 1280h-180q-8 0 -14 6t-6 14t6 14t14 6h200q8 0 14 -6t6 -14v-1400q0 -8 -6 -14t-14 -6h-200q-8 0 -14 6t-6 14t6 14t14 6h180v1360z" />
    <glyph glyph-name="asciicircum" unicode="^" 
d="M410 1172l-286 -286q-6 -6 -14 -6t-14 6t-6 14t6 14l300 300q6 6 14 6t14 -6l300 -300q6 -6 6 -14t-6 -14t-14 -6t-14 6z" />
    <glyph glyph-name="underscore" unicode="_" horiz-adv-x="620" 
d="M10 -220q-8 0 -14 6t-6 14t6 14t14 6h600q8 0 14 -6t6 -14t-6 -14t-14 -6h-600z" />
    <glyph glyph-name="grave" unicode="`" horiz-adv-x="420" 
d="M324 1014q6 -6 6 -14t-6 -14t-14 -6t-14 6l-200 200q-6 6 -6 14t6 14t14 6t14 -6z" />
    <glyph glyph-name="a" unicode="a" 
d="M690 208v384l-188 188h-184l-188 -188v-384l188 -188h184zM730 0q0 -8 -6 -14t-14 -6t-14 6t-6 14v152l-166 -166q-6 -6 -14 -6h-200q-8 0 -14 6l-200 200q-6 6 -6 14v400q0 8 6 14l200 200q6 6 14 6h200q8 0 14 -6l200 -200q6 -6 6 -14v-600z" />
    <glyph glyph-name="b" unicode="b" 
d="M130 592v-384l188 -188h184l188 188v384l-188 188h-184zM130 152v-152q0 -8 -6 -14t-14 -6t-14 6t-6 14v1200q0 8 6 14t14 6t14 -6t6 -14v-552l166 166q6 6 14 6h200q8 0 14 -6l200 -200q6 -6 6 -14v-400q0 -8 -6 -14l-200 -200q-6 -6 -14 -6h-200q-8 0 -14 6z" />
    <glyph glyph-name="c" unicode="c" 
d="M96 614l200 200q6 6 14 6h200q8 0 14 -6l200 -200q6 -6 6 -14t-6 -14t-14 -6t-14 6l-194 194h-184l-188 -188v-384l188 -188h184l194 194q6 6 14 6t14 -6t6 -14t-6 -14l-200 -200q-6 -6 -14 -6h-200q-8 0 -14 6l-200 200q-6 6 -6 14v400q0 8 6 14z" />
    <glyph glyph-name="d" unicode="d" 
d="M690 208v384l-188 188h-184l-188 -188v-384l188 -188h184zM730 0q0 -8 -6 -14t-14 -6t-14 6t-6 14v152l-166 -166q-6 -6 -14 -6h-200q-8 0 -14 6l-200 200q-6 6 -6 14v400q0 8 6 14l200 200q6 6 14 6h200q8 0 14 -6l166 -166v552q0 8 6 14t14 6t14 -6t6 -14v-1200z" />
    <glyph glyph-name="e" unicode="e" 
d="M730 600v-200q0 -8 -6 -14t-14 -6h-580v-172l188 -188h184l194 194q6 6 14 6t14 -6t6 -14t-6 -14l-200 -200q-6 -6 -14 -6h-200q-8 0 -14 6l-200 200q-6 6 -6 14v400q0 8 6 14l200 200q6 6 14 6h200q8 0 14 -6l200 -200q6 -6 6 -14zM690 420v172l-188 188h-184l-188 -188
v-172h560z" />
    <glyph glyph-name="f" unicode="f" horiz-adv-x="420" 
d="M410 1220h100q8 0 14 -6t6 -14t-6 -14t-14 -6h-92l-188 -188v-172h180q8 0 14 -6t6 -14t-6 -14t-14 -6h-180v-780q0 -8 -6 -14t-14 -6t-14 6t-6 14v780h-180q-8 0 -14 6t-6 14t6 14t14 6h180v180q0 8 6 14l200 200q6 6 14 6z" />
    <glyph glyph-name="g" unicode="g" 
d="M690 208v384l-188 188h-184l-188 -188v-384l188 -188h184zM724 -214l-200 -200q-6 -6 -14 -6h-200q-8 0 -14 6l-200 200q-6 6 -6 14t6 14t14 6t14 -6l194 -194h184l188 188v344l-166 -166q-6 -6 -14 -6h-200q-8 0 -14 6l-200 200q-6 6 -6 14v400q0 8 6 14l200 200
q6 6 14 6h200q8 0 14 -6l166 -166v152q0 8 6 14t14 6t14 -6t6 -14v-1000q0 -8 -6 -14z" />
    <glyph glyph-name="h" unicode="h" 
d="M130 592v-592q0 -8 -6 -14t-14 -6t-14 6t-6 14v1200q0 8 6 14t14 6t14 -6t6 -14v-552l166 166q6 6 14 6h200q8 0 14 -6l200 -200q6 -6 6 -14v-600q0 -8 -6 -14t-14 -6t-14 6t-6 14v592l-188 188h-184z" />
    <glyph glyph-name="i" unicode="i" horiz-adv-x="220" 
d="M130 0q0 -8 -6 -14t-14 -6t-14 6t-6 14v800q0 8 6 14t14 6t14 -6t6 -14v-800zM138 1129q12 -11 12 -29t-12 -29t-28 -11t-28 11t-12 29t12 29t28 11t28 -11z" />
    <glyph glyph-name="j" unicode="j" horiz-adv-x="220" 
d="M90 800q0 8 6 14t14 6t14 -6t6 -14v-1000q0 -8 -6 -14l-200 -200q-6 -6 -14 -6t-14 6t-6 14t6 14l194 194v992zM138 1129q12 -11 12 -29t-12 -29t-28 -11t-28 11t-12 29t12 29t28 11t28 -11z" />
    <glyph glyph-name="k" unicode="k" horiz-adv-x="770" 
d="M130 192v-192q0 -8 -6 -14t-14 -6t-14 6t-6 14v1200q0 8 6 14t14 6t14 -6t6 -14v-952l566 566q6 6 14 6t14 -6t6 -14t-6 -14l-386 -386l386 -386q6 -6 6 -14t-6 -14t-14 -6t-14 6l-386 386z" />
    <glyph glyph-name="l" unicode="l" horiz-adv-x="320" 
d="M130 208l194 -194q6 -6 6 -14t-6 -14t-14 -6t-14 6l-200 200q-6 6 -6 14v1000q0 8 6 14t14 6t14 -6t6 -14v-992z" />
    <glyph glyph-name="m" unicode="m" horiz-adv-x="1420" 
d="M710 628l186 186q6 6 14 6h200q8 0 14 -6l200 -200q6 -6 6 -14v-600q0 -8 -6 -14t-14 -6t-14 6t-6 14v592l-188 188h-184l-188 -188v-592q0 -8 -6 -14t-14 -6t-14 6t-6 14v592l-188 188h-184l-188 -188v-592q0 -8 -6 -14t-14 -6t-14 6t-6 14v800q0 8 6 14t14 6t14 -6
t6 -14v-152l166 166q6 6 14 6h200q8 0 14 -6z" />
    <glyph glyph-name="n" unicode="n" 
d="M130 592v-592q0 -8 -6 -14t-14 -6t-14 6t-6 14v800q0 8 6 14t14 6t14 -6t6 -14v-152l166 166q6 6 14 6h200q8 0 14 -6l200 -200q6 -6 6 -14v-600q0 -8 -6 -14t-14 -6t-14 6t-6 14v592l-188 188h-184z" />
    <glyph glyph-name="o" unicode="o" 
d="M510 -20h-200q-8 0 -14 6l-200 200q-6 6 -6 14v400q0 8 6 14l200 200q6 6 14 6h200q8 0 14 -6l200 -200q6 -6 6 -14v-400q0 -8 -6 -14l-200 -200q-6 -6 -14 -6zM318 20h184l188 188v384l-188 188h-184l-188 -188v-384z" />
    <glyph glyph-name="p" unicode="p" 
d="M130 592v-384l188 -188h184l188 188v384l-188 188h-184zM130 152v-552q0 -8 -6 -14t-14 -6t-14 6t-6 14v1200q0 8 6 14t14 6t14 -6t6 -14v-152l166 166q6 6 14 6h200q8 0 14 -6l200 -200q6 -6 6 -14v-400q0 -8 -6 -14l-200 -200q-6 -6 -14 -6h-200q-8 0 -14 6z" />
    <glyph glyph-name="q" unicode="q" 
d="M690 152l-166 -166q-6 -6 -14 -6h-200q-8 0 -14 6l-200 200q-6 6 -6 14v400q0 8 6 14l200 200q6 6 14 6h200q8 0 14 -6l166 -166v152q0 8 6 14t14 6t14 -6t6 -14v-1200q0 -8 -6 -14t-14 -6t-14 6t-6 14v552zM690 592l-188 188h-184l-188 -188v-384l188 -188h184l188 188
v384z" />
    <glyph glyph-name="r" unicode="r" horiz-adv-x="520" 
d="M130 592v-592q0 -8 -6 -14t-14 -6t-14 6t-6 14v800q0 8 6 14t14 6t14 -6t6 -14v-152l166 166q6 6 14 6h200q8 0 14 -6t6 -14t-6 -14t-14 -6h-192z" />
    <glyph glyph-name="s" unicode="s" 
d="M96 614l200 200q6 6 14 6h200q8 0 14 -6l200 -200q6 -6 6 -14t-6 -14t-14 -6t-14 6l-194 194h-184l-180 -180l180 -180h192q8 0 14 -6l200 -200q6 -6 6 -14t-6 -14l-200 -200q-6 -6 -14 -6h-200q-8 0 -14 6l-200 200q-6 6 -6 14t6 14t14 6t14 -6l194 -194h184l180 180
l-180 180h-192q-8 0 -14 6l-200 200q-6 6 -6 14t6 14z" />
    <glyph glyph-name="t" unicode="t" horiz-adv-x="470" 
d="M230 208l194 -194q6 -6 6 -14t-6 -14t-14 -6t-14 6l-200 200q-6 6 -6 14v580h-180q-8 0 -14 6t-6 14t6 14t14 6h180v380q0 8 6 14t14 6t14 -6t6 -14v-380h180q8 0 14 -6t6 -14t-6 -14t-14 -6h-180v-572z" />
    <glyph glyph-name="u" unicode="u" 
d="M90 200v600q0 8 6 14t14 6t14 -6t6 -14v-592l188 -188h184l188 188v592q0 8 6 14t14 6t14 -6t6 -14v-800q0 -8 -6 -14t-14 -6t-14 6t-6 14v152l-166 -166q-6 -6 -14 -6h-200q-8 0 -14 6l-200 200q-6 6 -6 14z" />
    <glyph glyph-name="v" unicode="v" 
d="M90 300v500q0 8 6 14t14 6t14 -6t6 -14v-492l280 -280l280 280v492q0 8 6 14t14 6t14 -6t6 -14v-500q0 -8 -6 -14l-300 -300q-6 -6 -14 -6t-14 6l-300 300q-6 6 -6 14z" />
    <glyph glyph-name="w" unicode="w" horiz-adv-x="1420" 
d="M710 272l-286 -286q-6 -6 -14 -6t-14 6l-300 300q-6 6 -6 14v500q0 8 6 14t14 6t14 -6t6 -14v-492l280 -280l280 280v492q0 8 6 14t14 6t14 -6t6 -14v-492l280 -280l280 280v492q0 8 6 14t14 6t14 -6t6 -14v-500q0 -8 -6 -14l-300 -300q-6 -6 -14 -6t-14 6z" />
    <glyph glyph-name="x" unicode="x" 
d="M730 100v-100q0 -8 -6 -14t-14 -6t-14 6t-6 14v92l-280 280l-280 -280v-92q0 -8 -6 -14t-14 -6t-14 6t-6 14v100q0 8 6 14l286 286l-286 286q-6 6 -6 14v100q0 8 6 14t14 6t14 -6t6 -14v-92l280 -280l280 280v92q0 8 6 14t14 6t14 -6t6 -14v-100q0 -8 -6 -14l-286 -286
l286 -286q6 -6 6 -14z" />
    <glyph glyph-name="y" unicode="y" 
d="M724 -214l-200 -200q-6 -6 -14 -6h-200q-8 0 -14 6l-200 200q-6 6 -6 14t6 14t14 6t14 -6l194 -194h184l188 188v344l-166 -166q-6 -6 -14 -6h-200q-8 0 -14 6l-200 200q-6 6 -6 14v600q0 8 6 14t14 6t14 -6t6 -14v-592l188 -188h184l188 188v592q0 8 6 14t14 6t14 -6
t6 -14v-1000q0 -8 -6 -14z" />
    <glyph glyph-name="z" unicode="z" horiz-adv-x="720" 
d="M130 20h580q8 0 14 -6t6 -14t-6 -14t-14 -6h-600q-8 0 -14 6t-6 14v200q0 8 6 14l566 566h-552q-8 0 -14 6t-6 14t6 14t14 6h600q8 0 14 -6t6 -14t-6 -14l-594 -594v-172z" />
    <glyph glyph-name="braceleft" unicode="{" horiz-adv-x="520" 
d="M88 600l186 -186q6 -6 6 -14v-292l194 -194q6 -6 6 -14t-6 -14t-14 -6t-14 6l-200 200q-6 6 -6 14v292l-194 194q-6 6 -6 14t6 14l194 194v292q0 8 6 14l200 200q6 6 14 6t14 -6t6 -14t-6 -14l-194 -194v-292q0 -8 -6 -14z" />
    <glyph glyph-name="bar" unicode="|" horiz-adv-x="220" 
d="M130 -100q0 -8 -6 -14t-14 -6t-14 6t-6 14v1400q0 8 6 14t14 6t14 -6t6 -14v-1400z" />
    <glyph glyph-name="braceright" unicode="}" horiz-adv-x="520" 
d="M246 786q-6 6 -6 14v292l-194 194q-6 6 -6 14t6 14t14 6t14 -6l200 -200q6 -6 6 -14v-292l194 -194q6 -6 6 -14t-6 -14l-194 -194v-292q0 -8 -6 -14l-200 -200q-6 -6 -14 -6t-14 6t-6 14t6 14l194 194v292q0 8 6 14l186 186z" />
    <glyph glyph-name="asciitilde" unicode="~" 
d="M610 428l186 186q6 6 14 6t14 -6t6 -14t-6 -14l-200 -200q-6 -6 -14 -6t-14 6l-386 386l-186 -186q-6 -6 -14 -6t-14 6t-6 14t6 14l200 200q6 6 14 6t14 -6z" />
    <glyph glyph-name="exclamdown" unicode="&#xa1;" horiz-adv-x="220" 
d="M130 -400q0 -8 -6 -14t-14 -6t-14 6t-6 14v1000q0 8 6 14t14 6t14 -6t6 -14v-1000zM70 800q0 18 12 29t28 11t28 -11t12 -29t-12 -29t-28 -11t-28 11t-12 29z" />
    <glyph glyph-name="cent" unicode="&#xa2;" 
d="M390 820v180q0 8 6 14t14 6t14 -6t6 -14v-180h80q8 0 14 -6l200 -200q6 -6 6 -14t-6 -14t-14 -6t-14 6l-194 194h-184l-188 -188v-384l188 -188h184l194 194q6 6 14 6t14 -6t6 -14t-6 -14l-200 -200q-6 -6 -14 -6h-80v-180q0 -8 -6 -14t-14 -6t-14 6t-6 14v180h-80
q-8 0 -14 6l-200 200q-6 6 -6 14v400q0 8 6 14l200 200q6 6 14 6h80z" />
    <glyph glyph-name="sterling" unicode="&#xa3;" 
d="M730 1000v-200q0 -8 -6 -14t-14 -6t-14 6t-6 14v192l-188 188h-184l-188 -188v-372h280q8 0 14 -6t6 -14t-6 -14t-14 -6h-280v-560h580q8 0 14 -6t6 -14t-6 -14t-14 -6h-600q-8 0 -14 6t-6 14v580h-80q-8 0 -14 6t-6 14t6 14t14 6h80v380q0 8 6 14l200 200q6 6 14 6h200
q8 0 14 -6l200 -200q6 -6 6 -14z" />
    <glyph glyph-name="currency" unicode="&#xa4;" 
d="M182 200l-86 86q-6 6 -6 14v200q0 8 6 14l86 86l-86 86q-6 6 -6 14v100q0 8 6 14t14 6t14 -6t6 -14v-92l80 -80l86 86q6 6 14 6h200q8 0 14 -6l86 -86l80 80v92q0 8 6 14t14 6t14 -6t6 -14v-100q0 -8 -6 -14l-86 -86l86 -86q6 -6 6 -14v-200q0 -8 -6 -14l-86 -86l86 -86
q6 -6 6 -14v-100q0 -8 -6 -14t-14 -6t-14 6t-6 14v92l-80 80l-86 -86q-6 -6 -14 -6h-200q-8 0 -14 6l-86 86l-80 -80v-92q0 -8 -6 -14t-14 -6t-14 6t-6 14v100q0 8 6 14zM224 586l-94 -94v-184l94 -94l94 -94h184l94 94l94 94v184l-94 94l-94 94h-184z" />
    <glyph glyph-name="yen" unicode="&#xa5;" horiz-adv-x="1020" 
d="M890 808v392q0 8 6 14t14 6t14 -6t6 -14v-400q0 -8 -6 -14l-394 -394v-392q0 -8 -6 -14t-14 -6t-14 6t-6 14v392l-394 394q-6 6 -6 14v400q0 8 6 14t14 6t14 -6t6 -14v-392l380 -380zM210 180q-8 0 -14 6t-6 14t6 14t14 6h600q8 0 14 -6t6 -14t-6 -14t-14 -6h-600z
M210 380q-8 0 -14 6t-6 14t6 14t14 6h600q8 0 14 -6t6 -14t-6 -14t-14 -6h-600z" />
    <glyph glyph-name="brokenbar" unicode="&#xa6;" horiz-adv-x="220" 
d="M130 -100q0 -8 -6 -14t-14 -6t-14 6t-6 14v600q0 8 6 14t14 6t14 -6t6 -14v-600zM130 700q0 -8 -6 -14t-14 -6t-14 6t-6 14v600q0 8 6 14t14 6t14 -6t6 -14v-600z" />
    <glyph glyph-name="section" unicode="&#xa7;" 
d="M90 600q0 8 6 14l186 186l-186 186q-6 6 -6 14t6 14l200 200q6 6 14 6h200q8 0 14 -6l200 -200q6 -6 6 -14t-6 -14t-14 -6t-14 6l-194 194h-184l-180 -180l180 -180h192q8 0 14 -6l200 -200q6 -6 6 -14t-6 -14l-186 -186l186 -186q6 -6 6 -14t-6 -14l-200 -200
q-6 -6 -14 -6h-200q-8 0 -14 6l-200 200q-6 6 -6 14t6 14t14 6t14 -6l194 -194h184l180 180l-180 180h-192q-8 0 -14 6l-200 200q-6 6 -6 14zM682 600l-180 180h-184l-180 -180l180 -180h184z" />
    <glyph glyph-name="dieresis" unicode="&#xa8;" horiz-adv-x="420" 
d="M150 1100q0 -18 -12 -29t-28 -11t-28 11t-12 29t12 29t28 11t28 -11t12 -29zM350 1100q0 -18 -12 -29t-28 -11t-28 11t-12 29t12 29t28 11t28 -11t12 -29z" />
    <glyph glyph-name="copyright" unicode="&#xa9;" horiz-adv-x="1420" 
d="M910 -20h-400q-8 0 -14 6l-400 400q-6 6 -6 14v400q0 8 6 14l400 400q6 6 14 6h400q8 0 14 -6l400 -400q6 -6 6 -14v-400q0 -8 -6 -14l-400 -400q-6 -6 -14 -6zM518 20h384l388 388v384l-388 388h-384l-388 -388v-384zM396 814l200 200q6 6 14 6h200q8 0 14 -6l200 -200
q6 -6 6 -14t-6 -14t-14 -6t-14 6l-194 194h-184l-188 -188v-384l188 -188h184l194 194q6 6 14 6t14 -6t6 -14t-6 -14l-200 -200q-6 -6 -14 -6h-200q-8 0 -14 6l-200 200q-6 6 -6 14v400q0 8 6 14z" />
    <glyph glyph-name="ordfeminine" unicode="&#xaa;" horiz-adv-x="570" 
d="M110 580q-8 0 -14 6t-6 14t6 14t14 6h350q8 0 14 -6t6 -14t-6 -14t-14 -6h-350zM440 802l-66 -66q-6 -6 -14 -6h-150q-8 0 -14 6l-100 100q-6 6 -6 14v250q0 8 6 14l100 100q6 6 14 6h150q8 0 14 -6l100 -100q6 -6 6 -14v-350q0 -8 -6 -14t-14 -6t-14 6t-6 14v52z
M440 1092l-88 88h-134l-88 -88v-234l88 -88h134l88 88v234z" />
    <glyph glyph-name="guillemotleft" unicode="&#xab;" horiz-adv-x="520" 
d="M274 314q6 -6 6 -14t-6 -14t-14 -6t-14 6l-200 200q-6 6 -6 14t6 14l200 200q6 6 14 6t14 -6t6 -14t-6 -14l-186 -186zM474 314q6 -6 6 -14t-6 -14t-14 -6t-14 6l-200 200q-6 6 -6 14t6 14l200 200q6 6 14 6t14 -6t6 -14t-6 -14l-186 -186z" />
    <glyph glyph-name="logicalnot" unicode="&#xac;" 
d="M60 480q-8 0 -14 6t-6 14t6 14t14 6h650q8 0 14 -6t6 -14v-300q0 -8 -6 -14t-14 -6t-14 6t-6 14v280h-630z" />
    <glyph glyph-name="registered" unicode="&#xae;" 
d="M402 820l88 88v84l-88 88h-72v-260h72zM130 992v-184l188 -188h184l188 188v184l-188 188h-184zM310 580q-8 0 -14 6l-200 200q-6 6 -6 14v200q0 8 6 14l200 200q6 6 14 6h200q8 0 14 -6l200 -200q6 -6 6 -14v-200q0 -8 -6 -14l-200 -200q-6 -6 -14 -6h-200zM424 1114
l100 -100q6 -6 6 -14v-100q0 -8 -6 -14l-86 -86l86 -86q6 -6 6 -14t-6 -14t-14 -6t-14 6l-94 94h-72v-80q0 -8 -6 -14t-14 -6t-14 6t-6 14v400q0 8 6 14t14 6h100q8 0 14 -6z" />
    <glyph glyph-name="macron" unicode="&#xaf;" horiz-adv-x="620" 
d="M110 1080q-8 0 -14 6t-6 14t6 14t14 6h400q8 0 14 -6t6 -14t-6 -14t-14 -6h-400z" />
    <glyph glyph-name="degree" unicode="&#xb0;" horiz-adv-x="420" 
d="M110 1220h200q8 0 14 -6t6 -14v-200q0 -8 -6 -14t-14 -6h-200q-8 0 -14 6t-6 14v200q0 8 6 14t14 6zM290 1180h-160v-160h160v160z" />
    <glyph glyph-name="plusminus" unicode="&#xb1;" horiz-adv-x="720" 
d="M380 200q0 -8 -6 -14t-14 -6t-14 6t-6 14v280h-280q-8 0 -14 6t-6 14t6 14t14 6h280v280q0 8 6 14t14 6t14 -6t6 -14v-280h280q8 0 14 -6t6 -14t-6 -14t-14 -6h-280v-280zM60 -10q-8 0 -14 6t-6 14t6 14t14 6h600q8 0 14 -6t6 -14t-6 -14t-14 -6h-600z" />
    <glyph glyph-name="acute" unicode="&#xb4;" horiz-adv-x="420" 
d="M296 1214q6 6 14 6t14 -6t6 -14t-6 -14l-200 -200q-6 -6 -14 -6t-14 6t-6 14t6 14z" />
    <glyph glyph-name="mu" unicode="&#xb5;" 
d="M690 208v592q0 8 6 14t14 6t14 -6t6 -14v-800q0 -8 -6 -14t-14 -6t-14 6t-6 14v152l-166 -166q-6 -6 -14 -6h-200q-8 0 -14 6l-166 166v-552q0 -8 -6 -14t-14 -6t-14 6t-6 14v1200q0 8 6 14t14 6t14 -6t6 -14v-592l188 -188h184z" />
    <glyph glyph-name="paragraph" unicode="&#xb6;" 
d="M290 1152l-160 -160v-184l160 -160v504zM290 592l-194 194q-6 6 -6 14v200q0 8 6 14l200 200q6 6 14 6h400q8 0 14 -6t6 -14v-1400q0 -8 -6 -14t-14 -6t-14 6t-6 14v1380h-360v-1380q0 -8 -6 -14t-14 -6t-14 6t-6 14v792z" />
    <glyph glyph-name="periodcentered" unicode="&#xb7;" horiz-adv-x="220" 
d="M138 629q12 -11 12 -29t-12 -29t-28 -11t-28 11t-12 29t12 29t28 11t28 -11z" />
    <glyph glyph-name="periodcentered" unicode="&#x2219;" horiz-adv-x="220" 
d="M138 629q12 -11 12 -29t-12 -29t-28 -11t-28 11t-12 29t12 29t28 11t28 -11z" />
    <glyph glyph-name="cedilla" unicode="&#xb8;" horiz-adv-x="420" 
d="M324 -214l-200 -200q-6 -6 -14 -6t-14 6t-6 14t6 14l186 186l-186 186q-6 6 -6 14t6 14t14 6t14 -6q206 -206 206 -214t-6 -14z" />
    <glyph glyph-name="ordmasculine" unicode="&#xba;" horiz-adv-x="570" 
d="M360 730h-150q-8 0 -14 6l-100 100q-6 6 -6 14v250q0 8 6 14l100 100q6 6 14 6h150q8 0 14 -6l100 -100q6 -6 6 -14v-250q0 -8 -6 -14l-100 -100q-6 -6 -14 -6zM218 770h134l88 88v234l-88 88h-134l-88 -88v-234zM110 580q-8 0 -14 6t-6 14t6 14t14 6h350q8 0 14 -6
t6 -14t-6 -14t-14 -6h-350z" />
    <glyph glyph-name="guillemotright" unicode="&#xbb;" horiz-adv-x="520" 
d="M232 500l-186 186q-6 6 -6 14t6 14t14 6t14 -6l200 -200q6 -6 6 -14t-6 -14l-200 -200q-6 -6 -14 -6t-14 6t-6 14t6 14zM432 500l-186 186q-6 6 -6 14t6 14t14 6t14 -6l200 -200q6 -6 6 -14t-6 -14l-200 -200q-6 -6 -14 -6t-14 6t-6 14t6 14z" />
    <glyph glyph-name="questiondown" unicode="&#xbf;" 
d="M382 761q-12 11 -12 29t12 29t28 11t28 -11t12 -29t-12 -29t-28 -11t-28 11zM390 298v292q0 8 6 14t14 6t14 -6t6 -14v-300q0 -8 -6 -14l-294 -294v-184l188 -188h184l194 194q6 6 14 6t14 -6t6 -14t-6 -14l-200 -200q-6 -6 -14 -6h-200q-8 0 -14 6l-200 200q-6 6 -6 14
v200q0 8 6 14z" />
    <glyph glyph-name="Agrave" unicode="&#xc0;" horiz-adv-x="1020" 
d="M510 1172l-380 -380v-372h760v372zM96 814l400 400q6 6 14 6t414 -406q6 -6 6 -14v-800q0 -8 -6 -14t-14 -6t-14 6t-6 14v380h-760v-380q0 -8 -6 -14t-14 -6t-14 6t-6 14v800q0 8 6 14zM587 1414q6 -6 6 -14t-6 -14t-14 -6t-14 6l-200 200q-6 6 -6 14t6 14t14 6t14 -6z
" />
    <glyph glyph-name="Aacute" unicode="&#xc1;" horiz-adv-x="1020" 
d="M510 1172l-380 -380v-372h760v372zM96 814l400 400q6 6 14 6t414 -406q6 -6 6 -14v-800q0 -8 -6 -14t-14 -6t-14 6t-6 14v380h-760v-380q0 -8 -6 -14t-14 -6t-14 6t-6 14v800q0 8 6 14zM633 1614q6 6 14 6t14 -6t6 -14t-6 -14l-200 -200q-6 -6 -14 -6t-14 6t-6 14t6 14z
" />
    <glyph glyph-name="Acircumflex" unicode="&#xc2;" horiz-adv-x="1020" 
d="M510 1172l-380 -380v-372h760v372zM96 814l400 400q6 6 14 6t414 -406q6 -6 6 -14v-800q0 -8 -6 -14t-14 -6t-14 6t-6 14v380h-760v-380q0 -8 -6 -14t-14 -6t-14 6t-6 14v800q0 8 6 14zM510 1572l-186 -186q-6 -6 -14 -6t-14 6t-6 14t6 14l200 200q6 6 14 6t14 -6
l200 -200q6 -6 6 -14t-6 -14t-14 -6t-14 6z" />
    <glyph glyph-name="Atilde" unicode="&#xc3;" horiz-adv-x="1020" 
d="M510 1172l-380 -380v-372h760v372zM96 814l400 400q6 6 14 6t414 -406q6 -6 6 -14v-800q0 -8 -6 -14t-14 -6t-14 6t-6 14v380h-760v-380q0 -8 -6 -14t-14 -6t-14 6t-6 14v800q0 8 6 14zM610 1428l186 186q6 6 14 6t14 -6t6 -14t-6 -14l-200 -200q-6 -6 -14 -6t-14 6
l-186 186l-186 -186q-6 -6 -14 -6t-14 6t-6 14t6 14l200 200q6 6 14 6t14 -6z" />
    <glyph glyph-name="Adieresis" unicode="&#xc4;" horiz-adv-x="1020" 
d="M510 1172l-380 -380v-372h760v372zM96 814l400 400q6 6 14 6t414 -406q6 -6 6 -14v-800q0 -8 -6 -14t-14 -6t-14 6t-6 14v380h-760v-380q0 -8 -6 -14t-14 -6t-14 6t-6 14v800q0 8 6 14zM450 1500q0 -18 -12 -29t-28 -11t-28 11t-12 29t12 29t28 11t28 -11t12 -29z
M650 1500q0 -18 -12 -29t-28 -11t-28 11t-12 29t12 29t28 11t28 -11t12 -29z" />
    <glyph glyph-name="Aring" unicode="&#xc5;" horiz-adv-x="1020" 
d="M510 1172l-380 -380v-372h760v372zM96 814l400 400q6 6 14 6t414 -406q6 -6 6 -14v-800q0 -8 -6 -14t-14 -6t-14 6t-6 14v380h-760v-380q0 -8 -6 -14t-14 -6t-14 6t-6 14v800q0 8 6 14zM410 1620h200q8 0 14 -6t6 -14v-200q0 -8 -6 -14t-14 -6h-200q-8 0 -14 6t-6 14v200
q0 8 6 14t14 6zM590 1580h-160v-160h160v160z" />
    <glyph glyph-name="AE" unicode="&#xc6;" horiz-adv-x="1520" 
d="M510 1172l-380 -380v-372h760v372zM96 814l400 400q6 6 14 6t414 -406q6 -6 6 -14v-800q0 -8 -6 -14t-14 -6t-14 6t-6 14v380h-760v-380q0 -8 -6 -14t-14 -6t-14 6t-6 14v800q0 8 6 14zM1510 20q8 0 14 -6t6 -14t-6 -14t-14 -6h-600q-8 0 -14 6t-6 14v1200q0 8 6 14t14 6
h600q8 0 14 -6t6 -14t-6 -14t-14 -6h-580v-560h380q8 0 14 -6t6 -14t-6 -14t-14 -6h-380v-560h580z" />
    <glyph glyph-name="Ccedilla" unicode="&#xc7;" horiz-adv-x="1020" 
d="M890 208v192q0 8 6 14t14 6t14 -6t6 -14v-200q0 -8 -206 -214q-6 -6 -14 -6h-400q-8 0 -14 6l-200 200q-6 6 -6 14v800q0 8 6 14l200 200q6 6 14 6h400q8 0 14 -6l200 -200q6 -6 6 -14v-200q0 -8 -6 -14t-14 -6t-14 6t-6 14v192l-188 188h-384l-188 -188v-784l188 -188
h384zM624 -214l-200 -200q-6 -6 -14 -6t-14 6t-6 14t6 14l186 186l-186 186q-6 6 -6 14t6 14t14 6t14 -6q206 -206 206 -214t-6 -14z" />
    <glyph glyph-name="Egrave" unicode="&#xc8;" horiz-adv-x="720" 
d="M710 20q8 0 14 -6t6 -14t-6 -14t-14 -6h-600q-8 0 -14 6t-6 14v1200q0 8 6 14t14 6h600q8 0 14 -6t6 -14t-6 -14t-14 -6h-580v-560h380q8 0 14 -6t6 -14t-6 -14t-14 -6h-380v-560h580zM487 1414q6 -6 6 -14t-6 -14t-14 -6t-14 6l-200 200q-6 6 -6 14t6 14t14 6t14 -6z
" />
    <glyph glyph-name="Eacute" unicode="&#xc9;" horiz-adv-x="720" 
d="M710 20q8 0 14 -6t6 -14t-6 -14t-14 -6h-600q-8 0 -14 6t-6 14v1200q0 8 6 14t14 6h600q8 0 14 -6t6 -14t-6 -14t-14 -6h-580v-560h380q8 0 14 -6t6 -14t-6 -14t-14 -6h-380v-560h580zM533 1614q6 6 14 6t14 -6t6 -14t-6 -14l-200 -200q-6 -6 -14 -6t-14 6t-6 14t6 14z
" />
    <glyph glyph-name="Ecircumflex" unicode="&#xca;" horiz-adv-x="720" 
d="M710 20q8 0 14 -6t6 -14t-6 -14t-14 -6h-600q-8 0 -14 6t-6 14v1200q0 8 6 14t14 6h600q8 0 14 -6t6 -14t-6 -14t-14 -6h-580v-560h380q8 0 14 -6t6 -14t-6 -14t-14 -6h-380v-560h580zM410 1572l-186 -186q-6 -6 -14 -6t-14 6t-6 14t6 14l200 200q6 6 14 6t14 -6
l200 -200q6 -6 6 -14t-6 -14t-14 -6t-14 6z" />
    <glyph glyph-name="Edieresis" unicode="&#xcb;" horiz-adv-x="720" 
d="M710 20q8 0 14 -6t6 -14t-6 -14t-14 -6h-600q-8 0 -14 6t-6 14v1200q0 8 6 14t14 6h600q8 0 14 -6t6 -14t-6 -14t-14 -6h-580v-560h380q8 0 14 -6t6 -14t-6 -14t-14 -6h-380v-560h580zM350 1500q0 -18 -12 -29t-28 -11t-28 11t-12 29t12 29t28 11t28 -11t12 -29z
M550 1500q0 -18 -12 -29t-28 -11t-28 11t-12 29t12 29t28 11t28 -11t12 -29z" />
    <glyph glyph-name="Igrave" unicode="&#xcc;" horiz-adv-x="220" 
d="M130 0q0 -8 -6 -14t-14 -6t-14 6t-6 14v1200q0 8 6 14t14 6t14 -6t6 -14v-1200zM187 1414q6 -6 6 -14t-6 -14t-14 -6t-14 6l-200 200q-6 6 -6 14t6 14t14 6t14 -6z" />
    <glyph glyph-name="Iacute" unicode="&#xcd;" horiz-adv-x="220" 
d="M130 0q0 -8 -6 -14t-14 -6t-14 6t-6 14v1200q0 8 6 14t14 6t14 -6t6 -14v-1200zM233 1614q6 6 14 6t14 -6t6 -14t-6 -14l-200 -200q-6 -6 -14 -6t-14 6t-6 14t6 14z" />
    <glyph glyph-name="Icircumflex" unicode="&#xce;" horiz-adv-x="220" 
d="M130 0q0 -8 -6 -14t-14 -6t-14 6t-6 14v1200q0 8 6 14t14 6t14 -6t6 -14v-1200zM110 1572l-186 -186q-6 -6 -14 -6t-14 6t-6 14t6 14l200 200q6 6 14 6t14 -6l200 -200q6 -6 6 -14t-6 -14t-14 -6t-14 6z" />
    <glyph glyph-name="Idieresis" unicode="&#xcf;" horiz-adv-x="220" 
d="M130 0q0 -8 -6 -14t-14 -6t-14 6t-6 14v1200q0 8 6 14t14 6t14 -6t6 -14v-1200zM50 1500q0 -18 -12 -29t-28 -11t-28 11t-12 29t12 29t28 11t28 -11t12 -29zM250 1500q0 -18 -12 -29t-28 -11t-28 11t-12 29t12 29t28 11t28 -11t12 -29z" />
    <glyph glyph-name="Eth" unicode="&#xd0;" horiz-adv-x="1020" 
d="M930 200q0 -8 -6 -14l-200 -200q-6 -6 -14 -6h-600q-8 0 -14 6t-6 14v1200q0 8 6 14t14 6h600q8 0 14 -6l200 -200q6 -6 6 -14v-800zM890 208v784l-188 188h-572v-1160h572zM10 580q-8 0 -14 6t-6 14t6 14t14 6h600q8 0 14 -6t6 -14t-6 -14t-14 -6h-600z" />
    <glyph glyph-name="Ntilde" unicode="&#xd1;" horiz-adv-x="1020" 
d="M130 1152v-1152q0 -8 -6 -14t-14 -6t-14 6t-6 14v1200q0 8 6 14t14 6t14 -6l766 -766v752q0 8 6 14t14 6t14 -6t6 -14v-1200q0 -8 -6 -14t-14 -6t-14 6t-6 14v392zM610 1428l186 186q6 6 14 6t14 -6t6 -14t-6 -14l-200 -200q-6 -6 -14 -6t-14 6l-186 186l-186 -186
q-6 -6 -14 -6t-14 6t-6 14t6 14l200 200q6 6 14 6t14 -6z" />
    <glyph glyph-name="Ograve" unicode="&#xd2;" horiz-adv-x="1020" 
d="M296 -14l-200 200q-6 6 -6 14v800q0 8 6 14l200 200q6 6 14 6h400q8 0 14 -6l200 -200q6 -6 6 -14v-800q0 -8 -6 -14l-200 -200q-6 -6 -14 -6h-400q-8 0 -14 6zM130 208l188 -188h384l188 188v784l-188 188h-384l-188 -188v-784zM597 1414q6 -6 6 -14t-6 -14t-14 -6
t-14 6l-200 200q-6 6 -6 14t6 14t14 6t14 -6z" />
    <glyph glyph-name="Oacute" unicode="&#xd3;" horiz-adv-x="1020" 
d="M296 -14l-200 200q-6 6 -6 14v800q0 8 6 14l200 200q6 6 14 6h400q8 0 14 -6l200 -200q6 -6 6 -14v-800q0 -8 -6 -14l-200 -200q-6 -6 -14 -6h-400q-8 0 -14 6zM130 208l188 -188h384l188 188v784l-188 188h-384l-188 -188v-784zM643 1614q6 6 14 6t14 -6t6 -14t-6 -14
l-200 -200q-6 -6 -14 -6t-14 6t-6 14t6 14z" />
    <glyph glyph-name="Ocircumflex" unicode="&#xd4;" horiz-adv-x="1020" 
d="M296 -14l-200 200q-6 6 -6 14v800q0 8 6 14l200 200q6 6 14 6h400q8 0 14 -6l200 -200q6 -6 6 -14v-800q0 -8 -6 -14l-200 -200q-6 -6 -14 -6h-400q-8 0 -14 6zM130 208l188 -188h384l188 188v784l-188 188h-384l-188 -188v-784zM520 1572l-186 -186q-6 -6 -14 -6t-14 6
t-6 14t6 14l200 200q6 6 14 6t14 -6l200 -200q6 -6 6 -14t-6 -14t-14 -6t-14 6z" />
    <glyph glyph-name="Otilde" unicode="&#xd5;" horiz-adv-x="1020" 
d="M296 -14l-200 200q-6 6 -6 14v800q0 8 6 14l200 200q6 6 14 6h400q8 0 14 -6l200 -200q6 -6 6 -14v-800q0 -8 -6 -14l-200 -200q-6 -6 -14 -6h-400q-8 0 -14 6zM130 208l188 -188h384l188 188v784l-188 188h-384l-188 -188v-784zM620 1428l186 186q6 6 14 6t14 -6t6 -14
t-6 -14l-200 -200q-6 -6 -14 -6t-14 6l-186 186l-186 -186q-6 -6 -14 -6t-14 6t-6 14t6 14l200 200q6 6 14 6t14 -6z" />
    <glyph glyph-name="Odieresis" unicode="&#xd6;" horiz-adv-x="1020" 
d="M296 -14l-200 200q-6 6 -6 14v800q0 8 6 14l200 200q6 6 14 6h400q8 0 14 -6l200 -200q6 -6 6 -14v-800q0 -8 -6 -14l-200 -200q-6 -6 -14 -6h-400q-8 0 -14 6zM130 208l188 -188h384l188 188v784l-188 188h-384l-188 -188v-784zM460 1500q0 -18 -12 -29t-28 -11t-28 11
t-12 29t12 29t28 11t28 -11t12 -29zM660 1500q0 -18 -12 -29t-28 -11t-28 11t-12 29t12 29t28 11t28 -11t12 -29z" />
    <glyph glyph-name="multiply" unicode="&#xd7;" horiz-adv-x="720" 
d="M646 814q6 6 14 6t14 -6t6 -14t-6 -14l-286 -286l286 -286q6 -6 6 -14t-6 -14t-14 -6t-14 6l-286 286l-286 -286q-6 -6 -14 -6t-14 6t-6 14t6 14l286 286l-286 286q-6 6 -6 14t6 14t14 6t14 -6l286 -286z" />
    <glyph glyph-name="Oslash" unicode="&#xd8;" horiz-adv-x="1020" 
d="M296 -14l-200 200q-6 6 -6 14v800q0 8 6 14l200 200q6 6 14 6h400q8 0 14 -6l200 -200q6 -6 6 -14v-800q0 -8 -6 -14l-200 -200q-6 -6 -14 -6h-400q-8 0 -14 6zM130 208l188 -188h384l188 188v784l-188 188h-384l-188 -188v-784zM706 1114l200 200q6 6 14 6t14 -6t6 -14
t-6 -14l-194 -194v-192q0 -8 -6 -14l-194 -194v-192q0 -8 -6 -14l-194 -194v-192q0 -8 -6 -14l-200 -200q-6 -6 -14 -6t-14 6t-6 14t6 14l194 194v192q0 8 6 14l194 194v192q0 8 6 14l194 194v192q0 8 6 14z" />
    <glyph glyph-name="Ugrave" unicode="&#xd9;" horiz-adv-x="1020" 
d="M890 208v992q0 8 6 14t14 6t14 -6t6 -14v-1000q0 -8 -6 -14l-200 -200q-6 -6 -14 -6h-400q-8 0 -14 6l-200 200q-6 6 -6 14v1000q0 8 6 14t14 6t14 -6t6 -14v-992l188 -188h384zM587 1414q6 -6 6 -14t-6 -14t-14 -6t-14 6l-200 200q-6 6 -6 14t6 14t14 6t14 -6z" />
    <glyph glyph-name="Uacute" unicode="&#xda;" horiz-adv-x="1020" 
d="M890 208v992q0 8 6 14t14 6t14 -6t6 -14v-1000q0 -8 -6 -14l-200 -200q-6 -6 -14 -6h-400q-8 0 -14 6l-200 200q-6 6 -6 14v1000q0 8 6 14t14 6t14 -6t6 -14v-992l188 -188h384zM633 1614q6 6 14 6t14 -6t6 -14t-6 -14l-200 -200q-6 -6 -14 -6t-14 6t-6 14t6 14z" />
    <glyph glyph-name="Ucircumflex" unicode="&#xdb;" horiz-adv-x="1020" 
d="M890 208v992q0 8 6 14t14 6t14 -6t6 -14v-1000q0 -8 -6 -14l-200 -200q-6 -6 -14 -6h-400q-8 0 -14 6l-200 200q-6 6 -6 14v1000q0 8 6 14t14 6t14 -6t6 -14v-992l188 -188h384zM510 1572l-186 -186q-6 -6 -14 -6t-14 6t-6 14t6 14l200 200q6 6 14 6t14 -6l200 -200
q6 -6 6 -14t-6 -14t-14 -6t-14 6z" />
    <glyph glyph-name="Udieresis" unicode="&#xdc;" horiz-adv-x="1020" 
d="M890 208v992q0 8 6 14t14 6t14 -6t6 -14v-1000q0 -8 -6 -14l-200 -200q-6 -6 -14 -6h-400q-8 0 -14 6l-200 200q-6 6 -6 14v1000q0 8 6 14t14 6t14 -6t6 -14v-992l188 -188h384zM450 1500q0 -18 -12 -29t-28 -11t-28 11t-12 29t12 29t28 11t28 -11t12 -29zM650 1500
q0 -18 -12 -29t-28 -11t-28 11t-12 29t12 29t28 11t28 -11t12 -29z" />
    <glyph glyph-name="Yacute" unicode="&#xdd;" horiz-adv-x="1020" 
d="M890 808v392q0 8 6 14t14 6t14 -6t6 -14v-400q0 -8 -6 -14l-394 -394v-392q0 -8 -6 -14t-14 -6t-14 6t-6 14v392l-394 394q-6 6 -6 14v400q0 8 6 14t14 6t14 -6t6 -14v-392l380 -380zM633 1614q6 6 14 6t14 -6t6 -14t-6 -14l-200 -200q-6 -6 -14 -6t-14 6t-6 14t6 14z
" />
    <glyph glyph-name="Thorn" unicode="&#xde;" horiz-adv-x="1020" 
d="M710 180h-580v-180q0 -8 -6 -14t-14 -6t-14 6t-6 14v1200q0 8 6 14t14 6t14 -6t6 -14v-180h580q8 0 14 -6l200 -200q6 -6 6 -14v-400q0 -8 -6 -14l-200 -200q-6 -6 -14 -6zM702 980h-572v-760h572l188 188v384z" />
    <glyph glyph-name="germandbls" unicode="&#xdf;" 
d="M518 780l-180 -180l386 -386q6 -6 6 -14t-6 -14l-200 -200q-6 -6 -14 -6t-14 6l-200 200q-6 6 -6 14t6 14t14 6t14 -6l186 -186l172 172l-386 386q-6 6 -6 14t6 14l200 200q6 6 14 6h80v172l-188 188h-84l-188 -188v-992q0 -8 -6 -14t-14 -6t-14 6t-6 14v1000q0 8 6 14
l200 200q6 6 14 6h100q8 0 14 -6l200 -200q6 -6 6 -14v-200q0 -8 -6 -14t-14 -6h-92z" />
    <glyph glyph-name="agrave" unicode="&#xe0;" 
d="M690 208v384l-188 188h-184l-188 -188v-384l188 -188h184zM730 0q0 -8 -6 -14t-14 -6t-14 6t-6 14v152l-166 -166q-6 -6 -14 -6h-200q-8 0 -14 6l-200 200q-6 6 -6 14v400q0 8 6 14l200 200q6 6 14 6h200q8 0 14 -6l200 -200q6 -6 6 -14v-600zM487 1014q6 -6 6 -14
t-6 -14t-14 -6t-14 6l-200 200q-6 6 -6 14t6 14t14 6t14 -6z" />
    <glyph glyph-name="aacute" unicode="&#xe1;" 
d="M690 208v384l-188 188h-184l-188 -188v-384l188 -188h184zM730 0q0 -8 -6 -14t-14 -6t-14 6t-6 14v152l-166 -166q-6 -6 -14 -6h-200q-8 0 -14 6l-200 200q-6 6 -6 14v400q0 8 6 14l200 200q6 6 14 6h200q8 0 14 -6l200 -200q6 -6 6 -14v-600zM533 1214q6 6 14 6t14 -6
t6 -14t-6 -14l-200 -200q-6 -6 -14 -6t-14 6t-6 14t6 14z" />
    <glyph glyph-name="acircumflex" unicode="&#xe2;" 
d="M690 208v384l-188 188h-184l-188 -188v-384l188 -188h184zM730 0q0 -8 -6 -14t-14 -6t-14 6t-6 14v152l-166 -166q-6 -6 -14 -6h-200q-8 0 -14 6l-200 200q-6 6 -6 14v400q0 8 6 14l200 200q6 6 14 6h200q8 0 14 -6l200 -200q6 -6 6 -14v-600zM410 1172l-186 -186
q-6 -6 -14 -6t-14 6t-6 14t6 14l200 200q6 6 14 6t14 -6l200 -200q6 -6 6 -14t-6 -14t-14 -6t-14 6z" />
    <glyph glyph-name="atilde" unicode="&#xe3;" 
d="M690 208v384l-188 188h-184l-188 -188v-384l188 -188h184zM730 0q0 -8 -6 -14t-14 -6t-14 6t-6 14v152l-166 -166q-6 -6 -14 -6h-200q-8 0 -14 6l-200 200q-6 6 -6 14v400q0 8 6 14l200 200q6 6 14 6h200q8 0 14 -6l200 -200q6 -6 6 -14v-600zM510 1028l186 186q6 6 14 6
t14 -6t6 -14t-6 -14l-200 -200q-6 -6 -14 -6t-14 6l-186 186l-186 -186q-6 -6 -14 -6t-14 6t-6 14t6 14l200 200q6 6 14 6t14 -6z" />
    <glyph glyph-name="adieresis" unicode="&#xe4;" 
d="M690 208v384l-188 188h-184l-188 -188v-384l188 -188h184zM730 0q0 -8 -6 -14t-14 -6t-14 6t-6 14v152l-166 -166q-6 -6 -14 -6h-200q-8 0 -14 6l-200 200q-6 6 -6 14v400q0 8 6 14l200 200q6 6 14 6h200q8 0 14 -6l200 -200q6 -6 6 -14v-600zM350 1100q0 -18 -12 -29
t-28 -11t-28 11t-12 29t12 29t28 11t28 -11t12 -29zM550 1100q0 -18 -12 -29t-28 -11t-28 11t-12 29t12 29t28 11t28 -11t12 -29z" />
    <glyph glyph-name="aring" unicode="&#xe5;" 
d="M690 208v384l-188 188h-184l-188 -188v-384l188 -188h184zM730 0q0 -8 -6 -14t-14 -6t-14 6t-6 14v152l-166 -166q-6 -6 -14 -6h-200q-8 0 -14 6l-200 200q-6 6 -6 14v400q0 8 6 14l200 200q6 6 14 6h200q8 0 14 -6l200 -200q6 -6 6 -14v-600zM310 1220h200q8 0 14 -6
t6 -14v-200q0 -8 -6 -14t-14 -6h-200q-8 0 -14 6t-6 14v200q0 8 6 14t14 6zM490 1180h-160v-160h160v160z" />
    <glyph glyph-name="ae" unicode="&#xe6;" horiz-adv-x="1420" 
d="M690 208v384l-188 188h-184l-188 -188v-384l188 -188h184zM730 0q0 -8 -6 -14t-14 -6t-14 6t-6 14v152l-166 -166q-6 -6 -14 -6h-200q-8 0 -14 6l-200 200q-6 6 -6 14v400q0 8 6 14l200 200q6 6 14 6h200q8 0 14 -6l200 -200q6 -6 6 -14v-600zM1330 600v-200q0 -8 -6 -14
t-14 -6h-580v-172l188 -188h184l194 194q6 6 14 6t14 -6t6 -14t-6 -14l-200 -200q-6 -6 -14 -6h-200q-8 0 -14 6l-200 200q-6 6 -6 14v400q0 8 6 14l200 200q6 6 14 6h200q8 0 14 -6l200 -200q6 -6 6 -14zM1290 420v172l-188 188h-184l-188 -188v-172h560z" />
    <glyph glyph-name="ccedilla" unicode="&#xe7;" 
d="M96 614l200 200q6 6 14 6h200q8 0 14 -6l200 -200q6 -6 6 -14t-6 -14t-14 -6t-14 6l-194 194h-184l-188 -188v-384l188 -188h184l194 194q6 6 14 6t14 -6t6 -14t-6 -14l-200 -200q-6 -6 -14 -6h-200q-8 0 -14 6l-200 200q-6 6 -6 14v400q0 8 6 14zM524 -214l-200 -200
q-6 -6 -14 -6t-14 6t-6 14t6 14l186 186l-186 186q-6 6 -6 14t6 14t14 6t14 -6q206 -206 206 -214t-6 -14z" />
    <glyph glyph-name="egrave" unicode="&#xe8;" 
d="M730 600v-200q0 -8 -6 -14t-14 -6h-580v-172l188 -188h184l194 194q6 6 14 6t14 -6t6 -14t-6 -14l-200 -200q-6 -6 -14 -6h-200q-8 0 -14 6l-200 200q-6 6 -6 14v400q0 8 6 14l200 200q6 6 14 6h200q8 0 14 -6l200 -200q6 -6 6 -14zM690 420v172l-188 188h-184l-188 -188
v-172h560zM487 1014q6 -6 6 -14t-6 -14t-14 -6t-14 6l-200 200q-6 6 -6 14t6 14t14 6t14 -6z" />
    <glyph glyph-name="eacute" unicode="&#xe9;" 
d="M730 600v-200q0 -8 -6 -14t-14 -6h-580v-172l188 -188h184l194 194q6 6 14 6t14 -6t6 -14t-6 -14l-200 -200q-6 -6 -14 -6h-200q-8 0 -14 6l-200 200q-6 6 -6 14v400q0 8 6 14l200 200q6 6 14 6h200q8 0 14 -6l200 -200q6 -6 6 -14zM690 420v172l-188 188h-184l-188 -188
v-172h560zM533 1214q6 6 14 6t14 -6t6 -14t-6 -14l-200 -200q-6 -6 -14 -6t-14 6t-6 14t6 14z" />
    <glyph glyph-name="ecircumflex" unicode="&#xea;" 
d="M730 600v-200q0 -8 -6 -14t-14 -6h-580v-172l188 -188h184l194 194q6 6 14 6t14 -6t6 -14t-6 -14l-200 -200q-6 -6 -14 -6h-200q-8 0 -14 6l-200 200q-6 6 -6 14v400q0 8 6 14l200 200q6 6 14 6h200q8 0 14 -6l200 -200q6 -6 6 -14zM690 420v172l-188 188h-184l-188 -188
v-172h560zM410 1172l-186 -186q-6 -6 -14 -6t-14 6t-6 14t6 14l200 200q6 6 14 6t14 -6l200 -200q6 -6 6 -14t-6 -14t-14 -6t-14 6z" />
    <glyph glyph-name="edieresis" unicode="&#xeb;" 
d="M730 600v-200q0 -8 -6 -14t-14 -6h-580v-172l188 -188h184l194 194q6 6 14 6t14 -6t6 -14t-6 -14l-200 -200q-6 -6 -14 -6h-200q-8 0 -14 6l-200 200q-6 6 -6 14v400q0 8 6 14l200 200q6 6 14 6h200q8 0 14 -6l200 -200q6 -6 6 -14zM690 420v172l-188 188h-184l-188 -188
v-172h560zM350 1100q0 -18 -12 -29t-28 -11t-28 11t-12 29t12 29t28 11t28 -11t12 -29zM550 1100q0 -18 -12 -29t-28 -11t-28 11t-12 29t12 29t28 11t28 -11t12 -29z" />
    <glyph glyph-name="igrave" unicode="&#xec;" horiz-adv-x="220" 
d="M130 0q0 -8 -6 -14t-14 -6t-14 6t-6 14v800q0 8 6 14t14 6t14 -6t6 -14v-800zM187 1014q6 -6 6 -14t-6 -14t-14 -6t-14 6l-200 200q-6 6 -6 14t6 14t14 6t14 -6z" />
    <glyph glyph-name="iacute" unicode="&#xed;" horiz-adv-x="220" 
d="M130 0q0 -8 -6 -14t-14 -6t-14 6t-6 14v800q0 8 6 14t14 6t14 -6t6 -14v-800zM233 1214q6 6 14 6t14 -6t6 -14t-6 -14l-200 -200q-6 -6 -14 -6t-14 6t-6 14t6 14z" />
    <glyph glyph-name="icircumflex" unicode="&#xee;" horiz-adv-x="220" 
d="M130 0q0 -8 -6 -14t-14 -6t-14 6t-6 14v800q0 8 6 14t14 6t14 -6t6 -14v-800zM110 1172l-186 -186q-6 -6 -14 -6t-14 6t-6 14t6 14l200 200q6 6 14 6t14 -6l200 -200q6 -6 6 -14t-6 -14t-14 -6t-14 6z" />
    <glyph glyph-name="idieresis" unicode="&#xef;" horiz-adv-x="220" 
d="M130 0q0 -8 -6 -14t-14 -6t-14 6t-6 14v800q0 8 6 14t14 6t14 -6t6 -14v-800zM50 1100q0 -18 -12 -29t-28 -11t-28 11t-12 29t12 29t28 11t28 -11t12 -29zM250 1100q0 -18 -12 -29t-28 -11t-28 11t-12 29t12 29t28 11t28 -11t12 -29z" />
    <glyph glyph-name="eth" unicode="&#xf0;" 
d="M318 20h184l188 188v384l-188 188h-184l-188 -188v-384zM288 1050l436 -436q6 -6 6 -14v-400q0 -8 -6 -14l-200 -200q-6 -6 -14 -6h-200q-8 0 -14 6l-200 200q-6 6 -6 14v400q0 8 6 14l200 200q6 6 14 6h152l-202 202l-136 -136q-6 -6 -14 -6t-14 6t-6 14t6 14l136 136
l-136 136q-6 6 -6 14t6 14t14 6t14 -6l136 -136l136 136q6 6 14 6t14 -6t6 -14t-6 -14z" />
    <glyph glyph-name="ntilde" unicode="&#xf1;" 
d="M130 592v-592q0 -8 -6 -14t-14 -6t-14 6t-6 14v800q0 8 6 14t14 6t14 -6t6 -14v-152l166 166q6 6 14 6h200q8 0 14 -6l200 -200q6 -6 6 -14v-600q0 -8 -6 -14t-14 -6t-14 6t-6 14v592l-188 188h-184zM510 1028l186 186q6 6 14 6t14 -6t6 -14t-6 -14l-200 -200
q-6 -6 -14 -6t-14 6l-186 186l-186 -186q-6 -6 -14 -6t-14 6t-6 14t6 14l200 200q6 6 14 6t14 -6z" />
    <glyph glyph-name="ograve" unicode="&#xf2;" 
d="M510 -20h-200q-8 0 -14 6l-200 200q-6 6 -6 14v400q0 8 6 14l200 200q6 6 14 6h200q8 0 14 -6l200 -200q6 -6 6 -14v-400q0 -8 -6 -14l-200 -200q-6 -6 -14 -6zM318 20h184l188 188v384l-188 188h-184l-188 -188v-384zM487 1014q6 -6 6 -14t-6 -14t-14 -6t-14 6l-200 200
q-6 6 -6 14t6 14t14 6t14 -6z" />
    <glyph glyph-name="oacute" unicode="&#xf3;" 
d="M510 -20h-200q-8 0 -14 6l-200 200q-6 6 -6 14v400q0 8 6 14l200 200q6 6 14 6h200q8 0 14 -6l200 -200q6 -6 6 -14v-400q0 -8 -6 -14l-200 -200q-6 -6 -14 -6zM318 20h184l188 188v384l-188 188h-184l-188 -188v-384zM533 1214q6 6 14 6t14 -6t6 -14t-6 -14l-200 -200
q-6 -6 -14 -6t-14 6t-6 14t6 14z" />
    <glyph glyph-name="ocircumflex" unicode="&#xf4;" 
d="M510 -20h-200q-8 0 -14 6l-200 200q-6 6 -6 14v400q0 8 6 14l200 200q6 6 14 6h200q8 0 14 -6l200 -200q6 -6 6 -14v-400q0 -8 -6 -14l-200 -200q-6 -6 -14 -6zM318 20h184l188 188v384l-188 188h-184l-188 -188v-384zM410 1172l-186 -186q-6 -6 -14 -6t-14 6t-6 14t6 14
l200 200q6 6 14 6t14 -6l200 -200q6 -6 6 -14t-6 -14t-14 -6t-14 6z" />
    <glyph glyph-name="otilde" unicode="&#xf5;" 
d="M510 -20h-200q-8 0 -14 6l-200 200q-6 6 -6 14v400q0 8 6 14l200 200q6 6 14 6h200q8 0 14 -6l200 -200q6 -6 6 -14v-400q0 -8 -6 -14l-200 -200q-6 -6 -14 -6zM318 20h184l188 188v384l-188 188h-184l-188 -188v-384zM510 1028l186 186q6 6 14 6t14 -6t6 -14t-6 -14
l-200 -200q-6 -6 -14 -6t-14 6l-186 186l-186 -186q-6 -6 -14 -6t-14 6t-6 14t6 14l200 200q6 6 14 6t14 -6z" />
    <glyph glyph-name="odieresis" unicode="&#xf6;" 
d="M510 -20h-200q-8 0 -14 6l-200 200q-6 6 -6 14v400q0 8 6 14l200 200q6 6 14 6h200q8 0 14 -6l200 -200q6 -6 6 -14v-400q0 -8 -6 -14l-200 -200q-6 -6 -14 -6zM318 20h184l188 188v384l-188 188h-184l-188 -188v-384zM350 1100q0 -18 -12 -29t-28 -11t-28 11t-12 29
t12 29t28 11t28 -11t12 -29zM550 1100q0 -18 -12 -29t-28 -11t-28 11t-12 29t12 29t28 11t28 -11t12 -29z" />
    <glyph glyph-name="divide" unicode="&#xf7;" horiz-adv-x="720" 
d="M60 480q-8 0 -14 6t-6 14t6 14t14 6h600q8 0 14 -6t6 -14t-6 -14t-14 -6h-600zM388 329q12 -11 12 -29t-12 -29t-28 -11t-28 11t-12 29t12 29t28 11t28 -11zM388 729q12 -11 12 -29t-12 -29t-28 -11t-28 11t-12 29t12 29t28 11t28 -11z" />
    <glyph glyph-name="oslash" unicode="&#xf8;" 
d="M324 14q6 -6 6 -14t-6 -14t-14 -6t-14 6l-200 200q-6 6 -6 14t6 14t14 6t14 -6zM310 -20q-8 0 -14 6t-6 14t6 14t14 6h200q8 0 14 -6t6 -14t-6 -14t-14 -6h-200zM696 214q6 6 14 6t14 -6t6 -14t-6 -14l-200 -200q-6 -6 -14 -6t-14 6t-6 14t6 14zM724 614q6 -6 6 -14
t-6 -14t-14 -6t-14 6l-200 200q-6 6 -6 14t6 14t14 6t14 -6zM310 780q-8 0 -14 6t-6 14t6 14t14 6h200q8 0 14 -6t6 -14t-6 -14t-14 -6h-200zM296 814q6 6 14 6t14 -6t6 -14t-6 -14l-200 -200q-6 -6 -14 -6t-14 6t-6 14t6 14zM696 914q6 6 14 6t14 -6t6 -14t-6 -14
l-200 -200q-6 -6 -14 -6t-14 6t-6 14t6 14zM490 700q0 8 6 14t14 6t14 -6t6 -14v-200q0 -8 -6 -14t-14 -6t-14 6t-6 14v200zM290 300q0 8 6 14t14 6t14 -6t6 -14v-200q0 -8 -6 -14t-14 -6t-14 6t-6 14v200zM496 514q6 6 14 6t14 -6t6 -14t-6 -14l-200 -200q-6 -6 -14 -6
t-14 6t-6 14t6 14zM296 114q6 6 14 6t14 -6t6 -14t-6 -14l-200 -200q-6 -6 -14 -6t-14 6t-6 14t6 14zM130 200q0 -8 -6 -14t-14 -6t-14 6t-6 14v400q0 8 6 14t14 6t14 -6t6 -14v-400zM730 200q0 -8 -6 -14t-14 -6t-14 6t-6 14v400q0 8 6 14t14 6t14 -6t6 -14v-400z" />
    <glyph glyph-name="ugrave" unicode="&#xf9;" 
d="M90 200v600q0 8 6 14t14 6t14 -6t6 -14v-592l188 -188h184l188 188v592q0 8 6 14t14 6t14 -6t6 -14v-800q0 -8 -6 -14t-14 -6t-14 6t-6 14v152l-166 -166q-6 -6 -14 -6h-200q-8 0 -14 6l-200 200q-6 6 -6 14zM487 1014q6 -6 6 -14t-6 -14t-14 -6t-14 6l-200 200
q-6 6 -6 14t6 14t14 6t14 -6z" />
    <glyph glyph-name="uacute" unicode="&#xfa;" 
d="M90 200v600q0 8 6 14t14 6t14 -6t6 -14v-592l188 -188h184l188 188v592q0 8 6 14t14 6t14 -6t6 -14v-800q0 -8 -6 -14t-14 -6t-14 6t-6 14v152l-166 -166q-6 -6 -14 -6h-200q-8 0 -14 6l-200 200q-6 6 -6 14zM533 1214q6 6 14 6t14 -6t6 -14t-6 -14l-200 -200
q-6 -6 -14 -6t-14 6t-6 14t6 14z" />
    <glyph glyph-name="ucircumflex" unicode="&#xfb;" 
d="M90 200v600q0 8 6 14t14 6t14 -6t6 -14v-592l188 -188h184l188 188v592q0 8 6 14t14 6t14 -6t6 -14v-800q0 -8 -6 -14t-14 -6t-14 6t-6 14v152l-166 -166q-6 -6 -14 -6h-200q-8 0 -14 6l-200 200q-6 6 -6 14zM410 1172l-186 -186q-6 -6 -14 -6t-14 6t-6 14t6 14l200 200
q6 6 14 6t14 -6l200 -200q6 -6 6 -14t-6 -14t-14 -6t-14 6z" />
    <glyph glyph-name="udieresis" unicode="&#xfc;" 
d="M90 200v600q0 8 6 14t14 6t14 -6t6 -14v-592l188 -188h184l188 188v592q0 8 6 14t14 6t14 -6t6 -14v-800q0 -8 -6 -14t-14 -6t-14 6t-6 14v152l-166 -166q-6 -6 -14 -6h-200q-8 0 -14 6l-200 200q-6 6 -6 14zM350 1100q0 -18 -12 -29t-28 -11t-28 11t-12 29t12 29t28 11
t28 -11t12 -29zM550 1100q0 -18 -12 -29t-28 -11t-28 11t-12 29t12 29t28 11t28 -11t12 -29z" />
    <glyph glyph-name="yacute" unicode="&#xfd;" 
d="M724 -214l-200 -200q-6 -6 -14 -6h-200q-8 0 -14 6l-200 200q-6 6 -6 14t6 14t14 6t14 -6l194 -194h184l188 188v344l-166 -166q-6 -6 -14 -6h-200q-8 0 -14 6l-200 200q-6 6 -6 14v600q0 8 6 14t14 6t14 -6t6 -14v-592l188 -188h184l188 188v592q0 8 6 14t14 6t14 -6
t6 -14v-1000q0 -8 -6 -14zM533 1214q6 6 14 6t14 -6t6 -14t-6 -14l-200 -200q-6 -6 -14 -6t-14 6t-6 14t6 14z" />
    <glyph glyph-name="thorn" unicode="&#xfe;" 
d="M130 648l166 166q6 6 14 6h200q8 0 14 -6l200 -200q6 -6 6 -14v-400q0 -8 -6 -14l-200 -200q-6 -6 -14 -6h-200q-8 0 -14 6l-166 166v-552q0 -8 -6 -14t-14 -6t-14 6t-6 14v1600q0 8 6 14t14 6t14 -6t6 -14v-552zM318 20h184l188 188v384l-188 188h-184l-188 -188v-384z
" />
    <glyph glyph-name="ydieresis" unicode="&#xff;" 
d="M724 -214l-200 -200q-6 -6 -14 -6h-200q-8 0 -14 6l-200 200q-6 6 -6 14t6 14t14 6t14 -6l194 -194h184l188 188v344l-166 -166q-6 -6 -14 -6h-200q-8 0 -14 6l-200 200q-6 6 -6 14v600q0 8 6 14t14 6t14 -6t6 -14v-592l188 -188h184l188 188v592q0 8 6 14t14 6t14 -6
t6 -14v-1000q0 -8 -6 -14zM350 1100q0 -18 -12 -29t-28 -11t-28 11t-12 29t12 29t28 11t28 -11t12 -29zM550 1100q0 -18 -12 -29t-28 -11t-28 11t-12 29t12 29t28 11t28 -11t12 -29z" />
    <glyph glyph-name="dotlessi" unicode="&#x131;" horiz-adv-x="220" 
d="M130 0q0 -8 -6 -14t-14 -6t-14 6t-6 14v800q0 8 6 14t14 6t14 -6t6 -14v-800z" />
    <glyph glyph-name="circumflex" unicode="&#x2c6;" horiz-adv-x="420" 
d="M210 1172l-186 -186q-6 -6 -14 -6t-14 6t-6 14t6 14l200 200q6 6 14 6t14 -6l200 -200q6 -6 6 -14t-6 -14t-14 -6t-14 6z" />
    <glyph glyph-name="caron" unicode="&#x2c7;" horiz-adv-x="420" 
d="M196 986l-200 200q-6 6 -6 14t6 14t14 6t14 -6l186 -186l186 186q6 6 14 6t14 -6t6 -14t-6 -14l-200 -200q-6 -6 -14 -6t-14 6z" />
    <glyph glyph-name="uni02C9" unicode="&#x2c9;" horiz-adv-x="620" 
d="M110 1080q-8 0 -14 6t-6 14t6 14t14 6h400q8 0 14 -6t6 -14t-6 -14t-14 -6h-400z" />
    <glyph glyph-name="breve" unicode="&#x2d8;" horiz-adv-x="420" 
d="M-10 1000v200q0 8 6 14t14 6t14 -6t6 -14v-180h360v180q0 8 6 14t14 6t14 -6t6 -14v-200q0 -8 -6 -14t-14 -6h-400q-8 0 -14 6t-6 14z" />
    <glyph glyph-name="dotaccent" unicode="&#x2d9;" horiz-adv-x="220" 
d="M138 1129q12 -11 12 -29t-12 -29t-28 -11t-28 11t-12 29t12 29t28 11t28 -11z" />
    <glyph glyph-name="ring" unicode="&#x2da;" horiz-adv-x="420" 
d="M110 1220h200q8 0 14 -6t6 -14v-200q0 -8 -6 -14t-14 -6h-200q-8 0 -14 6t-6 14v200q0 8 6 14t14 6zM290 1180h-160v-160h160v160z" />
    <glyph glyph-name="ogonek" unicode="&#x2db;" horiz-adv-x="420" 
d="M90 -200q0 8 206 214q6 6 14 6t14 -6t6 -14t-6 -14l-186 -186l186 -186q6 -6 6 -14t-6 -14t-14 -6t-14 6l-200 200q-6 6 -6 14z" />
    <glyph glyph-name="tilde" unicode="&#x2dc;" horiz-adv-x="620" 
d="M410 1028l186 186q6 6 14 6t14 -6t6 -14t-6 -14l-200 -200q-6 -6 -14 -6t-14 6l-186 186l-186 -186q-6 -6 -14 -6t-14 6t-6 14t6 14l200 200q6 6 14 6t14 -6z" />
    <glyph glyph-name="hungarumlaut" unicode="&#x2dd;" horiz-adv-x="620" 
d="M296 1214q6 6 14 6t14 -6t6 -14t-6 -14l-200 -200q-6 -6 -14 -6t-14 6t-6 14t6 14zM496 1214q6 6 14 6t14 -6t6 -14t-6 -14l-200 -200q-6 -6 -14 -6t-14 6t-6 14t6 14z" />
    <glyph glyph-name="endash" unicode="&#x2013;" horiz-adv-x="920" 
d="M60 480q-8 0 -14 6t-6 14t6 14t14 6h800q8 0 14 -6t6 -14t-6 -14t-14 -6h-800z" />
    <glyph glyph-name="emdash" unicode="&#x2014;" horiz-adv-x="1120" 
d="M60 480q-8 0 -14 6t-6 14t6 14t14 6h1000q8 0 14 -6t6 -14t-6 -14t-14 -6h-1000z" />
    <glyph glyph-name="quoteleft" unicode="&#x2018;" horiz-adv-x="420" 
d="M296 1214q6 6 14 6t14 -6t6 -14t-6 -14l-200 -200q-6 -6 -14 -6t-14 6t-6 14t6 14z" />
    <glyph glyph-name="quoteright" unicode="&#x2019;" horiz-adv-x="420" 
d="M296 1214q6 6 14 6t14 -6t6 -14t-6 -14l-200 -200q-6 -6 -14 -6t-14 6t-6 14t6 14z" />
    <glyph glyph-name="quotesinglbase" unicode="&#x201a;" horiz-adv-x="420" 
d="M296 114q6 6 14 6t14 -6t6 -14t-6 -14l-200 -200q-6 -6 -14 -6t-14 6t-6 14t6 14z" />
    <glyph glyph-name="quotedblleft" unicode="&#x201c;" horiz-adv-x="620" 
d="M296 1214q6 6 14 6t14 -6t6 -14t-6 -14l-200 -200q-6 -6 -14 -6t-14 6t-6 14t6 14zM496 1214q6 6 14 6t14 -6t6 -14t-6 -14l-200 -200q-6 -6 -14 -6t-14 6t-6 14t6 14z" />
    <glyph glyph-name="quotedblright" unicode="&#x201d;" horiz-adv-x="620" 
d="M296 1214q6 6 14 6t14 -6t6 -14t-6 -14l-200 -200q-6 -6 -14 -6t-14 6t-6 14t6 14zM496 1214q6 6 14 6t14 -6t6 -14t-6 -14l-200 -200q-6 -6 -14 -6t-14 6t-6 14t6 14z" />
    <glyph glyph-name="quotedblbase" unicode="&#x201e;" horiz-adv-x="620" 
d="M296 114q6 6 14 6t14 -6t6 -14t-6 -14l-200 -200q-6 -6 -14 -6t-14 6t-6 14t6 14zM496 114q6 6 14 6t14 -6t6 -14t-6 -14l-200 -200q-6 -6 -14 -6t-14 6t-6 14t6 14z" />
    <glyph glyph-name="dagger" unicode="&#x2020;" horiz-adv-x="720" 
d="M380 0q0 -8 -6 -14t-14 -6t-14 6t-6 14v780h-280q-8 0 -14 6t-6 14t6 14t14 6h280v280q0 8 6 14t14 6t14 -6t6 -14v-280h280q8 0 14 -6t6 -14t-6 -14t-14 -6h-280v-780z" />
    <glyph glyph-name="daggerdbl" unicode="&#x2021;" horiz-adv-x="720" 
d="M380 320h280q8 0 14 -6t6 -14t-6 -14t-14 -6h-280v-280q0 -8 -6 -14t-14 -6t-14 6t-6 14v280h-280q-8 0 -14 6t-6 14t6 14t14 6h280v460h-280q-8 0 -14 6t-6 14t6 14t14 6h280v280q0 8 6 14t14 6t14 -6t6 -14v-280h280q8 0 14 -6t6 -14t-6 -14t-14 -6h-280v-460z" />
    <glyph glyph-name="bullet" unicode="&#x2022;" 
d="M310 230q-8 0 -14 6l-150 150q-6 6 -6 14v200q0 8 6 14l150 150q6 6 14 6h200q8 0 14 -6l150 -150q6 -6 6 -14v-200q0 -8 -6 -14l-150 -150q-6 -6 -14 -6h-200z" />
    <glyph glyph-name="ellipsis" unicode="&#x2026;" horiz-adv-x="620" 
d="M138 29q12 -11 12 -29t-12 -29t-28 -11t-28 11t-12 29t12 29t28 11t28 -11zM338 29q12 -11 12 -29t-12 -29t-28 -11t-28 11t-12 29t12 29t28 11t28 -11zM538 29q12 -11 12 -29t-12 -29t-28 -11t-28 11t-12 29t12 29t28 11t28 -11z" />
    <glyph glyph-name="guilsinglleft" unicode="&#x2039;" horiz-adv-x="320" 
d="M274 314q6 -6 6 -14t-6 -14t-14 -6t-14 6l-200 200q-6 6 -6 14t6 14l200 200q6 6 14 6t14 -6t6 -14t-6 -14l-186 -186z" />
    <glyph glyph-name="guilsinglright" unicode="&#x203a;" horiz-adv-x="320" 
d="M232 500l-186 186q-6 6 -6 14t6 14t14 6t14 -6l200 -200q6 -6 6 -14t-6 -14l-200 -200q-6 -6 -14 -6t-14 6t-6 14t6 14z" />
    <glyph glyph-name="fraction" unicode="&#x2044;" 
d="M596 1114l200 200q6 6 14 6t14 -6t6 -14t-6 -14l-194 -194v-192q0 -8 -6 -14l-194 -194v-192q0 -8 -6 -14l-194 -194v-192q0 -8 -6 -14l-200 -200q-6 -6 -14 -6t-14 6t-6 14t6 14l194 194v192q0 8 6 14l194 194v192q0 8 6 14l194 194v192q0 8 6 14z" />
    <glyph glyph-name="fraction" unicode="&#x2215;" 
d="M596 1114l200 200q6 6 14 6t14 -6t6 -14t-6 -14l-194 -194v-192q0 -8 -6 -14l-194 -194v-192q0 -8 -6 -14l-194 -194v-192q0 -8 -6 -14l-200 -200q-6 -6 -14 -6t-14 6t-6 14t6 14l194 194v192q0 8 6 14l194 194v192q0 8 6 14l194 194v192q0 8 6 14z" />
    <glyph glyph-name="Euro" unicode="&#x20ac;" horiz-adv-x="1020" 
d="M890 208v192q0 8 6 14t14 6t14 -6t6 -14v-200q0 -8 -206 -214q-6 -6 -14 -6h-400q-8 0 -14 6l-200 200q-6 6 -6 14v800q0 8 6 14l200 200q6 6 14 6h400q8 0 14 -6l200 -200q6 -6 6 -14v-200q0 -8 -6 -14t-14 -6t-14 6t-6 14v192l-188 188h-384l-188 -188v-784l188 -188
h384zM10 480q-8 0 -14 6t-6 14t6 14t14 6h600q8 0 14 -6t6 -14t-6 -14t-14 -6h-600zM10 680q-8 0 -14 6t-6 14t6 14t14 6h600q8 0 14 -6t6 -14t-6 -14t-14 -6h-600z" />
    <glyph glyph-name="afii61352" unicode="&#x2116;" horiz-adv-x="1570" 
d="M130 1152v-1152q0 -8 -6 -14t-14 -6t-14 6t-6 14v1200q0 8 6 14t14 6t14 -6l766 -766v752q0 8 6 14t14 6t14 -6t6 -14v-1200q0 -8 -6 -14t-14 -6t-14 6t-6 14v392zM1360 730h-150q-8 0 -14 6l-100 100q-6 6 -6 14v250q0 8 6 14l100 100q6 6 14 6h150q8 0 14 -6l100 -100
q6 -6 6 -14v-250q0 -8 -6 -14l-100 -100q-6 -6 -14 -6zM1218 770h134l88 88v234l-88 88h-134l-88 -88v-234zM1110 580q-8 0 -14 6t-6 14t6 14t14 6h350q8 0 14 -6t6 -14t-6 -14t-14 -6h-350z" />
    <glyph glyph-name="trademark" unicode="&#x2122;" horiz-adv-x="620" 
d="M130 800q0 -8 -6 -14t-14 -6t-14 6t-6 14v380h-80q-8 0 -14 6t-6 14t6 14t14 6h200q8 0 14 -6t6 -14t-6 -14t-14 -6h-80v-380zM330 1152v-352q0 -8 -6 -14t-14 -6t-14 6t-6 14v400q0 8 6 14t14 6t14 -6l86 -86l86 86q6 6 14 6t14 -6t6 -14v-400q0 -8 -6 -14t-14 -6t-14 6
t-6 14v352l-66 -66q-6 -6 -14 -6t-14 6z" />
    <glyph glyph-name="partialdiff" unicode="&#x2202;" 
d="M318 20h184l188 188v384l-188 188h-184l-188 -188v-384zM724 614q6 -6 6 -14v-400q0 -8 -6 -14l-200 -200q-6 -6 -14 -6h-200q-8 0 -14 6l-200 200q-6 6 -6 14v400q0 8 6 14l200 200q6 6 14 6h152l-366 366q-6 6 -6 14t6 14t14 6t14 -6z" />
    <glyph glyph-name="Delta" unicode="&#x2206;" 
d="M90 0v500q0 8 6 14l300 300q6 6 14 6t14 -6l300 -300q6 -6 6 -14v-500q0 -8 -6 -14t-14 -6h-600q-8 0 -14 6t-6 14zM690 20v472l-280 280l-280 -280v-472h560z" />
    <glyph glyph-name="product" unicode="&#x220f;" horiz-adv-x="1020" 
d="M130 -200q0 -8 -6 -14t-14 -6t-14 6t-6 14v1400q0 8 6 14t14 6h800q8 0 14 -6t6 -14v-1400q0 -8 -6 -14t-14 -6t-14 6t-6 14v1380h-760v-1380z" />
    <glyph glyph-name="summation" unicode="&#x2211;" horiz-adv-x="1020" 
d="M46 1286q-6 6 -6 14t6 14t14 6h900q8 0 14 -6t6 -14t-6 -14t-14 -6h-852l666 -666q6 -6 6 -14t-6 -14l-666 -666h852q8 0 14 -6t6 -14t-6 -14t-14 -6h-900q-8 0 -14 6t-6 14t6 14l686 686z" />
    <glyph glyph-name="minus" unicode="&#x2212;" horiz-adv-x="720" 
d="M60 480q-8 0 -14 6t-6 14t6 14t14 6h600q8 0 14 -6t6 -14t-6 -14t-14 -6h-600z" />
    <glyph glyph-name="radical" unicode="&#x221a;" horiz-adv-x="720" 
d="M202 380h-92q-8 0 -14 6t-6 14t6 14t14 6h100q8 0 14 -6l366 -366v1152q0 8 6 14t14 6t14 -6t6 -14v-1200q0 -8 -6 -14t-14 -6t-14 6z" />
    <glyph glyph-name="infinity" unicode="&#x221e;" horiz-adv-x="1620" 
d="M502 780h-184l-188 -188v-184l188 -188h184l280 280zM838 500l280 -280h184l188 188v184l-188 188h-184zM810 472l-286 -286q-6 -6 -14 -6h-200q-8 0 -14 6l-200 200q-6 6 -6 14v200q0 8 6 14l200 200q6 6 14 6h200q8 0 14 -6l286 -286l286 286q6 6 14 6h200q8 0 14 -6
l200 -200q6 -6 6 -14v-200q0 -8 -6 -14l-200 -200q-6 -6 -14 -6h-200q-8 0 -14 6z" />
    <glyph glyph-name="integral" unicode="&#x222b;" horiz-adv-x="420" 
d="M190 1000q0 8 6 14l200 200q6 6 14 6t14 -6t6 -14t-6 -14l-194 -194v-792q0 -8 -6 -14l-200 -200q-6 -6 -14 -6t-14 6t-6 14t6 14l194 194v792z" />
    <glyph glyph-name="approxequal" unicode="&#x2248;" 
d="M610 443l186 186q6 6 14 6t14 -6t6 -14t-6 -14l-200 -200q-6 -6 -14 -6t-14 6l-386 386l-186 -186q-6 -6 -14 -6t-14 6t-6 14t6 14l200 200q6 6 14 6t14 -6zM610 23l186 186q6 6 14 6t14 -6t6 -14t-6 -14l-200 -200q-6 -6 -14 -6t-14 6l-386 386l-186 -186q-6 -6 -14 -6
t-14 6t-6 14t6 14l200 200q6 6 14 6t14 -6z" />
    <glyph glyph-name="lessequal" unicode="&#x2264;" horiz-adv-x="720" 
d="M524 214q6 -6 6 -14t-6 -14t-14 -6t-14 6l-300 300q-6 6 -6 14t6 14l300 300q6 6 14 6t14 -6t6 -14t-6 -14l-286 -286zM60 90q-8 0 -14 6t-6 14t6 14t14 6h600q8 0 14 -6t6 -14t-6 -14t-14 -6h-600z" />
    <glyph glyph-name="greaterequal" unicode="&#x2265;" horiz-adv-x="720" 
d="M482 500l-286 286q-6 6 -6 14t6 14t14 6t14 -6l300 -300q6 -6 6 -14t-6 -14l-300 -300q-6 -6 -14 -6t-14 6t-6 14t6 14zM60 90q-8 0 -14 6t-6 14t6 14t14 6h600q8 0 14 -6t6 -14t-6 -14t-14 -6h-600z" />
    <glyph glyph-name="elementy" unicode="&#xf001;" horiz-adv-x="1105" 
d="M-10 200q0 8 6 14t14 6t14 -6t6 -14v-200q0 -8 -6 -14t-14 -6t-14 6t-6 14v200zM324 14q6 -6 6 -14t-6 -14t-14 -6t-14 6l-200 200q-6 6 -6 14t6 14t14 6t14 -6zM10 280q-8 0 -14 6t-6 14t6 14t14 6h200q8 0 14 -6t6 -14t-6 -14t-14 -6h-200zM124 414q6 -6 6 -14t-6 -14
t-14 -6t-14 6t-6 14t6 14t14 6t14 -6z" />
    <glyph glyph-name="elementy" unicode="&#xfb01;" horiz-adv-x="1105" 
d="M-10 200q0 8 6 14t14 6t14 -6t6 -14v-200q0 -8 -6 -14t-14 -6t-14 6t-6 14v200zM324 14q6 -6 6 -14t-6 -14t-14 -6t-14 6l-200 200q-6 6 -6 14t6 14t14 6t14 -6zM10 280q-8 0 -14 6t-6 14t6 14t14 6h200q8 0 14 -6t6 -14t-6 -14t-14 -6h-200zM124 414q6 -6 6 -14t-6 -14
t-14 -6t-14 6t-6 14t6 14t14 6t14 -6z" />
    <glyph glyph-name="dotlessj" unicode="&#x237;" horiz-adv-x="220" 
d="M90 800q0 8 6 14t14 6t14 -6t6 -14v-1000q0 -8 -6 -14l-200 -200q-6 -6 -14 -6t-14 6t-6 14t6 14l194 194v992z" />
    <glyph glyph-name="Rcaron" unicode="&#x158;" horiz-adv-x="1020" 
d="M724 1214l200 -200q6 -6 6 -14v-400q0 -8 -6 -14l-186 -186l186 -186q6 -6 6 -14v-200q0 -8 -6 -14t-14 -6t-14 6t-6 14v192l-188 188h-572v-380q0 -8 -6 -14t-14 -6t-14 6t-6 14v1200q0 8 6 14t14 6h600q8 0 14 -6zM890 992l-188 188h-572v-760h572l188 188v384z
M496 1386l-200 200q-6 6 -6 14t6 14t14 6t14 -6l186 -186l186 186q6 6 14 6t14 -6t6 -14t-6 -14l-200 -200q-6 -6 -14 -6t-14 6z" />
    <glyph glyph-name="rcaron" unicode="&#x159;" horiz-adv-x="520" 
d="M130 592v-592q0 -8 -6 -14t-14 -6t-14 6t-6 14v800q0 8 6 14t14 6t14 -6t6 -14v-152l166 166q6 6 14 6h200q8 0 14 -6t6 -14t-6 -14t-14 -6h-192zM296 986l-200 200q-6 6 -6 14t6 14t14 6t14 -6l186 -186l186 186q6 6 14 6t14 -6t6 -14t-6 -14l-200 -200q-6 -6 -14 -6
t-14 6z" />
    <glyph glyph-name="Sacute" unicode="&#x15a;" horiz-adv-x="1020" 
d="M724 1214l200 -200q6 -6 6 -14t-6 -14t-14 -6t-14 6l-194 194h-384l-188 -188v-184l188 -188h392q8 0 14 -6l200 -200q6 -6 6 -14v-200q0 -8 -206 -214q-6 -6 -14 -6h-400q-8 0 -14 6l-200 200q-6 6 -6 14t6 14t14 6t14 -6l194 -194h384l188 188v184l-188 188h-392
q-8 0 -14 6l-200 200q-6 6 -6 14v200q0 8 6 14l200 200q6 6 14 6h400q8 0 14 -6zM633 1614q6 6 14 6t14 -6t6 -14t-6 -14l-200 -200q-6 -6 -14 -6t-14 6t-6 14t6 14z" />
    <glyph glyph-name="sacute" unicode="&#x15b;" 
d="M96 614l200 200q6 6 14 6h200q8 0 14 -6l200 -200q6 -6 6 -14t-6 -14t-14 -6t-14 6l-194 194h-184l-180 -180l180 -180h192q8 0 14 -6l200 -200q6 -6 6 -14t-6 -14l-200 -200q-6 -6 -14 -6h-200q-8 0 -14 6l-200 200q-6 6 -6 14t6 14t14 6t14 -6l194 -194h184l180 180
l-180 180h-192q-8 0 -14 6l-200 200q-6 6 -6 14t6 14zM533 1214q6 6 14 6t14 -6t6 -14t-6 -14l-200 -200q-6 -6 -14 -6t-14 6t-6 14t6 14z" />
    <glyph glyph-name="Scircumflex" unicode="&#x15c;" horiz-adv-x="1020" 
d="M724 1214l200 -200q6 -6 6 -14t-6 -14t-14 -6t-14 6l-194 194h-384l-188 -188v-184l188 -188h392q8 0 14 -6l200 -200q6 -6 6 -14v-200q0 -8 -206 -214q-6 -6 -14 -6h-400q-8 0 -14 6l-200 200q-6 6 -6 14t6 14t14 6t14 -6l194 -194h384l188 188v184l-188 188h-392
q-8 0 -14 6l-200 200q-6 6 -6 14v200q0 8 6 14l200 200q6 6 14 6h400q8 0 14 -6zM510 1572l-186 -186q-6 -6 -14 -6t-14 6t-6 14t6 14l200 200q6 6 14 6t14 -6l200 -200q6 -6 6 -14t-6 -14t-14 -6t-14 6z" />
    <glyph glyph-name="scircumflex" unicode="&#x15d;" 
d="M96 614l200 200q6 6 14 6h200q8 0 14 -6l200 -200q6 -6 6 -14t-6 -14t-14 -6t-14 6l-194 194h-184l-180 -180l180 -180h192q8 0 14 -6l200 -200q6 -6 6 -14t-6 -14l-200 -200q-6 -6 -14 -6h-200q-8 0 -14 6l-200 200q-6 6 -6 14t6 14t14 6t14 -6l194 -194h184l180 180
l-180 180h-192q-8 0 -14 6l-200 200q-6 6 -6 14t6 14zM410 1172l-186 -186q-6 -6 -14 -6t-14 6t-6 14t6 14l200 200q6 6 14 6t14 -6l200 -200q6 -6 6 -14t-6 -14t-14 -6t-14 6z" />
    <glyph glyph-name="Scedilla" unicode="&#x15e;" horiz-adv-x="1020" 
d="M724 1214l200 -200q6 -6 6 -14t-6 -14t-14 -6t-14 6l-194 194h-384l-188 -188v-184l188 -188h392q8 0 14 -6l200 -200q6 -6 6 -14v-200q0 -8 -206 -214q-6 -6 -14 -6h-400q-8 0 -14 6l-200 200q-6 6 -6 14t6 14t14 6t14 -6l194 -194h384l188 188v184l-188 188h-392
q-8 0 -14 6l-200 200q-6 6 -6 14v200q0 8 6 14l200 200q6 6 14 6h400q8 0 14 -6zM724 -214l-200 -200q-6 -6 -14 -6t-14 6t-6 14t6 14l186 186l-186 186q-6 6 -6 14t6 14t14 6t14 -6q206 -206 206 -214t-6 -14z" />
    <glyph glyph-name="scedilla" unicode="&#x15f;" 
d="M96 614l200 200q6 6 14 6h200q8 0 14 -6l200 -200q6 -6 6 -14t-6 -14t-14 -6t-14 6l-194 194h-184l-180 -180l180 -180h192q8 0 14 -6l200 -200q6 -6 6 -14t-6 -14l-200 -200q-6 -6 -14 -6h-200q-8 0 -14 6l-200 200q-6 6 -6 14t6 14t14 6t14 -6l194 -194h184l180 180
l-180 180h-192q-8 0 -14 6l-200 200q-6 6 -6 14t6 14zM624 -214l-200 -200q-6 -6 -14 -6t-14 6t-6 14t6 14l186 186l-186 186q-6 6 -6 14t6 14t14 6t14 -6q206 -206 206 -214t-6 -14z" />
    <glyph glyph-name="Scaron" unicode="&#x160;" horiz-adv-x="1020" 
d="M724 1214l200 -200q6 -6 6 -14t-6 -14t-14 -6t-14 6l-194 194h-384l-188 -188v-184l188 -188h392q8 0 14 -6l200 -200q6 -6 6 -14v-200q0 -8 -206 -214q-6 -6 -14 -6h-400q-8 0 -14 6l-200 200q-6 6 -6 14t6 14t14 6t14 -6l194 -194h384l188 188v184l-188 188h-392
q-8 0 -14 6l-200 200q-6 6 -6 14v200q0 8 6 14l200 200q6 6 14 6h400q8 0 14 -6zM496 1386l-200 200q-6 6 -6 14t6 14t14 6t14 -6l186 -186l186 186q6 6 14 6t14 -6t6 -14t-6 -14l-200 -200q-6 -6 -14 -6t-14 6z" />
    <glyph glyph-name="scaron" unicode="&#x161;" 
d="M96 614l200 200q6 6 14 6h200q8 0 14 -6l200 -200q6 -6 6 -14t-6 -14t-14 -6t-14 6l-194 194h-184l-180 -180l180 -180h192q8 0 14 -6l200 -200q6 -6 6 -14t-6 -14l-200 -200q-6 -6 -14 -6h-200q-8 0 -14 6l-200 200q-6 6 -6 14t6 14t14 6t14 -6l194 -194h184l180 180
l-180 180h-192q-8 0 -14 6l-200 200q-6 6 -6 14t6 14zM396 986l-200 200q-6 6 -6 14t6 14t14 6t14 -6l186 -186l186 186q6 6 14 6t14 -6t6 -14t-6 -14l-200 -200q-6 -6 -14 -6t-14 6z" />
    <glyph glyph-name="Amacron" unicode="&#x100;" horiz-adv-x="1020" 
d="M510 1172l-380 -380v-372h760v372zM96 814l400 400q6 6 14 6t414 -406q6 -6 6 -14v-800q0 -8 -6 -14t-14 -6t-14 6t-6 14v380h-760v-380q0 -8 -6 -14t-14 -6t-14 6t-6 14v800q0 8 6 14zM310 1480q-8 0 -14 6t-6 14t6 14t14 6h400q8 0 14 -6t6 -14t-6 -14t-14 -6h-400z
" />
    <glyph glyph-name="amacron" unicode="&#x101;" 
d="M690 208v384l-188 188h-184l-188 -188v-384l188 -188h184zM730 0q0 -8 -6 -14t-14 -6t-14 6t-6 14v152l-166 -166q-6 -6 -14 -6h-200q-8 0 -14 6l-200 200q-6 6 -6 14v400q0 8 6 14l200 200q6 6 14 6h200q8 0 14 -6l200 -200q6 -6 6 -14v-600zM210 1080q-8 0 -14 6t-6 14
t6 14t14 6h400q8 0 14 -6t6 -14t-6 -14t-14 -6h-400z" />
    <glyph glyph-name="Abreve" unicode="&#x102;" horiz-adv-x="1020" 
d="M510 1172l-380 -380v-372h760v372zM96 814l400 400q6 6 14 6t414 -406q6 -6 6 -14v-800q0 -8 -6 -14t-14 -6t-14 6t-6 14v380h-760v-380q0 -8 -6 -14t-14 -6t-14 6t-6 14v800q0 8 6 14zM290 1400v200q0 8 6 14t14 6t14 -6t6 -14v-180h360v180q0 8 6 14t14 6t14 -6t6 -14
v-200q0 -8 -6 -14t-14 -6h-400q-8 0 -14 6t-6 14z" />
    <glyph glyph-name="abreve" unicode="&#x103;" 
d="M690 208v384l-188 188h-184l-188 -188v-384l188 -188h184zM730 0q0 -8 -6 -14t-14 -6t-14 6t-6 14v152l-166 -166q-6 -6 -14 -6h-200q-8 0 -14 6l-200 200q-6 6 -6 14v400q0 8 6 14l200 200q6 6 14 6h200q8 0 14 -6l200 -200q6 -6 6 -14v-600zM190 1000v200q0 8 6 14
t14 6t14 -6t6 -14v-180h360v180q0 8 6 14t14 6t14 -6t6 -14v-200q0 -8 -6 -14t-14 -6h-400q-8 0 -14 6t-6 14z" />
    <glyph glyph-name="Aogonek" unicode="&#x104;" horiz-adv-x="1020" 
d="M510 1172l-380 -380v-372h760v372zM96 814l400 400q6 6 14 6t414 -406q6 -6 6 -14v-800q0 -8 -6 -14t-14 -6t-14 6t-6 14v380h-760v-380q0 -8 -6 -14t-14 -6t-14 6t-6 14v800q0 8 6 14zM690 -200q0 8 206 214q6 6 14 6t14 -6t6 -14t-6 -14l-186 -186l186 -186q6 -6 6 -14
t-6 -14t-14 -6t-14 6l-200 200q-6 6 -6 14z" />
    <glyph glyph-name="aogonek" unicode="&#x105;" 
d="M690 208v384l-188 188h-184l-188 -188v-384l188 -188h184zM730 0q0 -8 -6 -14t-14 -6t-14 6t-6 14v152l-166 -166q-6 -6 -14 -6h-200q-8 0 -14 6l-200 200q-6 6 -6 14v400q0 8 6 14l200 200q6 6 14 6h200q8 0 14 -6l200 -200q6 -6 6 -14v-600zM490 -200q0 8 206 214
q6 6 14 6t14 -6t6 -14t-6 -14l-186 -186l186 -186q6 -6 6 -14t-6 -14t-14 -6t-14 6l-200 200q-6 6 -6 14z" />
    <glyph glyph-name="Cacute" unicode="&#x106;" horiz-adv-x="1020" 
d="M890 208v192q0 8 6 14t14 6t14 -6t6 -14v-200q0 -8 -206 -214q-6 -6 -14 -6h-400q-8 0 -14 6l-200 200q-6 6 -6 14v800q0 8 6 14l200 200q6 6 14 6h400q8 0 14 -6l200 -200q6 -6 6 -14v-200q0 -8 -6 -14t-14 -6t-14 6t-6 14v192l-188 188h-384l-188 -188v-784l188 -188
h384zM633 1614q6 6 14 6t14 -6t6 -14t-6 -14l-200 -200q-6 -6 -14 -6t-14 6t-6 14t6 14z" />
    <glyph glyph-name="cacute" unicode="&#x107;" 
d="M96 614l200 200q6 6 14 6h200q8 0 14 -6l200 -200q6 -6 6 -14t-6 -14t-14 -6t-14 6l-194 194h-184l-188 -188v-384l188 -188h184l194 194q6 6 14 6t14 -6t6 -14t-6 -14l-200 -200q-6 -6 -14 -6h-200q-8 0 -14 6l-200 200q-6 6 -6 14v400q0 8 6 14zM533 1214q6 6 14 6
t14 -6t6 -14t-6 -14l-200 -200q-6 -6 -14 -6t-14 6t-6 14t6 14z" />
    <glyph glyph-name="Ccircumflex" unicode="&#x108;" horiz-adv-x="1020" 
d="M890 208v192q0 8 6 14t14 6t14 -6t6 -14v-200q0 -8 -206 -214q-6 -6 -14 -6h-400q-8 0 -14 6l-200 200q-6 6 -6 14v800q0 8 6 14l200 200q6 6 14 6h400q8 0 14 -6l200 -200q6 -6 6 -14v-200q0 -8 -6 -14t-14 -6t-14 6t-6 14v192l-188 188h-384l-188 -188v-784l188 -188
h384zM510 1572l-186 -186q-6 -6 -14 -6t-14 6t-6 14t6 14l200 200q6 6 14 6t14 -6l200 -200q6 -6 6 -14t-6 -14t-14 -6t-14 6z" />
    <glyph glyph-name="ccircumflex" unicode="&#x109;" 
d="M96 614l200 200q6 6 14 6h200q8 0 14 -6l200 -200q6 -6 6 -14t-6 -14t-14 -6t-14 6l-194 194h-184l-188 -188v-384l188 -188h184l194 194q6 6 14 6t14 -6t6 -14t-6 -14l-200 -200q-6 -6 -14 -6h-200q-8 0 -14 6l-200 200q-6 6 -6 14v400q0 8 6 14zM410 1172l-186 -186
q-6 -6 -14 -6t-14 6t-6 14t6 14l200 200q6 6 14 6t14 -6l200 -200q6 -6 6 -14t-6 -14t-14 -6t-14 6z" />
    <glyph glyph-name="Cdotaccent" unicode="&#x10a;" horiz-adv-x="1020" 
d="M890 208v192q0 8 6 14t14 6t14 -6t6 -14v-200q0 -8 -206 -214q-6 -6 -14 -6h-400q-8 0 -14 6l-200 200q-6 6 -6 14v800q0 8 6 14l200 200q6 6 14 6h400q8 0 14 -6l200 -200q6 -6 6 -14v-200q0 -8 -6 -14t-14 -6t-14 6t-6 14v192l-188 188h-384l-188 -188v-784l188 -188
h384zM538 1529q12 -11 12 -29t-12 -29t-28 -11t-28 11t-12 29t12 29t28 11t28 -11z" />
    <glyph glyph-name="cdotaccent" unicode="&#x10b;" 
d="M96 614l200 200q6 6 14 6h200q8 0 14 -6l200 -200q6 -6 6 -14t-6 -14t-14 -6t-14 6l-194 194h-184l-188 -188v-384l188 -188h184l194 194q6 6 14 6t14 -6t6 -14t-6 -14l-200 -200q-6 -6 -14 -6h-200q-8 0 -14 6l-200 200q-6 6 -6 14v400q0 8 6 14zM438 1129
q12 -11 12 -29t-12 -29t-28 -11t-28 11t-12 29t12 29t28 11t28 -11z" />
    <glyph glyph-name="Ccaron" unicode="&#x10c;" horiz-adv-x="1020" 
d="M890 208v192q0 8 6 14t14 6t14 -6t6 -14v-200q0 -8 -206 -214q-6 -6 -14 -6h-400q-8 0 -14 6l-200 200q-6 6 -6 14v800q0 8 6 14l200 200q6 6 14 6h400q8 0 14 -6l200 -200q6 -6 6 -14v-200q0 -8 -6 -14t-14 -6t-14 6t-6 14v192l-188 188h-384l-188 -188v-784l188 -188
h384zM496 1386l-200 200q-6 6 -6 14t6 14t14 6t14 -6l186 -186l186 186q6 6 14 6t14 -6t6 -14t-6 -14l-200 -200q-6 -6 -14 -6t-14 6z" />
    <glyph glyph-name="ccaron" unicode="&#x10d;" 
d="M96 614l200 200q6 6 14 6h200q8 0 14 -6l200 -200q6 -6 6 -14t-6 -14t-14 -6t-14 6l-194 194h-184l-188 -188v-384l188 -188h184l194 194q6 6 14 6t14 -6t6 -14t-6 -14l-200 -200q-6 -6 -14 -6h-200q-8 0 -14 6l-200 200q-6 6 -6 14v400q0 8 6 14zM396 986l-200 200
q-6 6 -6 14t6 14t14 6t14 -6l186 -186l186 186q6 6 14 6t14 -6t6 -14t-6 -14l-200 -200q-6 -6 -14 -6t-14 6z" />
    <glyph glyph-name="Dcaron" unicode="&#x10e;" horiz-adv-x="1020" 
d="M930 200q0 -8 -6 -14l-200 -200q-6 -6 -14 -6h-600q-8 0 -14 6t-6 14v1200q0 8 6 14t14 6h600q8 0 14 -6l200 -200q6 -6 6 -14v-800zM890 208v784l-188 188h-572v-1160h572zM496 1386l-200 200q-6 6 -6 14t6 14t14 6t14 -6l186 -186l186 186q6 6 14 6t14 -6t6 -14t-6 -14
l-200 -200q-6 -6 -14 -6t-14 6z" />
    <glyph glyph-name="dcaron" unicode="&#x10f;" 
d="M690 208v384l-188 188h-184l-188 -188v-384l188 -188h184zM730 0q0 -8 -6 -14t-14 -6t-14 6t-6 14v152l-166 -166q-6 -6 -14 -6h-200q-8 0 -14 6l-200 200q-6 6 -6 14v400q0 8 6 14l200 200q6 6 14 6h200q8 0 14 -6l166 -166v552q0 8 6 14t14 6t14 -6t6 -14v-1200z
M930 1000q0 -8 -6 -14t-14 -6t-14 6t-6 14v200q0 8 6 14t14 6t14 -6t6 -14v-200z" />
    <glyph glyph-name="Dcroat" unicode="&#x110;" horiz-adv-x="1020" 
d="M930 200q0 -8 -6 -14l-200 -200q-6 -6 -14 -6h-600q-8 0 -14 6t-6 14v1200q0 8 6 14t14 6h600q8 0 14 -6l200 -200q6 -6 6 -14v-800zM890 208v784l-188 188h-572v-1160h572zM10 580q-8 0 -14 6t-6 14t6 14t14 6h600q8 0 14 -6t6 -14t-6 -14t-14 -6h-600z" />
    <glyph glyph-name="dcroat" unicode="&#x111;" 
d="M690 208v384l-188 188h-184l-188 -188v-384l188 -188h184zM730 0q0 -8 -6 -14t-14 -6t-14 6t-6 14v152l-166 -166q-6 -6 -14 -6h-200q-8 0 -14 6l-200 200q-6 6 -6 14v400q0 8 6 14l200 200q6 6 14 6h200q8 0 14 -6l166 -166v552q0 8 6 14t14 6t14 -6t6 -14v-1200z
M110 984q-8 0 -14 6t-6 14t6 14t14 6h600q8 0 14 -6t6 -14t-6 -14t-14 -6h-600z" />
    <glyph glyph-name="Emacron" unicode="&#x112;" horiz-adv-x="720" 
d="M710 20q8 0 14 -6t6 -14t-6 -14t-14 -6h-600q-8 0 -14 6t-6 14v1200q0 8 6 14t14 6h600q8 0 14 -6t6 -14t-6 -14t-14 -6h-580v-560h380q8 0 14 -6t6 -14t-6 -14t-14 -6h-380v-560h580zM210 1480q-8 0 -14 6t-6 14t6 14t14 6h400q8 0 14 -6t6 -14t-6 -14t-14 -6h-400z" />
    <glyph glyph-name="emacron" unicode="&#x113;" 
d="M730 600v-200q0 -8 -6 -14t-14 -6h-580v-172l188 -188h184l194 194q6 6 14 6t14 -6t6 -14t-6 -14l-200 -200q-6 -6 -14 -6h-200q-8 0 -14 6l-200 200q-6 6 -6 14v400q0 8 6 14l200 200q6 6 14 6h200q8 0 14 -6l200 -200q6 -6 6 -14zM690 420v172l-188 188h-184l-188 -188
v-172h560zM210 1080q-8 0 -14 6t-6 14t6 14t14 6h400q8 0 14 -6t6 -14t-6 -14t-14 -6h-400z" />
    <glyph glyph-name="Ebreve" unicode="&#x114;" horiz-adv-x="720" 
d="M710 20q8 0 14 -6t6 -14t-6 -14t-14 -6h-600q-8 0 -14 6t-6 14v1200q0 8 6 14t14 6h600q8 0 14 -6t6 -14t-6 -14t-14 -6h-580v-560h380q8 0 14 -6t6 -14t-6 -14t-14 -6h-380v-560h580zM190 1400v200q0 8 6 14t14 6t14 -6t6 -14v-180h360v180q0 8 6 14t14 6t14 -6t6 -14
v-200q0 -8 -6 -14t-14 -6h-400q-8 0 -14 6t-6 14z" />
    <glyph glyph-name="ebreve" unicode="&#x115;" 
d="M730 600v-200q0 -8 -6 -14t-14 -6h-580v-172l188 -188h184l194 194q6 6 14 6t14 -6t6 -14t-6 -14l-200 -200q-6 -6 -14 -6h-200q-8 0 -14 6l-200 200q-6 6 -6 14v400q0 8 6 14l200 200q6 6 14 6h200q8 0 14 -6l200 -200q6 -6 6 -14zM690 420v172l-188 188h-184l-188 -188
v-172h560zM190 1000v200q0 8 6 14t14 6t14 -6t6 -14v-180h360v180q0 8 6 14t14 6t14 -6t6 -14v-200q0 -8 -6 -14t-14 -6h-400q-8 0 -14 6t-6 14z" />
    <glyph glyph-name="Edotaccent" unicode="&#x116;" horiz-adv-x="720" 
d="M710 20q8 0 14 -6t6 -14t-6 -14t-14 -6h-600q-8 0 -14 6t-6 14v1200q0 8 6 14t14 6h600q8 0 14 -6t6 -14t-6 -14t-14 -6h-580v-560h380q8 0 14 -6t6 -14t-6 -14t-14 -6h-380v-560h580zM438 1529q12 -11 12 -29t-12 -29t-28 -11t-28 11t-12 29t12 29t28 11t28 -11z" />
    <glyph glyph-name="edotaccent" unicode="&#x117;" 
d="M730 600v-200q0 -8 -6 -14t-14 -6h-580v-172l188 -188h184l194 194q6 6 14 6t14 -6t6 -14t-6 -14l-200 -200q-6 -6 -14 -6h-200q-8 0 -14 6l-200 200q-6 6 -6 14v400q0 8 6 14l200 200q6 6 14 6h200q8 0 14 -6l200 -200q6 -6 6 -14zM690 420v172l-188 188h-184l-188 -188
v-172h560zM438 1129q12 -11 12 -29t-12 -29t-28 -11t-28 11t-12 29t12 29t28 11t28 -11z" />
    <glyph glyph-name="Eogonek" unicode="&#x118;" horiz-adv-x="720" 
d="M710 20q8 0 14 -6t6 -14t-6 -14t-14 -6h-600q-8 0 -14 6t-6 14v1200q0 8 6 14t14 6h600q8 0 14 -6t6 -14t-6 -14t-14 -6h-580v-560h380q8 0 14 -6t6 -14t-6 -14t-14 -6h-380v-560h580zM490 -200q0 8 206 214q6 6 14 6t14 -6t6 -14t-6 -14l-186 -186l186 -186q6 -6 6 -14
t-6 -14t-14 -6t-14 6l-200 200q-6 6 -6 14z" />
    <glyph glyph-name="eogonek" unicode="&#x119;" 
d="M730 600v-200q0 -8 -6 -14t-14 -6h-580v-172l188 -188h184l194 194q6 6 14 6t14 -6t6 -14t-6 -14l-200 -200q-6 -6 -14 -6h-200q-8 0 -14 6l-200 200q-6 6 -6 14v400q0 8 6 14l200 200q6 6 14 6h200q8 0 14 -6l200 -200q6 -6 6 -14zM690 420v172l-188 188h-184l-188 -188
v-172h560zM290 -200q0 8 206 214q6 6 14 6t14 -6t6 -14t-6 -14l-186 -186l186 -186q6 -6 6 -14t-6 -14t-14 -6t-14 6l-200 200q-6 6 -6 14z" />
    <glyph glyph-name="Ecaron" unicode="&#x11a;" horiz-adv-x="720" 
d="M710 20q8 0 14 -6t6 -14t-6 -14t-14 -6h-600q-8 0 -14 6t-6 14v1200q0 8 6 14t14 6h600q8 0 14 -6t6 -14t-6 -14t-14 -6h-580v-560h380q8 0 14 -6t6 -14t-6 -14t-14 -6h-380v-560h580zM396 1386l-200 200q-6 6 -6 14t6 14t14 6t14 -6l186 -186l186 186q6 6 14 6t14 -6
t6 -14t-6 -14l-200 -200q-6 -6 -14 -6t-14 6z" />
    <glyph glyph-name="ecaron" unicode="&#x11b;" 
d="M730 600v-200q0 -8 -6 -14t-14 -6h-580v-172l188 -188h184l194 194q6 6 14 6t14 -6t6 -14t-6 -14l-200 -200q-6 -6 -14 -6h-200q-8 0 -14 6l-200 200q-6 6 -6 14v400q0 8 6 14l200 200q6 6 14 6h200q8 0 14 -6l200 -200q6 -6 6 -14zM690 420v172l-188 188h-184l-188 -188
v-172h560zM396 986l-200 200q-6 6 -6 14t6 14t14 6t14 -6l186 -186l186 186q6 6 14 6t14 -6t6 -14t-6 -14l-200 -200q-6 -6 -14 -6t-14 6z" />
    <glyph glyph-name="Gcircumflex" unicode="&#x11c;" horiz-adv-x="1020" 
d="M930 1000v-200q0 -8 -6 -14t-14 -6t-14 6t-6 14v192l-188 188h-384l-188 -188v-784l188 -188h384l188 188v372h-180q-8 0 -14 6t-6 14t6 14t14 6h200q8 0 14 -6t6 -14v-400q0 -8 -6 -14l-200 -200q-6 -6 -14 -6h-400q-8 0 -14 6l-200 200q-6 6 -6 14v800q0 8 6 14
l200 200q6 6 14 6h400q8 0 14 -6l200 -200q6 -6 6 -14zM510 1572l-186 -186q-6 -6 -14 -6t-14 6t-6 14t6 14l200 200q6 6 14 6t14 -6l200 -200q6 -6 6 -14t-6 -14t-14 -6t-14 6z" />
    <glyph glyph-name="gcircumflex" unicode="&#x11d;" 
d="M690 208v384l-188 188h-184l-188 -188v-384l188 -188h184zM724 -214l-200 -200q-6 -6 -14 -6h-200q-8 0 -14 6l-200 200q-6 6 -6 14t6 14t14 6t14 -6l194 -194h184l188 188v344l-166 -166q-6 -6 -14 -6h-200q-8 0 -14 6l-200 200q-6 6 -6 14v400q0 8 6 14l200 200
q6 6 14 6h200q8 0 14 -6l166 -166v152q0 8 6 14t14 6t14 -6t6 -14v-1000q0 -8 -6 -14zM410 1172l-186 -186q-6 -6 -14 -6t-14 6t-6 14t6 14l200 200q6 6 14 6t14 -6l200 -200q6 -6 6 -14t-6 -14t-14 -6t-14 6z" />
    <glyph glyph-name="Gbreve" unicode="&#x11e;" horiz-adv-x="1020" 
d="M930 1000v-200q0 -8 -6 -14t-14 -6t-14 6t-6 14v192l-188 188h-384l-188 -188v-784l188 -188h384l188 188v372h-180q-8 0 -14 6t-6 14t6 14t14 6h200q8 0 14 -6t6 -14v-400q0 -8 -6 -14l-200 -200q-6 -6 -14 -6h-400q-8 0 -14 6l-200 200q-6 6 -6 14v800q0 8 6 14
l200 200q6 6 14 6h400q8 0 14 -6l200 -200q6 -6 6 -14zM290 1400v200q0 8 6 14t14 6t14 -6t6 -14v-180h360v180q0 8 6 14t14 6t14 -6t6 -14v-200q0 -8 -6 -14t-14 -6h-400q-8 0 -14 6t-6 14z" />
    <glyph glyph-name="gbreve" unicode="&#x11f;" 
d="M690 208v384l-188 188h-184l-188 -188v-384l188 -188h184zM724 -214l-200 -200q-6 -6 -14 -6h-200q-8 0 -14 6l-200 200q-6 6 -6 14t6 14t14 6t14 -6l194 -194h184l188 188v344l-166 -166q-6 -6 -14 -6h-200q-8 0 -14 6l-200 200q-6 6 -6 14v400q0 8 6 14l200 200
q6 6 14 6h200q8 0 14 -6l166 -166v152q0 8 6 14t14 6t14 -6t6 -14v-1000q0 -8 -6 -14zM190 1000v200q0 8 6 14t14 6t14 -6t6 -14v-180h360v180q0 8 6 14t14 6t14 -6t6 -14v-200q0 -8 -6 -14t-14 -6h-400q-8 0 -14 6t-6 14z" />
    <glyph glyph-name="Gdotaccent" unicode="&#x120;" horiz-adv-x="1020" 
d="M930 1000v-200q0 -8 -6 -14t-14 -6t-14 6t-6 14v192l-188 188h-384l-188 -188v-784l188 -188h384l188 188v372h-180q-8 0 -14 6t-6 14t6 14t14 6h200q8 0 14 -6t6 -14v-400q0 -8 -6 -14l-200 -200q-6 -6 -14 -6h-400q-8 0 -14 6l-200 200q-6 6 -6 14v800q0 8 6 14
l200 200q6 6 14 6h400q8 0 14 -6l200 -200q6 -6 6 -14zM538 1529q12 -11 12 -29t-12 -29t-28 -11t-28 11t-12 29t12 29t28 11t28 -11z" />
    <glyph glyph-name="gdotaccent" unicode="&#x121;" 
d="M690 208v384l-188 188h-184l-188 -188v-384l188 -188h184zM724 -214l-200 -200q-6 -6 -14 -6h-200q-8 0 -14 6l-200 200q-6 6 -6 14t6 14t14 6t14 -6l194 -194h184l188 188v344l-166 -166q-6 -6 -14 -6h-200q-8 0 -14 6l-200 200q-6 6 -6 14v400q0 8 6 14l200 200
q6 6 14 6h200q8 0 14 -6l166 -166v152q0 8 6 14t14 6t14 -6t6 -14v-1000q0 -8 -6 -14zM438 1129q12 -11 12 -29t-12 -29t-28 -11t-28 11t-12 29t12 29t28 11t28 -11z" />
    <glyph glyph-name="Gcommaaccent" unicode="&#x122;" horiz-adv-x="1020" 
d="M930 1000v-200q0 -8 -6 -14t-14 -6t-14 6t-6 14v192l-188 188h-384l-188 -188v-784l188 -188h384l188 188v372h-180q-8 0 -14 6t-6 14t6 14t14 6h200q8 0 14 -6t6 -14v-400q0 -8 -6 -14l-200 -200q-6 -6 -14 -6h-400q-8 0 -14 6l-200 200q-6 6 -6 14v800q0 8 6 14
l200 200q6 6 14 6h400q8 0 14 -6l200 -200q6 -6 6 -14zM530 -300q0 -8 -6 -14t-14 -6t-14 6t-6 14v200q0 8 6 14t14 6t14 -6t6 -14v-200z" />
    <glyph glyph-name="gcommaaccent" unicode="&#x123;" 
d="M690 208v384l-188 188h-184l-188 -188v-384l188 -188h184zM724 -214l-200 -200q-6 -6 -14 -6h-200q-8 0 -14 6l-200 200q-6 6 -6 14t6 14t14 6t14 -6l194 -194h184l188 188v344l-166 -166q-6 -6 -14 -6h-200q-8 0 -14 6l-200 200q-6 6 -6 14v400q0 8 6 14l200 200
q6 6 14 6h200q8 0 14 -6l166 -166v152q0 8 6 14t14 6t14 -6t6 -14v-1000q0 -8 -6 -14zM430 1000q0 -8 -6 -14t-14 -6t-14 6t-6 14v200q0 8 6 14t14 6t14 -6t6 -14v-200z" />
    <glyph glyph-name="Hcircumflex" unicode="&#x124;" horiz-adv-x="1020" 
d="M130 0q0 -8 -6 -14t-14 -6t-14 6t-6 14v1200q0 8 6 14t14 6t14 -6t6 -14v-580h760v580q0 8 6 14t14 6t14 -6t6 -14v-1200q0 -8 -6 -14t-14 -6t-14 6t-6 14v580h-760v-580zM510 1572l-186 -186q-6 -6 -14 -6t-14 6t-6 14t6 14l200 200q6 6 14 6t14 -6l200 -200q6 -6 6 -14
t-6 -14t-14 -6t-14 6z" />
    <glyph glyph-name="hcircumflex" unicode="&#x125;" 
d="M130 592v-592q0 -8 -6 -14t-14 -6t-14 6t-6 14v1200q0 8 6 14t14 6t14 -6t6 -14v-552l166 166q6 6 14 6h200q8 0 14 -6l200 -200q6 -6 6 -14v-600q0 -8 -6 -14t-14 -6t-14 6t-6 14v592l-188 188h-184zM410 1556l-186 -186q-6 -6 -14 -6t-14 6t-6 14t6 14l200 200
q6 6 14 6t14 -6l200 -200q6 -6 6 -14t-6 -14t-14 -6t-14 6z" />
    <glyph glyph-name="Hbar" unicode="&#x126;" horiz-adv-x="1020" 
d="M130 0q0 -8 -6 -14t-14 -6t-14 6t-6 14v1200q0 8 6 14t14 6t14 -6t6 -14v-180h760v180q0 8 6 14t14 6t14 -6t6 -14v-1200q0 -8 -6 -14t-14 -6t-14 6t-6 14v580h-760v-580zM890 620v360h-760v-360h760z" />
    <glyph glyph-name="hbar" unicode="&#x127;" 
d="M130 592v-592q0 -8 -6 -14t-14 -6t-14 6t-6 14v1200q0 8 6 14t14 6t14 -6t6 -14v-552l166 166q6 6 14 6h200q8 0 14 -6l200 -200q6 -6 6 -14v-600q0 -8 -6 -14t-14 -6t-14 6t-6 14v592l-188 188h-184zM110 984q-8 0 -14 6t-6 14t6 14t14 6h600q8 0 14 -6t6 -14t-6 -14
t-14 -6h-600z" />
    <glyph glyph-name="Itilde" unicode="&#x128;" horiz-adv-x="220" 
d="M130 0q0 -8 -6 -14t-14 -6t-14 6t-6 14v1200q0 8 6 14t14 6t14 -6t6 -14v-1200zM210 1428l186 186q6 6 14 6t14 -6t6 -14t-6 -14l-200 -200q-6 -6 -14 -6t-14 6l-186 186l-186 -186q-6 -6 -14 -6t-14 6t-6 14t6 14l200 200q6 6 14 6t14 -6z" />
    <glyph glyph-name="itilde" unicode="&#x129;" horiz-adv-x="220" 
d="M130 0q0 -8 -6 -14t-14 -6t-14 6t-6 14v800q0 8 6 14t14 6t14 -6t6 -14v-800zM210 1028l186 186q6 6 14 6t14 -6t6 -14t-6 -14l-200 -200q-6 -6 -14 -6t-14 6l-186 186l-186 -186q-6 -6 -14 -6t-14 6t-6 14t6 14l200 200q6 6 14 6t14 -6z" />
    <glyph glyph-name="Imacron" unicode="&#x12a;" horiz-adv-x="220" 
d="M130 0q0 -8 -6 -14t-14 -6t-14 6t-6 14v1200q0 8 6 14t14 6t14 -6t6 -14v-1200zM-90 1480q-8 0 -14 6t-6 14t6 14t14 6h400q8 0 14 -6t6 -14t-6 -14t-14 -6h-400z" />
    <glyph glyph-name="imacron" unicode="&#x12b;" horiz-adv-x="220" 
d="M130 0q0 -8 -6 -14t-14 -6t-14 6t-6 14v800q0 8 6 14t14 6t14 -6t6 -14v-800zM-90 1080q-8 0 -14 6t-6 14t6 14t14 6h400q8 0 14 -6t6 -14t-6 -14t-14 -6h-400z" />
    <glyph glyph-name="Ibreve" unicode="&#x12c;" horiz-adv-x="220" 
d="M130 0q0 -8 -6 -14t-14 -6t-14 6t-6 14v1200q0 8 6 14t14 6t14 -6t6 -14v-1200zM-110 1400v200q0 8 6 14t14 6t14 -6t6 -14v-180h360v180q0 8 6 14t14 6t14 -6t6 -14v-200q0 -8 -6 -14t-14 -6h-400q-8 0 -14 6t-6 14z" />
    <glyph glyph-name="ibreve" unicode="&#x12d;" horiz-adv-x="220" 
d="M130 0q0 -8 -6 -14t-14 -6t-14 6t-6 14v800q0 8 6 14t14 6t14 -6t6 -14v-800zM-110 1000v200q0 8 6 14t14 6t14 -6t6 -14v-180h360v180q0 8 6 14t14 6t14 -6t6 -14v-200q0 -8 -6 -14t-14 -6h-400q-8 0 -14 6t-6 14z" />
    <glyph glyph-name="Iogonek" unicode="&#x12e;" horiz-adv-x="220" 
d="M130 0q0 -8 -6 -14t-14 -6t-14 6t-6 14v1200q0 8 6 14t14 6t14 -6t6 -14v-1200zM-110 -200q0 8 206 214q6 6 14 6t14 -6t6 -14t-6 -14l-186 -186l186 -186q6 -6 6 -14t-6 -14t-14 -6t-14 6l-200 200q-6 6 -6 14z" />
    <glyph glyph-name="iogonek" unicode="&#x12f;" horiz-adv-x="220" 
d="M130 0q0 -8 -6 -14t-14 -6t-14 6t-6 14v800q0 8 6 14t14 6t14 -6t6 -14v-800zM138 1129q12 -11 12 -29t-12 -29t-28 -11t-28 11t-12 29t12 29t28 11t28 -11zM-110 -200q0 8 206 214q6 6 14 6t14 -6t6 -14t-6 -14l-186 -186l186 -186q6 -6 6 -14t-6 -14t-14 -6t-14 6
l-200 200q-6 6 -6 14z" />
    <glyph glyph-name="Idotaccent" unicode="&#x130;" horiz-adv-x="220" 
d="M130 0q0 -8 -6 -14t-14 -6t-14 6t-6 14v1200q0 8 6 14t14 6t14 -6t6 -14v-1200zM138 1529q12 -11 12 -29t-12 -29t-28 -11t-28 11t-12 29t12 29t28 11t28 -11z" />
    <glyph glyph-name="Jcircumflex" unicode="&#x134;" 
d="M296 -14l-200 200q-6 6 -6 14t6 14t14 6t14 -6l194 -194h184l188 188v972h-380q-8 0 -14 6t-6 14t6 14t14 6h400q8 0 14 -6t6 -14v-1000q0 -8 -6 -14l-200 -200q-6 -6 -14 -6h-200q-8 0 -14 6zM410 1572l-186 -186q-6 -6 -14 -6t-14 6t-6 14t6 14l200 200q6 6 14 6t14 -6
l200 -200q6 -6 6 -14t-6 -14t-14 -6t-14 6z" />
    <glyph glyph-name="jcircumflex" unicode="&#x135;" horiz-adv-x="220" 
d="M90 800q0 8 6 14t14 6t14 -6t6 -14v-1000q0 -8 -6 -14l-200 -200q-6 -6 -14 -6t-14 6t-6 14t6 14l194 194v992zM110 1172l-186 -186q-6 -6 -14 -6t-14 6t-6 14t6 14l200 200q6 6 14 6t14 -6l200 -200q6 -6 6 -14t-6 -14t-14 -6t-14 6z" />
    <glyph glyph-name="Kcommaaccent" unicode="&#x136;" horiz-adv-x="920" 
d="M90 1200q0 8 6 14t14 6t14 -6t6 -14v-752l766 766q6 6 14 6t14 -6t6 -14t-6 -14l-586 -586l586 -586q6 -6 6 -14t-6 -14t-14 -6t-14 6l-586 586l-180 -180v-392q0 -8 -6 -14t-14 -6t-14 6t-6 14v1200zM530 -300q0 -8 -6 -14t-14 -6t-14 6t-6 14v200q0 8 6 14t14 6t14 -6
t6 -14v-200z" />
    <glyph glyph-name="kcommaaccent" unicode="&#x137;" horiz-adv-x="770" 
d="M130 192v-192q0 -8 -6 -14t-14 -6t-14 6t-6 14v1200q0 8 6 14t14 6t14 -6t6 -14v-952l566 566q6 6 14 6t14 -6t6 -14t-6 -14l-386 -386l386 -386q6 -6 6 -14t-6 -14t-14 -6t-14 6l-386 386zM430 -300q0 -8 -6 -14t-14 -6t-14 6t-6 14v200q0 8 6 14t14 6t14 -6t6 -14v-200
z" />
    <glyph glyph-name="kgreenlandic" unicode="&#x138;" horiz-adv-x="770" 
d="M130 192v-192q0 -8 -6 -14t-14 -6t-14 6t-6 14v800q0 8 6 14t14 6t14 -6t6 -14v-552l566 566q6 6 14 6t14 -6t6 -14t-6 -14l-386 -386l386 -386q6 -6 6 -14t-6 -14t-14 -6t-14 6l-386 386z" />
    <glyph glyph-name="Lacute" unicode="&#x139;" horiz-adv-x="720" 
d="M710 20q8 0 14 -6t6 -14t-6 -14t-14 -6h-600q-8 0 -14 6t-6 14v1200q0 8 6 14t14 6t14 -6t6 -14v-1180h580zM296 1614q6 6 14 6t14 -6t6 -14t-6 -14l-200 -200q-6 -6 -14 -6t-14 6t-6 14t6 14z" />
    <glyph glyph-name="lacute" unicode="&#x13a;" horiz-adv-x="320" 
d="M130 208l194 -194q6 -6 6 -14t-6 -14t-14 -6t-14 6l-200 200q-6 6 -6 14v1000q0 8 6 14t14 6t14 -6t6 -14v-992zM296 1614q6 6 14 6t14 -6t6 -14t-6 -14l-200 -200q-6 -6 -14 -6t-14 6t-6 14t6 14z" />
    <glyph glyph-name="Lcommaaccent" unicode="&#x13b;" horiz-adv-x="720" 
d="M710 20q8 0 14 -6t6 -14t-6 -14t-14 -6h-600q-8 0 -14 6t-6 14v1200q0 8 6 14t14 6t14 -6t6 -14v-1180h580zM430 -300q0 -8 -6 -14t-14 -6t-14 6t-6 14v200q0 8 6 14t14 6t14 -6t6 -14v-200z" />
    <glyph glyph-name="lcommaaccent" unicode="&#x13c;" horiz-adv-x="320" 
d="M130 208l194 -194q6 -6 6 -14t-6 -14t-14 -6t-14 6l-200 200q-6 6 -6 14v1000q0 8 6 14t14 6t14 -6t6 -14v-992zM230 -300q0 -8 -6 -14t-14 -6t-14 6t-6 14v200q0 8 6 14t14 6t14 -6t6 -14v-200z" />
    <glyph glyph-name="Lcaron" unicode="&#x13d;" horiz-adv-x="720" 
d="M710 20q8 0 14 -6t6 -14t-6 -14t-14 -6h-600q-8 0 -14 6t-6 14v1200q0 8 6 14t14 6t14 -6t6 -14v-1180h580zM330 1000q0 -8 -6 -14t-14 -6t-14 6t-6 14v200q0 8 6 14t14 6t14 -6t6 -14v-200z" />
    <glyph glyph-name="lcaron" unicode="&#x13e;" horiz-adv-x="320" 
d="M130 208l194 -194q6 -6 6 -14t-6 -14t-14 -6t-14 6l-200 200q-6 6 -6 14v1000q0 8 6 14t14 6t14 -6t6 -14v-992zM330 1000q0 -8 -6 -14t-14 -6t-14 6t-6 14v200q0 8 6 14t14 6t14 -6t6 -14v-200z" />
    <glyph glyph-name="Ldot" unicode="&#x13f;" horiz-adv-x="720" 
d="M710 20q8 0 14 -6t6 -14t-6 -14t-14 -6h-600q-8 0 -14 6t-6 14v1200q0 8 6 14t14 6t14 -6t6 -14v-1180h580zM338 629q12 -11 12 -29t-12 -29t-28 -11t-28 11t-12 29t12 29t28 11t28 -11z" />
    <glyph glyph-name="ldot" unicode="&#x140;" horiz-adv-x="360" 
d="M130 208l194 -194q6 -6 6 -14t-6 -14t-14 -6t-14 6l-200 200q-6 6 -6 14v1000q0 8 6 14t14 6t14 -6t6 -14v-992zM338 629q12 -11 12 -29t-12 -29t-28 -11t-28 11t-12 29t12 29t28 11t28 -11z" />
    <glyph glyph-name="Lslash" unicode="&#x141;" horiz-adv-x="720" 
d="M130 492v-472h580q8 0 14 -6t6 -14t-6 -14t-14 -6h-600q-8 0 -14 6t-6 14v452l-66 -66q-6 -6 -14 -6t-14 6t-6 14t6 14l94 94v692q0 8 6 14t14 6t14 -6t6 -14v-652l266 266q6 6 14 6t14 -6t6 -14t-6 -14z" />
    <glyph glyph-name="lslash" unicode="&#x142;" horiz-adv-x="320" 
d="M130 592v-384l194 -194q6 -6 6 -14t-6 -14t-14 -6t-14 6l-200 200q-6 6 -6 14v352l-66 -66q-6 -6 -14 -6t-14 6t-6 14t6 14l94 94v592q0 8 6 14t14 6t14 -6t6 -14v-552l66 66q6 6 14 6t14 -6t6 -14t-6 -14z" />
    <glyph glyph-name="Nacute" unicode="&#x143;" horiz-adv-x="1020" 
d="M130 1152v-1152q0 -8 -6 -14t-14 -6t-14 6t-6 14v1200q0 8 6 14t14 6t14 -6l766 -766v752q0 8 6 14t14 6t14 -6t6 -14v-1200q0 -8 -6 -14t-14 -6t-14 6t-6 14v392zM633 1614q6 6 14 6t14 -6t6 -14t-6 -14l-200 -200q-6 -6 -14 -6t-14 6t-6 14t6 14z" />
    <glyph glyph-name="nacute" unicode="&#x144;" 
d="M130 592v-592q0 -8 -6 -14t-14 -6t-14 6t-6 14v800q0 8 6 14t14 6t14 -6t6 -14v-152l166 166q6 6 14 6h200q8 0 14 -6l200 -200q6 -6 6 -14v-600q0 -8 -6 -14t-14 -6t-14 6t-6 14v592l-188 188h-184zM533 1214q6 6 14 6t14 -6t6 -14t-6 -14l-200 -200q-6 -6 -14 -6t-14 6
t-6 14t6 14z" />
    <glyph glyph-name="Ncommaaccent" unicode="&#x145;" horiz-adv-x="1020" 
d="M130 1152v-1152q0 -8 -6 -14t-14 -6t-14 6t-6 14v1200q0 8 6 14t14 6t14 -6l766 -766v752q0 8 6 14t14 6t14 -6t6 -14v-1200q0 -8 -6 -14t-14 -6t-14 6t-6 14v392zM530 -300q0 -8 -6 -14t-14 -6t-14 6t-6 14v200q0 8 6 14t14 6t14 -6t6 -14v-200z" />
    <glyph glyph-name="ncommaaccent" unicode="&#x146;" 
d="M130 592v-592q0 -8 -6 -14t-14 -6t-14 6t-6 14v800q0 8 6 14t14 6t14 -6t6 -14v-152l166 166q6 6 14 6h200q8 0 14 -6l200 -200q6 -6 6 -14v-600q0 -8 -6 -14t-14 -6t-14 6t-6 14v592l-188 188h-184zM430 -300q0 -8 -6 -14t-14 -6t-14 6t-6 14v200q0 8 6 14t14 6t14 -6
t6 -14v-200z" />
    <glyph glyph-name="Ncaron" unicode="&#x147;" horiz-adv-x="1020" 
d="M130 1152v-1152q0 -8 -6 -14t-14 -6t-14 6t-6 14v1200q0 8 6 14t14 6t14 -6l766 -766v752q0 8 6 14t14 6t14 -6t6 -14v-1200q0 -8 -6 -14t-14 -6t-14 6t-6 14v392zM496 1386l-200 200q-6 6 -6 14t6 14t14 6t14 -6l186 -186l186 186q6 6 14 6t14 -6t6 -14t-6 -14
l-200 -200q-6 -6 -14 -6t-14 6z" />
    <glyph glyph-name="ncaron" unicode="&#x148;" 
d="M130 592v-592q0 -8 -6 -14t-14 -6t-14 6t-6 14v800q0 8 6 14t14 6t14 -6t6 -14v-152l166 166q6 6 14 6h200q8 0 14 -6l200 -200q6 -6 6 -14v-600q0 -8 -6 -14t-14 -6t-14 6t-6 14v592l-188 188h-184zM396 986l-200 200q-6 6 -6 14t6 14t14 6t14 -6l186 -186l186 186
q6 6 14 6t14 -6t6 -14t-6 -14l-200 -200q-6 -6 -14 -6t-14 6z" />
    <glyph glyph-name="napostrophe" unicode="&#x149;" horiz-adv-x="25" 
 />
    <glyph glyph-name="Eng" unicode="&#x14a;" horiz-adv-x="1020" 
d="M130 1152v-1152q0 -8 -6 -14t-14 -6t-14 6t-6 14v1200q0 8 6 14t14 6t14 -6l766 -766v752q0 8 6 14t14 6t14 -6t6 -14v-1200q0 -8 -6 -14t-14 -6t-14 6t-6 14v392zM930 -100q0 -8 -6 -14t-14 -6t-14 6t-6 14v200q0 8 6 14t14 6t14 -6t6 -14v-200z" />
    <glyph glyph-name="eng" unicode="&#x14b;" 
d="M130 592v-592q0 -8 -6 -14t-14 -6t-14 6t-6 14v800q0 8 6 14t14 6t14 -6t6 -14v-152l166 166q6 6 14 6h200q8 0 14 -6l200 -200q6 -6 6 -14v-600q0 -8 -6 -14t-14 -6t-14 6t-6 14v592l-188 188h-184zM730 -100q0 -8 -6 -14t-14 -6t-14 6t-6 14v200q0 8 6 14t14 6t14 -6
t6 -14v-200z" />
    <glyph glyph-name="Omacron" unicode="&#x14c;" horiz-adv-x="1020" 
d="M296 -14l-200 200q-6 6 -6 14v800q0 8 6 14l200 200q6 6 14 6h400q8 0 14 -6l200 -200q6 -6 6 -14v-800q0 -8 -6 -14l-200 -200q-6 -6 -14 -6h-400q-8 0 -14 6zM130 208l188 -188h384l188 188v784l-188 188h-384l-188 -188v-784zM320 1480q-8 0 -14 6t-6 14t6 14t14 6
h400q8 0 14 -6t6 -14t-6 -14t-14 -6h-400z" />
    <glyph glyph-name="omacron" unicode="&#x14d;" 
d="M510 -20h-200q-8 0 -14 6l-200 200q-6 6 -6 14v400q0 8 6 14l200 200q6 6 14 6h200q8 0 14 -6l200 -200q6 -6 6 -14v-400q0 -8 -6 -14l-200 -200q-6 -6 -14 -6zM318 20h184l188 188v384l-188 188h-184l-188 -188v-384zM210 1080q-8 0 -14 6t-6 14t6 14t14 6h400
q8 0 14 -6t6 -14t-6 -14t-14 -6h-400z" />
    <glyph glyph-name="Obreve" unicode="&#x14e;" horiz-adv-x="1020" 
d="M296 -14l-200 200q-6 6 -6 14v800q0 8 6 14l200 200q6 6 14 6h400q8 0 14 -6l200 -200q6 -6 6 -14v-800q0 -8 -6 -14l-200 -200q-6 -6 -14 -6h-400q-8 0 -14 6zM130 208l188 -188h384l188 188v784l-188 188h-384l-188 -188v-784zM300 1400v200q0 8 6 14t14 6t14 -6t6 -14
v-180h360v180q0 8 6 14t14 6t14 -6t6 -14v-200q0 -8 -6 -14t-14 -6h-400q-8 0 -14 6t-6 14z" />
    <glyph glyph-name="obreve" unicode="&#x14f;" 
d="M510 -20h-200q-8 0 -14 6l-200 200q-6 6 -6 14v400q0 8 6 14l200 200q6 6 14 6h200q8 0 14 -6l200 -200q6 -6 6 -14v-400q0 -8 -6 -14l-200 -200q-6 -6 -14 -6zM318 20h184l188 188v384l-188 188h-184l-188 -188v-384zM190 1000v200q0 8 6 14t14 6t14 -6t6 -14v-180h360
v180q0 8 6 14t14 6t14 -6t6 -14v-200q0 -8 -6 -14t-14 -6h-400q-8 0 -14 6t-6 14z" />
    <glyph glyph-name="Ohungarumlaut" unicode="&#x150;" horiz-adv-x="1020" 
d="M296 -14l-200 200q-6 6 -6 14v800q0 8 6 14l200 200q6 6 14 6h400q8 0 14 -6l200 -200q6 -6 6 -14v-800q0 -8 -6 -14l-200 -200q-6 -6 -14 -6h-400q-8 0 -14 6zM130 208l188 -188h384l188 188v784l-188 188h-384l-188 -188v-784zM556 1614q6 6 14 6t14 -6t6 -14t-6 -14
l-200 -200q-6 -6 -14 -6t-14 6t-6 14t6 14zM756 1614q6 6 14 6t14 -6t6 -14t-6 -14l-200 -200q-6 -6 -14 -6t-14 6t-6 14t6 14z" />
    <glyph glyph-name="ohungarumlaut" unicode="&#x151;" 
d="M510 -20h-200q-8 0 -14 6l-200 200q-6 6 -6 14v400q0 8 6 14l200 200q6 6 14 6h200q8 0 14 -6l200 -200q6 -6 6 -14v-400q0 -8 -6 -14l-200 -200q-6 -6 -14 -6zM318 20h184l188 188v384l-188 188h-184l-188 -188v-384zM446 1214q6 6 14 6t14 -6t6 -14t-6 -14l-200 -200
q-6 -6 -14 -6t-14 6t-6 14t6 14zM646 1214q6 6 14 6t14 -6t6 -14t-6 -14l-200 -200q-6 -6 -14 -6t-14 6t-6 14t6 14z" />
    <glyph glyph-name="OE" unicode="&#x152;" horiz-adv-x="1520" 
d="M296 -14l-200 200q-6 6 -6 14v800q0 8 6 14l200 200q6 6 14 6h400q8 0 14 -6l200 -200q6 -6 6 -14v-800q0 -8 -6 -14l-200 -200q-6 -6 -14 -6h-400q-8 0 -14 6zM130 208l188 -188h384l188 188v784l-188 188h-384l-188 -188v-784zM1510 20q8 0 14 -6t6 -14t-6 -14t-14 -6
h-600q-8 0 -14 6t-6 14v1200q0 8 6 14t14 6h600q8 0 14 -6t6 -14t-6 -14t-14 -6h-580v-560h380q8 0 14 -6t6 -14t-6 -14t-14 -6h-380v-560h580z" />
    <glyph glyph-name="oe" unicode="&#x153;" horiz-adv-x="1420" 
d="M510 -20h-200q-8 0 -14 6l-200 200q-6 6 -6 14v400q0 8 6 14l200 200q6 6 14 6h200q8 0 14 -6l200 -200q6 -6 6 -14v-400q0 -8 -6 -14l-200 -200q-6 -6 -14 -6zM318 20h184l188 188v384l-188 188h-184l-188 -188v-384zM1330 600v-200q0 -8 -6 -14t-14 -6h-580v-172
l188 -188h184l194 194q6 6 14 6t14 -6t6 -14t-6 -14l-200 -200q-6 -6 -14 -6h-200q-8 0 -14 6l-200 200q-6 6 -6 14v400q0 8 6 14l200 200q6 6 14 6h200q8 0 14 -6l200 -200q6 -6 6 -14zM1290 420v172l-188 188h-184l-188 -188v-172h560z" />
    <glyph glyph-name="Racute" unicode="&#x154;" horiz-adv-x="1020" 
d="M724 1214l200 -200q6 -6 6 -14v-400q0 -8 -6 -14l-186 -186l186 -186q6 -6 6 -14v-200q0 -8 -6 -14t-14 -6t-14 6t-6 14v192l-188 188h-572v-380q0 -8 -6 -14t-14 -6t-14 6t-6 14v1200q0 8 6 14t14 6h600q8 0 14 -6zM890 992l-188 188h-572v-760h572l188 188v384z
M633 1614q6 6 14 6t14 -6t6 -14t-6 -14l-200 -200q-6 -6 -14 -6t-14 6t-6 14t6 14z" />
    <glyph glyph-name="racute" unicode="&#x155;" horiz-adv-x="520" 
d="M130 592v-592q0 -8 -6 -14t-14 -6t-14 6t-6 14v800q0 8 6 14t14 6t14 -6t6 -14v-152l166 166q6 6 14 6h200q8 0 14 -6t6 -14t-6 -14t-14 -6h-192zM433 1214q6 6 14 6t14 -6t6 -14t-6 -14l-200 -200q-6 -6 -14 -6t-14 6t-6 14t6 14z" />
    <glyph glyph-name="Rcommaaccent" unicode="&#x156;" horiz-adv-x="1020" 
d="M724 1214l200 -200q6 -6 6 -14v-400q0 -8 -6 -14l-186 -186l186 -186q6 -6 6 -14v-200q0 -8 -6 -14t-14 -6t-14 6t-6 14v192l-188 188h-572v-380q0 -8 -6 -14t-14 -6t-14 6t-6 14v1200q0 8 6 14t14 6h600q8 0 14 -6zM890 992l-188 188h-572v-760h572l188 188v384z
M530 -300q0 -8 -6 -14t-14 -6t-14 6t-6 14v200q0 8 6 14t14 6t14 -6t6 -14v-200z" />
    <glyph glyph-name="rcommaaccent" unicode="&#x157;" horiz-adv-x="520" 
d="M130 592v-592q0 -8 -6 -14t-14 -6t-14 6t-6 14v800q0 8 6 14t14 6t14 -6t6 -14v-152l166 166q6 6 14 6h200q8 0 14 -6t6 -14t-6 -14t-14 -6h-192zM130 -300q0 -8 -6 -14t-14 -6t-14 6t-6 14v200q0 8 6 14t14 6t14 -6t6 -14v-200z" />
    <glyph glyph-name="Tcommaaccent" unicode="&#x162;" horiz-adv-x="620" 
d="M330 0q0 -8 -6 -14t-14 -6t-14 6t-6 14v1180h-280q-8 0 -14 6t-6 14t6 14t14 6h600q8 0 14 -6t6 -14t-6 -14t-14 -6h-280v-1180zM524 -214l-200 -200q-6 -6 -14 -6t-14 6t-6 14t6 14l186 186l-186 186q-6 6 -6 14t6 14t14 6t14 -6q206 -206 206 -214t-6 -14z" />
    <glyph glyph-name="tcommaaccent" unicode="&#x163;" horiz-adv-x="470" 
d="M230 208l194 -194q6 -6 6 -14t-6 -14t-14 -6t-14 6l-200 200q-6 6 -6 14v580h-180q-8 0 -14 6t-6 14t6 14t14 6h180v380q0 8 6 14t14 6t14 -6t6 -14v-380h180q8 0 14 -6t6 -14t-6 -14t-14 -6h-180v-572zM424 -214l-200 -200q-6 -6 -14 -6t-14 6t-6 14t6 14l186 186
l-186 186q-6 6 -6 14t6 14t14 6t14 -6q206 -206 206 -214t-6 -14z" />
    <glyph glyph-name="Tcaron" unicode="&#x164;" horiz-adv-x="620" 
d="M330 0q0 -8 -6 -14t-14 -6t-14 6t-6 14v1180h-280q-8 0 -14 6t-6 14t6 14t14 6h600q8 0 14 -6t6 -14t-6 -14t-14 -6h-280v-1180zM296 1386l-200 200q-6 6 -6 14t6 14t14 6t14 -6l186 -186l186 186q6 6 14 6t14 -6t6 -14t-6 -14l-200 -200q-6 -6 -14 -6t-14 6z" />
    <glyph glyph-name="tcaron" unicode="&#x165;" horiz-adv-x="470" 
d="M230 208l194 -194q6 -6 6 -14t-6 -14t-14 -6t-14 6l-200 200q-6 6 -6 14v580h-180q-8 0 -14 6t-6 14t6 14t14 6h180v380q0 8 6 14t14 6t14 -6t6 -14v-380h180q8 0 14 -6t6 -14t-6 -14t-14 -6h-180v-572zM430 1000q0 -8 -6 -14t-14 -6t-14 6t-6 14v200q0 8 6 14t14 6
t14 -6t6 -14v-200z" />
    <glyph glyph-name="Tbar" unicode="&#x166;" horiz-adv-x="620" 
d="M330 0q0 -8 -6 -14t-14 -6t-14 6t-6 14v1180h-280q-8 0 -14 6t-6 14t6 14t14 6h600q8 0 14 -6t6 -14t-6 -14t-14 -6h-280v-1180zM10 580q-8 0 -14 6t-6 14t6 14t14 6h600q8 0 14 -6t6 -14t-6 -14t-14 -6h-600z" />
    <glyph glyph-name="tbar" unicode="&#x167;" horiz-adv-x="470" 
d="M230 208l194 -194q6 -6 6 -14t-6 -14t-14 -6t-14 6l-200 200q-6 6 -6 14v280h-180q-8 0 -14 6t-6 14t6 14t14 6h180v260h-180q-8 0 -14 6t-6 14t6 14t14 6h180v380q0 8 6 14t14 6t14 -6t6 -14v-380h180q8 0 14 -6t6 -14t-6 -14t-14 -6h-180v-260h180q8 0 14 -6t6 -14
t-6 -14t-14 -6h-180v-272z" />
    <glyph glyph-name="Utilde" unicode="&#x168;" horiz-adv-x="1020" 
d="M890 208v992q0 8 6 14t14 6t14 -6t6 -14v-1000q0 -8 -6 -14l-200 -200q-6 -6 -14 -6h-400q-8 0 -14 6l-200 200q-6 6 -6 14v1000q0 8 6 14t14 6t14 -6t6 -14v-992l188 -188h384zM610 1428l186 186q6 6 14 6t14 -6t6 -14t-6 -14l-200 -200q-6 -6 -14 -6t-14 6l-186 186
l-186 -186q-6 -6 -14 -6t-14 6t-6 14t6 14l200 200q6 6 14 6t14 -6z" />
    <glyph glyph-name="utilde" unicode="&#x169;" 
d="M90 200v600q0 8 6 14t14 6t14 -6t6 -14v-592l188 -188h184l188 188v592q0 8 6 14t14 6t14 -6t6 -14v-800q0 -8 -6 -14t-14 -6t-14 6t-6 14v152l-166 -166q-6 -6 -14 -6h-200q-8 0 -14 6l-200 200q-6 6 -6 14zM510 1028l186 186q6 6 14 6t14 -6t6 -14t-6 -14l-200 -200
q-6 -6 -14 -6t-14 6l-186 186l-186 -186q-6 -6 -14 -6t-14 6t-6 14t6 14l200 200q6 6 14 6t14 -6z" />
    <glyph glyph-name="Umacron" unicode="&#x16a;" horiz-adv-x="1020" 
d="M890 208v992q0 8 6 14t14 6t14 -6t6 -14v-1000q0 -8 -6 -14l-200 -200q-6 -6 -14 -6h-400q-8 0 -14 6l-200 200q-6 6 -6 14v1000q0 8 6 14t14 6t14 -6t6 -14v-992l188 -188h384zM310 1480q-8 0 -14 6t-6 14t6 14t14 6h400q8 0 14 -6t6 -14t-6 -14t-14 -6h-400z" />
    <glyph glyph-name="umacron" unicode="&#x16b;" 
d="M90 200v600q0 8 6 14t14 6t14 -6t6 -14v-592l188 -188h184l188 188v592q0 8 6 14t14 6t14 -6t6 -14v-800q0 -8 -6 -14t-14 -6t-14 6t-6 14v152l-166 -166q-6 -6 -14 -6h-200q-8 0 -14 6l-200 200q-6 6 -6 14zM210 1080q-8 0 -14 6t-6 14t6 14t14 6h400q8 0 14 -6t6 -14
t-6 -14t-14 -6h-400z" />
    <glyph glyph-name="Ubreve" unicode="&#x16c;" horiz-adv-x="1020" 
d="M890 208v992q0 8 6 14t14 6t14 -6t6 -14v-1000q0 -8 -6 -14l-200 -200q-6 -6 -14 -6h-400q-8 0 -14 6l-200 200q-6 6 -6 14v1000q0 8 6 14t14 6t14 -6t6 -14v-992l188 -188h384zM290 1400v200q0 8 6 14t14 6t14 -6t6 -14v-180h360v180q0 8 6 14t14 6t14 -6t6 -14v-200
q0 -8 -6 -14t-14 -6h-400q-8 0 -14 6t-6 14z" />
    <glyph glyph-name="ubreve" unicode="&#x16d;" 
d="M90 200v600q0 8 6 14t14 6t14 -6t6 -14v-592l188 -188h184l188 188v592q0 8 6 14t14 6t14 -6t6 -14v-800q0 -8 -6 -14t-14 -6t-14 6t-6 14v152l-166 -166q-6 -6 -14 -6h-200q-8 0 -14 6l-200 200q-6 6 -6 14zM190 1000v200q0 8 6 14t14 6t14 -6t6 -14v-180h360v180
q0 8 6 14t14 6t14 -6t6 -14v-200q0 -8 -6 -14t-14 -6h-400q-8 0 -14 6t-6 14z" />
    <glyph glyph-name="Uring" unicode="&#x16e;" horiz-adv-x="1020" 
d="M890 208v992q0 8 6 14t14 6t14 -6t6 -14v-1000q0 -8 -6 -14l-200 -200q-6 -6 -14 -6h-400q-8 0 -14 6l-200 200q-6 6 -6 14v1000q0 8 6 14t14 6t14 -6t6 -14v-992l188 -188h384zM410 1620h200q8 0 14 -6t6 -14v-200q0 -8 -6 -14t-14 -6h-200q-8 0 -14 6t-6 14v200
q0 8 6 14t14 6zM590 1580h-160v-160h160v160z" />
    <glyph glyph-name="uring" unicode="&#x16f;" 
d="M90 200v600q0 8 6 14t14 6t14 -6t6 -14v-592l188 -188h184l188 188v592q0 8 6 14t14 6t14 -6t6 -14v-800q0 -8 -6 -14t-14 -6t-14 6t-6 14v152l-166 -166q-6 -6 -14 -6h-200q-8 0 -14 6l-200 200q-6 6 -6 14zM310 1220h200q8 0 14 -6t6 -14v-200q0 -8 -6 -14t-14 -6h-200
q-8 0 -14 6t-6 14v200q0 8 6 14t14 6zM490 1180h-160v-160h160v160z" />
    <glyph glyph-name="Uhungarumlaut" unicode="&#x170;" horiz-adv-x="1020" 
d="M890 208v992q0 8 6 14t14 6t14 -6t6 -14v-1000q0 -8 -6 -14l-200 -200q-6 -6 -14 -6h-400q-8 0 -14 6l-200 200q-6 6 -6 14v1000q0 8 6 14t14 6t14 -6t6 -14v-992l188 -188h384zM546 1614q6 6 14 6t14 -6t6 -14t-6 -14l-200 -200q-6 -6 -14 -6t-14 6t-6 14t6 14z
M746 1614q6 6 14 6t14 -6t6 -14t-6 -14l-200 -200q-6 -6 -14 -6t-14 6t-6 14t6 14z" />
    <glyph glyph-name="uhungarumlaut" unicode="&#x171;" 
d="M90 200v600q0 8 6 14t14 6t14 -6t6 -14v-592l188 -188h184l188 188v592q0 8 6 14t14 6t14 -6t6 -14v-800q0 -8 -6 -14t-14 -6t-14 6t-6 14v152l-166 -166q-6 -6 -14 -6h-200q-8 0 -14 6l-200 200q-6 6 -6 14zM446 1214q6 6 14 6t14 -6t6 -14t-6 -14l-200 -200
q-6 -6 -14 -6t-14 6t-6 14t6 14zM646 1214q6 6 14 6t14 -6t6 -14t-6 -14l-200 -200q-6 -6 -14 -6t-14 6t-6 14t6 14z" />
    <glyph glyph-name="Uogonek" unicode="&#x172;" horiz-adv-x="1020" 
d="M890 208v992q0 8 6 14t14 6t14 -6t6 -14v-1000q0 -8 -6 -14l-200 -200q-6 -6 -14 -6h-400q-8 0 -14 6l-200 200q-6 6 -6 14v1000q0 8 6 14t14 6t14 -6t6 -14v-992l188 -188h384zM390 -200q0 8 206 214q6 6 14 6t14 -6t6 -14t-6 -14l-186 -186l186 -186q6 -6 6 -14t-6 -14
t-14 -6t-14 6l-200 200q-6 6 -6 14z" />
    <glyph glyph-name="uogonek" unicode="&#x173;" 
d="M90 200v600q0 8 6 14t14 6t14 -6t6 -14v-592l188 -188h184l188 188v592q0 8 6 14t14 6t14 -6t6 -14v-800q0 -8 -6 -14t-14 -6t-14 6t-6 14v152l-166 -166q-6 -6 -14 -6h-200q-8 0 -14 6l-200 200q-6 6 -6 14zM490 -200q0 8 206 214q6 6 14 6t14 -6t6 -14t-6 -14
l-186 -186l186 -186q6 -6 6 -14t-6 -14t-14 -6t-14 6l-200 200q-6 6 -6 14z" />
    <glyph glyph-name="Wcircumflex" unicode="&#x174;" horiz-adv-x="1820" 
d="M910 372l-386 -386q-6 -6 -14 -6t-14 6l-400 400q-6 6 -6 14v800q0 8 6 14t14 6t14 -6t6 -14v-792l380 -380l380 380v792q0 8 6 14t14 6t14 -6t6 -14v-792l380 -380l380 380v792q0 8 6 14t14 6t14 -6t6 -14v-800q0 -8 -6 -14l-400 -400q-6 -6 -14 -6t-14 6zM910 1572
l-186 -186q-6 -6 -14 -6t-14 6t-6 14t6 14l200 200q6 6 14 6t14 -6l200 -200q6 -6 6 -14t-6 -14t-14 -6t-14 6z" />
    <glyph glyph-name="wcircumflex" unicode="&#x175;" horiz-adv-x="1420" 
d="M710 272l-286 -286q-6 -6 -14 -6t-14 6l-300 300q-6 6 -6 14v500q0 8 6 14t14 6t14 -6t6 -14v-492l280 -280l280 280v492q0 8 6 14t14 6t14 -6t6 -14v-492l280 -280l280 280v492q0 8 6 14t14 6t14 -6t6 -14v-500q0 -8 -6 -14l-300 -300q-6 -6 -14 -6t-14 6zM710 1172
l-186 -186q-6 -6 -14 -6t-14 6t-6 14t6 14l200 200q6 6 14 6t14 -6l200 -200q6 -6 6 -14t-6 -14t-14 -6t-14 6z" />
    <glyph glyph-name="Ycircumflex" unicode="&#x176;" horiz-adv-x="1020" 
d="M890 808v392q0 8 6 14t14 6t14 -6t6 -14v-400q0 -8 -6 -14l-394 -394v-392q0 -8 -6 -14t-14 -6t-14 6t-6 14v392l-394 394q-6 6 -6 14v400q0 8 6 14t14 6t14 -6t6 -14v-392l380 -380zM510 1572l-186 -186q-6 -6 -14 -6t-14 6t-6 14t6 14l200 200q6 6 14 6t14 -6l200 -200
q6 -6 6 -14t-6 -14t-14 -6t-14 6z" />
    <glyph glyph-name="ycircumflex" unicode="&#x177;" 
d="M724 -214l-200 -200q-6 -6 -14 -6h-200q-8 0 -14 6l-200 200q-6 6 -6 14t6 14t14 6t14 -6l194 -194h184l188 188v344l-166 -166q-6 -6 -14 -6h-200q-8 0 -14 6l-200 200q-6 6 -6 14v600q0 8 6 14t14 6t14 -6t6 -14v-592l188 -188h184l188 188v592q0 8 6 14t14 6t14 -6
t6 -14v-1000q0 -8 -6 -14zM410 1172l-186 -186q-6 -6 -14 -6t-14 6t-6 14t6 14l200 200q6 6 14 6t14 -6l200 -200q6 -6 6 -14t-6 -14t-14 -6t-14 6z" />
    <glyph glyph-name="Ydieresis" unicode="&#x178;" horiz-adv-x="1020" 
d="M890 808v392q0 8 6 14t14 6t14 -6t6 -14v-400q0 -8 -6 -14l-394 -394v-392q0 -8 -6 -14t-14 -6t-14 6t-6 14v392l-394 394q-6 6 -6 14v400q0 8 6 14t14 6t14 -6t6 -14v-392l380 -380zM450 1500q0 -18 -12 -29t-28 -11t-28 11t-12 29t12 29t28 11t28 -11t12 -29zM650 1500
q0 -18 -12 -29t-28 -11t-28 11t-12 29t12 29t28 11t28 -11t12 -29z" />
    <glyph glyph-name="Zacute" unicode="&#x179;" horiz-adv-x="1020" 
d="M924 986l-794 -794v-172h780q8 0 14 -6t6 -14t-6 -14t-14 -6h-800q-8 0 -14 6t-6 14v200q0 8 6 14l794 794v172h-780q-8 0 -14 6t-6 14t6 14t14 6h800q8 0 14 -6t6 -14v-200q0 -8 -6 -14zM633 1614q6 6 14 6t14 -6t6 -14t-6 -14l-200 -200q-6 -6 -14 -6t-14 6t-6 14t6 14
z" />
    <glyph glyph-name="zacute" unicode="&#x17a;" horiz-adv-x="720" 
d="M130 20h580q8 0 14 -6t6 -14t-6 -14t-14 -6h-600q-8 0 -14 6t-6 14v200q0 8 6 14l566 566h-552q-8 0 -14 6t-6 14t6 14t14 6h600q8 0 14 -6t6 -14t-6 -14l-594 -594v-172zM533 1214q6 6 14 6t14 -6t6 -14t-6 -14l-200 -200q-6 -6 -14 -6t-14 6t-6 14t6 14z" />
    <glyph glyph-name="Zdotaccent" unicode="&#x17b;" horiz-adv-x="1020" 
d="M924 986l-794 -794v-172h780q8 0 14 -6t6 -14t-6 -14t-14 -6h-800q-8 0 -14 6t-6 14v200q0 8 6 14l794 794v172h-780q-8 0 -14 6t-6 14t6 14t14 6h800q8 0 14 -6t6 -14v-200q0 -8 -6 -14zM538 1529q12 -11 12 -29t-12 -29t-28 -11t-28 11t-12 29t12 29t28 11t28 -11z" />
    <glyph glyph-name="zdotaccent" unicode="&#x17c;" horiz-adv-x="720" 
d="M130 20h580q8 0 14 -6t6 -14t-6 -14t-14 -6h-600q-8 0 -14 6t-6 14v200q0 8 6 14l566 566h-552q-8 0 -14 6t-6 14t6 14t14 6h600q8 0 14 -6t6 -14t-6 -14l-594 -594v-172zM438 1129q12 -11 12 -29t-12 -29t-28 -11t-28 11t-12 29t12 29t28 11t28 -11z" />
    <glyph glyph-name="Zcaron" unicode="&#x17d;" horiz-adv-x="1020" 
d="M924 986l-794 -794v-172h780q8 0 14 -6t6 -14t-6 -14t-14 -6h-800q-8 0 -14 6t-6 14v200q0 8 6 14l794 794v172h-780q-8 0 -14 6t-6 14t6 14t14 6h800q8 0 14 -6t6 -14v-200q0 -8 -6 -14zM496 1386l-200 200q-6 6 -6 14t6 14t14 6t14 -6l186 -186l186 186q6 6 14 6t14 -6
t6 -14t-6 -14l-200 -200q-6 -6 -14 -6t-14 6z" />
    <glyph glyph-name="zcaron" unicode="&#x17e;" horiz-adv-x="720" 
d="M130 20h580q8 0 14 -6t6 -14t-6 -14t-14 -6h-600q-8 0 -14 6t-6 14v200q0 8 6 14l566 566h-552q-8 0 -14 6t-6 14t6 14t14 6h600q8 0 14 -6t6 -14t-6 -14l-594 -594v-172zM396 986l-200 200q-6 6 -6 14t6 14t14 6t14 -6l186 -186l186 186q6 6 14 6t14 -6t6 -14t-6 -14
l-200 -200q-6 -6 -14 -6t-14 6z" />
    <glyph glyph-name="Oogonek" unicode="&#x1ea;" horiz-adv-x="1020" 
d="M296 -14l-200 200q-6 6 -6 14v800q0 8 6 14l200 200q6 6 14 6h400q8 0 14 -6l200 -200q6 -6 6 -14v-800q0 -8 -6 -14l-200 -200q-6 -6 -14 -6h-400q-8 0 -14 6zM130 208l188 -188h384l188 188v784l-188 188h-384l-188 -188v-784zM400 -200q0 8 206 214q6 6 14 6t14 -6
t6 -14t-6 -14l-186 -186l186 -186q6 -6 6 -14t-6 -14t-14 -6t-14 6l-200 200q-6 6 -6 14z" />
    <glyph glyph-name="oogonek" unicode="&#x1eb;" 
d="M510 -20h-200q-8 0 -14 6l-200 200q-6 6 -6 14v400q0 8 6 14l200 200q6 6 14 6h200q8 0 14 -6l200 -200q6 -6 6 -14v-400q0 -8 -6 -14l-200 -200q-6 -6 -14 -6zM318 20h184l188 188v384l-188 188h-184l-188 -188v-384zM290 -200q0 8 206 214q6 6 14 6t14 -6t6 -14t-6 -14
l-186 -186l186 -186q6 -6 6 -14t-6 -14t-14 -6t-14 6l-200 200q-6 6 -6 14z" />
    <glyph glyph-name="hek" unicode="&#x315;" horiz-adv-x="220" 
d="M130 1000q0 -8 -6 -14t-14 -6t-14 6t-6 14v200q0 8 6 14t14 6t14 -6t6 -14v-200z" />
    <glyph glyph-name="uni0326" unicode="&#x326;" horiz-adv-x="220" 
d="M130 -300q0 -8 -6 -14t-14 -6t-14 6t-6 14v200q0 8 6 14t14 6t14 -6t6 -14v-200z" />
    <glyph glyph-name="longs" unicode="&#x17f;" horiz-adv-x="220" 
d="M130 0q0 -8 -6 -14t-14 -6t-14 6t-6 14v1000q0 8 6 14l200 200q6 6 14 6t14 -6t6 -14t-6 -14l-194 -194v-992z" />
    <glyph glyph-name="uni01CD" unicode="&#x1cd;" horiz-adv-x="1020" 
d="M510 1172l-380 -380v-372h760v372zM96 814l400 400q6 6 14 6t414 -406q6 -6 6 -14v-800q0 -8 -6 -14t-14 -6t-14 6t-6 14v380h-760v-380q0 -8 -6 -14t-14 -6t-14 6t-6 14v800q0 8 6 14zM496 1386l-200 200q-6 6 -6 14t6 14t14 6t14 -6l186 -186l186 186q6 6 14 6t14 -6
t6 -14t-6 -14l-200 -200q-6 -6 -14 -6t-14 6z" />
    <glyph glyph-name="uni01CE" unicode="&#x1ce;" 
d="M690 208v384l-188 188h-184l-188 -188v-384l188 -188h184zM730 0q0 -8 -6 -14t-14 -6t-14 6t-6 14v152l-166 -166q-6 -6 -14 -6h-200q-8 0 -14 6l-200 200q-6 6 -6 14v400q0 8 6 14l200 200q6 6 14 6h200q8 0 14 -6l200 -200q6 -6 6 -14v-600zM396 986l-200 200
q-6 6 -6 14t6 14t14 6t14 -6l186 -186l186 186q6 6 14 6t14 -6t6 -14t-6 -14l-200 -200q-6 -6 -14 -6t-14 6z" />
    <glyph glyph-name="uni01CF" unicode="&#x1cf;" horiz-adv-x="220" 
d="M130 0q0 -8 -6 -14t-14 -6t-14 6t-6 14v1200q0 8 6 14t14 6t14 -6t6 -14v-1200zM96 1386l-200 200q-6 6 -6 14t6 14t14 6t14 -6l186 -186l186 186q6 6 14 6t14 -6t6 -14t-6 -14l-200 -200q-6 -6 -14 -6t-14 6z" />
    <glyph glyph-name="uni01D0" unicode="&#x1d0;" horiz-adv-x="220" 
d="M130 0q0 -8 -6 -14t-14 -6t-14 6t-6 14v800q0 8 6 14t14 6t14 -6t6 -14v-800zM96 986l-200 200q-6 6 -6 14t6 14t14 6t14 -6l186 -186l186 186q6 6 14 6t14 -6t6 -14t-6 -14l-200 -200q-6 -6 -14 -6t-14 6z" />
    <glyph glyph-name="uni01D1" unicode="&#x1d1;" horiz-adv-x="1020" 
d="M306 -14l-200 200q-6 6 -6 14v800q0 8 6 14l200 200q6 6 14 6h400q8 0 14 -6l200 -200q6 -6 6 -14v-800q0 -8 -6 -14l-200 -200q-6 -6 -14 -6h-400q-8 0 -14 6zM140 208l188 -188h384l188 188v784l-188 188h-384l-188 -188v-784zM516 1386l-200 200q-6 6 -6 14t6 14t14 6
t14 -6l186 -186l186 186q6 6 14 6t14 -6t6 -14t-6 -14l-200 -200q-6 -6 -14 -6t-14 6z" />
    <glyph glyph-name="uni01D2" unicode="&#x1d2;" 
d="M510 -20h-200q-8 0 -14 6l-200 200q-6 6 -6 14v400q0 8 6 14l200 200q6 6 14 6h200q8 0 14 -6l200 -200q6 -6 6 -14v-400q0 -8 -6 -14l-200 -200q-6 -6 -14 -6zM318 20h184l188 188v384l-188 188h-184l-188 -188v-384zM396 986l-200 200q-6 6 -6 14t6 14t14 6t14 -6
l186 -186l186 186q6 6 14 6t14 -6t6 -14t-6 -14l-200 -200q-6 -6 -14 -6t-14 6z" />
    <glyph glyph-name="uni01D3" unicode="&#x1d3;" horiz-adv-x="1020" 
d="M890 208v992q0 8 6 14t14 6t14 -6t6 -14v-1000q0 -8 -6 -14l-200 -200q-6 -6 -14 -6h-400q-8 0 -14 6l-200 200q-6 6 -6 14v1000q0 8 6 14t14 6t14 -6t6 -14v-992l188 -188h384zM496 1386l-200 200q-6 6 -6 14t6 14t14 6t14 -6l186 -186l186 186q6 6 14 6t14 -6t6 -14
t-6 -14l-200 -200q-6 -6 -14 -6t-14 6z" />
    <glyph glyph-name="uni01D4" unicode="&#x1d4;" 
d="M90 200v600q0 8 6 14t14 6t14 -6t6 -14v-592l188 -188h184l188 188v592q0 8 6 14t14 6t14 -6t6 -14v-800q0 -8 -6 -14t-14 -6t-14 6t-6 14v152l-166 -166q-6 -6 -14 -6h-200q-8 0 -14 6l-200 200q-6 6 -6 14zM396 986l-200 200q-6 6 -6 14t6 14t14 6t14 -6l186 -186
l186 186q6 6 14 6t14 -6t6 -14t-6 -14l-200 -200q-6 -6 -14 -6t-14 6z" />
    <glyph glyph-name="uni0226" unicode="&#x226;" horiz-adv-x="1020" 
d="M510 1172l-380 -380v-372h760v372zM96 814l400 400q6 6 14 6t414 -406q6 -6 6 -14v-800q0 -8 -6 -14t-14 -6t-14 6t-6 14v380h-760v-380q0 -8 -6 -14t-14 -6t-14 6t-6 14v800q0 8 6 14zM538 1529q12 -11 12 -29t-12 -29t-28 -11t-28 11t-12 29t12 29t28 11t28 -11z" />
    <glyph glyph-name="uni0227" unicode="&#x227;" 
d="M690 208v384l-188 188h-184l-188 -188v-384l188 -188h184zM730 0q0 -8 -6 -14t-14 -6t-14 6t-6 14v152l-166 -166q-6 -6 -14 -6h-200q-8 0 -14 6l-200 200q-6 6 -6 14v400q0 8 6 14l200 200q6 6 14 6h200q8 0 14 -6l200 -200q6 -6 6 -14v-600zM438 1129q12 -11 12 -29
t-12 -29t-28 -11t-28 11t-12 29t12 29t28 11t28 -11z" />
    <glyph glyph-name="uni022E" unicode="&#x22e;" horiz-adv-x="1020" 
d="M306 -14l-200 200q-6 6 -6 14v800q0 8 6 14l200 200q6 6 14 6h400q8 0 14 -6l200 -200q6 -6 6 -14v-800q0 -8 -6 -14l-200 -200q-6 -6 -14 -6h-400q-8 0 -14 6zM140 208l188 -188h384l188 188v784l-188 188h-384l-188 -188v-784zM558 1529q12 -11 12 -29t-12 -29t-28 -11
t-28 11t-12 29t12 29t28 11t28 -11z" />
    <glyph glyph-name="uni022F" unicode="&#x22f;" 
d="M510 -20h-200q-8 0 -14 6l-200 200q-6 6 -6 14v400q0 8 6 14l200 200q6 6 14 6h200q8 0 14 -6l200 -200q6 -6 6 -14v-400q0 -8 -6 -14l-200 -200q-6 -6 -14 -6zM318 20h184l188 188v384l-188 188h-184l-188 -188v-384zM438 1129q12 -11 12 -29t-12 -29t-28 -11t-28 11
t-12 29t12 29t28 11t28 -11z" />
  </font>
</defs>
</svg>
