<?xml version="1.0" encoding="utf-8"?>
<!-- Generator: Adobe Illustrator 16.0.4, SVG Export Plug-In . SVG Version: 6.00 Build 0)  -->
<!DOCTYPE svg PUBLIC "-//W3C//DTD SVG 1.1//EN" "http://www.w3.org/Graphics/SVG/1.1/DTD/svg11.dtd">
<svg version="1.1" id="Layer_1" xmlns="http://www.w3.org/2000/svg" xmlns:xlink="http://www.w3.org/1999/xlink" x="0px" y="0px"
	 width="108px" height="108px" viewBox="0 0 108 108" enable-background="new 0 0 108 108" xml:space="preserve">
<g>
	<path fill="#231F20" d="M88.333,48.663c0.318-1.766,0.479-3.554,0.479-5.334c0-17.8-15.569-32.281-34.707-32.281
		S19.396,25.529,19.396,43.329c0,1.738,0.152,3.483,0.454,5.207c-3.444,2.243-5.594,6.159-5.594,10.395
		c0,4.963,2.841,9.333,7.2,11.283c1.981,15.101,16.047,26.739,32.647,26.739c16.655,0,30.732-11.689,32.661-26.848
		c4.225-2.004,6.978-6.333,6.978-11.175C93.743,54.795,91.665,50.927,88.333,48.663z M84.102,66.605l-1.326,0.449l-0.11,1.396
		c-1.081,13.6-13.627,24.253-28.561,24.253c-14.896,0-27.438-10.623-28.556-24.185l-0.118-1.427l-1.366-0.428
		c-3.324-1.039-5.558-4.146-5.558-7.733c0-3.171,1.816-6.063,4.628-7.368l1.562-0.725l-0.386-1.679
		c-0.441-1.918-0.665-3.88-0.665-5.83c0-12.567,9.032-23.228,21.436-26.775c-3.961,4.998-5.411,11.734-3.517,18.12
		c1.071,3.613,3.486,6.592,6.799,8.39c2.096,1.137,4.391,1.714,6.709,1.714c1.348,0,2.704-0.195,4.032-0.59
		c2.599-0.771,4.741-2.508,6.033-4.891c1.293-2.383,1.579-5.127,0.808-7.727c-0.567-1.915-1.849-3.494-3.605-4.447
		c-1.758-0.953-3.78-1.165-5.695-0.596c-1.457,0.432-2.658,1.406-3.383,2.742s-0.885,2.874-0.452,4.331
		c0.314,1.059,1.43,1.664,2.486,1.347c1.06-0.314,1.662-1.428,1.348-2.487c-0.128-0.432-0.08-0.887,0.135-1.284
		c0.215-0.396,0.571-0.686,1.004-0.813c0.892-0.264,1.834-0.166,2.65,0.278c0.818,0.443,1.414,1.179,1.679,2.069
		c0.467,1.574,0.293,3.236-0.489,4.681c-0.783,1.444-2.082,2.496-3.656,2.964c-2.586,0.77-5.319,0.482-7.694-0.807
		c-2.374-1.287-4.104-3.422-4.873-6.012c-2.06-6.943,0.808-14.413,6.97-18.189c0.575-0.03,1.152-0.048,1.735-0.048
		c16.794,0,30.457,12.575,30.457,28.031c0,1.978-0.23,3.966-0.687,5.913L83.49,50.89l1.52,0.744
		c2.724,1.334,4.483,4.198,4.483,7.296C89.493,62.429,87.326,65.514,84.102,66.605z"/>
	<path d="M61.224,75.492c-4.545,3.59-9.68,3.59-14.225,0c-0.586-0.463-1.437-0.362-1.898,0.224
		c-0.463,0.586-0.363,1.437,0.223,1.899c2.762,2.181,5.719,3.287,8.788,3.287s6.026-1.106,8.788-3.287
		c0.586-0.463,0.686-1.313,0.223-1.899C62.66,75.129,61.81,75.029,61.224,75.492z"/>
	<ellipse cx="38.246" cy="58.76" rx="4.36" ry="5.634"/>
	<ellipse cx="69.545" cy="58.76" rx="4.36" ry="5.634"/>
</g>
</svg>
