<?xml version="1.0" encoding="utf-8"?>
<!-- Generator: Adobe Illustrator 16.0.4, SVG Export Plug-In . SVG Version: 6.00 Build 0)  -->
<!DOCTYPE svg PUBLIC "-//W3C//DTD SVG 1.1//EN" "http://www.w3.org/Graphics/SVG/1.1/DTD/svg11.dtd">
<svg version="1.1" id="Layer_1" xmlns="http://www.w3.org/2000/svg" xmlns:xlink="http://www.w3.org/1999/xlink" x="0px" y="0px"
	 width="123.333px" height="108px" viewBox="0 0 123.333 108" enable-background="new 0 0 123.333 108" xml:space="preserve">
<g>
	<path fill="#231F20" d="M93.941,29.247H29.393C15.742,29.247,4.639,40.351,4.639,54c0,13.649,11.104,24.754,24.754,24.754h64.549
		c13.648,0,24.754-11.104,24.754-24.753S107.59,29.247,93.941,29.247z M93.941,74.753H29.393C17.93,74.753,8.639,65.461,8.639,54
		s9.291-20.753,20.754-20.753h64.549c11.461,0,20.754,9.292,20.754,20.753S105.402,74.753,93.941,74.753z"/>
	<path d="M37.535,51.65h-4.797c-0.549,0-0.996-0.449-0.996-0.997v-4.796c0-0.548-0.449-0.997-0.998-0.996l-2.711,0.003
		c-0.549,0-0.996,0.45-0.996,0.998v4.791c0,0.548-0.449,0.997-0.998,0.997H21.25c-0.549,0-0.998,0.449-0.998,0.997v2.71
		c0,0.548,0.449,0.997,0.998,0.997h4.789c0.549,0,0.998,0.449,0.998,0.997v4.791c0,0.548,0.447,0.997,0.996,0.997h2.711
		c0.549,0,0.998-0.449,0.998-0.997v-4.788c0-0.548,0.447-0.997,0.996-0.997h4.793c0.549,0,0.998-0.449,0.998-0.997l0.002-2.713
		C38.531,52.099,38.082,51.65,37.535,51.65z"/>
	<path d="M90.17,51.542c-1.357-1.348-3.553-1.348-4.906,0.002c-1.355,1.356-1.357,3.551-0.002,4.907s3.551,1.351,4.908,0
		C91.523,55.093,91.523,52.901,90.17,51.542z"/>
	<path d="M96.361,49.763c1.354-1.351,1.354-3.548,0-4.901c-1.354-1.354-3.549-1.348-4.902,0c-1.352,1.353-1.352,3.551,0,4.901
		C92.812,51.122,95.008,51.122,96.361,49.763z"/>
	<path d="M91.523,58.229c-1.359,1.358-1.361,3.554-0.004,4.904c1.352,1.356,3.547,1.361,4.906,0.003
		c1.352-1.354,1.352-3.549,0-4.907C95.066,56.873,92.871,56.875,91.523,58.229z"/>
	<path d="M97.715,51.606c-1.352,1.353-1.352,3.554,0,4.907c1.355,1.353,3.551,1.353,4.906,0c1.354-1.356,1.35-3.554,0-4.907
		C101.264,50.253,99.072,50.253,97.715,51.606z"/>
	<rect x="46.408" y="38.244" width="30.516" height="31.512"/>
</g>
</svg>
