<?xml version="1.0" encoding="utf-8"?>
<!-- Generator: Adobe Illustrator 16.0.4, SVG Export Plug-In . SVG Version: 6.00 Build 0)  -->
<!DOCTYPE svg PUBLIC "-//W3C//DTD SVG 1.1//EN" "http://www.w3.org/Graphics/SVG/1.1/DTD/svg11.dtd">
<svg version="1.1" id="Layer_1" xmlns="http://www.w3.org/2000/svg" xmlns:xlink="http://www.w3.org/1999/xlink" x="0px" y="0px"
	 width="123.333px" height="108px" viewBox="0 0 123.333 108" enable-background="new 0 0 123.333 108" xml:space="preserve">
<g>
	<path fill="#231F20" d="M103.545,29.342h-2.727v-2.729c0-2.756-2.244-5-5-5H19.787c-2.756,0-5,2.244-5,5v47.045
		c0,2.758,2.244,5,5,5h2.729v2.729c0,2.756,2.242,5,5,5h76.029c2.758,0,5-2.244,5-5V34.342
		C108.545,31.584,106.303,29.342,103.545,29.342z M19.787,74.658c-0.541,0-1-0.457-1-1V43.936h-2V35.09h2v-8.477
		c0-0.541,0.459-1,1-1h76.031c0.541,0,1,0.459,1,1v8.477h2v8.846h-2v29.723c0,0.543-0.459,1-1,1H19.787z M104.545,81.387
		c0,0.541-0.457,1-1,1H27.516c-0.543,0-1-0.459-1-1v-2.729h69.303c2.756,0,5-2.242,5-5V33.342h2.727c0.543,0,1,0.457,1,1V81.387z"/>
	<polygon points="98.818,43.936 98.818,35.09 96.818,35.09 18.787,35.09 16.787,35.09 16.787,43.936 18.787,43.936 96.818,43.936 	
		"/>
	<circle cx="82.75" cy="61.592" r="7"/>
</g>
</svg>
