<?xml version="1.0" encoding="utf-8"?>
<!-- Generator: Adobe Illustrator 16.0.4, SVG Export Plug-In . SVG Version: 6.00 Build 0)  -->
<!DOCTYPE svg PUBLIC "-//W3C//DTD SVG 1.1//EN" "http://www.w3.org/Graphics/SVG/1.1/DTD/svg11.dtd">
<svg version="1.1" id="Layer_1" xmlns="http://www.w3.org/2000/svg" xmlns:xlink="http://www.w3.org/1999/xlink" x="0px" y="0px"
	 width="233.333px" height="108px" viewBox="0 0 233.333 108" enable-background="new 0 0 233.333 108" xml:space="preserve">
<g>
	<g>
		<path d="M105.324,39.189c-2.192-15.782-16.727-28.017-34.286-28.017c-17.534,0-32.052,12.199-34.277,27.947
			c-8.365,2.367-14.502,10.041-14.502,19.163c0,10.536,8.18,19.14,18.53,19.861c4.976,10.986,16.773,18.683,30.249,18.683
			c13.495,0,25.29-7.699,30.258-18.696c10.223-0.851,18.26-9.403,18.26-19.848C119.556,49.259,113.552,41.644,105.324,39.189z
			 M101.075,66.724c-0.757,0.256-1.289,0.939-1.353,1.736c-1.086,13.664-13.686,24.367-28.685,24.367
			c-14.96,0-27.558-10.674-28.681-24.299c-0.066-0.812-0.619-1.502-1.396-1.744c-3.377-1.057-5.646-4.213-5.646-7.854
			c0-2.525,1.118-4.874,3.026-6.426c0.143,0.023,0.286,0.041,0.429,0.064c0.203,0.032,0.407,0.062,0.611,0.092
			c0.318,0.045,0.636,0.083,0.955,0.119c0.198,0.021,0.396,0.045,0.595,0.063c0.348,0.032,0.695,0.056,1.043,0.077
			c0.169,0.011,0.337,0.025,0.506,0.033c0.516,0.023,1.032,0.038,1.548,0.038c10.645,0,20.689-5.19,26.904-13.728
			c6.216,8.537,16.262,13.728,26.906,13.728c0.516,0,1.031-0.015,1.547-0.038c0.166-0.008,0.333-0.021,0.499-0.033
			c0.351-0.021,0.701-0.045,1.051-0.077c0.194-0.019,0.389-0.041,0.583-0.062c0.324-0.036,0.647-0.075,0.971-0.12
			c0.197-0.028,0.395-0.059,0.591-0.09c0.147-0.023,0.295-0.041,0.441-0.066c1.91,1.552,3.03,3.9,3.03,6.426
			C106.552,62.483,104.351,65.615,101.075,66.724z"/>
		<path d="M77.414,76.782c-4.02,3.172-8.56,3.174-12.579,0c-0.52-0.41-1.271-0.321-1.68,0.197c-0.409,0.518-0.32,1.27,0.197,1.678
			c2.442,1.93,5.058,2.907,7.771,2.907c2.715,0,5.33-0.978,7.772-2.907c0.518-0.408,0.606-1.16,0.197-1.678
			C78.685,76.461,77.934,76.372,77.414,76.782z"/>
		<ellipse cx="57.095" cy="61.985" rx="3.856" ry="4.982"/>
		<ellipse cx="84.772" cy="61.985" rx="3.855" ry="4.982"/>
	</g>
	<g>
		<path d="M207.073,49.858c0.838-0.502,1.405-1.393,1.459-2.414c0.127-2.43-0.013-4.854-0.414-7.203
			c-2.014-11.807-10.265-21.302-21.346-25.783c-4.594-2.101-9.755-3.285-15.211-3.285c-9.48,0-18.08,3.566-24.333,9.332
			c-6.316,5.154-10.845,12.191-12.496,20.143c-0.235,1.135,0.203,2.304,1.128,3.002c0.376,0.285,0.762,0.555,1.144,0.829
			c0.053,1.377,0.198,2.754,0.441,4.117c-3.45,2.213-5.606,6.113-5.606,10.335c0,4.937,2.839,9.281,7.189,11.197
			c1.939,15.072,15.97,26.699,32.533,26.699c16.618,0,30.659-11.676,32.546-26.807c4.216-1.971,6.968-6.273,6.968-11.09
			C211.075,55.436,209.564,52.144,207.073,49.858z M201.598,66.724c-0.757,0.256-1.289,0.939-1.353,1.736
			c-1.086,13.664-13.686,24.367-28.685,24.367c-14.96,0-27.558-10.674-28.681-24.299c-0.066-0.812-0.619-1.502-1.396-1.744
			c-3.377-1.057-5.646-4.213-5.646-7.854c0-3.22,1.845-6.156,4.7-7.482c0.857-0.397,1.319-1.341,1.107-2.262
			c-0.145-0.631-0.258-1.268-0.355-1.905c2.863,1.694,5.864,3.146,8.965,4.325l4.669-15.107l0.468,16.787
			c5.011,1.396,10.199,2.131,15.406,2.131c3.264,0,6.562-0.28,9.804-0.833l21.235-3.621c0.181,0.229,0.408,0.425,0.684,0.56
			c2.767,1.355,4.554,4.263,4.554,7.408C207.075,62.483,204.874,65.615,201.598,66.724z"/>
		<path d="M177.937,77.696c-4.019,3.174-8.559,3.176-12.579,0c-0.52-0.41-1.27-0.32-1.68,0.197c-0.409,0.519-0.32,1.27,0.197,1.68
			c2.442,1.928,5.058,2.906,7.771,2.906c2.715,0,5.33-0.979,7.772-2.906c0.518-0.41,0.606-1.161,0.197-1.68
			C179.208,77.376,178.458,77.286,177.937,77.696z"/>
		<ellipse cx="157.618" cy="62.9" rx="3.856" ry="4.982"/>
		<ellipse cx="185.295" cy="62.9" rx="3.855" ry="4.982"/>
	</g>
</g>
</svg>
