<?xml version="1.0" standalone="no"?>
<!DOCTYPE svg PUBLIC "-//W3C//DTD SVG 1.1//EN" "http://www.w3.org/Graphics/SVG/1.1/DTD/svg11.dtd" >
<svg xmlns="http://www.w3.org/2000/svg" width="100%" height="100%">
<metadata>
Created by FontXChange 20110222 at Wed Sep  7 14:39:23 2016
 By Raymond Gardener
Typeface (c) Vi't Conda'k. 2014. http://fonty.condak.cz
</metadata>
<defs>
<font id="Octagonal-Bold" horiz-adv-x="880" >
  <font-face 
    font-family="Octagonal"
    font-weight="700"
    font-stretch="normal"
    units-per-em="2048"
    panose-1="2 1 4 3 0 2 0 0 0 3"
    ascent="1638"
    descent="-410"
    x-height="850"
    cap-height="1250"
    bbox="-210 -460 1790 1650"
    underline-thickness="150"
    underline-position="-125"
    unicode-range="U+0020-F001"
  />
<missing-glyph horiz-adv-x="1080" 
d="M610 200q0 -32 -21.5 -51t-48.5 -19t-48.5 19t-21.5 51t21.5 51t48.5 19t48.5 -19t21.5 -51zM590 479v-179q0 -21 -14.5 -35.5t-35.5 -14.5t-35.5 14.5t-14.5 35.5v200q0 21 15 35l185 186v158l-71 71h-158l-86 -85q-14 -15 -35 -15t-35.5 14.5t-14.5 35.5t15 35l100 100
q14 15 35 15h200q21 0 35 -15l100 -100q15 -14 15 -35v-200q0 -21 -15 -35zM940 1250q21 0 35.5 -14.5t14.5 -35.5v-1200q0 -21 -14.5 -35.5t-35.5 -14.5h-800q-21 0 -35.5 14.5t-14.5 35.5v1200q0 21 14.5 35.5t35.5 14.5h800zM190 1150v-1100h700v1100h-700z" />
    <glyph glyph-name=".notdef" horiz-adv-x="1080" 
d="M610 200q0 -32 -21.5 -51t-48.5 -19t-48.5 19t-21.5 51t21.5 51t48.5 19t48.5 -19t21.5 -51zM590 479v-179q0 -21 -14.5 -35.5t-35.5 -14.5t-35.5 14.5t-14.5 35.5v200q0 21 15 35l185 186v158l-71 71h-158l-86 -85q-14 -15 -35 -15t-35.5 14.5t-14.5 35.5t15 35l100 100
q14 15 35 15h200q21 0 35 -15l100 -100q15 -14 15 -35v-200q0 -21 -15 -35zM940 1250q21 0 35.5 -14.5t14.5 -35.5v-1200q0 -21 -14.5 -35.5t-35.5 -14.5h-800q-21 0 -35.5 14.5t-14.5 35.5v1200q0 21 14.5 35.5t35.5 14.5h800zM190 1150v-1100h700v1100h-700z" />
    <glyph glyph-name=".null" horiz-adv-x="100" 
 />
    <glyph glyph-name="nonmarkingreturn" horiz-adv-x="588" 
 />
    <glyph glyph-name="space" unicode=" " horiz-adv-x="588" 
 />
    <glyph glyph-name="space" unicode="&#xa0;" horiz-adv-x="588" 
 />
    <glyph glyph-name="exclam" unicode="!" horiz-adv-x="280" 
d="M90 1200q0 21 14.5 35.5t35.5 14.5t35.5 -14.5t14.5 -35.5v-1000q0 -21 -14.5 -35.5t-35.5 -14.5t-35.5 14.5t-14.5 35.5v1000zM210 0q0 -32 -21.5 -51t-48.5 -19t-48.5 19t-21.5 51t21.5 51t48.5 19t48.5 -19t21.5 -51z" />
    <glyph glyph-name="quotedbl" unicode="&#x22;" horiz-adv-x="480" 
d="M190 1000q0 -21 -14.5 -35.5t-35.5 -14.5t-35.5 14.5t-14.5 35.5v200q0 21 14.5 35.5t35.5 14.5t35.5 -14.5t14.5 -35.5v-200zM390 1000q0 -21 -14.5 -35.5t-35.5 -14.5t-35.5 14.5t-14.5 35.5v200q0 21 14.5 35.5t35.5 14.5t35.5 -14.5t14.5 -35.5v-200z" />
    <glyph glyph-name="numbersign" unicode="#" horiz-adv-x="980" 
d="M240 350v300h-150q-21 0 -35.5 14.5t-14.5 35.5t14.5 35.5t35.5 14.5h150v150q0 21 14.5 35.5t35.5 14.5t35.5 -14.5t14.5 -35.5v-150h300v150q0 21 14.5 35.5t35.5 14.5t35.5 -14.5t14.5 -35.5v-150h150q21 0 35.5 -14.5t14.5 -35.5t-14.5 -35.5t-35.5 -14.5h-150v-300
h150q21 0 35.5 -14.5t14.5 -35.5t-14.5 -35.5t-35.5 -14.5h-150v-150q0 -21 -14.5 -35.5t-35.5 -14.5t-35.5 14.5t-14.5 35.5v150h-300v-150q0 -21 -14.5 -35.5t-35.5 -14.5t-35.5 14.5t-14.5 35.5v150h-150q-21 0 -35.5 14.5t-14.5 35.5t14.5 35.5t35.5 14.5h150zM340 650
v-300h300v300h-300z" />
    <glyph glyph-name="dollar" unicode="$" horiz-adv-x="1080" 
d="M590 -50v-150q0 -21 -14.5 -35.5t-35.5 -14.5t-35.5 14.5t-14.5 35.5v150h-150q-21 0 -35 15l-200 200q-15 14 -15 35t14.5 35.5t35.5 14.5t35 -15l186 -185h129v500h-150q-21 0 -35 15l-200 200q-15 14 -15 35v200q0 21 15 35l200 200q14 15 35 15h150v150
q0 21 14.5 35.5t35.5 14.5t35.5 -14.5t14.5 -35.5v-150h150q21 0 35 -15l200 -200q15 -14 15 -35t-14.5 -35.5t-35.5 -14.5t-35 15l-186 185h-129v-500h150q21 0 35 -15l200 -200q15 -14 15 -35v-200q0 -21 -215 -235q-14 -15 -35 -15h-150zM490 650v500h-129l-171 -171
v-158l171 -171h129zM590 550v-500h129l171 171v158l-171 171h-129z" />
    <glyph glyph-name="percent" unicode="%" horiz-adv-x="1680" 
d="M540 550h-200q-21 0 -35 15l-200 200q-15 14 -15 35v200q0 21 15 35l200 200q14 15 35 15h200q21 0 35 -15l200 -200q15 -14 15 -35v-200q0 -21 -15 -35l-200 -200q-14 -15 -35 -15zM361 650h158l171 171v158l-171 171h-158l-171 -171v-158zM1340 -150h-200q-21 0 -35 15
l-200 200q-15 14 -15 35v200q0 21 15 35l200 200q14 15 35 15h200q21 0 35 -15l200 -200q15 -14 15 -35v-200q0 -21 -15 -35l-200 -200q-14 -15 -35 -15zM1161 -50h158l171 171v158l-171 171h-158l-171 -171v-158zM1005 1135l200 200q14 15 35 15t35.5 -14.5t14.5 -35.5
t-15 -35l-185 -186v-179q0 -21 -15 -35l-185 -186v-179q0 -21 -15 -35l-185 -186v-179q0 -21 -15 -35l-200 -200q-14 -15 -35 -15t-35.5 14.5t-14.5 35.5t15 35l185 186v179q0 21 15 35l185 186v179q0 21 15 35l185 186v179q0 21 15 35z" />
    <glyph glyph-name="ampersand" unicode="&#x26;" horiz-adv-x="1280" 
d="M290 1029v-158l121 -121h158l121 121v158l-121 121h-158zM319 700l-114 115q-15 14 -15 35v200q0 21 15 35l150 150q14 15 35 15h200q21 0 35 -15l150 -150q15 -14 15 -35v-200q0 -21 -15 -35l-114 -115l279 -279l215 214q14 15 35 15t35.5 -14.5t14.5 -35.5t-15 -35
l-214 -215l214 -215q15 -14 15 -35t-14.5 -35.5t-35.5 -14.5t-35 15l-215 214l-315 -314q-14 -15 -35 -15h-200q-21 0 -35 15l-250 250q-15 14 -15 35v200q0 21 15 35zM569 650h-158l-221 -221v-158l221 -221h158l300 300z" />
    <glyph glyph-name="quotesingle" unicode="'" horiz-adv-x="280" 
d="M190 1000q0 -21 -14.5 -35.5t-35.5 -14.5t-35.5 14.5t-14.5 35.5v200q0 21 14.5 35.5t35.5 14.5t35.5 -14.5t14.5 -35.5v-200z" />
    <glyph glyph-name="parenleft" unicode="(" horiz-adv-x="430" 
d="M190 121l185 -186q15 -14 15 -35t-14.5 -35.5t-35.5 -14.5t-35 15l-200 200q-15 14 -15 35v1000q0 21 15 35l200 200q14 15 35 15t35.5 -14.5t14.5 -35.5t-15 -35l-185 -186v-958z" />
    <glyph glyph-name="parenright" unicode=")" horiz-adv-x="430" 
d="M325 65l-200 -200q-14 -15 -35 -15t-35.5 14.5t-14.5 35.5t15 35l185 186v958l-185 186q-15 14 -15 35t14.5 35.5t35.5 14.5t35 -15l200 -200q15 -14 15 -35v-1000q0 -21 -15 -35z" />
    <glyph glyph-name="asterisk" unicode="*" horiz-adv-x="780" 
d="M440 379v-179q0 -21 -14.5 -35.5t-35.5 -14.5t-35.5 14.5t-14.5 35.5v179l-115 -114q-14 -15 -35 -15t-35.5 14.5t-14.5 35.5t15 35l114 115h-179q-21 0 -35.5 14.5t-14.5 35.5t14.5 35.5t35.5 14.5h179l-114 115q-15 14 -15 35t14.5 35.5t35.5 14.5t35 -15l115 -114v179
q0 21 14.5 35.5t35.5 14.5t35.5 -14.5t14.5 -35.5v-179l115 114q14 15 35 15t35.5 -14.5t14.5 -35.5t-15 -35l-114 -115h179q21 0 35.5 -14.5t14.5 -35.5t-14.5 -35.5t-35.5 -14.5h-179l114 -115q15 -14 15 -35t-14.5 -35.5t-35.5 -14.5t-35 15z" />
    <glyph glyph-name="plus" unicode="+" horiz-adv-x="780" 
d="M440 200q0 -21 -14.5 -35.5t-35.5 -14.5t-35.5 14.5t-14.5 35.5v250h-250q-21 0 -35.5 14.5t-14.5 35.5t14.5 35.5t35.5 14.5h250v250q0 21 14.5 35.5t35.5 14.5t35.5 -14.5t14.5 -35.5v-250h250q21 0 35.5 -14.5t14.5 -35.5t-14.5 -35.5t-35.5 -14.5h-250v-250z" />
    <glyph glyph-name="comma" unicode="," horiz-adv-x="280" 
d="M190 -100q0 -21 -14.5 -35.5t-35.5 -14.5t-35.5 14.5t-14.5 35.5v200q0 21 14.5 35.5t35.5 14.5t35.5 -14.5t14.5 -35.5v-200z" />
    <glyph glyph-name="hyphen" unicode="-" horiz-adv-x="780" 
d="M90 450q-21 0 -35.5 14.5t-14.5 35.5t14.5 35.5t35.5 14.5h600q21 0 35.5 -14.5t14.5 -35.5t-14.5 -35.5t-35.5 -14.5h-600z" />
    <glyph glyph-name="hyphen" unicode="&#xad;" horiz-adv-x="780" 
d="M90 450q-21 0 -35.5 14.5t-14.5 35.5t14.5 35.5t35.5 14.5h600q21 0 35.5 -14.5t14.5 -35.5t-14.5 -35.5t-35.5 -14.5h-600z" />
    <glyph glyph-name="period" unicode="." horiz-adv-x="280" 
d="M188.5 51q21.5 -19 21.5 -51t-21.5 -51t-48.5 -19t-48.5 19t-21.5 51t21.5 51t48.5 19t48.5 -19z" />
    <glyph glyph-name="slash" unicode="/" 
d="M605 1135l200 200q14 15 35 15t35.5 -14.5t14.5 -35.5t-15 -35l-185 -186v-179q0 -21 -15 -35l-185 -186v-179q0 -21 -15 -35l-185 -186v-179q0 -21 -15 -35l-200 -200q-14 -15 -35 -15t-35.5 14.5t-14.5 35.5t15 35l185 186v179q0 21 15 35l185 186v179q0 21 15 35
l185 186v179q0 21 15 35z" />
    <glyph glyph-name="zero" unicode="0" horiz-adv-x="980" 
d="M655 835q14 15 35 15t35.5 -14.5t14.5 -35.5t-15 -35l-400 -400q-14 -15 -35 -15t-35.5 14.5t-14.5 35.5t15 35zM190 221l171 -171h258l171 171v758l-171 171h-258l-171 -171v-758zM305 -35l-200 200q-15 14 -15 35v800q0 21 15 35l200 200q14 15 35 15h300q21 0 35 -15
l200 -200q15 -14 15 -35v-800q0 -21 -15 -35l-200 -200q-14 -15 -35 -15h-300q-21 0 -35 15z" />
    <glyph glyph-name="one" unicode="1" horiz-adv-x="580" 
d="M140 -50q-21 0 -35.5 14.5t-14.5 35.5t14.5 35.5t35.5 14.5h150v829l-115 -114q-14 -15 -35 -15t-35.5 14.5t-14.5 35.5t15 35l185 186v179q0 21 14.5 35.5t35.5 14.5t35.5 -14.5t14.5 -35.5v-1150h150q21 0 35.5 -14.5t14.5 -35.5t-14.5 -35.5t-35.5 -14.5h-400z" />
    <glyph glyph-name="two" unicode="2" horiz-adv-x="980" 
d="M361 1150l-186 -185q-14 -15 -35 -15t-35.5 14.5t-14.5 35.5t15 35l200 200q14 15 35 15h300q21 0 35 -15l200 -200q15 -14 15 -35v-300q0 -21 -15 -35l-614 -615h579q21 0 35.5 -14.5t14.5 -35.5t-14.5 -35.5t-35.5 -14.5h-700q-21 0 -35.5 14.5t-14.5 35.5t15 35
l685 686v258l-171 171h-258z" />
    <glyph glyph-name="three" unicode="3" horiz-adv-x="980" 
d="M619 1150h-258l-186 -185q-14 -15 -35 -15t-35.5 14.5t-14.5 35.5t15 35l200 200q14 15 35 15h300q21 0 35 -15l200 -200q15 -14 15 -35v-200q0 -21 -15 -35l-164 -165l164 -165q15 -14 15 -35v-200q0 -21 -15 -35l-200 -200q-14 -15 -35 -15h-300q-21 0 -35 15l-200 200
q-15 14 -15 35t14.5 35.5t35.5 14.5t35 -15l186 -185h258l171 171v158l-171 171h-279q-21 0 -35.5 14.5t-14.5 35.5t14.5 35.5t35.5 14.5h279l171 171v158z" />
    <glyph glyph-name="four" unicode="4" horiz-adv-x="980" 
d="M105 735l500 500q14 15 35 15t35.5 -14.5t14.5 -35.5t-15 -35l-485 -486v-329h400v150q0 21 14.5 35.5t35.5 14.5t35.5 -14.5t14.5 -35.5v-150h150q21 0 35.5 -14.5t14.5 -35.5t-14.5 -35.5t-35.5 -14.5h-150v-250q0 -21 -14.5 -35.5t-35.5 -14.5t-35.5 14.5t-14.5 35.5
v250h-450q-21 0 -35.5 14.5t-14.5 35.5v400q0 21 15 35z" />
    <glyph glyph-name="five" unicode="5" horiz-adv-x="980" 
d="M790 221v358l-171 171h-379q-21 0 -35.5 14.5t-14.5 35.5v400q0 21 14.5 35.5t35.5 14.5h600q21 0 35.5 -14.5t14.5 -35.5t-14.5 -35.5t-35.5 -14.5h-550v-300h350q21 0 35 -15l200 -200q15 -14 15 -35v-400q0 -21 -15 -35l-200 -200q-14 -15 -35 -15h-300q-21 0 -35 15
l-200 200q-15 14 -15 35t14.5 35.5t35.5 14.5t35 -15l186 -185h258z" />
    <glyph glyph-name="six" unicode="6" horiz-adv-x="980" 
d="M190 579v-358l171 -171h258l171 171v358l-171 171h-258zM675 1235l200 -200q15 -14 15 -35t-14.5 -35.5t-35.5 -14.5t-35 15l-186 185h-258l-171 -171v-258l115 114q14 15 35 15h300q21 0 35 -15l200 -200q15 -14 15 -35v-400q0 -21 -15 -35l-200 -200q-14 -15 -35 -15
h-300q-21 0 -35 15l-200 200q-15 14 -15 35v800q0 21 15 35l200 200q14 15 35 15h300q21 0 35 -15z" />
    <glyph glyph-name="seven" unicode="7" horiz-adv-x="980" 
d="M190 1150v-150q0 -21 -14.5 -35.5t-35.5 -14.5t-35.5 14.5t-14.5 35.5v200q0 21 14.5 35.5t35.5 14.5h700q21 0 35.5 -14.5t14.5 -35.5v-400q0 -21 -15 -35l-385 -386v-379q0 -21 -14.5 -35.5t-35.5 -14.5t-35.5 14.5t-14.5 35.5v400q0 21 15 35l385 386v329h-600z" />
    <glyph glyph-name="eight" unicode="8" horiz-adv-x="980" 
d="M619 550h-258l-171 -171v-158l171 -171h258l171 171v158zM619 650l171 171v158l-171 171h-258l-171 -171v-158l171 -171h258zM269 600l-164 165q-15 14 -15 35v200q0 21 15 35l200 200q14 15 35 15h300q21 0 35 -15l200 -200q15 -14 15 -35v-200q0 -21 -15 -35l-164 -165
l164 -165q15 -14 15 -35v-200q0 -21 -15 -35l-200 -200q-14 -15 -35 -15h-300q-21 0 -35 15l-200 200q-15 14 -15 35v200q0 21 15 35z" />
    <glyph glyph-name="nine" unicode="9" horiz-adv-x="980" 
d="M790 621v358l-171 171h-258l-171 -171v-358l171 -171h258zM305 -35l-200 200q-15 14 -15 35t14.5 35.5t35.5 14.5t35 -15l186 -185h258l171 171v258l-115 -114q-14 -15 -35 -15h-300q-21 0 -35 15l-200 200q-15 14 -15 35v400q0 21 15 35l200 200q14 15 35 15h300
q21 0 35 -15l200 -200q15 -14 15 -35v-800q0 -21 -15 -35l-200 -200q-14 -15 -35 -15h-300q-21 0 -35 15z" />
    <glyph glyph-name="colon" unicode=":" horiz-adv-x="280" 
d="M188.5 251q21.5 -19 21.5 -51t-21.5 -51t-48.5 -19t-48.5 19t-21.5 51t21.5 51t48.5 19t48.5 -19zM188.5 651q21.5 -19 21.5 -51t-21.5 -51t-48.5 -19t-48.5 19t-21.5 51t21.5 51t48.5 19t48.5 -19z" />
    <glyph glyph-name="semicolon" unicode=";" horiz-adv-x="280" 
d="M190 0q0 -21 -14.5 -35.5t-35.5 -14.5t-35.5 14.5t-14.5 35.5v200q0 21 14.5 35.5t35.5 14.5t35.5 -14.5t14.5 -35.5v-200zM188.5 651q21.5 -19 21.5 -51t-21.5 -51t-48.5 -19t-48.5 19t-21.5 51t21.5 51t48.5 19t48.5 -19z" />
    <glyph glyph-name="semicolon" unicode="&#x37e;" horiz-adv-x="280" 
d="M190 0q0 -21 -14.5 -35.5t-35.5 -14.5t-35.5 14.5t-14.5 35.5v200q0 21 14.5 35.5t35.5 14.5t35.5 -14.5t14.5 -35.5v-200zM188.5 651q21.5 -19 21.5 -51t-21.5 -51t-48.5 -19t-48.5 19t-21.5 51t21.5 51t48.5 19t48.5 -19z" />
    <glyph glyph-name="less" unicode="&#x3c;" horiz-adv-x="480" 
d="M425 235q15 -14 15 -35t-14.5 -35.5t-35.5 -14.5t-35 15l-300 300q-15 14 -15 35t15 35l300 300q14 15 35 15t35.5 -14.5t14.5 -35.5t-15 -35l-264 -265z" />
    <glyph glyph-name="equal" unicode="=" horiz-adv-x="780" 
d="M90 550q-21 0 -35.5 14.5t-14.5 35.5t14.5 35.5t35.5 14.5h600q21 0 35.5 -14.5t14.5 -35.5t-14.5 -35.5t-35.5 -14.5h-600zM90 350q-21 0 -35.5 14.5t-14.5 35.5t14.5 35.5t35.5 14.5h600q21 0 35.5 -14.5t14.5 -35.5t-14.5 -35.5t-35.5 -14.5h-600z" />
    <glyph glyph-name="greater" unicode="&#x3e;" horiz-adv-x="480" 
d="M319 500l-264 265q-15 14 -15 35t14.5 35.5t35.5 14.5t35 -15l300 -300q15 -14 15 -35t-15 -35l-300 -300q-14 -15 -35 -15t-35.5 14.5t-14.5 35.5t15 35z" />
    <glyph glyph-name="question" unicode="?" 
d="M488.5 51q21.5 -19 21.5 -51t-21.5 -51t-48.5 -19t-48.5 19t-21.5 51t21.5 51t48.5 19t48.5 -19zM490 479v-279q0 -21 -14.5 -35.5t-35.5 -14.5t-35.5 14.5t-14.5 35.5v300q0 21 15 35l285 286v158l-171 171h-158l-186 -185q-14 -15 -35 -15t-35.5 14.5t-14.5 35.5t15 35
l200 200q14 15 35 15h200q21 0 35 -15l200 -200q15 -14 15 -35v-200q0 -21 -15 -35z" />
    <glyph glyph-name="at" unicode="@" horiz-adv-x="1280" 
d="M890 221v358l-171 171h-158l-171 -171v-358l171 -171h158zM1190 700v-700q0 -21 -14.5 -35.5t-35.5 -14.5h-200q-21 0 -35.5 14.5t-14.5 35.5v79l-115 -114q-14 -15 -35 -15h-200q-21 0 -35 15l-200 200q-15 14 -15 35v400q0 21 15 35l200 200q14 15 35 15h200
q21 0 35 -15l200 -200q15 -14 15 -35v-550h100v629l-271 271h-358l-271 -271v-558l271 -271h379q21 0 35.5 -14.5t14.5 -35.5t-14.5 -35.5t-35.5 -14.5h-400q-21 0 -35 15l-300 300q-15 14 -15 35v600q0 21 15 35l300 300q14 15 35 15h400q21 0 35 -15l300 -300
q15 -14 15 -35z" />
    <glyph glyph-name="A" unicode="A" horiz-adv-x="1080" 
d="M540 1129l-350 -350v-329h700v329zM105 835l400 400q14 15 35 15t435 -415q15 -14 15 -35v-800q0 -21 -14.5 -35.5t-35.5 -14.5t-35.5 14.5t-14.5 35.5v350h-700v-350q0 -21 -14.5 -35.5t-35.5 -14.5t-35.5 14.5t-14.5 35.5v800q0 21 15 35z" />
    <glyph glyph-name="B" unicode="B" horiz-adv-x="1080" 
d="M190 650h529l171 171v158l-171 171h-529v-500zM90 1200q0 21 14.5 35.5t35.5 14.5h600q21 0 35 -15l200 -200q15 -14 15 -35v-200q0 -21 -15 -35l-164 -165l164 -165q15 -14 15 -35v-200q0 -21 -15 -35l-200 -200q-14 -15 -35 -15h-600q-21 0 -35.5 14.5t-14.5 35.5v1200
zM719 550h-529v-500h529l171 171v158z" />
    <glyph glyph-name="C" unicode="C" horiz-adv-x="1080" 
d="M890 221v179q0 21 14.5 35.5t35.5 14.5t35.5 -14.5t14.5 -35.5v-200q0 -21 -215 -235q-14 -15 -35 -15h-400q-21 0 -35 15l-200 200q-15 14 -15 35v800q0 21 15 35l200 200q14 15 35 15h400q21 0 35 -15l200 -200q15 -14 15 -35v-200q0 -21 -14.5 -35.5t-35.5 -14.5
t-35.5 14.5t-14.5 35.5v179l-171 171h-358l-171 -171v-758l171 -171h358z" />
    <glyph glyph-name="D" unicode="D" horiz-adv-x="1080" 
d="M990 200q0 -21 -15 -35l-200 -200q-14 -15 -35 -15h-600q-21 0 -35.5 14.5t-14.5 35.5v1200q0 21 14.5 35.5t35.5 14.5h600q21 0 35 -15l200 -200q15 -14 15 -35v-800zM890 221v758l-171 171h-529v-1100h529z" />
    <glyph glyph-name="E" unicode="E" horiz-adv-x="780" 
d="M740 50q21 0 35.5 -14.5t14.5 -35.5t-14.5 -35.5t-35.5 -14.5h-600q-21 0 -35.5 14.5t-14.5 35.5v1200q0 21 14.5 35.5t35.5 14.5h600q21 0 35.5 -14.5t14.5 -35.5t-14.5 -35.5t-35.5 -14.5h-550v-500h350q21 0 35.5 -14.5t14.5 -35.5t-14.5 -35.5t-35.5 -14.5h-350v-500
h550z" />
    <glyph glyph-name="F" unicode="F" horiz-adv-x="680" 
d="M740 1250q21 0 35.5 -14.5t14.5 -35.5t-14.5 -35.5t-35.5 -14.5h-550v-500h350q21 0 35.5 -14.5t14.5 -35.5t-14.5 -35.5t-35.5 -14.5h-350v-550q0 -21 -14.5 -35.5t-35.5 -14.5t-35.5 14.5t-14.5 35.5v1200q0 21 14.5 35.5t35.5 14.5h600z" />
    <glyph glyph-name="G" unicode="G" horiz-adv-x="1080" 
d="M990 1000v-200q0 -21 -14.5 -35.5t-35.5 -14.5t-35.5 14.5t-14.5 35.5v179l-171 171h-358l-171 -171v-758l171 -171h358l171 171v329h-150q-21 0 -35.5 14.5t-14.5 35.5t14.5 35.5t35.5 14.5h200q21 0 35.5 -14.5t14.5 -35.5v-400q0 -21 -15 -35l-200 -200
q-14 -15 -35 -15h-400q-21 0 -35 15l-200 200q-15 14 -15 35v800q0 21 15 35l200 200q14 15 35 15h400q21 0 35 -15l200 -200q15 -14 15 -35z" />
    <glyph glyph-name="H" unicode="H" horiz-adv-x="1080" 
d="M190 0q0 -21 -14.5 -35.5t-35.5 -14.5t-35.5 14.5t-14.5 35.5v1200q0 21 14.5 35.5t35.5 14.5t35.5 -14.5t14.5 -35.5v-550h700v550q0 21 14.5 35.5t35.5 14.5t35.5 -14.5t14.5 -35.5v-1200q0 -21 -14.5 -35.5t-35.5 -14.5t-35.5 14.5t-14.5 35.5v550h-700v-550z" />
    <glyph glyph-name="I" unicode="I" horiz-adv-x="280" 
d="M190 0q0 -21 -14.5 -35.5t-35.5 -14.5t-35.5 14.5t-14.5 35.5v1200q0 21 14.5 35.5t35.5 14.5t35.5 -14.5t14.5 -35.5v-1200z" />
    <glyph glyph-name="J" unicode="J" 
d="M305 -35l-200 200q-15 14 -15 35t14.5 35.5t35.5 14.5t35 -15l186 -185h158l171 171v929h-350q-21 0 -35.5 14.5t-14.5 35.5t14.5 35.5t35.5 14.5h400q21 0 35.5 -14.5t14.5 -35.5v-1000q0 -21 -15 -35l-200 -200q-14 -15 -35 -15h-200q-21 0 -35 15z" />
    <glyph glyph-name="K" unicode="K" horiz-adv-x="980" 
d="M90 1200q0 21 14.5 35.5t35.5 14.5t35.5 -14.5t14.5 -35.5v-679l715 714q14 15 35 15t35.5 -14.5t14.5 -35.5t-15 -35l-564 -565l564 -565q15 -14 15 -35t-14.5 -35.5t-35.5 -14.5t-35 15l-565 564l-150 -150v-379q0 -21 -14.5 -35.5t-35.5 -14.5t-35.5 14.5t-14.5 35.5
v1200z" />
    <glyph glyph-name="L" unicode="L" horiz-adv-x="780" 
d="M740 50q21 0 35.5 -14.5t14.5 -35.5t-14.5 -35.5t-35.5 -14.5h-600q-21 0 -35.5 14.5t-14.5 35.5v1200q0 21 14.5 35.5t35.5 14.5t35.5 -14.5t14.5 -35.5v-1150h550z" />
    <glyph glyph-name="M" unicode="M" horiz-adv-x="1080" 
d="M190 1079v-1079q0 -21 -14.5 -35.5t-35.5 -14.5t-35.5 14.5t-14.5 35.5v1200q0 21 14.5 35.5t35.5 14.5t35 -15l365 -364l365 364q14 15 35 15t35.5 -14.5t14.5 -35.5v-1200q0 -21 -14.5 -35.5t-35.5 -14.5t-35.5 14.5t-14.5 35.5v1079l-315 -314q-14 -15 -35 -15t-35 15
z" />
    <glyph glyph-name="N" unicode="N" horiz-adv-x="1080" 
d="M190 1079v-1079q0 -21 -14.5 -35.5t-35.5 -14.5t-35.5 14.5t-14.5 35.5v1200q0 21 14.5 35.5t35.5 14.5t35 -15l715 -714v679q0 21 14.5 35.5t35.5 14.5t35.5 -14.5t14.5 -35.5v-1200q0 -21 -14.5 -35.5t-35.5 -14.5t-35.5 14.5t-14.5 35.5v379z" />
    <glyph glyph-name="O" unicode="O" horiz-adv-x="1080" 
d="M305 -35l-200 200q-15 14 -15 35v800q0 21 15 35l200 200q14 15 35 15h400q21 0 35 -15l200 -200q15 -14 15 -35v-800q0 -21 -15 -35l-200 -200q-14 -15 -35 -15h-400q-21 0 -35 15zM190 221l171 -171h358l171 171v758l-171 171h-358l-171 -171v-758z" />
    <glyph glyph-name="P" unicode="P" horiz-adv-x="1080" 
d="M890 979l-171 171h-529v-700h529l171 171v358zM775 1235l200 -200q15 -14 15 -35v-400q0 -21 -15 -35l-200 -200q-14 -15 -35 -15h-550v-350q0 -21 -14.5 -35.5t-35.5 -14.5t-35.5 14.5t-14.5 35.5v1200q0 21 14.5 35.5t35.5 14.5h600q21 0 35 -15z" />
    <glyph glyph-name="Q" unicode="Q" horiz-adv-x="1080" 
d="M305 -35l-200 200q-15 14 -15 35v800q0 21 15 35l200 200q14 15 35 15h400q21 0 35 -15l200 -200q15 -14 15 -35v-800q0 -21 -15 -35l-164 -165l164 -165q15 -14 15 -35t-14.5 -35.5t-35.5 -14.5t-35 15l-186 185h-379q-21 0 -35 15zM190 221l171 -171h358l171 171v758
l-171 171h-358l-171 -171v-758z" />
    <glyph glyph-name="R" unicode="R" horiz-adv-x="1080" 
d="M775 1235l200 -200q15 -14 15 -35v-400q0 -21 -15 -35l-164 -165l164 -165q15 -14 15 -35v-200q0 -21 -14.5 -35.5t-35.5 -14.5t-35.5 14.5t-14.5 35.5v179l-171 171h-529v-350q0 -21 -14.5 -35.5t-35.5 -14.5t-35.5 14.5t-14.5 35.5v1200q0 21 14.5 35.5t35.5 14.5h600
q21 0 35 -15zM890 979l-171 171h-529v-700h529l171 171v358z" />
    <glyph glyph-name="S" unicode="S" horiz-adv-x="1080" 
d="M775 1235l200 -200q15 -14 15 -35t-14.5 -35.5t-35.5 -14.5t-35 15l-186 185h-358l-171 -171v-158l171 -171h379q21 0 35 -15l200 -200q15 -14 15 -35v-200q0 -21 -215 -235q-14 -15 -35 -15h-400q-21 0 -35 15l-200 200q-15 14 -15 35t14.5 35.5t35.5 14.5t35 -15
l186 -185h358l171 171v158l-171 171h-379q-21 0 -35 15l-200 200q-15 14 -15 35v200q0 21 15 35l200 200q14 15 35 15h400q21 0 35 -15z" />
    <glyph glyph-name="T" unicode="T" horiz-adv-x="680" 
d="M390 0q0 -21 -14.5 -35.5t-35.5 -14.5t-35.5 14.5t-14.5 35.5v1150h-250q-21 0 -35.5 14.5t-14.5 35.5t14.5 35.5t35.5 14.5h600q21 0 35.5 -14.5t14.5 -35.5t-14.5 -35.5t-35.5 -14.5h-250v-1150z" />
    <glyph glyph-name="U" unicode="U" horiz-adv-x="1080" 
d="M890 221v979q0 21 14.5 35.5t35.5 14.5t35.5 -14.5t14.5 -35.5v-1000q0 -21 -15 -35l-200 -200q-14 -15 -35 -15h-400q-21 0 -35 15l-200 200q-15 14 -15 35v1000q0 21 14.5 35.5t35.5 14.5t35.5 -14.5t14.5 -35.5v-979l171 -171h358z" />
    <glyph glyph-name="V" unicode="V" horiz-adv-x="1080" 
d="M90 400v800q0 21 14.5 35.5t35.5 14.5t35.5 -14.5t14.5 -35.5v-779l350 -350l350 350v779q0 21 14.5 35.5t35.5 14.5t35.5 -14.5t14.5 -35.5v-800q0 -21 -15 -35l-400 -400q-14 -15 -35 -15t-35 15l-400 400q-15 14 -15 35z" />
    <glyph glyph-name="W" unicode="W" horiz-adv-x="1880" 
d="M940 329l-365 -364q-14 -15 -35 -15t-35 15l-400 400q-15 14 -15 35v800q0 21 14.5 35.5t35.5 14.5t35.5 -14.5t14.5 -35.5v-779l350 -350l350 350v779q0 21 14.5 35.5t35.5 14.5t35.5 -14.5t14.5 -35.5v-779l350 -350l350 350v779q0 21 14.5 35.5t35.5 14.5t35.5 -14.5
t14.5 -35.5v-800q0 -21 -15 -35l-400 -400q-14 -15 -35 -15t-35 15z" />
    <glyph glyph-name="X" unicode="X" horiz-adv-x="1080" 
d="M990 200v-200q0 -21 -14.5 -35.5t-35.5 -14.5t-35.5 14.5t-14.5 35.5v179l-350 350l-350 -350v-179q0 -21 -14.5 -35.5t-35.5 -14.5t-35.5 14.5t-14.5 35.5v200q0 21 15 35l364 365l-364 365q-15 14 -15 35v200q0 21 14.5 35.5t35.5 14.5t35.5 -14.5t14.5 -35.5v-179
l350 -350l350 350v179q0 21 14.5 35.5t35.5 14.5t35.5 -14.5t14.5 -35.5v-200q0 -21 -15 -35l-364 -365l364 -365q15 -14 15 -35z" />
    <glyph glyph-name="Y" unicode="Y" horiz-adv-x="1080" 
d="M890 821v379q0 21 14.5 35.5t35.5 14.5t35.5 -14.5t14.5 -35.5v-400q0 -21 -15 -35l-385 -386v-379q0 -21 -14.5 -35.5t-35.5 -14.5t-35.5 14.5t-14.5 35.5v379l-385 386q-15 14 -15 35v400q0 21 14.5 35.5t35.5 14.5t35.5 -14.5t14.5 -35.5v-379l350 -350z" />
    <glyph glyph-name="Z" unicode="Z" horiz-adv-x="1080" 
d="M975 965l-785 -786v-129h750q21 0 35.5 -14.5t14.5 -35.5t-14.5 -35.5t-35.5 -14.5h-800q-21 0 -35.5 14.5t-14.5 35.5v200q0 21 15 35l785 786v129h-750q-21 0 -35.5 14.5t-14.5 35.5t14.5 35.5t35.5 14.5h800q21 0 35 -15q15 -14 15 -35v-200q0 -21 -15 -35z" />
    <glyph glyph-name="bracketleft" unicode="[" horiz-adv-x="430" 
d="M140 1350h200q21 0 35.5 -14.5t14.5 -35.5t-14.5 -35.5t-35.5 -14.5h-150v-1300h150q21 0 35.5 -14.5t14.5 -35.5t-14.5 -35.5t-35.5 -14.5h-200q-21 0 -35.5 14.5t-14.5 35.5v1400q0 21 14.5 35.5t35.5 14.5z" />
    <glyph glyph-name="backslash" unicode="\" 
d="M290 1100v-179l185 -186q15 -14 15 -35v-179l185 -186q15 -14 15 -35v-179l185 -186q15 -14 15 -35t-14.5 -35.5t-35.5 -14.5t-35 15l-200 200q-15 14 -15 35v179l-185 186q-15 14 -15 35v179l-185 186q-15 14 -15 35v179l-185 186q-15 14 -15 35t14.5 35.5t35.5 14.5
t35 -15l200 -200q15 -14 15 -35z" />
    <glyph glyph-name="bracketright" unicode="]" horiz-adv-x="430" 
d="M240 1250h-150q-21 0 -35.5 14.5t-14.5 35.5t14.5 35.5t35.5 14.5h200q21 0 35.5 -14.5t14.5 -35.5v-1400q0 -21 -14.5 -35.5t-35.5 -14.5h-200q-21 0 -35.5 14.5t-14.5 35.5t14.5 35.5t35.5 14.5h150v1300z" />
    <glyph glyph-name="asciicircum" unicode="^" 
d="M440 1129l-265 -264q-14 -15 -35 -15t-35.5 14.5t-14.5 35.5t15 35l300 300q14 15 35 15t35 -15l300 -300q15 -14 15 -35t-14.5 -35.5t-35.5 -14.5t-35 15z" />
    <glyph glyph-name="underscore" unicode="_" horiz-adv-x="680" 
d="M40 -250q-21 0 -35.5 14.5t-14.5 35.5t14.5 35.5t35.5 14.5h600q21 0 35.5 -14.5t14.5 -35.5t-14.5 -35.5t-35.5 -14.5h-600z" />
    <glyph glyph-name="grave" unicode="`" horiz-adv-x="480" 
d="M375 1035q15 -14 15 -35t-14.5 -35.5t-35.5 -14.5t-35 15l-200 200q-15 14 -15 35t14.5 35.5t35.5 14.5t35 -15z" />
    <glyph glyph-name="a" unicode="a" 
d="M690 221v358l-171 171h-158l-171 -171v-358l171 -171h158zM790 0q0 -21 -14.5 -35.5t-35.5 -14.5t-35.5 14.5t-14.5 35.5v79l-115 -114q-14 -15 -35 -15h-200q-21 0 -35 15l-200 200q-15 14 -15 35v400q0 21 15 35l200 200q14 15 35 15h200q21 0 35 -15l200 -200
q15 -14 15 -35v-600z" />
    <glyph glyph-name="b" unicode="b" 
d="M190 579v-358l171 -171h158l171 171v358l-171 171h-158zM190 79v-79q0 -21 -14.5 -35.5t-35.5 -14.5t-35.5 14.5t-14.5 35.5v1200q0 21 14.5 35.5t35.5 14.5t35.5 -14.5t14.5 -35.5v-479l115 114q14 15 35 15h200q21 0 35 -15l200 -200q15 -14 15 -35v-400q0 -21 -15 -35
l-200 -200q-14 -15 -35 -15h-200q-21 0 -35 15z" />
    <glyph glyph-name="c" unicode="c" 
d="M105 635l200 200q14 15 35 15h200q21 0 35 -15l200 -200q15 -14 15 -35t-14.5 -35.5t-35.5 -14.5t-35 15l-186 185h-158l-171 -171v-358l171 -171h158l186 185q14 15 35 15t35.5 -14.5t14.5 -35.5t-15 -35l-200 -200q-14 -15 -35 -15h-200q-21 0 -35 15l-200 200
q-15 14 -15 35v400q0 21 15 35z" />
    <glyph glyph-name="d" unicode="d" 
d="M690 221v358l-171 171h-158l-171 -171v-358l171 -171h158zM790 0q0 -21 -14.5 -35.5t-35.5 -14.5t-35.5 14.5t-14.5 35.5v79l-115 -114q-14 -15 -35 -15h-200q-21 0 -35 15l-200 200q-15 14 -15 35v400q0 21 15 35l200 200q14 15 35 15h200q21 0 35 -15l115 -114v479
q0 21 14.5 35.5t35.5 14.5t35.5 -14.5t14.5 -35.5v-1200z" />
    <glyph glyph-name="e" unicode="e" 
d="M790 600v-200q0 -21 -15 -35q-14 -15 -35 -15h-550v-129l171 -171h158l186 185q14 15 35 15t35.5 -14.5t14.5 -35.5t-15 -35l-200 -200q-14 -15 -35 -15h-200q-21 0 -35 15l-200 200q-15 14 -15 35v400q0 21 15 35l200 200q14 15 35 15h200q21 0 35 -15l200 -200
q15 -14 15 -35zM690 450v129l-171 171h-158l-171 -171v-129h500z" />
    <glyph glyph-name="f" unicode="f" horiz-adv-x="480" 
d="M440 1250h100q21 0 35.5 -14.5t14.5 -35.5t-14.5 -35.5t-35.5 -14.5h-79l-171 -171v-129h150q21 0 35.5 -14.5t14.5 -35.5t-14.5 -35.5t-35.5 -14.5h-150v-750q0 -21 -14.5 -35.5t-35.5 -14.5t-35.5 14.5t-14.5 35.5v750h-150q-21 0 -35.5 14.5t-14.5 35.5t14.5 35.5
t35.5 14.5h150v150q0 21 15 35l200 200q14 15 35 15z" />
    <glyph glyph-name="g" unicode="g" 
d="M690 221v358l-171 171h-158l-171 -171v-358l171 -171h158zM775 -235l-200 -200q-14 -15 -35 -15h-200q-21 0 -35 15l-200 200q-15 14 -15 35t14.5 35.5t35.5 14.5t35 -15l186 -185h158l171 171v258l-115 -114q-14 -15 -35 -15h-200q-21 0 -35 15l-200 200q-15 14 -15 35
v400q0 21 15 35l200 200q14 15 35 15h200q21 0 35 -15l115 -114v79q0 21 14.5 35.5t35.5 14.5t35.5 -14.5t14.5 -35.5v-1000q0 -21 -15 -35z" />
    <glyph glyph-name="h" unicode="h" 
d="M190 579v-579q0 -21 -14.5 -35.5t-35.5 -14.5t-35.5 14.5t-14.5 35.5v1200q0 21 14.5 35.5t35.5 14.5t35.5 -14.5t14.5 -35.5v-479l115 114q14 15 35 15h200q21 0 35 -15l200 -200q15 -14 15 -35v-600q0 -21 -14.5 -35.5t-35.5 -14.5t-35.5 14.5t-14.5 35.5v579l-171 171
h-158z" />
    <glyph glyph-name="i" unicode="i" horiz-adv-x="280" 
d="M190 0q0 -21 -14.5 -35.5t-35.5 -14.5t-35.5 14.5t-14.5 35.5v800q0 21 14.5 35.5t35.5 14.5t35.5 -14.5t14.5 -35.5v-800zM188.5 1151q21.5 -19 21.5 -51t-21.5 -51t-48.5 -19t-48.5 19t-21.5 51t21.5 51t48.5 19t48.5 -19z" />
    <glyph glyph-name="j" unicode="j" horiz-adv-x="280" 
d="M90 800q0 21 14.5 35.5t35.5 14.5t35.5 -14.5t14.5 -35.5v-1000q0 -21 -15 -35l-200 -200q-14 -15 -35 -15t-35.5 14.5t-14.5 35.5t15 35l185 186v979zM188.5 1151q21.5 -19 21.5 -51t-21.5 -51t-48.5 -19t-48.5 19t-21.5 51t21.5 51t48.5 19t48.5 -19z" />
    <glyph glyph-name="k" unicode="k" horiz-adv-x="830" 
d="M190 179v-179q0 -21 -14.5 -35.5t-35.5 -14.5t-35.5 14.5t-14.5 35.5v1200q0 21 14.5 35.5t35.5 14.5t35.5 -14.5t14.5 -35.5v-879l515 514q14 15 35 15t35.5 -14.5t14.5 -35.5t-15 -35l-364 -365l364 -365q15 -14 15 -35t-14.5 -35.5t-35.5 -14.5t-35 15l-365 364z" />
    <glyph glyph-name="l" unicode="l" horiz-adv-x="380" 
d="M190 221l185 -186q15 -14 15 -35t-14.5 -35.5t-35.5 -14.5t-35 15l-200 200q-15 14 -15 35v1000q0 21 14.5 35.5t35.5 14.5t35.5 -14.5t14.5 -35.5v-979z" />
    <glyph glyph-name="m" unicode="m" horiz-adv-x="1480" 
d="M740 671l165 164q14 15 35 15h200q21 0 35 -15l200 -200q15 -14 15 -35v-600q0 -21 -14.5 -35.5t-35.5 -14.5t-35.5 14.5t-14.5 35.5v579l-171 171h-158l-171 -171v-579q0 -21 -14.5 -35.5t-35.5 -14.5t-35.5 14.5t-14.5 35.5v579l-171 171h-158l-171 -171v-579
q0 -21 -14.5 -35.5t-35.5 -14.5t-35.5 14.5t-14.5 35.5v800q0 21 14.5 35.5t35.5 14.5t35.5 -14.5t14.5 -35.5v-79l115 114q14 15 35 15h200q21 0 35 -15z" />
    <glyph glyph-name="n" unicode="n" 
d="M190 579v-579q0 -21 -14.5 -35.5t-35.5 -14.5t-35.5 14.5t-14.5 35.5v800q0 21 14.5 35.5t35.5 14.5t35.5 -14.5t14.5 -35.5v-79l115 114q14 15 35 15h200q21 0 35 -15l200 -200q15 -14 15 -35v-600q0 -21 -14.5 -35.5t-35.5 -14.5t-35.5 14.5t-14.5 35.5v579l-171 171
h-158z" />
    <glyph glyph-name="o" unicode="o" 
d="M540 -50h-200q-21 0 -35 15l-200 200q-15 14 -15 35v400q0 21 15 35l200 200q14 15 35 15h200q21 0 35 -15l200 -200q15 -14 15 -35v-400q0 -21 -15 -35l-200 -200q-14 -15 -35 -15zM361 50h158l171 171v358l-171 171h-158l-171 -171v-358z" />
    <glyph glyph-name="p" unicode="p" 
d="M190 579v-358l171 -171h158l171 171v358l-171 171h-158zM190 79v-479q0 -21 -14.5 -35.5t-35.5 -14.5t-35.5 14.5t-14.5 35.5v1200q0 21 14.5 35.5t35.5 14.5t35.5 -14.5t14.5 -35.5v-79l115 114q14 15 35 15h200q21 0 35 -15l200 -200q15 -14 15 -35v-400q0 -21 -15 -35
l-200 -200q-14 -15 -35 -15h-200q-21 0 -35 15z" />
    <glyph glyph-name="q" unicode="q" 
d="M690 79l-115 -114q-14 -15 -35 -15h-200q-21 0 -35 15l-200 200q-15 14 -15 35v400q0 21 15 35l200 200q14 15 35 15h200q21 0 35 -15l115 -114v79q0 21 14.5 35.5t35.5 14.5t35.5 -14.5t14.5 -35.5v-1200q0 -21 -14.5 -35.5t-35.5 -14.5t-35.5 14.5t-14.5 35.5v479z
M690 579l-171 171h-158l-171 -171v-358l171 -171h158l171 171v358z" />
    <glyph glyph-name="r" unicode="r" horiz-adv-x="580" 
d="M190 579v-579q0 -21 -14.5 -35.5t-35.5 -14.5t-35.5 14.5t-14.5 35.5v800q0 21 14.5 35.5t35.5 14.5t35.5 -14.5t14.5 -35.5v-79l115 114q14 15 35 15h200q21 0 35.5 -14.5t14.5 -35.5t-14.5 -35.5t-35.5 -14.5h-179z" />
    <glyph glyph-name="s" unicode="s" 
d="M105 635l200 200q14 15 35 15h200q21 0 35 -15l200 -200q15 -14 15 -35t-14.5 -35.5t-35.5 -14.5t-35 15l-186 185h-158l-150 -150l150 -150h179q21 0 35 -15l200 -200q15 -14 15 -35t-15 -35l-200 -200q-14 -15 -35 -15h-200q-21 0 -35 15l-200 200q-15 14 -15 35
t14.5 35.5t35.5 14.5t35 -15l186 -185h158l150 150l-150 150h-179q-21 0 -35 15l-200 200q-15 14 -15 35t15 35z" />
    <glyph glyph-name="t" unicode="t" horiz-adv-x="530" 
d="M290 221l185 -186q15 -14 15 -35t-14.5 -35.5t-35.5 -14.5t-35 15l-200 200q-15 14 -15 35v550h-150q-21 0 -35.5 14.5t-14.5 35.5t14.5 35.5t35.5 14.5h150v350q0 21 14.5 35.5t35.5 14.5t35.5 -14.5t14.5 -35.5v-350h150q21 0 35.5 -14.5t14.5 -35.5t-14.5 -35.5
t-35.5 -14.5h-150v-529z" />
    <glyph glyph-name="u" unicode="u" 
d="M90 200v600q0 21 14.5 35.5t35.5 14.5t35.5 -14.5t14.5 -35.5v-579l171 -171h158l171 171v579q0 21 14.5 35.5t35.5 14.5t35.5 -14.5t14.5 -35.5v-800q0 -21 -14.5 -35.5t-35.5 -14.5t-35.5 14.5t-14.5 35.5v79l-115 -114q-14 -15 -35 -15h-200q-21 0 -35 15l-200 200
q-15 14 -15 35z" />
    <glyph glyph-name="v" unicode="v" 
d="M90 300v500q0 21 14.5 35.5t35.5 14.5t35.5 -14.5t14.5 -35.5v-479l250 -250l250 250v479q0 21 14.5 35.5t35.5 14.5t35.5 -14.5t14.5 -35.5v-500q0 -21 -15 -35l-300 -300q-14 -15 -35 -15t-35 15l-300 300q-15 14 -15 35z" />
    <glyph glyph-name="w" unicode="w" horiz-adv-x="1480" 
d="M740 229l-265 -264q-14 -15 -35 -15t-35 15l-300 300q-15 14 -15 35v500q0 21 14.5 35.5t35.5 14.5t35.5 -14.5t14.5 -35.5v-479l250 -250l250 250v479q0 21 14.5 35.5t35.5 14.5t35.5 -14.5t14.5 -35.5v-479l250 -250l250 250v479q0 21 14.5 35.5t35.5 14.5t35.5 -14.5
t14.5 -35.5v-500q0 -21 -15 -35l-300 -300q-14 -15 -35 -15t-35 15z" />
    <glyph glyph-name="x" unicode="x" 
d="M790 100v-100q0 -21 -14.5 -35.5t-35.5 -14.5t-35.5 14.5t-14.5 35.5v79l-250 250l-250 -250v-79q0 -21 -14.5 -35.5t-35.5 -14.5t-35.5 14.5t-14.5 35.5v100q0 21 15 35l264 265l-264 265q-15 14 -15 35v100q0 21 14.5 35.5t35.5 14.5t35.5 -14.5t14.5 -35.5v-79
l250 -250l250 250v79q0 21 14.5 35.5t35.5 14.5t35.5 -14.5t14.5 -35.5v-100q0 -21 -15 -35l-264 -265l264 -265q15 -14 15 -35z" />
    <glyph glyph-name="y" unicode="y" 
d="M775 -235l-200 -200q-14 -15 -35 -15h-200q-21 0 -35 15l-200 200q-15 14 -15 35t14.5 35.5t35.5 14.5t35 -15l186 -185h158l171 171v258l-115 -114q-14 -15 -35 -15h-200q-21 0 -35 15l-200 200q-15 14 -15 35v600q0 21 14.5 35.5t35.5 14.5t35.5 -14.5t14.5 -35.5v-579
l171 -171h158l171 171v579q0 21 14.5 35.5t35.5 14.5t35.5 -14.5t14.5 -35.5v-1000q0 -21 -15 -35z" />
    <glyph glyph-name="z" unicode="z" horiz-adv-x="780" 
d="M190 50h550q21 0 35.5 -14.5t14.5 -35.5t-14.5 -35.5t-35.5 -14.5h-600q-21 0 -35.5 14.5t-14.5 35.5v200q0 21 15 35l514 515h-479q-21 0 -35.5 14.5t-14.5 35.5t14.5 35.5t35.5 14.5h600q21 0 35.5 -14.5t14.5 -35.5t-15 -35l-585 -586v-129z" />
    <glyph glyph-name="braceleft" unicode="{" horiz-adv-x="580" 
d="M161 600l164 -165q15 -14 15 -35v-279l185 -186q15 -14 15 -35t-14.5 -35.5t-35.5 -14.5t-35 15l-200 200q-15 14 -15 35v279l-185 186q-15 14 -15 35t15 35l185 186v279q0 21 15 35l200 200q14 15 35 15t35.5 -14.5t14.5 -35.5t-15 -35l-185 -186v-279q0 -21 -15 -35z
" />
    <glyph glyph-name="bar" unicode="|" horiz-adv-x="280" 
d="M190 -100q0 -21 -14.5 -35.5t-35.5 -14.5t-35.5 14.5t-14.5 35.5v1400q0 21 14.5 35.5t35.5 14.5t35.5 -14.5t14.5 -35.5v-1400z" />
    <glyph glyph-name="braceright" unicode="}" horiz-adv-x="580" 
d="M255 765q-15 14 -15 35v279l-185 186q-15 14 -15 35t14.5 35.5t35.5 14.5t35 -15l200 -200q15 -14 15 -35v-279l185 -186q15 -14 15 -35t-15 -35l-185 -186v-279q0 -21 -15 -35l-200 -200q-14 -15 -35 -15t-35.5 14.5t-14.5 35.5t15 35l185 186v279q0 21 15 35l164 165z
" />
    <glyph glyph-name="asciitilde" unicode="~" 
d="M640 471l165 164q14 15 35 15t35.5 -14.5t14.5 -35.5t-15 -35l-200 -200q-14 -15 -35 -15t-35 15l-365 364l-165 -164q-14 -15 -35 -15t-35.5 14.5t-14.5 35.5t15 35l200 200q14 15 35 15t35 -15z" />
    <glyph glyph-name="exclamdown" unicode="&#xa1;" horiz-adv-x="280" 
d="M190 -400q0 -21 -14.5 -35.5t-35.5 -14.5t-35.5 14.5t-14.5 35.5v1000q0 21 14.5 35.5t35.5 14.5t35.5 -14.5t14.5 -35.5v-1000zM70 800q0 32 21.5 51t48.5 19t48.5 -19t21.5 -51t-21.5 -51t-48.5 -19t-48.5 19t-21.5 51z" />
    <glyph glyph-name="cent" unicode="&#xa2;" 
d="M390 850v150q0 21 14.5 35.5t35.5 14.5t35.5 -14.5t14.5 -35.5v-150h50q21 0 35 -15l200 -200q15 -14 15 -35t-14.5 -35.5t-35.5 -14.5t-35 15l-186 185h-158l-171 -171v-358l171 -171h158l186 185q14 15 35 15t35.5 -14.5t14.5 -35.5t-15 -35l-200 -200q-14 -15 -35 -15
h-50v-150q0 -21 -14.5 -35.5t-35.5 -14.5t-35.5 14.5t-14.5 35.5v150h-50q-21 0 -35 15l-200 200q-15 14 -15 35v400q0 21 15 35l200 200q14 15 35 15h50z" />
    <glyph glyph-name="sterling" unicode="&#xa3;" 
d="M790 1000v-200q0 -21 -14.5 -35.5t-35.5 -14.5t-35.5 14.5t-14.5 35.5v179l-171 171h-158l-171 -171v-329h250q21 0 35.5 -14.5t14.5 -35.5t-14.5 -35.5t-35.5 -14.5h-250v-500h550q21 0 35.5 -14.5t14.5 -35.5t-14.5 -35.5t-35.5 -14.5h-600q-21 0 -35.5 14.5
t-14.5 35.5v550h-50q-21 0 -35.5 14.5t-14.5 35.5t14.5 35.5t35.5 14.5h50v350q0 21 15 35l200 200q14 15 35 15h200q21 0 35 -15l200 -200q15 -14 15 -35z" />
    <glyph glyph-name="currency" unicode="&#xa4;" 
d="M169 200l-64 65q-15 14 -15 35v200q0 21 15 35l64 65l-64 65q-15 14 -15 35v100q0 21 14.5 35.5t35.5 14.5t35.5 -14.5t14.5 -35.5v-79l50 -50l65 64q14 15 35 15h200q21 0 35 -15l65 -64l50 50v79q0 21 14.5 35.5t35.5 14.5t35.5 -14.5t14.5 -35.5v-100q0 -21 -15 -35
l-64 -65l64 -65q15 -14 15 -35v-200q0 -21 -15 -35l-64 -65l64 -65q15 -14 15 -35v-100q0 -21 -14.5 -35.5t-35.5 -14.5t-35.5 14.5t-14.5 35.5v79l-50 50l-65 -64q-14 -15 -35 -15h-200q-21 0 -35 15l-65 64l-50 -50v-79q0 -21 -14.5 -35.5t-35.5 -14.5t-35.5 14.5
t-14.5 35.5v100q0 21 15 35zM275 565l-85 -86v-158l85 -86l86 -85h158l86 85l85 86v158l-85 86l-86 85h-158z" />
    <glyph glyph-name="yen" unicode="&#xa5;" horiz-adv-x="1080" 
d="M890 821v379q0 21 14.5 35.5t35.5 14.5t35.5 -14.5t14.5 -35.5v-400q0 -21 -15 -35l-385 -386v-379q0 -21 -14.5 -35.5t-35.5 -14.5t-35.5 14.5t-14.5 35.5v379l-385 386q-15 14 -15 35v400q0 21 14.5 35.5t35.5 14.5t35.5 -14.5t14.5 -35.5v-379l350 -350zM240 150
q-21 0 -35.5 14.5t-14.5 35.5t14.5 35.5t35.5 14.5h600q21 0 35.5 -14.5t14.5 -35.5t-14.5 -35.5t-35.5 -14.5h-600zM240 350q-21 0 -35.5 14.5t-14.5 35.5t14.5 35.5t35.5 14.5h600q21 0 35.5 -14.5t14.5 -35.5t-14.5 -35.5t-35.5 -14.5h-600z" />
    <glyph glyph-name="brokenbar" unicode="&#xa6;" horiz-adv-x="280" 
d="M190 -100q0 -21 -14.5 -35.5t-35.5 -14.5t-35.5 14.5t-14.5 35.5v600q0 21 14.5 35.5t35.5 14.5t35.5 -14.5t14.5 -35.5v-600zM190 700q0 -21 -14.5 -35.5t-35.5 -14.5t-35.5 14.5t-14.5 35.5v600q0 21 14.5 35.5t35.5 14.5t35.5 -14.5t14.5 -35.5v-600z" />
    <glyph glyph-name="section" unicode="&#xa7;" 
d="M90 600q0 21 15 35l164 165l-164 165q-15 14 -15 35t15 35l200 200q14 15 35 15h200q21 0 35 -15l200 -200q15 -14 15 -35t-14.5 -35.5t-35.5 -14.5t-35 15l-186 185h-158l-150 -150l150 -150h179q21 0 35 -15l200 -200q15 -14 15 -35t-15 -35l-164 -165l164 -165
q15 -14 15 -35t-15 -35l-200 -200q-14 -15 -35 -15h-200q-21 0 -35 15l-200 200q-15 14 -15 35t14.5 35.5t35.5 14.5t35 -15l186 -185h158l150 150l-150 150h-179q-21 0 -35 15l-200 200q-15 14 -15 35zM669 600l-150 150h-158l-150 -150l150 -150h158z" />
    <glyph glyph-name="dieresis" unicode="&#xa8;" horiz-adv-x="480" 
d="M210 1100q0 -32 -21.5 -51t-48.5 -19t-48.5 19t-21.5 51t21.5 51t48.5 19t48.5 -19t21.5 -51zM410 1100q0 -32 -21.5 -51t-48.5 -19t-48.5 19t-21.5 51t21.5 51t48.5 19t48.5 -19t21.5 -51z" />
    <glyph glyph-name="copyright" unicode="&#xa9;" horiz-adv-x="1480" 
d="M940 -50h-400q-21 0 -35 15l-400 400q-15 14 -15 35v400q0 21 15 35l400 400q14 15 35 15h400q21 0 35 -15l400 -400q15 -14 15 -35v-400q0 -21 -15 -35l-400 -400q-14 -15 -35 -15zM561 50h358l371 371v358l-371 371h-358l-371 -371v-358zM405 835l200 200q14 15 35 15
h200q21 0 35 -15l200 -200q15 -14 15 -35t-14.5 -35.5t-35.5 -14.5t-35 15l-186 185h-158l-171 -171v-358l171 -171h158l186 185q14 15 35 15t35.5 -14.5t14.5 -35.5t-15 -35l-200 -200q-14 -15 -35 -15h-200q-21 0 -35 15l-200 200q-15 14 -15 35v400q0 21 15 35z" />
    <glyph glyph-name="ordfeminine" unicode="&#xaa;" horiz-adv-x="630" 
d="M140 550q-21 0 -35.5 14.5t-14.5 35.5t14.5 35.5t35.5 14.5h350q21 0 35.5 -14.5t14.5 -35.5t-14.5 -35.5t-35.5 -14.5h-350zM440 729l-15 -14q-14 -15 -35 -15h-150q-21 0 -35 15l-100 100q-15 14 -15 35v250q0 21 15 35l100 100q14 15 35 15h150q21 0 35 -15l100 -100
q15 -14 15 -35v-350q0 -21 -14.5 -35.5t-35.5 -14.5t-35.5 14.5t-14.5 35.5v-21zM440 1079l-71 71h-108l-71 -71v-208l71 -71h108l71 71v208z" />
    <glyph glyph-name="guillemotleft" unicode="&#xab;" horiz-adv-x="580" 
d="M325 335q15 -14 15 -35t-14.5 -35.5t-35.5 -14.5t-35 15l-200 200q-15 14 -15 35t15 35l200 200q14 15 35 15t35.5 -14.5t14.5 -35.5t-15 -35l-164 -165zM525 335q15 -14 15 -35t-14.5 -35.5t-35.5 -14.5t-35 15l-200 200q-15 14 -15 35t15 35l200 200q14 15 35 15
t35.5 -14.5t14.5 -35.5t-15 -35l-164 -165z" />
    <glyph glyph-name="logicalnot" unicode="&#xac;" 
d="M90 450q-21 0 -35.5 14.5t-14.5 35.5t14.5 35.5t35.5 14.5h650q21 0 35.5 -14.5t14.5 -35.5v-300q0 -21 -14.5 -35.5t-35.5 -14.5t-35.5 14.5t-14.5 35.5v250h-600z" />
    <glyph glyph-name="registered" unicode="&#xae;" 
d="M419 850l71 71v58l-71 71h-29v-200h29zM190 979v-158l171 -171h158l171 171v158l-171 171h-158zM340 550q-21 0 -35 15l-200 200q-15 14 -15 35v200q0 21 15 35l200 200q14 15 35 15h200q21 0 35 -15l200 -200q15 -14 15 -35v-200q0 -21 -15 -35l-200 -200
q-14 -15 -35 -15h-200zM475 1135l100 -100q15 -14 15 -35v-100q0 -21 -15 -35l-64 -65l64 -65q15 -14 15 -35t-14.5 -35.5t-35.5 -14.5t-35 15l-86 85h-29v-50q0 -21 -14.5 -35.5t-35.5 -14.5t-35.5 14.5t-14.5 35.5v400q0 21 14.5 35.5t35.5 14.5h100q21 0 35 -15z" />
    <glyph glyph-name="macron" unicode="&#xaf;" horiz-adv-x="680" 
d="M140 1050q-21 0 -35.5 14.5t-14.5 35.5t14.5 35.5t35.5 14.5h400q21 0 35.5 -14.5t14.5 -35.5t-14.5 -35.5t-35.5 -14.5h-400z" />
    <glyph glyph-name="degree" unicode="&#xb0;" horiz-adv-x="480" 
d="M140 1250h200q21 0 35.5 -14.5t14.5 -35.5v-200q0 -21 -14.5 -35.5t-35.5 -14.5h-200q-21 0 -35.5 14.5t-14.5 35.5v200q0 21 14.5 35.5t35.5 14.5zM290 1150h-100v-100h100v100z" />
    <glyph glyph-name="plusminus" unicode="&#xb1;" horiz-adv-x="780" 
d="M440 200q0 -21 -14.5 -35.5t-35.5 -14.5t-35.5 14.5t-14.5 35.5v250h-250q-21 0 -35.5 14.5t-14.5 35.5t14.5 35.5t35.5 14.5h250v250q0 21 14.5 35.5t35.5 14.5t35.5 -14.5t14.5 -35.5v-250h250q21 0 35.5 -14.5t14.5 -35.5t-14.5 -35.5t-35.5 -14.5h-250v-250zM90 -40
q-21 0 -35.5 14.5t-14.5 35.5t14.5 35.5t35.5 14.5h600q21 0 35.5 -14.5t14.5 -35.5t-14.5 -35.5t-35.5 -14.5h-600z" />
    <glyph glyph-name="acute" unicode="&#xb4;" horiz-adv-x="480" 
d="M305 1235q14 15 35 15t35.5 -14.5t14.5 -35.5t-15 -35l-200 -200q-14 -15 -35 -15t-35.5 14.5t-14.5 35.5t15 35z" />
    <glyph glyph-name="mu" unicode="&#xb5;" 
d="M690 221v579q0 21 14.5 35.5t35.5 14.5t35.5 -14.5t14.5 -35.5v-800q0 -21 -14.5 -35.5t-35.5 -14.5t-35.5 14.5t-14.5 35.5v79l-115 -114q-14 -15 -35 -15h-200q-21 0 -35 15l-115 114v-479q0 -21 -14.5 -35.5t-35.5 -14.5t-35.5 14.5t-14.5 35.5v1200q0 21 14.5 35.5
t35.5 14.5t35.5 -14.5t14.5 -35.5v-579l171 -171h158z" />
    <glyph glyph-name="paragraph" unicode="&#xb6;" 
d="M290 1079l-100 -100v-158l100 -100v358zM290 579l-185 186q-15 14 -15 35v200q0 21 15 35l200 200q14 15 35 15h400q21 0 35.5 -14.5t14.5 -35.5v-1400q0 -21 -14.5 -35.5t-35.5 -14.5t-35.5 14.5t-14.5 35.5v1350h-300v-1350q0 -21 -14.5 -35.5t-35.5 -14.5t-35.5 14.5
t-14.5 35.5v779z" />
    <glyph glyph-name="periodcentered" unicode="&#xb7;" horiz-adv-x="280" 
d="M188.5 651q21.5 -19 21.5 -51t-21.5 -51t-48.5 -19t-48.5 19t-21.5 51t21.5 51t48.5 19t48.5 -19z" />
    <glyph glyph-name="periodcentered" unicode="&#x2219;" horiz-adv-x="280" 
d="M188.5 651q21.5 -19 21.5 -51t-21.5 -51t-48.5 -19t-48.5 19t-21.5 51t21.5 51t48.5 19t48.5 -19z" />
    <glyph glyph-name="cedilla" unicode="&#xb8;" horiz-adv-x="480" 
d="M375 -235l-200 -200q-14 -15 -35 -15t-35.5 14.5t-14.5 35.5t15 35l164 165l-164 165q-15 14 -15 35t14.5 35.5t35.5 14.5t35 -15q215 -214 215 -235t-15 -35z" />
    <glyph glyph-name="ordmasculine" unicode="&#xba;" horiz-adv-x="630" 
d="M390 700h-150q-21 0 -35 15l-100 100q-15 14 -15 35v250q0 21 15 35l100 100q14 15 35 15h150q21 0 35 -15l100 -100q15 -14 15 -35v-250q0 -21 -15 -35l-100 -100q-14 -15 -35 -15zM261 800h108l71 71v208l-71 71h-108l-71 -71v-208zM140 550q-21 0 -35.5 14.5
t-14.5 35.5t14.5 35.5t35.5 14.5h350q21 0 35.5 -14.5t14.5 -35.5t-14.5 -35.5t-35.5 -14.5h-350z" />
    <glyph glyph-name="guillemotright" unicode="&#xbb;" horiz-adv-x="580" 
d="M219 500l-164 165q-15 14 -15 35t14.5 35.5t35.5 14.5t35 -15l200 -200q15 -14 15 -35t-15 -35l-200 -200q-14 -15 -35 -15t-35.5 14.5t-14.5 35.5t15 35zM419 500l-164 165q-15 14 -15 35t14.5 35.5t35.5 14.5t35 -15l200 -200q15 -14 15 -35t-15 -35l-200 -200
q-14 -15 -35 -15t-35.5 14.5t-14.5 35.5t15 35z" />
    <glyph glyph-name="questiondown" unicode="&#xbf;" 
d="M391.5 739q-21.5 19 -21.5 51t21.5 51t48.5 19t48.5 -19t21.5 -51t-21.5 -51t-48.5 -19t-48.5 19zM390 311v279q0 21 14.5 35.5t35.5 14.5t35.5 -14.5t14.5 -35.5v-300q0 -21 -15 -35l-285 -286v-158l171 -171h158l186 185q14 15 35 15t35.5 -14.5t14.5 -35.5t-15 -35
l-200 -200q-14 -15 -35 -15h-200q-21 0 -35 15l-200 200q-15 14 -15 35v200q0 21 15 35z" />
    <glyph glyph-name="Agrave" unicode="&#xc0;" horiz-adv-x="1080" 
d="M540 1129l-350 -350v-329h700v329zM105 835l400 400q14 15 35 15t435 -415q15 -14 15 -35v-800q0 -21 -14.5 -35.5t-35.5 -14.5t-35.5 14.5t-14.5 35.5v350h-700v-350q0 -21 -14.5 -35.5t-35.5 -14.5t-35.5 14.5t-14.5 35.5v800q0 21 15 35zM638 1435q15 -14 15 -35
t-14.5 -35.5t-35.5 -14.5t-35 15l-200 200q-15 14 -15 35t14.5 35.5t35.5 14.5t35 -15z" />
    <glyph glyph-name="Aacute" unicode="&#xc1;" horiz-adv-x="1080" 
d="M540 1129l-350 -350v-329h700v329zM105 835l400 400q14 15 35 15t435 -415q15 -14 15 -35v-800q0 -21 -14.5 -35.5t-35.5 -14.5t-35.5 14.5t-14.5 35.5v350h-700v-350q0 -21 -14.5 -35.5t-35.5 -14.5t-35.5 14.5t-14.5 35.5v800q0 21 15 35zM642 1635q14 15 35 15
t35.5 -14.5t14.5 -35.5t-15 -35l-200 -200q-14 -15 -35 -15t-35.5 14.5t-14.5 35.5t15 35z" />
    <glyph glyph-name="Acircumflex" unicode="&#xc2;" horiz-adv-x="1080" 
d="M540 1129l-350 -350v-329h700v329zM105 835l400 400q14 15 35 15t435 -415q15 -14 15 -35v-800q0 -21 -14.5 -35.5t-35.5 -14.5t-35.5 14.5t-14.5 35.5v350h-700v-350q0 -21 -14.5 -35.5t-35.5 -14.5t-35.5 14.5t-14.5 35.5v800q0 21 15 35zM540 1529l-165 -164
q-14 -15 -35 -15t-35.5 14.5t-14.5 35.5t15 35l200 200q14 15 35 15t35 -15l200 -200q15 -14 15 -35t-14.5 -35.5t-35.5 -14.5t-35 15z" />
    <glyph glyph-name="Atilde" unicode="&#xc3;" horiz-adv-x="1080" 
d="M540 1129l-350 -350v-329h700v329zM105 835l400 400q14 15 35 15t435 -415q15 -14 15 -35v-800q0 -21 -14.5 -35.5t-35.5 -14.5t-35.5 14.5t-14.5 35.5v350h-700v-350q0 -21 -14.5 -35.5t-35.5 -14.5t-35.5 14.5t-14.5 35.5v800q0 21 15 35zM640 1471l165 164
q14 15 35 15t35.5 -14.5t14.5 -35.5t-15 -35l-200 -200q-14 -15 -35 -15t-35 15l-165 164l-165 -164q-14 -15 -35 -15t-35.5 14.5t-14.5 35.5t15 35l200 200q14 15 35 15t35 -15z" />
    <glyph glyph-name="Adieresis" unicode="&#xc4;" horiz-adv-x="1080" 
d="M540 1129l-350 -350v-329h700v329zM105 835l400 400q14 15 35 15t435 -415q15 -14 15 -35v-800q0 -21 -14.5 -35.5t-35.5 -14.5t-35.5 14.5t-14.5 35.5v350h-700v-350q0 -21 -14.5 -35.5t-35.5 -14.5t-35.5 14.5t-14.5 35.5v800q0 21 15 35zM510 1500q0 -32 -21.5 -51
t-48.5 -19t-48.5 19t-21.5 51t21.5 51t48.5 19t48.5 -19t21.5 -51zM710 1500q0 -32 -21.5 -51t-48.5 -19t-48.5 19t-21.5 51t21.5 51t48.5 19t48.5 -19t21.5 -51z" />
    <glyph glyph-name="Aring" unicode="&#xc5;" horiz-adv-x="1080" 
d="M540 1129l-350 -350v-329h700v329zM105 835l400 400q14 15 35 15t435 -415q15 -14 15 -35v-800q0 -21 -14.5 -35.5t-35.5 -14.5t-35.5 14.5t-14.5 35.5v350h-700v-350q0 -21 -14.5 -35.5t-35.5 -14.5t-35.5 14.5t-14.5 35.5v800q0 21 15 35zM440 1650h200
q21 0 35.5 -14.5t14.5 -35.5v-200q0 -21 -14.5 -35.5t-35.5 -14.5h-200q-21 0 -35.5 14.5t-14.5 35.5v200q0 21 14.5 35.5t35.5 14.5zM590 1550h-100v-100h100v100z" />
    <glyph glyph-name="AE" unicode="&#xc6;" horiz-adv-x="1580" 
d="M540 1129l-350 -350v-329h700v329zM105 835l400 400q14 15 35 15t435 -415q15 -14 15 -35v-800q0 -21 -14.5 -35.5t-35.5 -14.5t-35.5 14.5t-14.5 35.5v350h-700v-350q0 -21 -14.5 -35.5t-35.5 -14.5t-35.5 14.5t-14.5 35.5v800q0 21 15 35zM1540 50q21 0 35.5 -14.5
t14.5 -35.5t-14.5 -35.5t-35.5 -14.5h-600q-21 0 -35.5 14.5t-14.5 35.5v1200q0 21 14.5 35.5t35.5 14.5h600q21 0 35.5 -14.5t14.5 -35.5t-14.5 -35.5t-35.5 -14.5h-550v-500h350q21 0 35.5 -14.5t14.5 -35.5t-14.5 -35.5t-35.5 -14.5h-350v-500h550z" />
    <glyph glyph-name="Ccedilla" unicode="&#xc7;" horiz-adv-x="1080" 
d="M890 221v179q0 21 14.5 35.5t35.5 14.5t35.5 -14.5t14.5 -35.5v-200q0 -21 -215 -235q-14 -15 -35 -15h-400q-21 0 -35 15l-200 200q-15 14 -15 35v800q0 21 15 35l200 200q14 15 35 15h400q21 0 35 -15l200 -200q15 -14 15 -35v-200q0 -21 -14.5 -35.5t-35.5 -14.5
t-35.5 14.5t-14.5 35.5v179l-171 171h-358l-171 -171v-758l171 -171h358zM675 -235l-200 -200q-14 -15 -35 -15t-35.5 14.5t-14.5 35.5t15 35l164 165l-164 165q-15 14 -15 35t14.5 35.5t35.5 14.5t35 -15q215 -214 215 -235t-15 -35z" />
    <glyph glyph-name="Egrave" unicode="&#xc8;" horiz-adv-x="780" 
d="M740 50q21 0 35.5 -14.5t14.5 -35.5t-14.5 -35.5t-35.5 -14.5h-600q-21 0 -35.5 14.5t-14.5 35.5v1200q0 21 14.5 35.5t35.5 14.5h600q21 0 35.5 -14.5t14.5 -35.5t-14.5 -35.5t-35.5 -14.5h-550v-500h350q21 0 35.5 -14.5t14.5 -35.5t-14.5 -35.5t-35.5 -14.5h-350v-500
h550zM538 1435q15 -14 15 -35t-14.5 -35.5t-35.5 -14.5t-35 15l-200 200q-15 14 -15 35t14.5 35.5t35.5 14.5t35 -15z" />
    <glyph glyph-name="Eacute" unicode="&#xc9;" horiz-adv-x="780" 
d="M740 50q21 0 35.5 -14.5t14.5 -35.5t-14.5 -35.5t-35.5 -14.5h-600q-21 0 -35.5 14.5t-14.5 35.5v1200q0 21 14.5 35.5t35.5 14.5h600q21 0 35.5 -14.5t14.5 -35.5t-14.5 -35.5t-35.5 -14.5h-550v-500h350q21 0 35.5 -14.5t14.5 -35.5t-14.5 -35.5t-35.5 -14.5h-350v-500
h550zM542 1635q14 15 35 15t35.5 -14.5t14.5 -35.5t-15 -35l-200 -200q-14 -15 -35 -15t-35.5 14.5t-14.5 35.5t15 35z" />
    <glyph glyph-name="Ecircumflex" unicode="&#xca;" horiz-adv-x="780" 
d="M740 50q21 0 35.5 -14.5t14.5 -35.5t-14.5 -35.5t-35.5 -14.5h-600q-21 0 -35.5 14.5t-14.5 35.5v1200q0 21 14.5 35.5t35.5 14.5h600q21 0 35.5 -14.5t14.5 -35.5t-14.5 -35.5t-35.5 -14.5h-550v-500h350q21 0 35.5 -14.5t14.5 -35.5t-14.5 -35.5t-35.5 -14.5h-350v-500
h550zM440 1529l-165 -164q-14 -15 -35 -15t-35.5 14.5t-14.5 35.5t15 35l200 200q14 15 35 15t35 -15l200 -200q15 -14 15 -35t-14.5 -35.5t-35.5 -14.5t-35 15z" />
    <glyph glyph-name="Edieresis" unicode="&#xcb;" horiz-adv-x="780" 
d="M740 50q21 0 35.5 -14.5t14.5 -35.5t-14.5 -35.5t-35.5 -14.5h-600q-21 0 -35.5 14.5t-14.5 35.5v1200q0 21 14.5 35.5t35.5 14.5h600q21 0 35.5 -14.5t14.5 -35.5t-14.5 -35.5t-35.5 -14.5h-550v-500h350q21 0 35.5 -14.5t14.5 -35.5t-14.5 -35.5t-35.5 -14.5h-350v-500
h550zM410 1500q0 -32 -21.5 -51t-48.5 -19t-48.5 19t-21.5 51t21.5 51t48.5 19t48.5 -19t21.5 -51zM610 1500q0 -32 -21.5 -51t-48.5 -19t-48.5 19t-21.5 51t21.5 51t48.5 19t48.5 -19t21.5 -51z" />
    <glyph glyph-name="Igrave" unicode="&#xcc;" horiz-adv-x="280" 
d="M190 0q0 -21 -14.5 -35.5t-35.5 -14.5t-35.5 14.5t-14.5 35.5v1200q0 21 14.5 35.5t35.5 14.5t35.5 -14.5t14.5 -35.5v-1200zM238 1435q15 -14 15 -35t-14.5 -35.5t-35.5 -14.5t-35 15l-200 200q-15 14 -15 35t14.5 35.5t35.5 14.5t35 -15z" />
    <glyph glyph-name="Iacute" unicode="&#xcd;" horiz-adv-x="280" 
d="M190 0q0 -21 -14.5 -35.5t-35.5 -14.5t-35.5 14.5t-14.5 35.5v1200q0 21 14.5 35.5t35.5 14.5t35.5 -14.5t14.5 -35.5v-1200zM242 1635q14 15 35 15t35.5 -14.5t14.5 -35.5t-15 -35l-200 -200q-14 -15 -35 -15t-35.5 14.5t-14.5 35.5t15 35z" />
    <glyph glyph-name="Icircumflex" unicode="&#xce;" horiz-adv-x="280" 
d="M190 0q0 -21 -14.5 -35.5t-35.5 -14.5t-35.5 14.5t-14.5 35.5v1200q0 21 14.5 35.5t35.5 14.5t35.5 -14.5t14.5 -35.5v-1200zM140 1529l-165 -164q-14 -15 -35 -15t-35.5 14.5t-14.5 35.5t15 35l200 200q14 15 35 15t35 -15l200 -200q15 -14 15 -35t-14.5 -35.5
t-35.5 -14.5t-35 15z" />
    <glyph glyph-name="Idieresis" unicode="&#xcf;" horiz-adv-x="280" 
d="M190 0q0 -21 -14.5 -35.5t-35.5 -14.5t-35.5 14.5t-14.5 35.5v1200q0 21 14.5 35.5t35.5 14.5t35.5 -14.5t14.5 -35.5v-1200zM110 1500q0 -32 -21.5 -51t-48.5 -19t-48.5 19t-21.5 51t21.5 51t48.5 19t48.5 -19t21.5 -51zM310 1500q0 -32 -21.5 -51t-48.5 -19t-48.5 19
t-21.5 51t21.5 51t48.5 19t48.5 -19t21.5 -51z" />
    <glyph glyph-name="Eth" unicode="&#xd0;" horiz-adv-x="1080" 
d="M990 200q0 -21 -15 -35l-200 -200q-14 -15 -35 -15h-600q-21 0 -35.5 14.5t-14.5 35.5v1200q0 21 14.5 35.5t35.5 14.5h600q21 0 35 -15l200 -200q15 -14 15 -35v-800zM890 221v758l-171 171h-529v-1100h529zM40 550q-21 0 -35.5 14.5t-14.5 35.5t14.5 35.5t35.5 14.5
h600q21 0 35.5 -14.5t14.5 -35.5t-14.5 -35.5t-35.5 -14.5h-600z" />
    <glyph glyph-name="Ntilde" unicode="&#xd1;" horiz-adv-x="1080" 
d="M190 1079v-1079q0 -21 -14.5 -35.5t-35.5 -14.5t-35.5 14.5t-14.5 35.5v1200q0 21 14.5 35.5t35.5 14.5t35 -15l715 -714v679q0 21 14.5 35.5t35.5 14.5t35.5 -14.5t14.5 -35.5v-1200q0 -21 -14.5 -35.5t-35.5 -14.5t-35.5 14.5t-14.5 35.5v379zM640 1471l165 164
q14 15 35 15t35.5 -14.5t14.5 -35.5t-15 -35l-200 -200q-14 -15 -35 -15t-35 15l-165 164l-165 -164q-14 -15 -35 -15t-35.5 14.5t-14.5 35.5t15 35l200 200q14 15 35 15t35 -15z" />
    <glyph glyph-name="Ograve" unicode="&#xd2;" horiz-adv-x="1080" 
d="M305 -35l-200 200q-15 14 -15 35v800q0 21 15 35l200 200q14 15 35 15h400q21 0 35 -15l200 -200q15 -14 15 -35v-800q0 -21 -15 -35l-200 -200q-14 -15 -35 -15h-400q-21 0 -35 15zM190 221l171 -171h358l171 171v758l-171 171h-358l-171 -171v-758zM638 1435
q15 -14 15 -35t-14.5 -35.5t-35.5 -14.5t-35 15l-200 200q-15 14 -15 35t14.5 35.5t35.5 14.5t35 -15z" />
    <glyph glyph-name="Oacute" unicode="&#xd3;" horiz-adv-x="1080" 
d="M305 -35l-200 200q-15 14 -15 35v800q0 21 15 35l200 200q14 15 35 15h400q21 0 35 -15l200 -200q15 -14 15 -35v-800q0 -21 -15 -35l-200 -200q-14 -15 -35 -15h-400q-21 0 -35 15zM190 221l171 -171h358l171 171v758l-171 171h-358l-171 -171v-758zM642 1635
q14 15 35 15t35.5 -14.5t14.5 -35.5t-15 -35l-200 -200q-14 -15 -35 -15t-35.5 14.5t-14.5 35.5t15 35z" />
    <glyph glyph-name="Ocircumflex" unicode="&#xd4;" horiz-adv-x="1080" 
d="M305 -35l-200 200q-15 14 -15 35v800q0 21 15 35l200 200q14 15 35 15h400q21 0 35 -15l200 -200q15 -14 15 -35v-800q0 -21 -15 -35l-200 -200q-14 -15 -35 -15h-400q-21 0 -35 15zM190 221l171 -171h358l171 171v758l-171 171h-358l-171 -171v-758zM540 1529l-165 -164
q-14 -15 -35 -15t-35.5 14.5t-14.5 35.5t15 35l200 200q14 15 35 15t35 -15l200 -200q15 -14 15 -35t-14.5 -35.5t-35.5 -14.5t-35 15z" />
    <glyph glyph-name="Otilde" unicode="&#xd5;" horiz-adv-x="1080" 
d="M305 -35l-200 200q-15 14 -15 35v800q0 21 15 35l200 200q14 15 35 15h400q21 0 35 -15l200 -200q15 -14 15 -35v-800q0 -21 -15 -35l-200 -200q-14 -15 -35 -15h-400q-21 0 -35 15zM190 221l171 -171h358l171 171v758l-171 171h-358l-171 -171v-758zM640 1471l165 164
q14 15 35 15t35.5 -14.5t14.5 -35.5t-15 -35l-200 -200q-14 -15 -35 -15t-35 15l-165 164l-165 -164q-14 -15 -35 -15t-35.5 14.5t-14.5 35.5t15 35l200 200q14 15 35 15t35 -15z" />
    <glyph glyph-name="Odieresis" unicode="&#xd6;" horiz-adv-x="1080" 
d="M305 -35l-200 200q-15 14 -15 35v800q0 21 15 35l200 200q14 15 35 15h400q21 0 35 -15l200 -200q15 -14 15 -35v-800q0 -21 -15 -35l-200 -200q-14 -15 -35 -15h-400q-21 0 -35 15zM190 221l171 -171h358l171 171v758l-171 171h-358l-171 -171v-758zM510 1500
q0 -32 -21.5 -51t-48.5 -19t-48.5 19t-21.5 51t21.5 51t48.5 19t48.5 -19t21.5 -51zM710 1500q0 -32 -21.5 -51t-48.5 -19t-48.5 19t-21.5 51t21.5 51t48.5 19t48.5 -19t21.5 -51z" />
    <glyph glyph-name="multiply" unicode="&#xd7;" horiz-adv-x="780" 
d="M655 835q14 15 35 15t35.5 -14.5t14.5 -35.5t-15 -35l-264 -265l264 -265q15 -14 15 -35t-14.5 -35.5t-35.5 -14.5t-35 15l-265 264l-265 -264q-14 -15 -35 -15t-35.5 14.5t-14.5 35.5t15 35l264 265l-264 265q-15 14 -15 35t14.5 35.5t35.5 14.5t35 -15l265 -264z" />
    <glyph glyph-name="Oslash" unicode="&#xd8;" horiz-adv-x="1080" 
d="M305 -35l-200 200q-15 14 -15 35v800q0 21 15 35l200 200q14 15 35 15h400q21 0 35 -15l200 -200q15 -14 15 -35v-800q0 -21 -15 -35l-200 -200q-14 -15 -35 -15h-400q-21 0 -35 15zM190 221l171 -171h358l171 171v758l-171 171h-358l-171 -171v-758zM705 1135l200 200
q14 15 35 15t35.5 -14.5t14.5 -35.5t-15 -35l-185 -186v-179q0 -21 -15 -35l-185 -186v-179q0 -21 -15 -35l-185 -186v-179q0 -21 -15 -35l-200 -200q-14 -15 -35 -15t-35.5 14.5t-14.5 35.5t15 35l185 186v179q0 21 15 35l185 186v179q0 21 15 35l185 186v179q0 21 15 35z
" />
    <glyph glyph-name="Ugrave" unicode="&#xd9;" horiz-adv-x="1080" 
d="M890 221v979q0 21 14.5 35.5t35.5 14.5t35.5 -14.5t14.5 -35.5v-1000q0 -21 -15 -35l-200 -200q-14 -15 -35 -15h-400q-21 0 -35 15l-200 200q-15 14 -15 35v1000q0 21 14.5 35.5t35.5 14.5t35.5 -14.5t14.5 -35.5v-979l171 -171h358zM638 1435q15 -14 15 -35
t-14.5 -35.5t-35.5 -14.5t-35 15l-200 200q-15 14 -15 35t14.5 35.5t35.5 14.5t35 -15z" />
    <glyph glyph-name="Uacute" unicode="&#xda;" horiz-adv-x="1080" 
d="M890 221v979q0 21 14.5 35.5t35.5 14.5t35.5 -14.5t14.5 -35.5v-1000q0 -21 -15 -35l-200 -200q-14 -15 -35 -15h-400q-21 0 -35 15l-200 200q-15 14 -15 35v1000q0 21 14.5 35.5t35.5 14.5t35.5 -14.5t14.5 -35.5v-979l171 -171h358zM642 1635q14 15 35 15t35.5 -14.5
t14.5 -35.5t-15 -35l-200 -200q-14 -15 -35 -15t-35.5 14.5t-14.5 35.5t15 35z" />
    <glyph glyph-name="Ucircumflex" unicode="&#xdb;" horiz-adv-x="1080" 
d="M890 221v979q0 21 14.5 35.5t35.5 14.5t35.5 -14.5t14.5 -35.5v-1000q0 -21 -15 -35l-200 -200q-14 -15 -35 -15h-400q-21 0 -35 15l-200 200q-15 14 -15 35v1000q0 21 14.5 35.5t35.5 14.5t35.5 -14.5t14.5 -35.5v-979l171 -171h358zM540 1529l-165 -164
q-14 -15 -35 -15t-35.5 14.5t-14.5 35.5t15 35l200 200q14 15 35 15t35 -15l200 -200q15 -14 15 -35t-14.5 -35.5t-35.5 -14.5t-35 15z" />
    <glyph glyph-name="Udieresis" unicode="&#xdc;" horiz-adv-x="1080" 
d="M890 221v979q0 21 14.5 35.5t35.5 14.5t35.5 -14.5t14.5 -35.5v-1000q0 -21 -15 -35l-200 -200q-14 -15 -35 -15h-400q-21 0 -35 15l-200 200q-15 14 -15 35v1000q0 21 14.5 35.5t35.5 14.5t35.5 -14.5t14.5 -35.5v-979l171 -171h358zM510 1500q0 -32 -21.5 -51
t-48.5 -19t-48.5 19t-21.5 51t21.5 51t48.5 19t48.5 -19t21.5 -51zM710 1500q0 -32 -21.5 -51t-48.5 -19t-48.5 19t-21.5 51t21.5 51t48.5 19t48.5 -19t21.5 -51z" />
    <glyph glyph-name="Yacute" unicode="&#xdd;" horiz-adv-x="1080" 
d="M890 821v379q0 21 14.5 35.5t35.5 14.5t35.5 -14.5t14.5 -35.5v-400q0 -21 -15 -35l-385 -386v-379q0 -21 -14.5 -35.5t-35.5 -14.5t-35.5 14.5t-14.5 35.5v379l-385 386q-15 14 -15 35v400q0 21 14.5 35.5t35.5 14.5t35.5 -14.5t14.5 -35.5v-379l350 -350zM642 1635
q14 15 35 15t35.5 -14.5t14.5 -35.5t-15 -35l-200 -200q-14 -15 -35 -15t-35.5 14.5t-14.5 35.5t15 35z" />
    <glyph glyph-name="Thorn" unicode="&#xde;" horiz-adv-x="1080" 
d="M740 150h-550v-150q0 -21 -14.5 -35.5t-35.5 -14.5t-35.5 14.5t-14.5 35.5v1200q0 21 14.5 35.5t35.5 14.5t35.5 -14.5t14.5 -35.5v-150h550q21 0 35 -15l200 -200q15 -14 15 -35v-400q0 -21 -15 -35l-200 -200q-14 -15 -35 -15zM719 950h-529v-700h529l171 171v358z" />
    <glyph glyph-name="germandbls" unicode="&#xdf;" 
d="M561 750l-150 -150l364 -365q15 -14 15 -35t-15 -35l-200 -200q-14 -15 -35 -15t-35 15l-200 200q-15 14 -15 35t14.5 35.5t35.5 14.5t35 -15l165 -164l129 129l-364 365q-15 14 -15 35t15 35l200 200q14 15 35 15h50v129l-171 171h-58l-171 -171v-979q0 -21 -14.5 -35.5
t-35.5 -14.5t-35.5 14.5t-14.5 35.5v1000q0 21 15 35l200 200q14 15 35 15h100q21 0 35 -15l200 -200q15 -14 15 -35v-200q0 -21 -14.5 -35.5t-35.5 -14.5h-79z" />
    <glyph glyph-name="agrave" unicode="&#xe0;" 
d="M690 221v358l-171 171h-158l-171 -171v-358l171 -171h158zM790 0q0 -21 -14.5 -35.5t-35.5 -14.5t-35.5 14.5t-14.5 35.5v79l-115 -114q-14 -15 -35 -15h-200q-21 0 -35 15l-200 200q-15 14 -15 35v400q0 21 15 35l200 200q14 15 35 15h200q21 0 35 -15l200 -200
q15 -14 15 -35v-600zM538 1035q15 -14 15 -35t-14.5 -35.5t-35.5 -14.5t-35 15l-200 200q-15 14 -15 35t14.5 35.5t35.5 14.5t35 -15z" />
    <glyph glyph-name="aacute" unicode="&#xe1;" 
d="M690 221v358l-171 171h-158l-171 -171v-358l171 -171h158zM790 0q0 -21 -14.5 -35.5t-35.5 -14.5t-35.5 14.5t-14.5 35.5v79l-115 -114q-14 -15 -35 -15h-200q-21 0 -35 15l-200 200q-15 14 -15 35v400q0 21 15 35l200 200q14 15 35 15h200q21 0 35 -15l200 -200
q15 -14 15 -35v-600zM542 1235q14 15 35 15t35.5 -14.5t14.5 -35.5t-15 -35l-200 -200q-14 -15 -35 -15t-35.5 14.5t-14.5 35.5t15 35z" />
    <glyph glyph-name="acircumflex" unicode="&#xe2;" 
d="M690 221v358l-171 171h-158l-171 -171v-358l171 -171h158zM790 0q0 -21 -14.5 -35.5t-35.5 -14.5t-35.5 14.5t-14.5 35.5v79l-115 -114q-14 -15 -35 -15h-200q-21 0 -35 15l-200 200q-15 14 -15 35v400q0 21 15 35l200 200q14 15 35 15h200q21 0 35 -15l200 -200
q15 -14 15 -35v-600zM440 1129l-165 -164q-14 -15 -35 -15t-35.5 14.5t-14.5 35.5t15 35l200 200q14 15 35 15t35 -15l200 -200q15 -14 15 -35t-14.5 -35.5t-35.5 -14.5t-35 15z" />
    <glyph glyph-name="atilde" unicode="&#xe3;" 
d="M690 221v358l-171 171h-158l-171 -171v-358l171 -171h158zM790 0q0 -21 -14.5 -35.5t-35.5 -14.5t-35.5 14.5t-14.5 35.5v79l-115 -114q-14 -15 -35 -15h-200q-21 0 -35 15l-200 200q-15 14 -15 35v400q0 21 15 35l200 200q14 15 35 15h200q21 0 35 -15l200 -200
q15 -14 15 -35v-600zM540 1071l165 164q14 15 35 15t35.5 -14.5t14.5 -35.5t-15 -35l-200 -200q-14 -15 -35 -15t-35 15l-165 164l-165 -164q-14 -15 -35 -15t-35.5 14.5t-14.5 35.5t15 35l200 200q14 15 35 15t35 -15z" />
    <glyph glyph-name="adieresis" unicode="&#xe4;" 
d="M690 221v358l-171 171h-158l-171 -171v-358l171 -171h158zM790 0q0 -21 -14.5 -35.5t-35.5 -14.5t-35.5 14.5t-14.5 35.5v79l-115 -114q-14 -15 -35 -15h-200q-21 0 -35 15l-200 200q-15 14 -15 35v400q0 21 15 35l200 200q14 15 35 15h200q21 0 35 -15l200 -200
q15 -14 15 -35v-600zM410 1100q0 -32 -21.5 -51t-48.5 -19t-48.5 19t-21.5 51t21.5 51t48.5 19t48.5 -19t21.5 -51zM610 1100q0 -32 -21.5 -51t-48.5 -19t-48.5 19t-21.5 51t21.5 51t48.5 19t48.5 -19t21.5 -51z" />
    <glyph glyph-name="aring" unicode="&#xe5;" 
d="M690 221v358l-171 171h-158l-171 -171v-358l171 -171h158zM790 0q0 -21 -14.5 -35.5t-35.5 -14.5t-35.5 14.5t-14.5 35.5v79l-115 -114q-14 -15 -35 -15h-200q-21 0 -35 15l-200 200q-15 14 -15 35v400q0 21 15 35l200 200q14 15 35 15h200q21 0 35 -15l200 -200
q15 -14 15 -35v-600zM340 1250h200q21 0 35.5 -14.5t14.5 -35.5v-200q0 -21 -14.5 -35.5t-35.5 -14.5h-200q-21 0 -35.5 14.5t-14.5 35.5v200q0 21 14.5 35.5t35.5 14.5zM490 1150h-100v-100h100v100z" />
    <glyph glyph-name="ae" unicode="&#xe6;" horiz-adv-x="1480" 
d="M690 221v358l-171 171h-158l-171 -171v-358l171 -171h158zM790 0q0 -21 -14.5 -35.5t-35.5 -14.5t-35.5 14.5t-14.5 35.5v79l-115 -114q-14 -15 -35 -15h-200q-21 0 -35 15l-200 200q-15 14 -15 35v400q0 21 15 35l200 200q14 15 35 15h200q21 0 35 -15l200 -200
q15 -14 15 -35v-600zM1390 600v-200q0 -21 -15 -35q-14 -15 -35 -15h-550v-129l171 -171h158l186 185q14 15 35 15t35.5 -14.5t14.5 -35.5t-15 -35l-200 -200q-14 -15 -35 -15h-200q-21 0 -35 15l-200 200q-15 14 -15 35v400q0 21 15 35l200 200q14 15 35 15h200
q21 0 35 -15l200 -200q15 -14 15 -35zM1290 450v129l-171 171h-158l-171 -171v-129h500z" />
    <glyph glyph-name="ccedilla" unicode="&#xe7;" 
d="M105 635l200 200q14 15 35 15h200q21 0 35 -15l200 -200q15 -14 15 -35t-14.5 -35.5t-35.5 -14.5t-35 15l-186 185h-158l-171 -171v-358l171 -171h158l186 185q14 15 35 15t35.5 -14.5t14.5 -35.5t-15 -35l-200 -200q-14 -15 -35 -15h-200q-21 0 -35 15l-200 200
q-15 14 -15 35v400q0 21 15 35zM575 -235l-200 -200q-14 -15 -35 -15t-35.5 14.5t-14.5 35.5t15 35l164 165l-164 165q-15 14 -15 35t14.5 35.5t35.5 14.5t35 -15q215 -214 215 -235t-15 -35z" />
    <glyph glyph-name="egrave" unicode="&#xe8;" 
d="M790 600v-200q0 -21 -15 -35q-14 -15 -35 -15h-550v-129l171 -171h158l186 185q14 15 35 15t35.5 -14.5t14.5 -35.5t-15 -35l-200 -200q-14 -15 -35 -15h-200q-21 0 -35 15l-200 200q-15 14 -15 35v400q0 21 15 35l200 200q14 15 35 15h200q21 0 35 -15l200 -200
q15 -14 15 -35zM690 450v129l-171 171h-158l-171 -171v-129h500zM538 1035q15 -14 15 -35t-14.5 -35.5t-35.5 -14.5t-35 15l-200 200q-15 14 -15 35t14.5 35.5t35.5 14.5t35 -15z" />
    <glyph glyph-name="eacute" unicode="&#xe9;" 
d="M790 600v-200q0 -21 -15 -35q-14 -15 -35 -15h-550v-129l171 -171h158l186 185q14 15 35 15t35.5 -14.5t14.5 -35.5t-15 -35l-200 -200q-14 -15 -35 -15h-200q-21 0 -35 15l-200 200q-15 14 -15 35v400q0 21 15 35l200 200q14 15 35 15h200q21 0 35 -15l200 -200
q15 -14 15 -35zM690 450v129l-171 171h-158l-171 -171v-129h500zM542 1235q14 15 35 15t35.5 -14.5t14.5 -35.5t-15 -35l-200 -200q-14 -15 -35 -15t-35.5 14.5t-14.5 35.5t15 35z" />
    <glyph glyph-name="ecircumflex" unicode="&#xea;" 
d="M790 600v-200q0 -21 -15 -35q-14 -15 -35 -15h-550v-129l171 -171h158l186 185q14 15 35 15t35.5 -14.5t14.5 -35.5t-15 -35l-200 -200q-14 -15 -35 -15h-200q-21 0 -35 15l-200 200q-15 14 -15 35v400q0 21 15 35l200 200q14 15 35 15h200q21 0 35 -15l200 -200
q15 -14 15 -35zM690 450v129l-171 171h-158l-171 -171v-129h500zM440 1129l-165 -164q-14 -15 -35 -15t-35.5 14.5t-14.5 35.5t15 35l200 200q14 15 35 15t35 -15l200 -200q15 -14 15 -35t-14.5 -35.5t-35.5 -14.5t-35 15z" />
    <glyph glyph-name="edieresis" unicode="&#xeb;" 
d="M790 600v-200q0 -21 -15 -35q-14 -15 -35 -15h-550v-129l171 -171h158l186 185q14 15 35 15t35.5 -14.5t14.5 -35.5t-15 -35l-200 -200q-14 -15 -35 -15h-200q-21 0 -35 15l-200 200q-15 14 -15 35v400q0 21 15 35l200 200q14 15 35 15h200q21 0 35 -15l200 -200
q15 -14 15 -35zM690 450v129l-171 171h-158l-171 -171v-129h500zM410 1100q0 -32 -21.5 -51t-48.5 -19t-48.5 19t-21.5 51t21.5 51t48.5 19t48.5 -19t21.5 -51zM610 1100q0 -32 -21.5 -51t-48.5 -19t-48.5 19t-21.5 51t21.5 51t48.5 19t48.5 -19t21.5 -51z" />
    <glyph glyph-name="igrave" unicode="&#xec;" horiz-adv-x="280" 
d="M190 0q0 -21 -14.5 -35.5t-35.5 -14.5t-35.5 14.5t-14.5 35.5v800q0 21 14.5 35.5t35.5 14.5t35.5 -14.5t14.5 -35.5v-800zM238 1035q15 -14 15 -35t-14.5 -35.5t-35.5 -14.5t-35 15l-200 200q-15 14 -15 35t14.5 35.5t35.5 14.5t35 -15z" />
    <glyph glyph-name="iacute" unicode="&#xed;" horiz-adv-x="280" 
d="M190 0q0 -21 -14.5 -35.5t-35.5 -14.5t-35.5 14.5t-14.5 35.5v800q0 21 14.5 35.5t35.5 14.5t35.5 -14.5t14.5 -35.5v-800zM242 1235q14 15 35 15t35.5 -14.5t14.5 -35.5t-15 -35l-200 -200q-14 -15 -35 -15t-35.5 14.5t-14.5 35.5t15 35z" />
    <glyph glyph-name="icircumflex" unicode="&#xee;" horiz-adv-x="280" 
d="M190 0q0 -21 -14.5 -35.5t-35.5 -14.5t-35.5 14.5t-14.5 35.5v800q0 21 14.5 35.5t35.5 14.5t35.5 -14.5t14.5 -35.5v-800zM140 1129l-165 -164q-14 -15 -35 -15t-35.5 14.5t-14.5 35.5t15 35l200 200q14 15 35 15t35 -15l200 -200q15 -14 15 -35t-14.5 -35.5
t-35.5 -14.5t-35 15z" />
    <glyph glyph-name="idieresis" unicode="&#xef;" horiz-adv-x="280" 
d="M190 0q0 -21 -14.5 -35.5t-35.5 -14.5t-35.5 14.5t-14.5 35.5v800q0 21 14.5 35.5t35.5 14.5t35.5 -14.5t14.5 -35.5v-800zM110 1100q0 -32 -21.5 -51t-48.5 -19t-48.5 19t-21.5 51t21.5 51t48.5 19t48.5 -19t21.5 -51zM310 1100q0 -32 -21.5 -51t-48.5 -19t-48.5 19
t-21.5 51t21.5 51t48.5 19t48.5 -19t21.5 -51z" />
    <glyph glyph-name="eth" unicode="&#xf0;" 
d="M361 50h158l171 171v358l-171 171h-158l-171 -171v-358zM361 1050l414 -415q15 -14 15 -35v-400q0 -21 -15 -35l-200 -200q-14 -15 -35 -15h-200q-21 0 -35 15l-200 200q-15 14 -15 35v400q0 21 15 35l200 200q14 15 35 15h79l-129 129l-115 -114q-14 -15 -35 -15
t-35.5 14.5t-14.5 35.5t15 35l114 115l-114 115q-15 14 -15 35t14.5 35.5t35.5 14.5t35 -15l115 -114l115 114q14 15 35 15t35.5 -14.5t14.5 -35.5t-15 -35z" />
    <glyph glyph-name="ntilde" unicode="&#xf1;" 
d="M190 579v-579q0 -21 -14.5 -35.5t-35.5 -14.5t-35.5 14.5t-14.5 35.5v800q0 21 14.5 35.5t35.5 14.5t35.5 -14.5t14.5 -35.5v-79l115 114q14 15 35 15h200q21 0 35 -15l200 -200q15 -14 15 -35v-600q0 -21 -14.5 -35.5t-35.5 -14.5t-35.5 14.5t-14.5 35.5v579l-171 171
h-158zM540 1071l165 164q14 15 35 15t35.5 -14.5t14.5 -35.5t-15 -35l-200 -200q-14 -15 -35 -15t-35 15l-165 164l-165 -164q-14 -15 -35 -15t-35.5 14.5t-14.5 35.5t15 35l200 200q14 15 35 15t35 -15z" />
    <glyph glyph-name="ograve" unicode="&#xf2;" 
d="M540 -50h-200q-21 0 -35 15l-200 200q-15 14 -15 35v400q0 21 15 35l200 200q14 15 35 15h200q21 0 35 -15l200 -200q15 -14 15 -35v-400q0 -21 -15 -35l-200 -200q-14 -15 -35 -15zM361 50h158l171 171v358l-171 171h-158l-171 -171v-358zM538 1035q15 -14 15 -35
t-14.5 -35.5t-35.5 -14.5t-35 15l-200 200q-15 14 -15 35t14.5 35.5t35.5 14.5t35 -15z" />
    <glyph glyph-name="oacute" unicode="&#xf3;" 
d="M540 -50h-200q-21 0 -35 15l-200 200q-15 14 -15 35v400q0 21 15 35l200 200q14 15 35 15h200q21 0 35 -15l200 -200q15 -14 15 -35v-400q0 -21 -15 -35l-200 -200q-14 -15 -35 -15zM361 50h158l171 171v358l-171 171h-158l-171 -171v-358zM542 1235q14 15 35 15
t35.5 -14.5t14.5 -35.5t-15 -35l-200 -200q-14 -15 -35 -15t-35.5 14.5t-14.5 35.5t15 35z" />
    <glyph glyph-name="ocircumflex" unicode="&#xf4;" 
d="M540 -50h-200q-21 0 -35 15l-200 200q-15 14 -15 35v400q0 21 15 35l200 200q14 15 35 15h200q21 0 35 -15l200 -200q15 -14 15 -35v-400q0 -21 -15 -35l-200 -200q-14 -15 -35 -15zM361 50h158l171 171v358l-171 171h-158l-171 -171v-358zM440 1129l-165 -164
q-14 -15 -35 -15t-35.5 14.5t-14.5 35.5t15 35l200 200q14 15 35 15t35 -15l200 -200q15 -14 15 -35t-14.5 -35.5t-35.5 -14.5t-35 15z" />
    <glyph glyph-name="otilde" unicode="&#xf5;" 
d="M540 -50h-200q-21 0 -35 15l-200 200q-15 14 -15 35v400q0 21 15 35l200 200q14 15 35 15h200q21 0 35 -15l200 -200q15 -14 15 -35v-400q0 -21 -15 -35l-200 -200q-14 -15 -35 -15zM361 50h158l171 171v358l-171 171h-158l-171 -171v-358zM540 1071l165 164q14 15 35 15
t35.5 -14.5t14.5 -35.5t-15 -35l-200 -200q-14 -15 -35 -15t-35 15l-165 164l-165 -164q-14 -15 -35 -15t-35.5 14.5t-14.5 35.5t15 35l200 200q14 15 35 15t35 -15z" />
    <glyph glyph-name="odieresis" unicode="&#xf6;" 
d="M540 -50h-200q-21 0 -35 15l-200 200q-15 14 -15 35v400q0 21 15 35l200 200q14 15 35 15h200q21 0 35 -15l200 -200q15 -14 15 -35v-400q0 -21 -15 -35l-200 -200q-14 -15 -35 -15zM361 50h158l171 171v358l-171 171h-158l-171 -171v-358zM410 1100q0 -32 -21.5 -51
t-48.5 -19t-48.5 19t-21.5 51t21.5 51t48.5 19t48.5 -19t21.5 -51zM610 1100q0 -32 -21.5 -51t-48.5 -19t-48.5 19t-21.5 51t21.5 51t48.5 19t48.5 -19t21.5 -51z" />
    <glyph glyph-name="divide" unicode="&#xf7;" horiz-adv-x="780" 
d="M90 450q-21 0 -35.5 14.5t-14.5 35.5t14.5 35.5t35.5 14.5h600q21 0 35.5 -14.5t14.5 -35.5t-14.5 -35.5t-35.5 -14.5h-600zM438.5 351q21.5 -19 21.5 -51t-21.5 -51t-48.5 -19t-48.5 19t-21.5 51t21.5 51t48.5 19t48.5 -19zM438.5 751q21.5 -19 21.5 -51t-21.5 -51
t-48.5 -19t-48.5 19t-21.5 51t21.5 51t48.5 19t48.5 -19z" />
    <glyph glyph-name="oslash" unicode="&#xf8;" 
d="M375 35q15 -14 15 -35t-14.5 -35.5t-35.5 -14.5t-35 15l-200 200q-15 14 -15 35t14.5 35.5t35.5 14.5t35 -15zM340 -50q-21 0 -35.5 14.5t-14.5 35.5t14.5 35.5t35.5 14.5h200q21 0 35.5 -14.5t14.5 -35.5t-14.5 -35.5t-35.5 -14.5h-200zM705 235q14 15 35 15t35.5 -14.5
t14.5 -35.5t-15 -35l-200 -200q-14 -15 -35 -15t-35.5 14.5t-14.5 35.5t15 35zM775 635q15 -14 15 -35t-14.5 -35.5t-35.5 -14.5t-35 15l-200 200q-15 14 -15 35t14.5 35.5t35.5 14.5t35 -15zM340 750q-21 0 -35.5 14.5t-14.5 35.5t14.5 35.5t35.5 14.5h200q21 0 35.5 -14.5
t14.5 -35.5t-14.5 -35.5t-35.5 -14.5h-200zM305 835q14 15 35 15t35.5 -14.5t14.5 -35.5t-15 -35l-200 -200q-14 -15 -35 -15t-35.5 14.5t-14.5 35.5t15 35zM705 935q14 15 35 15t35.5 -14.5t14.5 -35.5t-15 -35l-200 -200q-14 -15 -35 -15t-35.5 14.5t-14.5 35.5t15 35z
M490 700q0 21 14.5 35.5t35.5 14.5t35.5 -14.5t14.5 -35.5v-200q0 -21 -14.5 -35.5t-35.5 -14.5t-35.5 14.5t-14.5 35.5v200zM290 300q0 21 14.5 35.5t35.5 14.5t35.5 -14.5t14.5 -35.5v-200q0 -21 -14.5 -35.5t-35.5 -14.5t-35.5 14.5t-14.5 35.5v200zM505 535q14 15 35 15
t35.5 -14.5t14.5 -35.5t-15 -35l-200 -200q-14 -15 -35 -15t-35.5 14.5t-14.5 35.5t15 35zM305 135q14 15 35 15t35.5 -14.5t14.5 -35.5t-15 -35l-200 -200q-14 -15 -35 -15t-35.5 14.5t-14.5 35.5t15 35zM190 200q0 -21 -14.5 -35.5t-35.5 -14.5t-35.5 14.5t-14.5 35.5v400
q0 21 14.5 35.5t35.5 14.5t35.5 -14.5t14.5 -35.5v-400zM790 200q0 -21 -14.5 -35.5t-35.5 -14.5t-35.5 14.5t-14.5 35.5v400q0 21 14.5 35.5t35.5 14.5t35.5 -14.5t14.5 -35.5v-400z" />
    <glyph glyph-name="ugrave" unicode="&#xf9;" 
d="M90 200v600q0 21 14.5 35.5t35.5 14.5t35.5 -14.5t14.5 -35.5v-579l171 -171h158l171 171v579q0 21 14.5 35.5t35.5 14.5t35.5 -14.5t14.5 -35.5v-800q0 -21 -14.5 -35.5t-35.5 -14.5t-35.5 14.5t-14.5 35.5v79l-115 -114q-14 -15 -35 -15h-200q-21 0 -35 15l-200 200
q-15 14 -15 35zM538 1035q15 -14 15 -35t-14.5 -35.5t-35.5 -14.5t-35 15l-200 200q-15 14 -15 35t14.5 35.5t35.5 14.5t35 -15z" />
    <glyph glyph-name="uacute" unicode="&#xfa;" 
d="M90 200v600q0 21 14.5 35.5t35.5 14.5t35.5 -14.5t14.5 -35.5v-579l171 -171h158l171 171v579q0 21 14.5 35.5t35.5 14.5t35.5 -14.5t14.5 -35.5v-800q0 -21 -14.5 -35.5t-35.5 -14.5t-35.5 14.5t-14.5 35.5v79l-115 -114q-14 -15 -35 -15h-200q-21 0 -35 15l-200 200
q-15 14 -15 35zM542 1235q14 15 35 15t35.5 -14.5t14.5 -35.5t-15 -35l-200 -200q-14 -15 -35 -15t-35.5 14.5t-14.5 35.5t15 35z" />
    <glyph glyph-name="ucircumflex" unicode="&#xfb;" 
d="M90 200v600q0 21 14.5 35.5t35.5 14.5t35.5 -14.5t14.5 -35.5v-579l171 -171h158l171 171v579q0 21 14.5 35.5t35.5 14.5t35.5 -14.5t14.5 -35.5v-800q0 -21 -14.5 -35.5t-35.5 -14.5t-35.5 14.5t-14.5 35.5v79l-115 -114q-14 -15 -35 -15h-200q-21 0 -35 15l-200 200
q-15 14 -15 35zM440 1129l-165 -164q-14 -15 -35 -15t-35.5 14.5t-14.5 35.5t15 35l200 200q14 15 35 15t35 -15l200 -200q15 -14 15 -35t-14.5 -35.5t-35.5 -14.5t-35 15z" />
    <glyph glyph-name="udieresis" unicode="&#xfc;" 
d="M90 200v600q0 21 14.5 35.5t35.5 14.5t35.5 -14.5t14.5 -35.5v-579l171 -171h158l171 171v579q0 21 14.5 35.5t35.5 14.5t35.5 -14.5t14.5 -35.5v-800q0 -21 -14.5 -35.5t-35.5 -14.5t-35.5 14.5t-14.5 35.5v79l-115 -114q-14 -15 -35 -15h-200q-21 0 -35 15l-200 200
q-15 14 -15 35zM410 1100q0 -32 -21.5 -51t-48.5 -19t-48.5 19t-21.5 51t21.5 51t48.5 19t48.5 -19t21.5 -51zM610 1100q0 -32 -21.5 -51t-48.5 -19t-48.5 19t-21.5 51t21.5 51t48.5 19t48.5 -19t21.5 -51z" />
    <glyph glyph-name="yacute" unicode="&#xfd;" 
d="M775 -235l-200 -200q-14 -15 -35 -15h-200q-21 0 -35 15l-200 200q-15 14 -15 35t14.5 35.5t35.5 14.5t35 -15l186 -185h158l171 171v258l-115 -114q-14 -15 -35 -15h-200q-21 0 -35 15l-200 200q-15 14 -15 35v600q0 21 14.5 35.5t35.5 14.5t35.5 -14.5t14.5 -35.5v-579
l171 -171h158l171 171v579q0 21 14.5 35.5t35.5 14.5t35.5 -14.5t14.5 -35.5v-1000q0 -21 -15 -35zM542 1235q14 15 35 15t35.5 -14.5t14.5 -35.5t-15 -35l-200 -200q-14 -15 -35 -15t-35.5 14.5t-14.5 35.5t15 35z" />
    <glyph glyph-name="thorn" unicode="&#xfe;" 
d="M190 721l115 114q14 15 35 15h200q21 0 35 -15l200 -200q15 -14 15 -35v-400q0 -21 -15 -35l-200 -200q-14 -15 -35 -15h-200q-21 0 -35 15l-115 114v-479q0 -21 -14.5 -35.5t-35.5 -14.5t-35.5 14.5t-14.5 35.5v1600q0 21 14.5 35.5t35.5 14.5t35.5 -14.5t14.5 -35.5
v-479zM190 221l171 -171h158l171 171v358l-171 171h-158l-171 -171v-358z" />
    <glyph glyph-name="ydieresis" unicode="&#xff;" 
d="M775 -235l-200 -200q-14 -15 -35 -15h-200q-21 0 -35 15l-200 200q-15 14 -15 35t14.5 35.5t35.5 14.5t35 -15l186 -185h158l171 171v258l-115 -114q-14 -15 -35 -15h-200q-21 0 -35 15l-200 200q-15 14 -15 35v600q0 21 14.5 35.5t35.5 14.5t35.5 -14.5t14.5 -35.5v-579
l171 -171h158l171 171v579q0 21 14.5 35.5t35.5 14.5t35.5 -14.5t14.5 -35.5v-1000q0 -21 -15 -35zM410 1100q0 -32 -21.5 -51t-48.5 -19t-48.5 19t-21.5 51t21.5 51t48.5 19t48.5 -19t21.5 -51zM610 1100q0 -32 -21.5 -51t-48.5 -19t-48.5 19t-21.5 51t21.5 51t48.5 19
t48.5 -19t21.5 -51z" />
    <glyph glyph-name="dotlessi" unicode="&#x131;" horiz-adv-x="280" 
d="M190 0q0 -21 -14.5 -35.5t-35.5 -14.5t-35.5 14.5t-14.5 35.5v800q0 21 14.5 35.5t35.5 14.5t35.5 -14.5t14.5 -35.5v-800z" />
    <glyph glyph-name="circumflex" unicode="&#x2c6;" horiz-adv-x="480" 
d="M240 1129l-165 -164q-14 -15 -35 -15t-35.5 14.5t-14.5 35.5t15 35l200 200q14 15 35 15t35 -15l200 -200q15 -14 15 -35t-14.5 -35.5t-35.5 -14.5t-35 15z" />
    <glyph glyph-name="caron" unicode="&#x2c7;" horiz-adv-x="480" 
d="M205 965l-200 200q-15 14 -15 35t14.5 35.5t35.5 14.5t35 -15l165 -164l165 164q14 15 35 15t35.5 -14.5t14.5 -35.5t-15 -35l-200 -200q-14 -15 -35 -15t-35 15z" />
    <glyph glyph-name="uni02C9" unicode="&#x2c9;" horiz-adv-x="680" 
d="M140 1050q-21 0 -35.5 14.5t-14.5 35.5t14.5 35.5t35.5 14.5h400q21 0 35.5 -14.5t14.5 -35.5t-14.5 -35.5t-35.5 -14.5h-400z" />
    <glyph glyph-name="breve" unicode="&#x2d8;" horiz-adv-x="480" 
d="M-10 1000v200q0 21 14.5 35.5t35.5 14.5t35.5 -14.5t14.5 -35.5v-150h300v150q0 21 14.5 35.5t35.5 14.5t35.5 -14.5t14.5 -35.5v-200q0 -21 -14.5 -35.5t-35.5 -14.5h-400q-21 0 -35.5 14.5t-14.5 35.5z" />
    <glyph glyph-name="dotaccent" unicode="&#x2d9;" horiz-adv-x="280" 
d="M188.5 1151q21.5 -19 21.5 -51t-21.5 -51t-48.5 -19t-48.5 19t-21.5 51t21.5 51t48.5 19t48.5 -19z" />
    <glyph glyph-name="ring" unicode="&#x2da;" horiz-adv-x="480" 
d="M140 1250h200q21 0 35.5 -14.5t14.5 -35.5v-200q0 -21 -14.5 -35.5t-35.5 -14.5h-200q-21 0 -35.5 14.5t-14.5 35.5v200q0 21 14.5 35.5t35.5 14.5zM290 1150h-100v-100h100v100z" />
    <glyph glyph-name="ogonek" unicode="&#x2db;" horiz-adv-x="480" 
d="M90 -200q0 21 215 235q14 15 35 15t35.5 -14.5t14.5 -35.5t-15 -35l-164 -165l164 -165q15 -14 15 -35t-14.5 -35.5t-35.5 -14.5t-35 15l-200 200q-15 14 -15 35z" />
    <glyph glyph-name="tilde" unicode="&#x2dc;" horiz-adv-x="680" 
d="M440 1071l165 164q14 15 35 15t35.5 -14.5t14.5 -35.5t-15 -35l-200 -200q-14 -15 -35 -15t-35 15l-165 164l-165 -164q-14 -15 -35 -15t-35.5 14.5t-14.5 35.5t15 35l200 200q14 15 35 15t35 -15z" />
    <glyph glyph-name="hungarumlaut" unicode="&#x2dd;" horiz-adv-x="680" 
d="M305 1235q14 15 35 15t35.5 -14.5t14.5 -35.5t-15 -35l-200 -200q-14 -15 -35 -15t-35.5 14.5t-14.5 35.5t15 35zM505 1235q14 15 35 15t35.5 -14.5t14.5 -35.5t-15 -35l-200 -200q-14 -15 -35 -15t-35.5 14.5t-14.5 35.5t15 35z" />
    <glyph glyph-name="endash" unicode="&#x2013;" horiz-adv-x="980" 
d="M90 450q-21 0 -35.5 14.5t-14.5 35.5t14.5 35.5t35.5 14.5h800q21 0 35.5 -14.5t14.5 -35.5t-14.5 -35.5t-35.5 -14.5h-800z" />
    <glyph glyph-name="emdash" unicode="&#x2014;" horiz-adv-x="1180" 
d="M90 450q-21 0 -35.5 14.5t-14.5 35.5t14.5 35.5t35.5 14.5h1000q21 0 35.5 -14.5t14.5 -35.5t-14.5 -35.5t-35.5 -14.5h-1000z" />
    <glyph glyph-name="quoteleft" unicode="&#x2018;" horiz-adv-x="480" 
d="M305 1235q14 15 35 15t35.5 -14.5t14.5 -35.5t-15 -35l-200 -200q-14 -15 -35 -15t-35.5 14.5t-14.5 35.5t15 35z" />
    <glyph glyph-name="quoteright" unicode="&#x2019;" horiz-adv-x="480" 
d="M305 1235q14 15 35 15t35.5 -14.5t14.5 -35.5t-15 -35l-200 -200q-14 -15 -35 -15t-35.5 14.5t-14.5 35.5t15 35z" />
    <glyph glyph-name="quotesinglbase" unicode="&#x201a;" horiz-adv-x="480" 
d="M305 135q14 15 35 15t35.5 -14.5t14.5 -35.5t-15 -35l-200 -200q-14 -15 -35 -15t-35.5 14.5t-14.5 35.5t15 35z" />
    <glyph glyph-name="quotedblleft" unicode="&#x201c;" horiz-adv-x="680" 
d="M305 1235q14 15 35 15t35.5 -14.5t14.5 -35.5t-15 -35l-200 -200q-14 -15 -35 -15t-35.5 14.5t-14.5 35.5t15 35zM505 1235q14 15 35 15t35.5 -14.5t14.5 -35.5t-15 -35l-200 -200q-14 -15 -35 -15t-35.5 14.5t-14.5 35.5t15 35z" />
    <glyph glyph-name="quotedblright" unicode="&#x201d;" horiz-adv-x="680" 
d="M305 1235q14 15 35 15t35.5 -14.5t14.5 -35.5t-15 -35l-200 -200q-14 -15 -35 -15t-35.5 14.5t-14.5 35.5t15 35zM505 1235q14 15 35 15t35.5 -14.5t14.5 -35.5t-15 -35l-200 -200q-14 -15 -35 -15t-35.5 14.5t-14.5 35.5t15 35z" />
    <glyph glyph-name="quotedblbase" unicode="&#x201e;" horiz-adv-x="680" 
d="M305 135q14 15 35 15t35.5 -14.5t14.5 -35.5t-15 -35l-200 -200q-14 -15 -35 -15t-35.5 14.5t-14.5 35.5t15 35zM505 135q14 15 35 15t35.5 -14.5t14.5 -35.5t-15 -35l-200 -200q-14 -15 -35 -15t-35.5 14.5t-14.5 35.5t15 35z" />
    <glyph glyph-name="dagger" unicode="&#x2020;" horiz-adv-x="780" 
d="M440 0q0 -21 -14.5 -35.5t-35.5 -14.5t-35.5 14.5t-14.5 35.5v750h-250q-21 0 -35.5 14.5t-14.5 35.5t14.5 35.5t35.5 14.5h250v250q0 21 14.5 35.5t35.5 14.5t35.5 -14.5t14.5 -35.5v-250h250q21 0 35.5 -14.5t14.5 -35.5t-14.5 -35.5t-35.5 -14.5h-250v-750z" />
    <glyph glyph-name="daggerdbl" unicode="&#x2021;" horiz-adv-x="780" 
d="M440 350h250q21 0 35.5 -14.5t14.5 -35.5t-14.5 -35.5t-35.5 -14.5h-250v-250q0 -21 -14.5 -35.5t-35.5 -14.5t-35.5 14.5t-14.5 35.5v250h-250q-21 0 -35.5 14.5t-14.5 35.5t14.5 35.5t35.5 14.5h250v400h-250q-21 0 -35.5 14.5t-14.5 35.5t14.5 35.5t35.5 14.5h250v250
q0 21 14.5 35.5t35.5 14.5t35.5 -14.5t14.5 -35.5v-250h250q21 0 35.5 -14.5t14.5 -35.5t-14.5 -35.5t-35.5 -14.5h-250v-400z" />
    <glyph glyph-name="bullet" unicode="&#x2022;" 
d="M340 200q-21 0 -35 15l-150 150q-15 14 -15 35v200q0 21 15 35l150 150q14 15 35 15h200q21 0 35 -15l150 -150q15 -14 15 -35v-200q0 -21 -15 -35l-150 -150q-14 -15 -35 -15h-200z" />
    <glyph glyph-name="ellipsis" unicode="&#x2026;" horiz-adv-x="680" 
d="M188.5 51q21.5 -19 21.5 -51t-21.5 -51t-48.5 -19t-48.5 19t-21.5 51t21.5 51t48.5 19t48.5 -19zM388.5 51q21.5 -19 21.5 -51t-21.5 -51t-48.5 -19t-48.5 19t-21.5 51t21.5 51t48.5 19t48.5 -19zM588.5 51q21.5 -19 21.5 -51t-21.5 -51t-48.5 -19t-48.5 19t-21.5 51
t21.5 51t48.5 19t48.5 -19z" />
    <glyph glyph-name="guilsinglleft" unicode="&#x2039;" horiz-adv-x="380" 
d="M325 335q15 -14 15 -35t-14.5 -35.5t-35.5 -14.5t-35 15l-200 200q-15 14 -15 35t15 35l200 200q14 15 35 15t35.5 -14.5t14.5 -35.5t-15 -35l-164 -165z" />
    <glyph glyph-name="guilsinglright" unicode="&#x203a;" horiz-adv-x="380" 
d="M219 500l-164 165q-15 14 -15 35t14.5 35.5t35.5 14.5t35 -15l200 -200q15 -14 15 -35t-15 -35l-200 -200q-14 -15 -35 -15t-35.5 14.5t-14.5 35.5t15 35z" />
    <glyph glyph-name="fraction" unicode="&#x2044;" 
d="M605 1135l200 200q14 15 35 15t35.5 -14.5t14.5 -35.5t-15 -35l-185 -186v-179q0 -21 -15 -35l-185 -186v-179q0 -21 -15 -35l-185 -186v-179q0 -21 -15 -35l-200 -200q-14 -15 -35 -15t-35.5 14.5t-14.5 35.5t15 35l185 186v179q0 21 15 35l185 186v179q0 21 15 35
l185 186v179q0 21 15 35z" />
    <glyph glyph-name="fraction" unicode="&#x2215;" 
d="M605 1135l200 200q14 15 35 15t35.5 -14.5t14.5 -35.5t-15 -35l-185 -186v-179q0 -21 -15 -35l-185 -186v-179q0 -21 -15 -35l-185 -186v-179q0 -21 -15 -35l-200 -200q-14 -15 -35 -15t-35.5 14.5t-14.5 35.5t15 35l185 186v179q0 21 15 35l185 186v179q0 21 15 35
l185 186v179q0 21 15 35z" />
    <glyph glyph-name="Euro" unicode="&#x20ac;" horiz-adv-x="1080" 
d="M890 221v179q0 21 14.5 35.5t35.5 14.5t35.5 -14.5t14.5 -35.5v-200q0 -21 -215 -235q-14 -15 -35 -15h-400q-21 0 -35 15l-200 200q-15 14 -15 35v800q0 21 15 35l200 200q14 15 35 15h400q21 0 35 -15l200 -200q15 -14 15 -35v-200q0 -21 -14.5 -35.5t-35.5 -14.5
t-35.5 14.5t-14.5 35.5v179l-171 171h-358l-171 -171v-758l171 -171h358zM40 450q-21 0 -35.5 14.5t-14.5 35.5t14.5 35.5t35.5 14.5h600q21 0 35.5 -14.5t14.5 -35.5t-14.5 -35.5t-35.5 -14.5h-600zM40 650q-21 0 -35.5 14.5t-14.5 35.5t14.5 35.5t35.5 14.5h600
q21 0 35.5 -14.5t14.5 -35.5t-14.5 -35.5t-35.5 -14.5h-600z" />
    <glyph glyph-name="afii61352" unicode="&#x2116;" horiz-adv-x="1630" 
d="M190 1079v-1079q0 -21 -14.5 -35.5t-35.5 -14.5t-35.5 14.5t-14.5 35.5v1200q0 21 14.5 35.5t35.5 14.5t35 -15l715 -714v679q0 21 14.5 35.5t35.5 14.5t35.5 -14.5t14.5 -35.5v-1200q0 -21 -14.5 -35.5t-35.5 -14.5t-35.5 14.5t-14.5 35.5v379zM1390 700h-150
q-21 0 -35 15l-100 100q-15 14 -15 35v250q0 21 15 35l100 100q14 15 35 15h150q21 0 35 -15l100 -100q15 -14 15 -35v-250q0 -21 -15 -35l-100 -100q-14 -15 -35 -15zM1261 800h108l71 71v208l-71 71h-108l-71 -71v-208zM1140 550q-21 0 -35.5 14.5t-14.5 35.5t14.5 35.5
t35.5 14.5h350q21 0 35.5 -14.5t14.5 -35.5t-14.5 -35.5t-35.5 -14.5h-350z" />
    <glyph glyph-name="trademark" unicode="&#x2122;" horiz-adv-x="680" 
d="M190 800q0 -21 -14.5 -35.5t-35.5 -14.5t-35.5 14.5t-14.5 35.5v350h-50q-21 0 -35.5 14.5t-14.5 35.5t14.5 35.5t35.5 14.5h200q21 0 35.5 -14.5t14.5 -35.5t-14.5 -35.5t-35.5 -14.5h-50v-350zM390 1079v-279q0 -21 -14.5 -35.5t-35.5 -14.5t-35.5 14.5t-14.5 35.5v400
q0 21 14.5 35.5t35.5 14.5t35 -15l65 -64l65 64q14 15 35 15t35.5 -14.5t14.5 -35.5v-400q0 -21 -14.5 -35.5t-35.5 -14.5t-35.5 14.5t-14.5 35.5v279l-15 -14q-14 -15 -35 -15t-35 15z" />
    <glyph glyph-name="partialdiff" unicode="&#x2202;" 
d="M361 50h158l171 171v358l-171 171h-158l-171 -171v-358zM775 635q15 -14 15 -35v-400q0 -21 -15 -35l-200 -200q-14 -15 -35 -15h-200q-21 0 -35 15l-200 200q-15 14 -15 35v400q0 21 15 35l200 200q14 15 35 15h79l-314 315q-15 14 -15 35t14.5 35.5t35.5 14.5t35 -15z
" />
    <glyph glyph-name="Delta" unicode="&#x2206;" 
d="M90 0v500q0 21 15 35l300 300q14 15 35 15t35 -15l300 -300q15 -14 15 -35v-500q0 -21 -14.5 -35.5t-35.5 -14.5h-600q-21 0 -35.5 14.5t-14.5 35.5zM690 50v429l-250 250l-250 -250v-429h500z" />
    <glyph glyph-name="product" unicode="&#x220f;" horiz-adv-x="1080" 
d="M190 -200q0 -21 -14.5 -35.5t-35.5 -14.5t-35.5 14.5t-14.5 35.5v1400q0 21 14.5 35.5t35.5 14.5h800q21 0 35.5 -14.5t14.5 -35.5v-1400q0 -21 -14.5 -35.5t-35.5 -14.5t-35.5 14.5t-14.5 35.5v1350h-700v-1350z" />
    <glyph glyph-name="summation" unicode="&#x2211;" horiz-adv-x="1080" 
d="M55 1265q-15 14 -15 35t14.5 35.5t35.5 14.5h900q21 0 35.5 -14.5t14.5 -35.5t-14.5 -35.5t-35.5 -14.5h-779l614 -615q15 -14 15 -35t-15 -35l-614 -615h779q21 0 35.5 -14.5t14.5 -35.5t-14.5 -35.5t-35.5 -14.5h-900q-21 0 -35.5 14.5t-14.5 35.5t15 35l664 665z" />
    <glyph glyph-name="minus" unicode="&#x2212;" horiz-adv-x="780" 
d="M90 450q-21 0 -35.5 14.5t-14.5 35.5t14.5 35.5t35.5 14.5h600q21 0 35.5 -14.5t14.5 -35.5t-14.5 -35.5t-35.5 -14.5h-600z" />
    <glyph glyph-name="radical" unicode="&#x221a;" horiz-adv-x="780" 
d="M219 350h-79q-21 0 -35.5 14.5t-14.5 35.5t14.5 35.5t35.5 14.5h100q21 0 35 -15l315 -314v1079q0 21 14.5 35.5t35.5 14.5t35.5 -14.5t14.5 -35.5v-1200q0 -21 -14.5 -35.5t-35.5 -14.5t-35 15z" />
    <glyph glyph-name="infinity" unicode="&#x221e;" horiz-adv-x="1680" 
d="M519 750h-158l-171 -171v-158l171 -171h158l250 250zM911 500l250 -250h158l171 171v158l-171 171h-158zM840 429l-265 -264q-14 -15 -35 -15h-200q-21 0 -35 15l-200 200q-15 14 -15 35v200q0 21 15 35l200 200q14 15 35 15h200q21 0 35 -15l265 -264l265 264
q14 15 35 15h200q21 0 35 -15l200 -200q15 -14 15 -35v-200q0 -21 -15 -35l-200 -200q-14 -15 -35 -15h-200q-21 0 -35 15z" />
    <glyph glyph-name="integral" unicode="&#x222b;" horiz-adv-x="480" 
d="M190 1000q0 21 15 35l200 200q14 15 35 15t35.5 -14.5t14.5 -35.5t-15 -35l-185 -186v-779q0 -21 -15 -35l-200 -200q-14 -15 -35 -15t-35.5 14.5t-14.5 35.5t15 35l185 186v779z" />
    <glyph glyph-name="approxequal" unicode="&#x2248;" 
d="M640 486l165 164q14 15 35 15t35.5 -14.5t14.5 -35.5t-15 -35l-200 -200q-14 -15 -35 -15t-35 15l-365 364l-165 -164q-14 -15 -35 -15t-35.5 14.5t-14.5 35.5t15 35l200 200q14 15 35 15t35 -15zM640 66l165 164q14 15 35 15t35.5 -14.5t14.5 -35.5t-15 -35l-200 -200
q-14 -15 -35 -15t-35 15l-365 364l-165 -164q-14 -15 -35 -15t-35.5 14.5t-14.5 35.5t15 35l200 200q14 15 35 15t35 -15z" />
    <glyph glyph-name="lessequal" unicode="&#x2264;" horiz-adv-x="780" 
d="M575 235q15 -14 15 -35t-14.5 -35.5t-35.5 -14.5t-35 15l-300 300q-15 14 -15 35t15 35l300 300q14 15 35 15t35.5 -14.5t14.5 -35.5t-15 -35l-264 -265zM90 60q-21 0 -35.5 14.5t-14.5 35.5t14.5 35.5t35.5 14.5h600q21 0 35.5 -14.5t14.5 -35.5t-14.5 -35.5
t-35.5 -14.5h-600z" />
    <glyph glyph-name="greaterequal" unicode="&#x2265;" horiz-adv-x="780" 
d="M469 500l-264 265q-15 14 -15 35t14.5 35.5t35.5 14.5t35 -15l300 -300q15 -14 15 -35t-15 -35l-300 -300q-14 -15 -35 -15t-35.5 14.5t-14.5 35.5t15 35zM90 60q-21 0 -35.5 14.5t-14.5 35.5t14.5 35.5t35.5 14.5h600q21 0 35.5 -14.5t14.5 -35.5t-14.5 -35.5
t-35.5 -14.5h-600z" />
    <glyph glyph-name="elementy" unicode="&#xf001;" horiz-adv-x="1165" 
d="M-10 200q0 21 14.5 35.5t35.5 14.5t35.5 -14.5t14.5 -35.5v-200q0 -21 -14.5 -35.5t-35.5 -14.5t-35.5 14.5t-14.5 35.5v200zM375 35q15 -14 15 -35t-14.5 -35.5t-35.5 -14.5t-35 15l-200 200q-15 14 -15 35t14.5 35.5t35.5 14.5t35 -15zM40 250q-21 0 -35.5 14.5
t-14.5 35.5t14.5 35.5t35.5 14.5h200q21 0 35.5 -14.5t14.5 -35.5t-14.5 -35.5t-35.5 -14.5h-200zM175.5 435.5q14.5 -14.5 14.5 -35.5t-14.5 -35.5t-35.5 -14.5t-35.5 14.5t-14.5 35.5t14.5 35.5t35.5 14.5t35.5 -14.5z" />
    <glyph glyph-name="elementy" unicode="&#xfb01;" horiz-adv-x="1165" 
d="M-10 200q0 21 14.5 35.5t35.5 14.5t35.5 -14.5t14.5 -35.5v-200q0 -21 -14.5 -35.5t-35.5 -14.5t-35.5 14.5t-14.5 35.5v200zM375 35q15 -14 15 -35t-14.5 -35.5t-35.5 -14.5t-35 15l-200 200q-15 14 -15 35t14.5 35.5t35.5 14.5t35 -15zM40 250q-21 0 -35.5 14.5
t-14.5 35.5t14.5 35.5t35.5 14.5h200q21 0 35.5 -14.5t14.5 -35.5t-14.5 -35.5t-35.5 -14.5h-200zM175.5 435.5q14.5 -14.5 14.5 -35.5t-14.5 -35.5t-35.5 -14.5t-35.5 14.5t-14.5 35.5t14.5 35.5t35.5 14.5t35.5 -14.5z" />
    <glyph glyph-name="dotlessj" unicode="&#x237;" horiz-adv-x="280" 
d="M90 800q0 21 14.5 35.5t35.5 14.5t35.5 -14.5t14.5 -35.5v-1000q0 -21 -15 -35l-200 -200q-14 -15 -35 -15t-35.5 14.5t-14.5 35.5t15 35l185 186v979z" />
    <glyph glyph-name="Rcaron" unicode="&#x158;" horiz-adv-x="1080" 
d="M775 1235l200 -200q15 -14 15 -35v-400q0 -21 -15 -35l-164 -165l164 -165q15 -14 15 -35v-200q0 -21 -14.5 -35.5t-35.5 -14.5t-35.5 14.5t-14.5 35.5v179l-171 171h-529v-350q0 -21 -14.5 -35.5t-35.5 -14.5t-35.5 14.5t-14.5 35.5v1200q0 21 14.5 35.5t35.5 14.5h600
q21 0 35 -15zM890 979l-171 171h-529v-700h529l171 171v358zM505 1365l-200 200q-15 14 -15 35t14.5 35.5t35.5 14.5t35 -15l165 -164l165 164q14 15 35 15t35.5 -14.5t14.5 -35.5t-15 -35l-200 -200q-14 -15 -35 -15t-35 15z" />
    <glyph glyph-name="rcaron" unicode="&#x159;" horiz-adv-x="580" 
d="M190 579v-579q0 -21 -14.5 -35.5t-35.5 -14.5t-35.5 14.5t-14.5 35.5v800q0 21 14.5 35.5t35.5 14.5t35.5 -14.5t14.5 -35.5v-79l115 114q14 15 35 15h200q21 0 35.5 -14.5t14.5 -35.5t-14.5 -35.5t-35.5 -14.5h-179zM305 965l-200 200q-15 14 -15 35t14.5 35.5
t35.5 14.5t35 -15l165 -164l165 164q14 15 35 15t35.5 -14.5t14.5 -35.5t-15 -35l-200 -200q-14 -15 -35 -15t-35 15z" />
    <glyph glyph-name="Sacute" unicode="&#x15a;" horiz-adv-x="1080" 
d="M775 1235l200 -200q15 -14 15 -35t-14.5 -35.5t-35.5 -14.5t-35 15l-186 185h-358l-171 -171v-158l171 -171h379q21 0 35 -15l200 -200q15 -14 15 -35v-200q0 -21 -215 -235q-14 -15 -35 -15h-400q-21 0 -35 15l-200 200q-15 14 -15 35t14.5 35.5t35.5 14.5t35 -15
l186 -185h358l171 171v158l-171 171h-379q-21 0 -35 15l-200 200q-15 14 -15 35v200q0 21 15 35l200 200q14 15 35 15h400q21 0 35 -15zM642 1635q14 15 35 15t35.5 -14.5t14.5 -35.5t-15 -35l-200 -200q-14 -15 -35 -15t-35.5 14.5t-14.5 35.5t15 35z" />
    <glyph glyph-name="sacute" unicode="&#x15b;" 
d="M105 635l200 200q14 15 35 15h200q21 0 35 -15l200 -200q15 -14 15 -35t-14.5 -35.5t-35.5 -14.5t-35 15l-186 185h-158l-150 -150l150 -150h179q21 0 35 -15l200 -200q15 -14 15 -35t-15 -35l-200 -200q-14 -15 -35 -15h-200q-21 0 -35 15l-200 200q-15 14 -15 35
t14.5 35.5t35.5 14.5t35 -15l186 -185h158l150 150l-150 150h-179q-21 0 -35 15l-200 200q-15 14 -15 35t15 35zM542 1235q14 15 35 15t35.5 -14.5t14.5 -35.5t-15 -35l-200 -200q-14 -15 -35 -15t-35.5 14.5t-14.5 35.5t15 35z" />
    <glyph glyph-name="Scircumflex" unicode="&#x15c;" horiz-adv-x="1080" 
d="M775 1235l200 -200q15 -14 15 -35t-14.5 -35.5t-35.5 -14.5t-35 15l-186 185h-358l-171 -171v-158l171 -171h379q21 0 35 -15l200 -200q15 -14 15 -35v-200q0 -21 -215 -235q-14 -15 -35 -15h-400q-21 0 -35 15l-200 200q-15 14 -15 35t14.5 35.5t35.5 14.5t35 -15
l186 -185h358l171 171v158l-171 171h-379q-21 0 -35 15l-200 200q-15 14 -15 35v200q0 21 15 35l200 200q14 15 35 15h400q21 0 35 -15zM540 1529l-165 -164q-14 -15 -35 -15t-35.5 14.5t-14.5 35.5t15 35l200 200q14 15 35 15t35 -15l200 -200q15 -14 15 -35t-14.5 -35.5
t-35.5 -14.5t-35 15z" />
    <glyph glyph-name="scircumflex" unicode="&#x15d;" 
d="M105 635l200 200q14 15 35 15h200q21 0 35 -15l200 -200q15 -14 15 -35t-14.5 -35.5t-35.5 -14.5t-35 15l-186 185h-158l-150 -150l150 -150h179q21 0 35 -15l200 -200q15 -14 15 -35t-15 -35l-200 -200q-14 -15 -35 -15h-200q-21 0 -35 15l-200 200q-15 14 -15 35
t14.5 35.5t35.5 14.5t35 -15l186 -185h158l150 150l-150 150h-179q-21 0 -35 15l-200 200q-15 14 -15 35t15 35zM440 1129l-165 -164q-14 -15 -35 -15t-35.5 14.5t-14.5 35.5t15 35l200 200q14 15 35 15t35 -15l200 -200q15 -14 15 -35t-14.5 -35.5t-35.5 -14.5t-35 15z" />
    <glyph glyph-name="Scedilla" unicode="&#x15e;" horiz-adv-x="1080" 
d="M775 1235l200 -200q15 -14 15 -35t-14.5 -35.5t-35.5 -14.5t-35 15l-186 185h-358l-171 -171v-158l171 -171h379q21 0 35 -15l200 -200q15 -14 15 -35v-200q0 -21 -215 -235q-14 -15 -35 -15h-400q-21 0 -35 15l-200 200q-15 14 -15 35t14.5 35.5t35.5 14.5t35 -15
l186 -185h358l171 171v158l-171 171h-379q-21 0 -35 15l-200 200q-15 14 -15 35v200q0 21 15 35l200 200q14 15 35 15h400q21 0 35 -15zM775 -235l-200 -200q-14 -15 -35 -15t-35.5 14.5t-14.5 35.5t15 35l164 165l-164 165q-15 14 -15 35t14.5 35.5t35.5 14.5t35 -15
q215 -214 215 -235t-15 -35z" />
    <glyph glyph-name="scedilla" unicode="&#x15f;" 
d="M105 635l200 200q14 15 35 15h200q21 0 35 -15l200 -200q15 -14 15 -35t-14.5 -35.5t-35.5 -14.5t-35 15l-186 185h-158l-150 -150l150 -150h179q21 0 35 -15l200 -200q15 -14 15 -35t-15 -35l-200 -200q-14 -15 -35 -15h-200q-21 0 -35 15l-200 200q-15 14 -15 35
t14.5 35.5t35.5 14.5t35 -15l186 -185h158l150 150l-150 150h-179q-21 0 -35 15l-200 200q-15 14 -15 35t15 35zM675 -235l-200 -200q-14 -15 -35 -15t-35.5 14.5t-14.5 35.5t15 35l164 165l-164 165q-15 14 -15 35t14.5 35.5t35.5 14.5t35 -15q215 -214 215 -235t-15 -35z
" />
    <glyph glyph-name="Scaron" unicode="&#x160;" horiz-adv-x="1080" 
d="M775 1235l200 -200q15 -14 15 -35t-14.5 -35.5t-35.5 -14.5t-35 15l-186 185h-358l-171 -171v-158l171 -171h379q21 0 35 -15l200 -200q15 -14 15 -35v-200q0 -21 -215 -235q-14 -15 -35 -15h-400q-21 0 -35 15l-200 200q-15 14 -15 35t14.5 35.5t35.5 14.5t35 -15
l186 -185h358l171 171v158l-171 171h-379q-21 0 -35 15l-200 200q-15 14 -15 35v200q0 21 15 35l200 200q14 15 35 15h400q21 0 35 -15zM505 1365l-200 200q-15 14 -15 35t14.5 35.5t35.5 14.5t35 -15l165 -164l165 164q14 15 35 15t35.5 -14.5t14.5 -35.5t-15 -35
l-200 -200q-14 -15 -35 -15t-35 15z" />
    <glyph glyph-name="scaron" unicode="&#x161;" 
d="M105 635l200 200q14 15 35 15h200q21 0 35 -15l200 -200q15 -14 15 -35t-14.5 -35.5t-35.5 -14.5t-35 15l-186 185h-158l-150 -150l150 -150h179q21 0 35 -15l200 -200q15 -14 15 -35t-15 -35l-200 -200q-14 -15 -35 -15h-200q-21 0 -35 15l-200 200q-15 14 -15 35
t14.5 35.5t35.5 14.5t35 -15l186 -185h158l150 150l-150 150h-179q-21 0 -35 15l-200 200q-15 14 -15 35t15 35zM405 965l-200 200q-15 14 -15 35t14.5 35.5t35.5 14.5t35 -15l165 -164l165 164q14 15 35 15t35.5 -14.5t14.5 -35.5t-15 -35l-200 -200q-14 -15 -35 -15
t-35 15z" />
    <glyph glyph-name="Amacron" unicode="&#x100;" horiz-adv-x="1080" 
d="M540 1129l-350 -350v-329h700v329zM105 835l400 400q14 15 35 15t435 -415q15 -14 15 -35v-800q0 -21 -14.5 -35.5t-35.5 -14.5t-35.5 14.5t-14.5 35.5v350h-700v-350q0 -21 -14.5 -35.5t-35.5 -14.5t-35.5 14.5t-14.5 35.5v800q0 21 15 35zM340 1450q-21 0 -35.5 14.5
t-14.5 35.5t14.5 35.5t35.5 14.5h400q21 0 35.5 -14.5t14.5 -35.5t-14.5 -35.5t-35.5 -14.5h-400z" />
    <glyph glyph-name="amacron" unicode="&#x101;" 
d="M690 221v358l-171 171h-158l-171 -171v-358l171 -171h158zM790 0q0 -21 -14.5 -35.5t-35.5 -14.5t-35.5 14.5t-14.5 35.5v79l-115 -114q-14 -15 -35 -15h-200q-21 0 -35 15l-200 200q-15 14 -15 35v400q0 21 15 35l200 200q14 15 35 15h200q21 0 35 -15l200 -200
q15 -14 15 -35v-600zM240 1050q-21 0 -35.5 14.5t-14.5 35.5t14.5 35.5t35.5 14.5h400q21 0 35.5 -14.5t14.5 -35.5t-14.5 -35.5t-35.5 -14.5h-400z" />
    <glyph glyph-name="Abreve" unicode="&#x102;" horiz-adv-x="1080" 
d="M540 1129l-350 -350v-329h700v329zM105 835l400 400q14 15 35 15t435 -415q15 -14 15 -35v-800q0 -21 -14.5 -35.5t-35.5 -14.5t-35.5 14.5t-14.5 35.5v350h-700v-350q0 -21 -14.5 -35.5t-35.5 -14.5t-35.5 14.5t-14.5 35.5v800q0 21 15 35zM290 1400v200q0 21 14.5 35.5
t35.5 14.5t35.5 -14.5t14.5 -35.5v-150h300v150q0 21 14.5 35.5t35.5 14.5t35.5 -14.5t14.5 -35.5v-200q0 -21 -14.5 -35.5t-35.5 -14.5h-400q-21 0 -35.5 14.5t-14.5 35.5z" />
    <glyph glyph-name="abreve" unicode="&#x103;" 
d="M690 221v358l-171 171h-158l-171 -171v-358l171 -171h158zM790 0q0 -21 -14.5 -35.5t-35.5 -14.5t-35.5 14.5t-14.5 35.5v79l-115 -114q-14 -15 -35 -15h-200q-21 0 -35 15l-200 200q-15 14 -15 35v400q0 21 15 35l200 200q14 15 35 15h200q21 0 35 -15l200 -200
q15 -14 15 -35v-600zM190 1000v200q0 21 14.5 35.5t35.5 14.5t35.5 -14.5t14.5 -35.5v-150h300v150q0 21 14.5 35.5t35.5 14.5t35.5 -14.5t14.5 -35.5v-200q0 -21 -14.5 -35.5t-35.5 -14.5h-400q-21 0 -35.5 14.5t-14.5 35.5z" />
    <glyph glyph-name="Aogonek" unicode="&#x104;" horiz-adv-x="1080" 
d="M540 1129l-350 -350v-329h700v329zM105 835l400 400q14 15 35 15t435 -415q15 -14 15 -35v-800q0 -21 -14.5 -35.5t-35.5 -14.5t-35.5 14.5t-14.5 35.5v350h-700v-350q0 -21 -14.5 -35.5t-35.5 -14.5t-35.5 14.5t-14.5 35.5v800q0 21 15 35zM690 -200q0 21 215 235
q14 15 35 15t35.5 -14.5t14.5 -35.5t-15 -35l-164 -165l164 -165q15 -14 15 -35t-14.5 -35.5t-35.5 -14.5t-35 15l-200 200q-15 14 -15 35z" />
    <glyph glyph-name="aogonek" unicode="&#x105;" 
d="M690 221v358l-171 171h-158l-171 -171v-358l171 -171h158zM790 0q0 -21 -14.5 -35.5t-35.5 -14.5t-35.5 14.5t-14.5 35.5v79l-115 -114q-14 -15 -35 -15h-200q-21 0 -35 15l-200 200q-15 14 -15 35v400q0 21 15 35l200 200q14 15 35 15h200q21 0 35 -15l200 -200
q15 -14 15 -35v-600zM490 -200q0 21 215 235q14 15 35 15t35.5 -14.5t14.5 -35.5t-15 -35l-164 -165l164 -165q15 -14 15 -35t-14.5 -35.5t-35.5 -14.5t-35 15l-200 200q-15 14 -15 35z" />
    <glyph glyph-name="Cacute" unicode="&#x106;" horiz-adv-x="1080" 
d="M890 221v179q0 21 14.5 35.5t35.5 14.5t35.5 -14.5t14.5 -35.5v-200q0 -21 -215 -235q-14 -15 -35 -15h-400q-21 0 -35 15l-200 200q-15 14 -15 35v800q0 21 15 35l200 200q14 15 35 15h400q21 0 35 -15l200 -200q15 -14 15 -35v-200q0 -21 -14.5 -35.5t-35.5 -14.5
t-35.5 14.5t-14.5 35.5v179l-171 171h-358l-171 -171v-758l171 -171h358zM642 1635q14 15 35 15t35.5 -14.5t14.5 -35.5t-15 -35l-200 -200q-14 -15 -35 -15t-35.5 14.5t-14.5 35.5t15 35z" />
    <glyph glyph-name="cacute" unicode="&#x107;" 
d="M105 635l200 200q14 15 35 15h200q21 0 35 -15l200 -200q15 -14 15 -35t-14.5 -35.5t-35.5 -14.5t-35 15l-186 185h-158l-171 -171v-358l171 -171h158l186 185q14 15 35 15t35.5 -14.5t14.5 -35.5t-15 -35l-200 -200q-14 -15 -35 -15h-200q-21 0 -35 15l-200 200
q-15 14 -15 35v400q0 21 15 35zM542 1235q14 15 35 15t35.5 -14.5t14.5 -35.5t-15 -35l-200 -200q-14 -15 -35 -15t-35.5 14.5t-14.5 35.5t15 35z" />
    <glyph glyph-name="Ccircumflex" unicode="&#x108;" horiz-adv-x="1080" 
d="M890 221v179q0 21 14.5 35.5t35.5 14.5t35.5 -14.5t14.5 -35.5v-200q0 -21 -215 -235q-14 -15 -35 -15h-400q-21 0 -35 15l-200 200q-15 14 -15 35v800q0 21 15 35l200 200q14 15 35 15h400q21 0 35 -15l200 -200q15 -14 15 -35v-200q0 -21 -14.5 -35.5t-35.5 -14.5
t-35.5 14.5t-14.5 35.5v179l-171 171h-358l-171 -171v-758l171 -171h358zM540 1529l-165 -164q-14 -15 -35 -15t-35.5 14.5t-14.5 35.5t15 35l200 200q14 15 35 15t35 -15l200 -200q15 -14 15 -35t-14.5 -35.5t-35.5 -14.5t-35 15z" />
    <glyph glyph-name="ccircumflex" unicode="&#x109;" 
d="M105 635l200 200q14 15 35 15h200q21 0 35 -15l200 -200q15 -14 15 -35t-14.5 -35.5t-35.5 -14.5t-35 15l-186 185h-158l-171 -171v-358l171 -171h158l186 185q14 15 35 15t35.5 -14.5t14.5 -35.5t-15 -35l-200 -200q-14 -15 -35 -15h-200q-21 0 -35 15l-200 200
q-15 14 -15 35v400q0 21 15 35zM440 1129l-165 -164q-14 -15 -35 -15t-35.5 14.5t-14.5 35.5t15 35l200 200q14 15 35 15t35 -15l200 -200q15 -14 15 -35t-14.5 -35.5t-35.5 -14.5t-35 15z" />
    <glyph glyph-name="Cdotaccent" unicode="&#x10a;" horiz-adv-x="1080" 
d="M890 221v179q0 21 14.5 35.5t35.5 14.5t35.5 -14.5t14.5 -35.5v-200q0 -21 -215 -235q-14 -15 -35 -15h-400q-21 0 -35 15l-200 200q-15 14 -15 35v800q0 21 15 35l200 200q14 15 35 15h400q21 0 35 -15l200 -200q15 -14 15 -35v-200q0 -21 -14.5 -35.5t-35.5 -14.5
t-35.5 14.5t-14.5 35.5v179l-171 171h-358l-171 -171v-758l171 -171h358zM588.5 1551q21.5 -19 21.5 -51t-21.5 -51t-48.5 -19t-48.5 19t-21.5 51t21.5 51t48.5 19t48.5 -19z" />
    <glyph glyph-name="cdotaccent" unicode="&#x10b;" 
d="M105 635l200 200q14 15 35 15h200q21 0 35 -15l200 -200q15 -14 15 -35t-14.5 -35.5t-35.5 -14.5t-35 15l-186 185h-158l-171 -171v-358l171 -171h158l186 185q14 15 35 15t35.5 -14.5t14.5 -35.5t-15 -35l-200 -200q-14 -15 -35 -15h-200q-21 0 -35 15l-200 200
q-15 14 -15 35v400q0 21 15 35zM488.5 1151q21.5 -19 21.5 -51t-21.5 -51t-48.5 -19t-48.5 19t-21.5 51t21.5 51t48.5 19t48.5 -19z" />
    <glyph glyph-name="Ccaron" unicode="&#x10c;" horiz-adv-x="1080" 
d="M890 221v179q0 21 14.5 35.5t35.5 14.5t35.5 -14.5t14.5 -35.5v-200q0 -21 -215 -235q-14 -15 -35 -15h-400q-21 0 -35 15l-200 200q-15 14 -15 35v800q0 21 15 35l200 200q14 15 35 15h400q21 0 35 -15l200 -200q15 -14 15 -35v-200q0 -21 -14.5 -35.5t-35.5 -14.5
t-35.5 14.5t-14.5 35.5v179l-171 171h-358l-171 -171v-758l171 -171h358zM505 1365l-200 200q-15 14 -15 35t14.5 35.5t35.5 14.5t35 -15l165 -164l165 164q14 15 35 15t35.5 -14.5t14.5 -35.5t-15 -35l-200 -200q-14 -15 -35 -15t-35 15z" />
    <glyph glyph-name="ccaron" unicode="&#x10d;" 
d="M105 635l200 200q14 15 35 15h200q21 0 35 -15l200 -200q15 -14 15 -35t-14.5 -35.5t-35.5 -14.5t-35 15l-186 185h-158l-171 -171v-358l171 -171h158l186 185q14 15 35 15t35.5 -14.5t14.5 -35.5t-15 -35l-200 -200q-14 -15 -35 -15h-200q-21 0 -35 15l-200 200
q-15 14 -15 35v400q0 21 15 35zM405 965l-200 200q-15 14 -15 35t14.5 35.5t35.5 14.5t35 -15l165 -164l165 164q14 15 35 15t35.5 -14.5t14.5 -35.5t-15 -35l-200 -200q-14 -15 -35 -15t-35 15z" />
    <glyph glyph-name="Dcaron" unicode="&#x10e;" horiz-adv-x="1080" 
d="M990 200q0 -21 -15 -35l-200 -200q-14 -15 -35 -15h-600q-21 0 -35.5 14.5t-14.5 35.5v1200q0 21 14.5 35.5t35.5 14.5h600q21 0 35 -15l200 -200q15 -14 15 -35v-800zM890 221v758l-171 171h-529v-1100h529zM505 1365l-200 200q-15 14 -15 35t14.5 35.5t35.5 14.5
t35 -15l165 -164l165 164q14 15 35 15t35.5 -14.5t14.5 -35.5t-15 -35l-200 -200q-14 -15 -35 -15t-35 15z" />
    <glyph glyph-name="dcaron" unicode="&#x10f;" 
d="M690 221v358l-171 171h-158l-171 -171v-358l171 -171h158zM790 0q0 -21 -14.5 -35.5t-35.5 -14.5t-35.5 14.5t-14.5 35.5v79l-115 -114q-14 -15 -35 -15h-200q-21 0 -35 15l-200 200q-15 14 -15 35v400q0 21 15 35l200 200q14 15 35 15h200q21 0 35 -15l115 -114v479
q0 21 14.5 35.5t35.5 14.5t35.5 -14.5t14.5 -35.5v-1200zM990 1000q0 -21 -14.5 -35.5t-35.5 -14.5t-35.5 14.5t-14.5 35.5v200q0 21 14.5 35.5t35.5 14.5t35.5 -14.5t14.5 -35.5v-200z" />
    <glyph glyph-name="Dcroat" unicode="&#x110;" horiz-adv-x="1080" 
d="M990 200q0 -21 -15 -35l-200 -200q-14 -15 -35 -15h-600q-21 0 -35.5 14.5t-14.5 35.5v1200q0 21 14.5 35.5t35.5 14.5h600q21 0 35 -15l200 -200q15 -14 15 -35v-800zM890 221v758l-171 171h-529v-1100h529zM40 550q-21 0 -35.5 14.5t-14.5 35.5t14.5 35.5t35.5 14.5
h600q21 0 35.5 -14.5t14.5 -35.5t-14.5 -35.5t-35.5 -14.5h-600z" />
    <glyph glyph-name="dcroat" unicode="&#x111;" 
d="M690 221v358l-171 171h-158l-171 -171v-358l171 -171h158zM790 0q0 -21 -14.5 -35.5t-35.5 -14.5t-35.5 14.5t-14.5 35.5v79l-115 -114q-14 -15 -35 -15h-200q-21 0 -35 15l-200 200q-15 14 -15 35v400q0 21 15 35l200 200q14 15 35 15h200q21 0 35 -15l115 -114v479
q0 21 14.5 35.5t35.5 14.5t35.5 -14.5t14.5 -35.5v-1200zM140 954q-21 0 -35.5 14.5t-14.5 35.5t14.5 35.5t35.5 14.5h600q21 0 35.5 -14.5t14.5 -35.5t-14.5 -35.5t-35.5 -14.5h-600z" />
    <glyph glyph-name="Emacron" unicode="&#x112;" horiz-adv-x="780" 
d="M740 50q21 0 35.5 -14.5t14.5 -35.5t-14.5 -35.5t-35.5 -14.5h-600q-21 0 -35.5 14.5t-14.5 35.5v1200q0 21 14.5 35.5t35.5 14.5h600q21 0 35.5 -14.5t14.5 -35.5t-14.5 -35.5t-35.5 -14.5h-550v-500h350q21 0 35.5 -14.5t14.5 -35.5t-14.5 -35.5t-35.5 -14.5h-350v-500
h550zM240 1450q-21 0 -35.5 14.5t-14.5 35.5t14.5 35.5t35.5 14.5h400q21 0 35.5 -14.5t14.5 -35.5t-14.5 -35.5t-35.5 -14.5h-400z" />
    <glyph glyph-name="emacron" unicode="&#x113;" 
d="M790 600v-200q0 -21 -15 -35q-14 -15 -35 -15h-550v-129l171 -171h158l186 185q14 15 35 15t35.5 -14.5t14.5 -35.5t-15 -35l-200 -200q-14 -15 -35 -15h-200q-21 0 -35 15l-200 200q-15 14 -15 35v400q0 21 15 35l200 200q14 15 35 15h200q21 0 35 -15l200 -200
q15 -14 15 -35zM690 450v129l-171 171h-158l-171 -171v-129h500zM240 1050q-21 0 -35.5 14.5t-14.5 35.5t14.5 35.5t35.5 14.5h400q21 0 35.5 -14.5t14.5 -35.5t-14.5 -35.5t-35.5 -14.5h-400z" />
    <glyph glyph-name="Ebreve" unicode="&#x114;" horiz-adv-x="780" 
d="M740 50q21 0 35.5 -14.5t14.5 -35.5t-14.5 -35.5t-35.5 -14.5h-600q-21 0 -35.5 14.5t-14.5 35.5v1200q0 21 14.5 35.5t35.5 14.5h600q21 0 35.5 -14.5t14.5 -35.5t-14.5 -35.5t-35.5 -14.5h-550v-500h350q21 0 35.5 -14.5t14.5 -35.5t-14.5 -35.5t-35.5 -14.5h-350v-500
h550zM190 1400v200q0 21 14.5 35.5t35.5 14.5t35.5 -14.5t14.5 -35.5v-150h300v150q0 21 14.5 35.5t35.5 14.5t35.5 -14.5t14.5 -35.5v-200q0 -21 -14.5 -35.5t-35.5 -14.5h-400q-21 0 -35.5 14.5t-14.5 35.5z" />
    <glyph glyph-name="ebreve" unicode="&#x115;" 
d="M790 600v-200q0 -21 -15 -35q-14 -15 -35 -15h-550v-129l171 -171h158l186 185q14 15 35 15t35.5 -14.5t14.5 -35.5t-15 -35l-200 -200q-14 -15 -35 -15h-200q-21 0 -35 15l-200 200q-15 14 -15 35v400q0 21 15 35l200 200q14 15 35 15h200q21 0 35 -15l200 -200
q15 -14 15 -35zM690 450v129l-171 171h-158l-171 -171v-129h500zM190 1000v200q0 21 14.5 35.5t35.5 14.5t35.5 -14.5t14.5 -35.5v-150h300v150q0 21 14.5 35.5t35.5 14.5t35.5 -14.5t14.5 -35.5v-200q0 -21 -14.5 -35.5t-35.5 -14.5h-400q-21 0 -35.5 14.5t-14.5 35.5z" />
    <glyph glyph-name="Edotaccent" unicode="&#x116;" horiz-adv-x="780" 
d="M740 50q21 0 35.5 -14.5t14.5 -35.5t-14.5 -35.5t-35.5 -14.5h-600q-21 0 -35.5 14.5t-14.5 35.5v1200q0 21 14.5 35.5t35.5 14.5h600q21 0 35.5 -14.5t14.5 -35.5t-14.5 -35.5t-35.5 -14.5h-550v-500h350q21 0 35.5 -14.5t14.5 -35.5t-14.5 -35.5t-35.5 -14.5h-350v-500
h550zM488.5 1551q21.5 -19 21.5 -51t-21.5 -51t-48.5 -19t-48.5 19t-21.5 51t21.5 51t48.5 19t48.5 -19z" />
    <glyph glyph-name="edotaccent" unicode="&#x117;" 
d="M790 600v-200q0 -21 -15 -35q-14 -15 -35 -15h-550v-129l171 -171h158l186 185q14 15 35 15t35.5 -14.5t14.5 -35.5t-15 -35l-200 -200q-14 -15 -35 -15h-200q-21 0 -35 15l-200 200q-15 14 -15 35v400q0 21 15 35l200 200q14 15 35 15h200q21 0 35 -15l200 -200
q15 -14 15 -35zM690 450v129l-171 171h-158l-171 -171v-129h500zM488.5 1151q21.5 -19 21.5 -51t-21.5 -51t-48.5 -19t-48.5 19t-21.5 51t21.5 51t48.5 19t48.5 -19z" />
    <glyph glyph-name="Eogonek" unicode="&#x118;" horiz-adv-x="780" 
d="M740 50q21 0 35.5 -14.5t14.5 -35.5t-14.5 -35.5t-35.5 -14.5h-600q-21 0 -35.5 14.5t-14.5 35.5v1200q0 21 14.5 35.5t35.5 14.5h600q21 0 35.5 -14.5t14.5 -35.5t-14.5 -35.5t-35.5 -14.5h-550v-500h350q21 0 35.5 -14.5t14.5 -35.5t-14.5 -35.5t-35.5 -14.5h-350v-500
h550zM490 -200q0 21 215 235q14 15 35 15t35.5 -14.5t14.5 -35.5t-15 -35l-164 -165l164 -165q15 -14 15 -35t-14.5 -35.5t-35.5 -14.5t-35 15l-200 200q-15 14 -15 35z" />
    <glyph glyph-name="eogonek" unicode="&#x119;" 
d="M790 600v-200q0 -21 -15 -35q-14 -15 -35 -15h-550v-129l171 -171h158l186 185q14 15 35 15t35.5 -14.5t14.5 -35.5t-15 -35l-200 -200q-14 -15 -35 -15h-200q-21 0 -35 15l-200 200q-15 14 -15 35v400q0 21 15 35l200 200q14 15 35 15h200q21 0 35 -15l200 -200
q15 -14 15 -35zM690 450v129l-171 171h-158l-171 -171v-129h500zM290 -200q0 21 215 235q14 15 35 15t35.5 -14.5t14.5 -35.5t-15 -35l-164 -165l164 -165q15 -14 15 -35t-14.5 -35.5t-35.5 -14.5t-35 15l-200 200q-15 14 -15 35z" />
    <glyph glyph-name="Ecaron" unicode="&#x11a;" horiz-adv-x="780" 
d="M740 50q21 0 35.5 -14.5t14.5 -35.5t-14.5 -35.5t-35.5 -14.5h-600q-21 0 -35.5 14.5t-14.5 35.5v1200q0 21 14.5 35.5t35.5 14.5h600q21 0 35.5 -14.5t14.5 -35.5t-14.5 -35.5t-35.5 -14.5h-550v-500h350q21 0 35.5 -14.5t14.5 -35.5t-14.5 -35.5t-35.5 -14.5h-350v-500
h550zM405 1365l-200 200q-15 14 -15 35t14.5 35.5t35.5 14.5t35 -15l165 -164l165 164q14 15 35 15t35.5 -14.5t14.5 -35.5t-15 -35l-200 -200q-14 -15 -35 -15t-35 15z" />
    <glyph glyph-name="ecaron" unicode="&#x11b;" 
d="M790 600v-200q0 -21 -15 -35q-14 -15 -35 -15h-550v-129l171 -171h158l186 185q14 15 35 15t35.5 -14.5t14.5 -35.5t-15 -35l-200 -200q-14 -15 -35 -15h-200q-21 0 -35 15l-200 200q-15 14 -15 35v400q0 21 15 35l200 200q14 15 35 15h200q21 0 35 -15l200 -200
q15 -14 15 -35zM690 450v129l-171 171h-158l-171 -171v-129h500zM405 965l-200 200q-15 14 -15 35t14.5 35.5t35.5 14.5t35 -15l165 -164l165 164q14 15 35 15t35.5 -14.5t14.5 -35.5t-15 -35l-200 -200q-14 -15 -35 -15t-35 15z" />
    <glyph glyph-name="Gcircumflex" unicode="&#x11c;" horiz-adv-x="1080" 
d="M990 1000v-200q0 -21 -14.5 -35.5t-35.5 -14.5t-35.5 14.5t-14.5 35.5v179l-171 171h-358l-171 -171v-758l171 -171h358l171 171v329h-150q-21 0 -35.5 14.5t-14.5 35.5t14.5 35.5t35.5 14.5h200q21 0 35.5 -14.5t14.5 -35.5v-400q0 -21 -15 -35l-200 -200
q-14 -15 -35 -15h-400q-21 0 -35 15l-200 200q-15 14 -15 35v800q0 21 15 35l200 200q14 15 35 15h400q21 0 35 -15l200 -200q15 -14 15 -35zM540 1529l-165 -164q-14 -15 -35 -15t-35.5 14.5t-14.5 35.5t15 35l200 200q14 15 35 15t35 -15l200 -200q15 -14 15 -35
t-14.5 -35.5t-35.5 -14.5t-35 15z" />
    <glyph glyph-name="gcircumflex" unicode="&#x11d;" 
d="M690 221v358l-171 171h-158l-171 -171v-358l171 -171h158zM775 -235l-200 -200q-14 -15 -35 -15h-200q-21 0 -35 15l-200 200q-15 14 -15 35t14.5 35.5t35.5 14.5t35 -15l186 -185h158l171 171v258l-115 -114q-14 -15 -35 -15h-200q-21 0 -35 15l-200 200q-15 14 -15 35
v400q0 21 15 35l200 200q14 15 35 15h200q21 0 35 -15l115 -114v79q0 21 14.5 35.5t35.5 14.5t35.5 -14.5t14.5 -35.5v-1000q0 -21 -15 -35zM440 1129l-165 -164q-14 -15 -35 -15t-35.5 14.5t-14.5 35.5t15 35l200 200q14 15 35 15t35 -15l200 -200q15 -14 15 -35
t-14.5 -35.5t-35.5 -14.5t-35 15z" />
    <glyph glyph-name="Gbreve" unicode="&#x11e;" horiz-adv-x="1080" 
d="M990 1000v-200q0 -21 -14.5 -35.5t-35.5 -14.5t-35.5 14.5t-14.5 35.5v179l-171 171h-358l-171 -171v-758l171 -171h358l171 171v329h-150q-21 0 -35.5 14.5t-14.5 35.5t14.5 35.5t35.5 14.5h200q21 0 35.5 -14.5t14.5 -35.5v-400q0 -21 -15 -35l-200 -200
q-14 -15 -35 -15h-400q-21 0 -35 15l-200 200q-15 14 -15 35v800q0 21 15 35l200 200q14 15 35 15h400q21 0 35 -15l200 -200q15 -14 15 -35zM290 1400v200q0 21 14.5 35.5t35.5 14.5t35.5 -14.5t14.5 -35.5v-150h300v150q0 21 14.5 35.5t35.5 14.5t35.5 -14.5t14.5 -35.5
v-200q0 -21 -14.5 -35.5t-35.5 -14.5h-400q-21 0 -35.5 14.5t-14.5 35.5z" />
    <glyph glyph-name="gbreve" unicode="&#x11f;" 
d="M690 221v358l-171 171h-158l-171 -171v-358l171 -171h158zM775 -235l-200 -200q-14 -15 -35 -15h-200q-21 0 -35 15l-200 200q-15 14 -15 35t14.5 35.5t35.5 14.5t35 -15l186 -185h158l171 171v258l-115 -114q-14 -15 -35 -15h-200q-21 0 -35 15l-200 200q-15 14 -15 35
v400q0 21 15 35l200 200q14 15 35 15h200q21 0 35 -15l115 -114v79q0 21 14.5 35.5t35.5 14.5t35.5 -14.5t14.5 -35.5v-1000q0 -21 -15 -35zM190 1000v200q0 21 14.5 35.5t35.5 14.5t35.5 -14.5t14.5 -35.5v-150h300v150q0 21 14.5 35.5t35.5 14.5t35.5 -14.5t14.5 -35.5
v-200q0 -21 -14.5 -35.5t-35.5 -14.5h-400q-21 0 -35.5 14.5t-14.5 35.5z" />
    <glyph glyph-name="Gdotaccent" unicode="&#x120;" horiz-adv-x="1080" 
d="M990 1000v-200q0 -21 -14.5 -35.5t-35.5 -14.5t-35.5 14.5t-14.5 35.5v179l-171 171h-358l-171 -171v-758l171 -171h358l171 171v329h-150q-21 0 -35.5 14.5t-14.5 35.5t14.5 35.5t35.5 14.5h200q21 0 35.5 -14.5t14.5 -35.5v-400q0 -21 -15 -35l-200 -200
q-14 -15 -35 -15h-400q-21 0 -35 15l-200 200q-15 14 -15 35v800q0 21 15 35l200 200q14 15 35 15h400q21 0 35 -15l200 -200q15 -14 15 -35zM588.5 1551q21.5 -19 21.5 -51t-21.5 -51t-48.5 -19t-48.5 19t-21.5 51t21.5 51t48.5 19t48.5 -19z" />
    <glyph glyph-name="gdotaccent" unicode="&#x121;" 
d="M690 221v358l-171 171h-158l-171 -171v-358l171 -171h158zM775 -235l-200 -200q-14 -15 -35 -15h-200q-21 0 -35 15l-200 200q-15 14 -15 35t14.5 35.5t35.5 14.5t35 -15l186 -185h158l171 171v258l-115 -114q-14 -15 -35 -15h-200q-21 0 -35 15l-200 200q-15 14 -15 35
v400q0 21 15 35l200 200q14 15 35 15h200q21 0 35 -15l115 -114v79q0 21 14.5 35.5t35.5 14.5t35.5 -14.5t14.5 -35.5v-1000q0 -21 -15 -35zM488.5 1151q21.5 -19 21.5 -51t-21.5 -51t-48.5 -19t-48.5 19t-21.5 51t21.5 51t48.5 19t48.5 -19z" />
    <glyph glyph-name="Gcommaaccent" unicode="&#x122;" horiz-adv-x="1080" 
d="M990 1000v-200q0 -21 -14.5 -35.5t-35.5 -14.5t-35.5 14.5t-14.5 35.5v179l-171 171h-358l-171 -171v-758l171 -171h358l171 171v329h-150q-21 0 -35.5 14.5t-14.5 35.5t14.5 35.5t35.5 14.5h200q21 0 35.5 -14.5t14.5 -35.5v-400q0 -21 -15 -35l-200 -200
q-14 -15 -35 -15h-400q-21 0 -35 15l-200 200q-15 14 -15 35v800q0 21 15 35l200 200q14 15 35 15h400q21 0 35 -15l200 -200q15 -14 15 -35zM590 -300q0 -21 -14.5 -35.5t-35.5 -14.5t-35.5 14.5t-14.5 35.5v200q0 21 14.5 35.5t35.5 14.5t35.5 -14.5t14.5 -35.5v-200z" />
    <glyph glyph-name="gcommaaccent" unicode="&#x123;" 
d="M690 221v358l-171 171h-158l-171 -171v-358l171 -171h158zM775 -235l-200 -200q-14 -15 -35 -15h-200q-21 0 -35 15l-200 200q-15 14 -15 35t14.5 35.5t35.5 14.5t35 -15l186 -185h158l171 171v258l-115 -114q-14 -15 -35 -15h-200q-21 0 -35 15l-200 200q-15 14 -15 35
v400q0 21 15 35l200 200q14 15 35 15h200q21 0 35 -15l115 -114v79q0 21 14.5 35.5t35.5 14.5t35.5 -14.5t14.5 -35.5v-1000q0 -21 -15 -35zM490 1000q0 -21 -14.5 -35.5t-35.5 -14.5t-35.5 14.5t-14.5 35.5v200q0 21 14.5 35.5t35.5 14.5t35.5 -14.5t14.5 -35.5v-200z" />
    <glyph glyph-name="Hcircumflex" unicode="&#x124;" horiz-adv-x="1080" 
d="M190 0q0 -21 -14.5 -35.5t-35.5 -14.5t-35.5 14.5t-14.5 35.5v1200q0 21 14.5 35.5t35.5 14.5t35.5 -14.5t14.5 -35.5v-550h700v550q0 21 14.5 35.5t35.5 14.5t35.5 -14.5t14.5 -35.5v-1200q0 -21 -14.5 -35.5t-35.5 -14.5t-35.5 14.5t-14.5 35.5v550h-700v-550z
M540 1529l-165 -164q-14 -15 -35 -15t-35.5 14.5t-14.5 35.5t15 35l200 200q14 15 35 15t35 -15l200 -200q15 -14 15 -35t-14.5 -35.5t-35.5 -14.5t-35 15z" />
    <glyph glyph-name="hcircumflex" unicode="&#x125;" 
d="M190 579v-579q0 -21 -14.5 -35.5t-35.5 -14.5t-35.5 14.5t-14.5 35.5v1200q0 21 14.5 35.5t35.5 14.5t35.5 -14.5t14.5 -35.5v-479l115 114q14 15 35 15h200q21 0 35 -15l200 -200q15 -14 15 -35v-600q0 -21 -14.5 -35.5t-35.5 -14.5t-35.5 14.5t-14.5 35.5v579l-171 171
h-158zM440 1513l-165 -164q-14 -15 -35 -15t-35.5 14.5t-14.5 35.5t15 35l200 200q14 15 35 15t35 -15l200 -200q15 -14 15 -35t-14.5 -35.5t-35.5 -14.5t-35 15z" />
    <glyph glyph-name="Hbar" unicode="&#x126;" horiz-adv-x="1080" 
d="M190 0q0 -21 -14.5 -35.5t-35.5 -14.5t-35.5 14.5t-14.5 35.5v1200q0 21 14.5 35.5t35.5 14.5t35.5 -14.5t14.5 -35.5v-150h700v150q0 21 14.5 35.5t35.5 14.5t35.5 -14.5t14.5 -35.5v-1200q0 -21 -14.5 -35.5t-35.5 -14.5t-35.5 14.5t-14.5 35.5v550h-700v-550zM890 650
v300h-700v-300h700z" />
    <glyph glyph-name="hbar" unicode="&#x127;" 
d="M190 579v-579q0 -21 -14.5 -35.5t-35.5 -14.5t-35.5 14.5t-14.5 35.5v1200q0 21 14.5 35.5t35.5 14.5t35.5 -14.5t14.5 -35.5v-479l115 114q14 15 35 15h200q21 0 35 -15l200 -200q15 -14 15 -35v-600q0 -21 -14.5 -35.5t-35.5 -14.5t-35.5 14.5t-14.5 35.5v579l-171 171
h-158zM140 954q-21 0 -35.5 14.5t-14.5 35.5t14.5 35.5t35.5 14.5h600q21 0 35.5 -14.5t14.5 -35.5t-14.5 -35.5t-35.5 -14.5h-600z" />
    <glyph glyph-name="Itilde" unicode="&#x128;" horiz-adv-x="280" 
d="M190 0q0 -21 -14.5 -35.5t-35.5 -14.5t-35.5 14.5t-14.5 35.5v1200q0 21 14.5 35.5t35.5 14.5t35.5 -14.5t14.5 -35.5v-1200zM240 1471l165 164q14 15 35 15t35.5 -14.5t14.5 -35.5t-15 -35l-200 -200q-14 -15 -35 -15t-35 15l-165 164l-165 -164q-14 -15 -35 -15
t-35.5 14.5t-14.5 35.5t15 35l200 200q14 15 35 15t35 -15z" />
    <glyph glyph-name="itilde" unicode="&#x129;" horiz-adv-x="280" 
d="M190 0q0 -21 -14.5 -35.5t-35.5 -14.5t-35.5 14.5t-14.5 35.5v800q0 21 14.5 35.5t35.5 14.5t35.5 -14.5t14.5 -35.5v-800zM240 1071l165 164q14 15 35 15t35.5 -14.5t14.5 -35.5t-15 -35l-200 -200q-14 -15 -35 -15t-35 15l-165 164l-165 -164q-14 -15 -35 -15
t-35.5 14.5t-14.5 35.5t15 35l200 200q14 15 35 15t35 -15z" />
    <glyph glyph-name="Imacron" unicode="&#x12a;" horiz-adv-x="280" 
d="M190 0q0 -21 -14.5 -35.5t-35.5 -14.5t-35.5 14.5t-14.5 35.5v1200q0 21 14.5 35.5t35.5 14.5t35.5 -14.5t14.5 -35.5v-1200zM-60 1450q-21 0 -35.5 14.5t-14.5 35.5t14.5 35.5t35.5 14.5h400q21 0 35.5 -14.5t14.5 -35.5t-14.5 -35.5t-35.5 -14.5h-400z" />
    <glyph glyph-name="imacron" unicode="&#x12b;" horiz-adv-x="280" 
d="M190 0q0 -21 -14.5 -35.5t-35.5 -14.5t-35.5 14.5t-14.5 35.5v800q0 21 14.5 35.5t35.5 14.5t35.5 -14.5t14.5 -35.5v-800zM-60 1050q-21 0 -35.5 14.5t-14.5 35.5t14.5 35.5t35.5 14.5h400q21 0 35.5 -14.5t14.5 -35.5t-14.5 -35.5t-35.5 -14.5h-400z" />
    <glyph glyph-name="Ibreve" unicode="&#x12c;" horiz-adv-x="280" 
d="M190 0q0 -21 -14.5 -35.5t-35.5 -14.5t-35.5 14.5t-14.5 35.5v1200q0 21 14.5 35.5t35.5 14.5t35.5 -14.5t14.5 -35.5v-1200zM-110 1400v200q0 21 14.5 35.5t35.5 14.5t35.5 -14.5t14.5 -35.5v-150h300v150q0 21 14.5 35.5t35.5 14.5t35.5 -14.5t14.5 -35.5v-200
q0 -21 -14.5 -35.5t-35.5 -14.5h-400q-21 0 -35.5 14.5t-14.5 35.5z" />
    <glyph glyph-name="ibreve" unicode="&#x12d;" horiz-adv-x="280" 
d="M190 0q0 -21 -14.5 -35.5t-35.5 -14.5t-35.5 14.5t-14.5 35.5v800q0 21 14.5 35.5t35.5 14.5t35.5 -14.5t14.5 -35.5v-800zM-110 1000v200q0 21 14.5 35.5t35.5 14.5t35.5 -14.5t14.5 -35.5v-150h300v150q0 21 14.5 35.5t35.5 14.5t35.5 -14.5t14.5 -35.5v-200
q0 -21 -14.5 -35.5t-35.5 -14.5h-400q-21 0 -35.5 14.5t-14.5 35.5z" />
    <glyph glyph-name="Iogonek" unicode="&#x12e;" horiz-adv-x="280" 
d="M190 0q0 -21 -14.5 -35.5t-35.5 -14.5t-35.5 14.5t-14.5 35.5v1200q0 21 14.5 35.5t35.5 14.5t35.5 -14.5t14.5 -35.5v-1200zM-110 -200q0 21 215 235q14 15 35 15t35.5 -14.5t14.5 -35.5t-15 -35l-164 -165l164 -165q15 -14 15 -35t-14.5 -35.5t-35.5 -14.5t-35 15
l-200 200q-15 14 -15 35z" />
    <glyph glyph-name="iogonek" unicode="&#x12f;" horiz-adv-x="280" 
d="M190 0q0 -21 -14.5 -35.5t-35.5 -14.5t-35.5 14.5t-14.5 35.5v800q0 21 14.5 35.5t35.5 14.5t35.5 -14.5t14.5 -35.5v-800zM188.5 1151q21.5 -19 21.5 -51t-21.5 -51t-48.5 -19t-48.5 19t-21.5 51t21.5 51t48.5 19t48.5 -19zM-110 -200q0 21 215 235q14 15 35 15
t35.5 -14.5t14.5 -35.5t-15 -35l-164 -165l164 -165q15 -14 15 -35t-14.5 -35.5t-35.5 -14.5t-35 15l-200 200q-15 14 -15 35z" />
    <glyph glyph-name="Idotaccent" unicode="&#x130;" horiz-adv-x="280" 
d="M190 0q0 -21 -14.5 -35.5t-35.5 -14.5t-35.5 14.5t-14.5 35.5v1200q0 21 14.5 35.5t35.5 14.5t35.5 -14.5t14.5 -35.5v-1200zM188.5 1551q21.5 -19 21.5 -51t-21.5 -51t-48.5 -19t-48.5 19t-21.5 51t21.5 51t48.5 19t48.5 -19z" />
    <glyph glyph-name="Jcircumflex" unicode="&#x134;" 
d="M305 -35l-200 200q-15 14 -15 35t14.5 35.5t35.5 14.5t35 -15l186 -185h158l171 171v929h-350q-21 0 -35.5 14.5t-14.5 35.5t14.5 35.5t35.5 14.5h400q21 0 35.5 -14.5t14.5 -35.5v-1000q0 -21 -15 -35l-200 -200q-14 -15 -35 -15h-200q-21 0 -35 15zM440 1529l-165 -164
q-14 -15 -35 -15t-35.5 14.5t-14.5 35.5t15 35l200 200q14 15 35 15t35 -15l200 -200q15 -14 15 -35t-14.5 -35.5t-35.5 -14.5t-35 15z" />
    <glyph glyph-name="jcircumflex" unicode="&#x135;" horiz-adv-x="280" 
d="M90 800q0 21 14.5 35.5t35.5 14.5t35.5 -14.5t14.5 -35.5v-1000q0 -21 -15 -35l-200 -200q-14 -15 -35 -15t-35.5 14.5t-14.5 35.5t15 35l185 186v979zM140 1129l-165 -164q-14 -15 -35 -15t-35.5 14.5t-14.5 35.5t15 35l200 200q14 15 35 15t35 -15l200 -200
q15 -14 15 -35t-14.5 -35.5t-35.5 -14.5t-35 15z" />
    <glyph glyph-name="Kcommaaccent" unicode="&#x136;" horiz-adv-x="980" 
d="M90 1200q0 21 14.5 35.5t35.5 14.5t35.5 -14.5t14.5 -35.5v-679l715 714q14 15 35 15t35.5 -14.5t14.5 -35.5t-15 -35l-564 -565l564 -565q15 -14 15 -35t-14.5 -35.5t-35.5 -14.5t-35 15l-565 564l-150 -150v-379q0 -21 -14.5 -35.5t-35.5 -14.5t-35.5 14.5t-14.5 35.5
v1200zM590 -300q0 -21 -14.5 -35.5t-35.5 -14.5t-35.5 14.5t-14.5 35.5v200q0 21 14.5 35.5t35.5 14.5t35.5 -14.5t14.5 -35.5v-200z" />
    <glyph glyph-name="kcommaaccent" unicode="&#x137;" horiz-adv-x="830" 
d="M190 179v-179q0 -21 -14.5 -35.5t-35.5 -14.5t-35.5 14.5t-14.5 35.5v1200q0 21 14.5 35.5t35.5 14.5t35.5 -14.5t14.5 -35.5v-879l515 514q14 15 35 15t35.5 -14.5t14.5 -35.5t-15 -35l-364 -365l364 -365q15 -14 15 -35t-14.5 -35.5t-35.5 -14.5t-35 15l-365 364z
M490 -300q0 -21 -14.5 -35.5t-35.5 -14.5t-35.5 14.5t-14.5 35.5v200q0 21 14.5 35.5t35.5 14.5t35.5 -14.5t14.5 -35.5v-200z" />
    <glyph glyph-name="kgreenlandic" unicode="&#x138;" horiz-adv-x="830" 
d="M190 179v-179q0 -21 -14.5 -35.5t-35.5 -14.5t-35.5 14.5t-14.5 35.5v800q0 21 14.5 35.5t35.5 14.5t35.5 -14.5t14.5 -35.5v-479l515 514q14 15 35 15t35.5 -14.5t14.5 -35.5t-15 -35l-364 -365l364 -365q15 -14 15 -35t-14.5 -35.5t-35.5 -14.5t-35 15l-365 364z" />
    <glyph glyph-name="Lacute" unicode="&#x139;" horiz-adv-x="780" 
d="M740 50q21 0 35.5 -14.5t14.5 -35.5t-14.5 -35.5t-35.5 -14.5h-600q-21 0 -35.5 14.5t-14.5 35.5v1200q0 21 14.5 35.5t35.5 14.5t35.5 -14.5t14.5 -35.5v-1150h550zM305 1635q14 15 35 15t35.5 -14.5t14.5 -35.5t-15 -35l-200 -200q-14 -15 -35 -15t-35.5 14.5
t-14.5 35.5t15 35z" />
    <glyph glyph-name="lacute" unicode="&#x13a;" horiz-adv-x="380" 
d="M190 221l185 -186q15 -14 15 -35t-14.5 -35.5t-35.5 -14.5t-35 15l-200 200q-15 14 -15 35v1000q0 21 14.5 35.5t35.5 14.5t35.5 -14.5t14.5 -35.5v-979zM305 1635q14 15 35 15t35.5 -14.5t14.5 -35.5t-15 -35l-200 -200q-14 -15 -35 -15t-35.5 14.5t-14.5 35.5t15 35z
" />
    <glyph glyph-name="Lcommaaccent" unicode="&#x13b;" horiz-adv-x="780" 
d="M740 50q21 0 35.5 -14.5t14.5 -35.5t-14.5 -35.5t-35.5 -14.5h-600q-21 0 -35.5 14.5t-14.5 35.5v1200q0 21 14.5 35.5t35.5 14.5t35.5 -14.5t14.5 -35.5v-1150h550zM490 -300q0 -21 -14.5 -35.5t-35.5 -14.5t-35.5 14.5t-14.5 35.5v200q0 21 14.5 35.5t35.5 14.5
t35.5 -14.5t14.5 -35.5v-200z" />
    <glyph glyph-name="lcommaaccent" unicode="&#x13c;" horiz-adv-x="380" 
d="M190 221l185 -186q15 -14 15 -35t-14.5 -35.5t-35.5 -14.5t-35 15l-200 200q-15 14 -15 35v1000q0 21 14.5 35.5t35.5 14.5t35.5 -14.5t14.5 -35.5v-979zM290 -300q0 -21 -14.5 -35.5t-35.5 -14.5t-35.5 14.5t-14.5 35.5v200q0 21 14.5 35.5t35.5 14.5t35.5 -14.5
t14.5 -35.5v-200z" />
    <glyph glyph-name="Lcaron" unicode="&#x13d;" horiz-adv-x="780" 
d="M740 50q21 0 35.5 -14.5t14.5 -35.5t-14.5 -35.5t-35.5 -14.5h-600q-21 0 -35.5 14.5t-14.5 35.5v1200q0 21 14.5 35.5t35.5 14.5t35.5 -14.5t14.5 -35.5v-1150h550zM390 1000q0 -21 -14.5 -35.5t-35.5 -14.5t-35.5 14.5t-14.5 35.5v200q0 21 14.5 35.5t35.5 14.5
t35.5 -14.5t14.5 -35.5v-200z" />
    <glyph glyph-name="lcaron" unicode="&#x13e;" horiz-adv-x="380" 
d="M190 221l185 -186q15 -14 15 -35t-14.5 -35.5t-35.5 -14.5t-35 15l-200 200q-15 14 -15 35v1000q0 21 14.5 35.5t35.5 14.5t35.5 -14.5t14.5 -35.5v-979zM390 1000q0 -21 -14.5 -35.5t-35.5 -14.5t-35.5 14.5t-14.5 35.5v200q0 21 14.5 35.5t35.5 14.5t35.5 -14.5
t14.5 -35.5v-200z" />
    <glyph glyph-name="Ldot" unicode="&#x13f;" horiz-adv-x="780" 
d="M740 50q21 0 35.5 -14.5t14.5 -35.5t-14.5 -35.5t-35.5 -14.5h-600q-21 0 -35.5 14.5t-14.5 35.5v1200q0 21 14.5 35.5t35.5 14.5t35.5 -14.5t14.5 -35.5v-1150h550zM388.5 651q21.5 -19 21.5 -51t-21.5 -51t-48.5 -19t-48.5 19t-21.5 51t21.5 51t48.5 19t48.5 -19z" />
    <glyph glyph-name="ldot" unicode="&#x140;" horiz-adv-x="420" 
d="M190 221l185 -186q15 -14 15 -35t-14.5 -35.5t-35.5 -14.5t-35 15l-200 200q-15 14 -15 35v1000q0 21 14.5 35.5t35.5 14.5t35.5 -14.5t14.5 -35.5v-979zM388.5 651q21.5 -19 21.5 -51t-21.5 -51t-48.5 -19t-48.5 19t-21.5 51t21.5 51t48.5 19t48.5 -19z" />
    <glyph glyph-name="Lslash" unicode="&#x141;" horiz-adv-x="780" 
d="M190 479v-429h550q21 0 35.5 -14.5t14.5 -35.5t-14.5 -35.5t-35.5 -14.5h-600q-21 0 -35.5 14.5t-14.5 35.5v379l-15 -14q-14 -15 -35 -15t-35.5 14.5t-14.5 35.5t15 35l85 86v679q0 21 14.5 35.5t35.5 14.5t35.5 -14.5t14.5 -35.5v-579l215 214q14 15 35 15t35.5 -14.5
t14.5 -35.5t-15 -35z" />
    <glyph glyph-name="lslash" unicode="&#x142;" horiz-adv-x="380" 
d="M190 579v-358l185 -186q15 -14 15 -35t-14.5 -35.5t-35.5 -14.5t-35 15l-200 200q-15 14 -15 35v279l-15 -14q-14 -15 -35 -15t-35.5 14.5t-14.5 35.5t15 35l85 86v579q0 21 14.5 35.5t35.5 14.5t35.5 -14.5t14.5 -35.5v-479l15 14q14 15 35 15t35.5 -14.5t14.5 -35.5
t-15 -35z" />
    <glyph glyph-name="Nacute" unicode="&#x143;" horiz-adv-x="1080" 
d="M190 1079v-1079q0 -21 -14.5 -35.5t-35.5 -14.5t-35.5 14.5t-14.5 35.5v1200q0 21 14.5 35.5t35.5 14.5t35 -15l715 -714v679q0 21 14.5 35.5t35.5 14.5t35.5 -14.5t14.5 -35.5v-1200q0 -21 -14.5 -35.5t-35.5 -14.5t-35.5 14.5t-14.5 35.5v379zM642 1635q14 15 35 15
t35.5 -14.5t14.5 -35.5t-15 -35l-200 -200q-14 -15 -35 -15t-35.5 14.5t-14.5 35.5t15 35z" />
    <glyph glyph-name="nacute" unicode="&#x144;" 
d="M190 579v-579q0 -21 -14.5 -35.5t-35.5 -14.5t-35.5 14.5t-14.5 35.5v800q0 21 14.5 35.5t35.5 14.5t35.5 -14.5t14.5 -35.5v-79l115 114q14 15 35 15h200q21 0 35 -15l200 -200q15 -14 15 -35v-600q0 -21 -14.5 -35.5t-35.5 -14.5t-35.5 14.5t-14.5 35.5v579l-171 171
h-158zM542 1235q14 15 35 15t35.5 -14.5t14.5 -35.5t-15 -35l-200 -200q-14 -15 -35 -15t-35.5 14.5t-14.5 35.5t15 35z" />
    <glyph glyph-name="Ncommaaccent" unicode="&#x145;" horiz-adv-x="1080" 
d="M190 1079v-1079q0 -21 -14.5 -35.5t-35.5 -14.5t-35.5 14.5t-14.5 35.5v1200q0 21 14.5 35.5t35.5 14.5t35 -15l715 -714v679q0 21 14.5 35.5t35.5 14.5t35.5 -14.5t14.5 -35.5v-1200q0 -21 -14.5 -35.5t-35.5 -14.5t-35.5 14.5t-14.5 35.5v379zM590 -300
q0 -21 -14.5 -35.5t-35.5 -14.5t-35.5 14.5t-14.5 35.5v200q0 21 14.5 35.5t35.5 14.5t35.5 -14.5t14.5 -35.5v-200z" />
    <glyph glyph-name="ncommaaccent" unicode="&#x146;" 
d="M190 579v-579q0 -21 -14.5 -35.5t-35.5 -14.5t-35.5 14.5t-14.5 35.5v800q0 21 14.5 35.5t35.5 14.5t35.5 -14.5t14.5 -35.5v-79l115 114q14 15 35 15h200q21 0 35 -15l200 -200q15 -14 15 -35v-600q0 -21 -14.5 -35.5t-35.5 -14.5t-35.5 14.5t-14.5 35.5v579l-171 171
h-158zM490 -300q0 -21 -14.5 -35.5t-35.5 -14.5t-35.5 14.5t-14.5 35.5v200q0 21 14.5 35.5t35.5 14.5t35.5 -14.5t14.5 -35.5v-200z" />
    <glyph glyph-name="Ncaron" unicode="&#x147;" horiz-adv-x="1080" 
d="M190 1079v-1079q0 -21 -14.5 -35.5t-35.5 -14.5t-35.5 14.5t-14.5 35.5v1200q0 21 14.5 35.5t35.5 14.5t35 -15l715 -714v679q0 21 14.5 35.5t35.5 14.5t35.5 -14.5t14.5 -35.5v-1200q0 -21 -14.5 -35.5t-35.5 -14.5t-35.5 14.5t-14.5 35.5v379zM505 1365l-200 200
q-15 14 -15 35t14.5 35.5t35.5 14.5t35 -15l165 -164l165 164q14 15 35 15t35.5 -14.5t14.5 -35.5t-15 -35l-200 -200q-14 -15 -35 -15t-35 15z" />
    <glyph glyph-name="ncaron" unicode="&#x148;" 
d="M190 579v-579q0 -21 -14.5 -35.5t-35.5 -14.5t-35.5 14.5t-14.5 35.5v800q0 21 14.5 35.5t35.5 14.5t35.5 -14.5t14.5 -35.5v-79l115 114q14 15 35 15h200q21 0 35 -15l200 -200q15 -14 15 -35v-600q0 -21 -14.5 -35.5t-35.5 -14.5t-35.5 14.5t-14.5 35.5v579l-171 171
h-158zM405 965l-200 200q-15 14 -15 35t14.5 35.5t35.5 14.5t35 -15l165 -164l165 164q14 15 35 15t35.5 -14.5t14.5 -35.5t-15 -35l-200 -200q-14 -15 -35 -15t-35 15z" />
    <glyph glyph-name="napostrophe" unicode="&#x149;" horiz-adv-x="980" 
d="M290 579v-579q0 -21 -14.5 -35.5t-35.5 -14.5t-35.5 14.5t-14.5 35.5v800q0 21 14.5 35.5t35.5 14.5t35.5 -14.5t14.5 -35.5v-79l115 114q14 15 35 15h200q21 0 35 -15l200 -200q15 -14 15 -35v-600q0 -21 -14.5 -35.5t-35.5 -14.5t-35.5 14.5t-14.5 35.5v579l-171 171
h-158zM190 1000q0 -21 -14.5 -35.5t-35.5 -14.5t-35.5 14.5t-14.5 35.5v200q0 21 14.5 35.5t35.5 14.5t35.5 -14.5t14.5 -35.5v-200z" />
    <glyph glyph-name="Eng" unicode="&#x14a;" horiz-adv-x="1080" 
d="M170 1079v-1079q0 -21 -14.5 -35.5t-35.5 -14.5t-35.5 14.5t-14.5 35.5v1200q0 21 14.5 35.5t35.5 14.5t35 -15l715 -714v679q0 21 14.5 35.5t35.5 14.5t35.5 -14.5t14.5 -35.5v-1200q0 -21 -14.5 -35.5t-35.5 -14.5t-35.5 14.5t-14.5 35.5v379zM970 -100
q0 -21 -14.5 -35.5t-35.5 -14.5t-35.5 14.5t-14.5 35.5v200q0 21 14.5 35.5t35.5 14.5t35.5 -14.5t14.5 -35.5v-200z" />
    <glyph glyph-name="eng" unicode="&#x14b;" 
d="M190 579v-579q0 -21 -14.5 -35.5t-35.5 -14.5t-35.5 14.5t-14.5 35.5v800q0 21 14.5 35.5t35.5 14.5t35.5 -14.5t14.5 -35.5v-79l115 114q14 15 35 15h200q21 0 35 -15l200 -200q15 -14 15 -35v-600q0 -21 -14.5 -35.5t-35.5 -14.5t-35.5 14.5t-14.5 35.5v579l-171 171
h-158zM790 -100q0 -21 -14.5 -35.5t-35.5 -14.5t-35.5 14.5t-14.5 35.5v200q0 21 14.5 35.5t35.5 14.5t35.5 -14.5t14.5 -35.5v-200z" />
    <glyph glyph-name="Omacron" unicode="&#x14c;" horiz-adv-x="1080" 
d="M305 -35l-200 200q-15 14 -15 35v800q0 21 15 35l200 200q14 15 35 15h400q21 0 35 -15l200 -200q15 -14 15 -35v-800q0 -21 -15 -35l-200 -200q-14 -15 -35 -15h-400q-21 0 -35 15zM190 221l171 -171h358l171 171v758l-171 171h-358l-171 -171v-758zM340 1450
q-21 0 -35.5 14.5t-14.5 35.5t14.5 35.5t35.5 14.5h400q21 0 35.5 -14.5t14.5 -35.5t-14.5 -35.5t-35.5 -14.5h-400z" />
    <glyph glyph-name="omacron" unicode="&#x14d;" 
d="M540 -50h-200q-21 0 -35 15l-200 200q-15 14 -15 35v400q0 21 15 35l200 200q14 15 35 15h200q21 0 35 -15l200 -200q15 -14 15 -35v-400q0 -21 -15 -35l-200 -200q-14 -15 -35 -15zM361 50h158l171 171v358l-171 171h-158l-171 -171v-358zM240 1050q-21 0 -35.5 14.5
t-14.5 35.5t14.5 35.5t35.5 14.5h400q21 0 35.5 -14.5t14.5 -35.5t-14.5 -35.5t-35.5 -14.5h-400z" />
    <glyph glyph-name="Obreve" unicode="&#x14e;" horiz-adv-x="1080" 
d="M305 -35l-200 200q-15 14 -15 35v800q0 21 15 35l200 200q14 15 35 15h400q21 0 35 -15l200 -200q15 -14 15 -35v-800q0 -21 -15 -35l-200 -200q-14 -15 -35 -15h-400q-21 0 -35 15zM190 221l171 -171h358l171 171v758l-171 171h-358l-171 -171v-758zM290 1400v200
q0 21 14.5 35.5t35.5 14.5t35.5 -14.5t14.5 -35.5v-150h300v150q0 21 14.5 35.5t35.5 14.5t35.5 -14.5t14.5 -35.5v-200q0 -21 -14.5 -35.5t-35.5 -14.5h-400q-21 0 -35.5 14.5t-14.5 35.5z" />
    <glyph glyph-name="obreve" unicode="&#x14f;" 
d="M540 -50h-200q-21 0 -35 15l-200 200q-15 14 -15 35v400q0 21 15 35l200 200q14 15 35 15h200q21 0 35 -15l200 -200q15 -14 15 -35v-400q0 -21 -15 -35l-200 -200q-14 -15 -35 -15zM361 50h158l171 171v358l-171 171h-158l-171 -171v-358zM190 1000v200q0 21 14.5 35.5
t35.5 14.5t35.5 -14.5t14.5 -35.5v-150h300v150q0 21 14.5 35.5t35.5 14.5t35.5 -14.5t14.5 -35.5v-200q0 -21 -14.5 -35.5t-35.5 -14.5h-400q-21 0 -35.5 14.5t-14.5 35.5z" />
    <glyph glyph-name="Ohungarumlaut" unicode="&#x150;" horiz-adv-x="1080" 
d="M305 -35l-200 200q-15 14 -15 35v800q0 21 15 35l200 200q14 15 35 15h400q21 0 35 -15l200 -200q15 -14 15 -35v-800q0 -21 -15 -35l-200 -200q-14 -15 -35 -15h-400q-21 0 -35 15zM190 221l171 -171h358l171 171v758l-171 171h-358l-171 -171v-758zM555 1635
q14 15 35 15t35.5 -14.5t14.5 -35.5t-15 -35l-200 -200q-14 -15 -35 -15t-35.5 14.5t-14.5 35.5t15 35zM755 1635q14 15 35 15t35.5 -14.5t14.5 -35.5t-15 -35l-200 -200q-14 -15 -35 -15t-35.5 14.5t-14.5 35.5t15 35z" />
    <glyph glyph-name="ohungarumlaut" unicode="&#x151;" 
d="M540 -50h-200q-21 0 -35 15l-200 200q-15 14 -15 35v400q0 21 15 35l200 200q14 15 35 15h200q21 0 35 -15l200 -200q15 -14 15 -35v-400q0 -21 -15 -35l-200 -200q-14 -15 -35 -15zM361 50h158l171 171v358l-171 171h-158l-171 -171v-358zM455 1235q14 15 35 15
t35.5 -14.5t14.5 -35.5t-15 -35l-200 -200q-14 -15 -35 -15t-35.5 14.5t-14.5 35.5t15 35zM655 1235q14 15 35 15t35.5 -14.5t14.5 -35.5t-15 -35l-200 -200q-14 -15 -35 -15t-35.5 14.5t-14.5 35.5t15 35z" />
    <glyph glyph-name="OE" unicode="&#x152;" horiz-adv-x="1580" 
d="M305 -35l-200 200q-15 14 -15 35v800q0 21 15 35l200 200q14 15 35 15h400q21 0 35 -15l200 -200q15 -14 15 -35v-800q0 -21 -15 -35l-200 -200q-14 -15 -35 -15h-400q-21 0 -35 15zM190 221l171 -171h358l171 171v758l-171 171h-358l-171 -171v-758zM1540 50
q21 0 35.5 -14.5t14.5 -35.5t-14.5 -35.5t-35.5 -14.5h-600q-21 0 -35.5 14.5t-14.5 35.5v1200q0 21 14.5 35.5t35.5 14.5h600q21 0 35.5 -14.5t14.5 -35.5t-14.5 -35.5t-35.5 -14.5h-550v-500h350q21 0 35.5 -14.5t14.5 -35.5t-14.5 -35.5t-35.5 -14.5h-350v-500h550z" />
    <glyph glyph-name="oe" unicode="&#x153;" horiz-adv-x="1480" 
d="M540 -50h-200q-21 0 -35 15l-200 200q-15 14 -15 35v400q0 21 15 35l200 200q14 15 35 15h200q21 0 35 -15l200 -200q15 -14 15 -35v-400q0 -21 -15 -35l-200 -200q-14 -15 -35 -15zM361 50h158l171 171v358l-171 171h-158l-171 -171v-358zM1390 600v-200q0 -21 -15 -35
q-14 -15 -35 -15h-550v-129l171 -171h158l186 185q14 15 35 15t35.5 -14.5t14.5 -35.5t-15 -35l-200 -200q-14 -15 -35 -15h-200q-21 0 -35 15l-200 200q-15 14 -15 35v400q0 21 15 35l200 200q14 15 35 15h200q21 0 35 -15l200 -200q15 -14 15 -35zM1290 450v129l-171 171
h-158l-171 -171v-129h500z" />
    <glyph glyph-name="Racute" unicode="&#x154;" horiz-adv-x="1080" 
d="M775 1235l200 -200q15 -14 15 -35v-400q0 -21 -15 -35l-164 -165l164 -165q15 -14 15 -35v-200q0 -21 -14.5 -35.5t-35.5 -14.5t-35.5 14.5t-14.5 35.5v179l-171 171h-529v-350q0 -21 -14.5 -35.5t-35.5 -14.5t-35.5 14.5t-14.5 35.5v1200q0 21 14.5 35.5t35.5 14.5h600
q21 0 35 -15zM890 979l-171 171h-529v-700h529l171 171v358zM642 1635q14 15 35 15t35.5 -14.5t14.5 -35.5t-15 -35l-200 -200q-14 -15 -35 -15t-35.5 14.5t-14.5 35.5t15 35z" />
    <glyph glyph-name="racute" unicode="&#x155;" horiz-adv-x="580" 
d="M190 579v-579q0 -21 -14.5 -35.5t-35.5 -14.5t-35.5 14.5t-14.5 35.5v800q0 21 14.5 35.5t35.5 14.5t35.5 -14.5t14.5 -35.5v-79l115 114q14 15 35 15h200q21 0 35.5 -14.5t14.5 -35.5t-14.5 -35.5t-35.5 -14.5h-179zM442 1235q14 15 35 15t35.5 -14.5t14.5 -35.5
t-15 -35l-200 -200q-14 -15 -35 -15t-35.5 14.5t-14.5 35.5t15 35z" />
    <glyph glyph-name="Rcommaaccent" unicode="&#x156;" horiz-adv-x="1080" 
d="M775 1235l200 -200q15 -14 15 -35v-400q0 -21 -15 -35l-164 -165l164 -165q15 -14 15 -35v-200q0 -21 -14.5 -35.5t-35.5 -14.5t-35.5 14.5t-14.5 35.5v179l-171 171h-529v-350q0 -21 -14.5 -35.5t-35.5 -14.5t-35.5 14.5t-14.5 35.5v1200q0 21 14.5 35.5t35.5 14.5h600
q21 0 35 -15zM890 979l-171 171h-529v-700h529l171 171v358zM590 -300q0 -21 -14.5 -35.5t-35.5 -14.5t-35.5 14.5t-14.5 35.5v200q0 21 14.5 35.5t35.5 14.5t35.5 -14.5t14.5 -35.5v-200z" />
    <glyph glyph-name="rcommaaccent" unicode="&#x157;" horiz-adv-x="580" 
d="M190 579v-579q0 -21 -14.5 -35.5t-35.5 -14.5t-35.5 14.5t-14.5 35.5v800q0 21 14.5 35.5t35.5 14.5t35.5 -14.5t14.5 -35.5v-79l115 114q14 15 35 15h200q21 0 35.5 -14.5t14.5 -35.5t-14.5 -35.5t-35.5 -14.5h-179zM190 -300q0 -21 -14.5 -35.5t-35.5 -14.5t-35.5 14.5
t-14.5 35.5v200q0 21 14.5 35.5t35.5 14.5t35.5 -14.5t14.5 -35.5v-200z" />
    <glyph glyph-name="Tcommaaccent" unicode="&#x162;" horiz-adv-x="680" 
d="M390 0q0 -21 -14.5 -35.5t-35.5 -14.5t-35.5 14.5t-14.5 35.5v1150h-250q-21 0 -35.5 14.5t-14.5 35.5t14.5 35.5t35.5 14.5h600q21 0 35.5 -14.5t14.5 -35.5t-14.5 -35.5t-35.5 -14.5h-250v-1150zM575 -235l-200 -200q-14 -15 -35 -15t-35.5 14.5t-14.5 35.5t15 35
l164 165l-164 165q-15 14 -15 35t14.5 35.5t35.5 14.5t35 -15q215 -214 215 -235t-15 -35z" />
    <glyph glyph-name="tcommaaccent" unicode="&#x163;" horiz-adv-x="530" 
d="M290 221l185 -186q15 -14 15 -35t-14.5 -35.5t-35.5 -14.5t-35 15l-200 200q-15 14 -15 35v550h-150q-21 0 -35.5 14.5t-14.5 35.5t14.5 35.5t35.5 14.5h150v350q0 21 14.5 35.5t35.5 14.5t35.5 -14.5t14.5 -35.5v-350h150q21 0 35.5 -14.5t14.5 -35.5t-14.5 -35.5
t-35.5 -14.5h-150v-529zM475 -235l-200 -200q-14 -15 -35 -15t-35.5 14.5t-14.5 35.5t15 35l164 165l-164 165q-15 14 -15 35t14.5 35.5t35.5 14.5t35 -15q215 -214 215 -235t-15 -35z" />
    <glyph glyph-name="Tcaron" unicode="&#x164;" horiz-adv-x="680" 
d="M390 0q0 -21 -14.5 -35.5t-35.5 -14.5t-35.5 14.5t-14.5 35.5v1150h-250q-21 0 -35.5 14.5t-14.5 35.5t14.5 35.5t35.5 14.5h600q21 0 35.5 -14.5t14.5 -35.5t-14.5 -35.5t-35.5 -14.5h-250v-1150zM305 1365l-200 200q-15 14 -15 35t14.5 35.5t35.5 14.5t35 -15l165 -164
l165 164q14 15 35 15t35.5 -14.5t14.5 -35.5t-15 -35l-200 -200q-14 -15 -35 -15t-35 15z" />
    <glyph glyph-name="tcaron" unicode="&#x165;" horiz-adv-x="530" 
d="M290 221l185 -186q15 -14 15 -35t-14.5 -35.5t-35.5 -14.5t-35 15l-200 200q-15 14 -15 35v550h-150q-21 0 -35.5 14.5t-14.5 35.5t14.5 35.5t35.5 14.5h150v350q0 21 14.5 35.5t35.5 14.5t35.5 -14.5t14.5 -35.5v-350h150q21 0 35.5 -14.5t14.5 -35.5t-14.5 -35.5
t-35.5 -14.5h-150v-529zM490 1000q0 -21 -14.5 -35.5t-35.5 -14.5t-35.5 14.5t-14.5 35.5v200q0 21 14.5 35.5t35.5 14.5t35.5 -14.5t14.5 -35.5v-200z" />
    <glyph glyph-name="Tbar" unicode="&#x166;" horiz-adv-x="680" 
d="M390 0q0 -21 -14.5 -35.5t-35.5 -14.5t-35.5 14.5t-14.5 35.5v1150h-250q-21 0 -35.5 14.5t-14.5 35.5t14.5 35.5t35.5 14.5h600q21 0 35.5 -14.5t14.5 -35.5t-14.5 -35.5t-35.5 -14.5h-250v-1150zM40 550q-21 0 -35.5 14.5t-14.5 35.5t14.5 35.5t35.5 14.5h600
q21 0 35.5 -14.5t14.5 -35.5t-14.5 -35.5t-35.5 -14.5h-600z" />
    <glyph glyph-name="tbar" unicode="&#x167;" horiz-adv-x="530" 
d="M290 221l185 -186q15 -14 15 -35t-14.5 -35.5t-35.5 -14.5t-35 15l-200 200q-15 14 -15 35v250h-150q-21 0 -35.5 14.5t-14.5 35.5t14.5 35.5t35.5 14.5h150v200h-150q-21 0 -35.5 14.5t-14.5 35.5t14.5 35.5t35.5 14.5h150v350q0 21 14.5 35.5t35.5 14.5t35.5 -14.5
t14.5 -35.5v-350h150q21 0 35.5 -14.5t14.5 -35.5t-14.5 -35.5t-35.5 -14.5h-150v-200h150q21 0 35.5 -14.5t14.5 -35.5t-14.5 -35.5t-35.5 -14.5h-150v-229z" />
    <glyph glyph-name="Utilde" unicode="&#x168;" horiz-adv-x="1080" 
d="M890 221v979q0 21 14.5 35.5t35.5 14.5t35.5 -14.5t14.5 -35.5v-1000q0 -21 -15 -35l-200 -200q-14 -15 -35 -15h-400q-21 0 -35 15l-200 200q-15 14 -15 35v1000q0 21 14.5 35.5t35.5 14.5t35.5 -14.5t14.5 -35.5v-979l171 -171h358zM640 1471l165 164q14 15 35 15
t35.5 -14.5t14.5 -35.5t-15 -35l-200 -200q-14 -15 -35 -15t-35 15l-165 164l-165 -164q-14 -15 -35 -15t-35.5 14.5t-14.5 35.5t15 35l200 200q14 15 35 15t35 -15z" />
    <glyph glyph-name="utilde" unicode="&#x169;" 
d="M90 200v600q0 21 14.5 35.5t35.5 14.5t35.5 -14.5t14.5 -35.5v-579l171 -171h158l171 171v579q0 21 14.5 35.5t35.5 14.5t35.5 -14.5t14.5 -35.5v-800q0 -21 -14.5 -35.5t-35.5 -14.5t-35.5 14.5t-14.5 35.5v79l-115 -114q-14 -15 -35 -15h-200q-21 0 -35 15l-200 200
q-15 14 -15 35zM540 1071l165 164q14 15 35 15t35.5 -14.5t14.5 -35.5t-15 -35l-200 -200q-14 -15 -35 -15t-35 15l-165 164l-165 -164q-14 -15 -35 -15t-35.5 14.5t-14.5 35.5t15 35l200 200q14 15 35 15t35 -15z" />
    <glyph glyph-name="Umacron" unicode="&#x16a;" horiz-adv-x="1080" 
d="M890 221v979q0 21 14.5 35.5t35.5 14.5t35.5 -14.5t14.5 -35.5v-1000q0 -21 -15 -35l-200 -200q-14 -15 -35 -15h-400q-21 0 -35 15l-200 200q-15 14 -15 35v1000q0 21 14.5 35.5t35.5 14.5t35.5 -14.5t14.5 -35.5v-979l171 -171h358zM340 1450q-21 0 -35.5 14.5
t-14.5 35.5t14.5 35.5t35.5 14.5h400q21 0 35.5 -14.5t14.5 -35.5t-14.5 -35.5t-35.5 -14.5h-400z" />
    <glyph glyph-name="umacron" unicode="&#x16b;" 
d="M90 200v600q0 21 14.5 35.5t35.5 14.5t35.5 -14.5t14.5 -35.5v-579l171 -171h158l171 171v579q0 21 14.5 35.5t35.5 14.5t35.5 -14.5t14.5 -35.5v-800q0 -21 -14.5 -35.5t-35.5 -14.5t-35.5 14.5t-14.5 35.5v79l-115 -114q-14 -15 -35 -15h-200q-21 0 -35 15l-200 200
q-15 14 -15 35zM240 1050q-21 0 -35.5 14.5t-14.5 35.5t14.5 35.5t35.5 14.5h400q21 0 35.5 -14.5t14.5 -35.5t-14.5 -35.5t-35.5 -14.5h-400z" />
    <glyph glyph-name="Ubreve" unicode="&#x16c;" horiz-adv-x="1080" 
d="M890 221v979q0 21 14.5 35.5t35.5 14.5t35.5 -14.5t14.5 -35.5v-1000q0 -21 -15 -35l-200 -200q-14 -15 -35 -15h-400q-21 0 -35 15l-200 200q-15 14 -15 35v1000q0 21 14.5 35.5t35.5 14.5t35.5 -14.5t14.5 -35.5v-979l171 -171h358zM290 1400v200q0 21 14.5 35.5
t35.5 14.5t35.5 -14.5t14.5 -35.5v-150h300v150q0 21 14.5 35.5t35.5 14.5t35.5 -14.5t14.5 -35.5v-200q0 -21 -14.5 -35.5t-35.5 -14.5h-400q-21 0 -35.5 14.5t-14.5 35.5z" />
    <glyph glyph-name="ubreve" unicode="&#x16d;" 
d="M90 200v600q0 21 14.5 35.5t35.5 14.5t35.5 -14.5t14.5 -35.5v-579l171 -171h158l171 171v579q0 21 14.5 35.5t35.5 14.5t35.5 -14.5t14.5 -35.5v-800q0 -21 -14.5 -35.5t-35.5 -14.5t-35.5 14.5t-14.5 35.5v79l-115 -114q-14 -15 -35 -15h-200q-21 0 -35 15l-200 200
q-15 14 -15 35zM190 1000v200q0 21 14.5 35.5t35.5 14.5t35.5 -14.5t14.5 -35.5v-150h300v150q0 21 14.5 35.5t35.5 14.5t35.5 -14.5t14.5 -35.5v-200q0 -21 -14.5 -35.5t-35.5 -14.5h-400q-21 0 -35.5 14.5t-14.5 35.5z" />
    <glyph glyph-name="Uring" unicode="&#x16e;" horiz-adv-x="1080" 
d="M890 221v979q0 21 14.5 35.5t35.5 14.5t35.5 -14.5t14.5 -35.5v-1000q0 -21 -15 -35l-200 -200q-14 -15 -35 -15h-400q-21 0 -35 15l-200 200q-15 14 -15 35v1000q0 21 14.5 35.5t35.5 14.5t35.5 -14.5t14.5 -35.5v-979l171 -171h358zM440 1650h200q21 0 35.5 -14.5
t14.5 -35.5v-200q0 -21 -14.5 -35.5t-35.5 -14.5h-200q-21 0 -35.5 14.5t-14.5 35.5v200q0 21 14.5 35.5t35.5 14.5zM590 1550h-100v-100h100v100z" />
    <glyph glyph-name="uring" unicode="&#x16f;" 
d="M90 200v600q0 21 14.5 35.5t35.5 14.5t35.5 -14.5t14.5 -35.5v-579l171 -171h158l171 171v579q0 21 14.5 35.5t35.5 14.5t35.5 -14.5t14.5 -35.5v-800q0 -21 -14.5 -35.5t-35.5 -14.5t-35.5 14.5t-14.5 35.5v79l-115 -114q-14 -15 -35 -15h-200q-21 0 -35 15l-200 200
q-15 14 -15 35zM340 1250h200q21 0 35.5 -14.5t14.5 -35.5v-200q0 -21 -14.5 -35.5t-35.5 -14.5h-200q-21 0 -35.5 14.5t-14.5 35.5v200q0 21 14.5 35.5t35.5 14.5zM490 1150h-100v-100h100v100z" />
    <glyph glyph-name="Uhungarumlaut" unicode="&#x170;" horiz-adv-x="1080" 
d="M890 221v979q0 21 14.5 35.5t35.5 14.5t35.5 -14.5t14.5 -35.5v-1000q0 -21 -15 -35l-200 -200q-14 -15 -35 -15h-400q-21 0 -35 15l-200 200q-15 14 -15 35v1000q0 21 14.5 35.5t35.5 14.5t35.5 -14.5t14.5 -35.5v-979l171 -171h358zM555 1635q14 15 35 15t35.5 -14.5
t14.5 -35.5t-15 -35l-200 -200q-14 -15 -35 -15t-35.5 14.5t-14.5 35.5t15 35zM755 1635q14 15 35 15t35.5 -14.5t14.5 -35.5t-15 -35l-200 -200q-14 -15 -35 -15t-35.5 14.5t-14.5 35.5t15 35z" />
    <glyph glyph-name="uhungarumlaut" unicode="&#x171;" 
d="M90 200v600q0 21 14.5 35.5t35.5 14.5t35.5 -14.5t14.5 -35.5v-579l171 -171h158l171 171v579q0 21 14.5 35.5t35.5 14.5t35.5 -14.5t14.5 -35.5v-800q0 -21 -14.5 -35.5t-35.5 -14.5t-35.5 14.5t-14.5 35.5v79l-115 -114q-14 -15 -35 -15h-200q-21 0 -35 15l-200 200
q-15 14 -15 35zM455 1235q14 15 35 15t35.5 -14.5t14.5 -35.5t-15 -35l-200 -200q-14 -15 -35 -15t-35.5 14.5t-14.5 35.5t15 35zM655 1235q14 15 35 15t35.5 -14.5t14.5 -35.5t-15 -35l-200 -200q-14 -15 -35 -15t-35.5 14.5t-14.5 35.5t15 35z" />
    <glyph glyph-name="Uogonek" unicode="&#x172;" horiz-adv-x="1080" 
d="M890 221v979q0 21 14.5 35.5t35.5 14.5t35.5 -14.5t14.5 -35.5v-1000q0 -21 -15 -35l-200 -200q-14 -15 -35 -15h-400q-21 0 -35 15l-200 200q-15 14 -15 35v1000q0 21 14.5 35.5t35.5 14.5t35.5 -14.5t14.5 -35.5v-979l171 -171h358zM390 -200q0 21 215 235q14 15 35 15
t35.5 -14.5t14.5 -35.5t-15 -35l-164 -165l164 -165q15 -14 15 -35t-14.5 -35.5t-35.5 -14.5t-35 15l-200 200q-15 14 -15 35z" />
    <glyph glyph-name="uogonek" unicode="&#x173;" 
d="M90 200v600q0 21 14.5 35.5t35.5 14.5t35.5 -14.5t14.5 -35.5v-579l171 -171h158l171 171v579q0 21 14.5 35.5t35.5 14.5t35.5 -14.5t14.5 -35.5v-800q0 -21 -14.5 -35.5t-35.5 -14.5t-35.5 14.5t-14.5 35.5v79l-115 -114q-14 -15 -35 -15h-200q-21 0 -35 15l-200 200
q-15 14 -15 35zM490 -200q0 21 215 235q14 15 35 15t35.5 -14.5t14.5 -35.5t-15 -35l-164 -165l164 -165q15 -14 15 -35t-14.5 -35.5t-35.5 -14.5t-35 15l-200 200q-15 14 -15 35z" />
    <glyph glyph-name="Wcircumflex" unicode="&#x174;" horiz-adv-x="1880" 
d="M940 329l-365 -364q-14 -15 -35 -15t-35 15l-400 400q-15 14 -15 35v800q0 21 14.5 35.5t35.5 14.5t35.5 -14.5t14.5 -35.5v-779l350 -350l350 350v779q0 21 14.5 35.5t35.5 14.5t35.5 -14.5t14.5 -35.5v-779l350 -350l350 350v779q0 21 14.5 35.5t35.5 14.5t35.5 -14.5
t14.5 -35.5v-800q0 -21 -15 -35l-400 -400q-14 -15 -35 -15t-35 15zM940 1529l-165 -164q-14 -15 -35 -15t-35.5 14.5t-14.5 35.5t15 35l200 200q14 15 35 15t35 -15l200 -200q15 -14 15 -35t-14.5 -35.5t-35.5 -14.5t-35 15z" />
    <glyph glyph-name="wcircumflex" unicode="&#x175;" horiz-adv-x="1480" 
d="M740 229l-265 -264q-14 -15 -35 -15t-35 15l-300 300q-15 14 -15 35v500q0 21 14.5 35.5t35.5 14.5t35.5 -14.5t14.5 -35.5v-479l250 -250l250 250v479q0 21 14.5 35.5t35.5 14.5t35.5 -14.5t14.5 -35.5v-479l250 -250l250 250v479q0 21 14.5 35.5t35.5 14.5t35.5 -14.5
t14.5 -35.5v-500q0 -21 -15 -35l-300 -300q-14 -15 -35 -15t-35 15zM740 1129l-165 -164q-14 -15 -35 -15t-35.5 14.5t-14.5 35.5t15 35l200 200q14 15 35 15t35 -15l200 -200q15 -14 15 -35t-14.5 -35.5t-35.5 -14.5t-35 15z" />
    <glyph glyph-name="Ycircumflex" unicode="&#x176;" horiz-adv-x="1080" 
d="M890 821v379q0 21 14.5 35.5t35.5 14.5t35.5 -14.5t14.5 -35.5v-400q0 -21 -15 -35l-385 -386v-379q0 -21 -14.5 -35.5t-35.5 -14.5t-35.5 14.5t-14.5 35.5v379l-385 386q-15 14 -15 35v400q0 21 14.5 35.5t35.5 14.5t35.5 -14.5t14.5 -35.5v-379l350 -350zM540 1529
l-165 -164q-14 -15 -35 -15t-35.5 14.5t-14.5 35.5t15 35l200 200q14 15 35 15t35 -15l200 -200q15 -14 15 -35t-14.5 -35.5t-35.5 -14.5t-35 15z" />
    <glyph glyph-name="ycircumflex" unicode="&#x177;" 
d="M775 -235l-200 -200q-14 -15 -35 -15h-200q-21 0 -35 15l-200 200q-15 14 -15 35t14.5 35.5t35.5 14.5t35 -15l186 -185h158l171 171v258l-115 -114q-14 -15 -35 -15h-200q-21 0 -35 15l-200 200q-15 14 -15 35v600q0 21 14.5 35.5t35.5 14.5t35.5 -14.5t14.5 -35.5v-579
l171 -171h158l171 171v579q0 21 14.5 35.5t35.5 14.5t35.5 -14.5t14.5 -35.5v-1000q0 -21 -15 -35zM440 1129l-165 -164q-14 -15 -35 -15t-35.5 14.5t-14.5 35.5t15 35l200 200q14 15 35 15t35 -15l200 -200q15 -14 15 -35t-14.5 -35.5t-35.5 -14.5t-35 15z" />
    <glyph glyph-name="Ydieresis" unicode="&#x178;" horiz-adv-x="1080" 
d="M890 821v379q0 21 14.5 35.5t35.5 14.5t35.5 -14.5t14.5 -35.5v-400q0 -21 -15 -35l-385 -386v-379q0 -21 -14.5 -35.5t-35.5 -14.5t-35.5 14.5t-14.5 35.5v379l-385 386q-15 14 -15 35v400q0 21 14.5 35.5t35.5 14.5t35.5 -14.5t14.5 -35.5v-379l350 -350zM510 1500
q0 -32 -21.5 -51t-48.5 -19t-48.5 19t-21.5 51t21.5 51t48.5 19t48.5 -19t21.5 -51zM710 1500q0 -32 -21.5 -51t-48.5 -19t-48.5 19t-21.5 51t21.5 51t48.5 19t48.5 -19t21.5 -51z" />
    <glyph glyph-name="Zacute" unicode="&#x179;" horiz-adv-x="1080" 
d="M975 965l-785 -786v-129h750q21 0 35.5 -14.5t14.5 -35.5t-14.5 -35.5t-35.5 -14.5h-800q-21 0 -35.5 14.5t-14.5 35.5v200q0 21 15 35l785 786v129h-750q-21 0 -35.5 14.5t-14.5 35.5t14.5 35.5t35.5 14.5h800q21 0 35 -15q15 -14 15 -35v-200q0 -21 -15 -35zM642 1635
q14 15 35 15t35.5 -14.5t14.5 -35.5t-15 -35l-200 -200q-14 -15 -35 -15t-35.5 14.5t-14.5 35.5t15 35z" />
    <glyph glyph-name="zacute" unicode="&#x17a;" horiz-adv-x="780" 
d="M190 50h550q21 0 35.5 -14.5t14.5 -35.5t-14.5 -35.5t-35.5 -14.5h-600q-21 0 -35.5 14.5t-14.5 35.5v200q0 21 15 35l514 515h-479q-21 0 -35.5 14.5t-14.5 35.5t14.5 35.5t35.5 14.5h600q21 0 35.5 -14.5t14.5 -35.5t-15 -35l-585 -586v-129zM542 1235q14 15 35 15
t35.5 -14.5t14.5 -35.5t-15 -35l-200 -200q-14 -15 -35 -15t-35.5 14.5t-14.5 35.5t15 35z" />
    <glyph glyph-name="Zdotaccent" unicode="&#x17b;" horiz-adv-x="1080" 
d="M975 965l-785 -786v-129h750q21 0 35.5 -14.5t14.5 -35.5t-14.5 -35.5t-35.5 -14.5h-800q-21 0 -35.5 14.5t-14.5 35.5v200q0 21 15 35l785 786v129h-750q-21 0 -35.5 14.5t-14.5 35.5t14.5 35.5t35.5 14.5h800q21 0 35 -15q15 -14 15 -35v-200q0 -21 -15 -35z
M588.5 1551q21.5 -19 21.5 -51t-21.5 -51t-48.5 -19t-48.5 19t-21.5 51t21.5 51t48.5 19t48.5 -19z" />
    <glyph glyph-name="zdotaccent" unicode="&#x17c;" horiz-adv-x="780" 
d="M190 50h550q21 0 35.5 -14.5t14.5 -35.5t-14.5 -35.5t-35.5 -14.5h-600q-21 0 -35.5 14.5t-14.5 35.5v200q0 21 15 35l514 515h-479q-21 0 -35.5 14.5t-14.5 35.5t14.5 35.5t35.5 14.5h600q21 0 35.5 -14.5t14.5 -35.5t-15 -35l-585 -586v-129zM488.5 1151
q21.5 -19 21.5 -51t-21.5 -51t-48.5 -19t-48.5 19t-21.5 51t21.5 51t48.5 19t48.5 -19z" />
    <glyph glyph-name="Zcaron" unicode="&#x17d;" horiz-adv-x="1080" 
d="M975 965l-785 -786v-129h750q21 0 35.5 -14.5t14.5 -35.5t-14.5 -35.5t-35.5 -14.5h-800q-21 0 -35.5 14.5t-14.5 35.5v200q0 21 15 35l785 786v129h-750q-21 0 -35.5 14.5t-14.5 35.5t14.5 35.5t35.5 14.5h800q21 0 35 -15q15 -14 15 -35v-200q0 -21 -15 -35zM505 1365
l-200 200q-15 14 -15 35t14.5 35.5t35.5 14.5t35 -15l165 -164l165 164q14 15 35 15t35.5 -14.5t14.5 -35.5t-15 -35l-200 -200q-14 -15 -35 -15t-35 15z" />
    <glyph glyph-name="zcaron" unicode="&#x17e;" horiz-adv-x="780" 
d="M190 50h550q21 0 35.5 -14.5t14.5 -35.5t-14.5 -35.5t-35.5 -14.5h-600q-21 0 -35.5 14.5t-14.5 35.5v200q0 21 15 35l514 515h-479q-21 0 -35.5 14.5t-14.5 35.5t14.5 35.5t35.5 14.5h600q21 0 35.5 -14.5t14.5 -35.5t-15 -35l-585 -586v-129zM405 965l-200 200
q-15 14 -15 35t14.5 35.5t35.5 14.5t35 -15l165 -164l165 164q14 15 35 15t35.5 -14.5t14.5 -35.5t-15 -35l-200 -200q-14 -15 -35 -15t-35 15z" />
    <glyph glyph-name="Oogonek" unicode="&#x1ea;" horiz-adv-x="1080" 
d="M305 -35l-200 200q-15 14 -15 35v800q0 21 15 35l200 200q14 15 35 15h400q21 0 35 -15l200 -200q15 -14 15 -35v-800q0 -21 -15 -35l-200 -200q-14 -15 -35 -15h-400q-21 0 -35 15zM190 221l171 -171h358l171 171v758l-171 171h-358l-171 -171v-758zM390 -200
q0 21 215 235q14 15 35 15t35.5 -14.5t14.5 -35.5t-15 -35l-164 -165l164 -165q15 -14 15 -35t-14.5 -35.5t-35.5 -14.5t-35 15l-200 200q-15 14 -15 35z" />
    <glyph glyph-name="oogonek" unicode="&#x1eb;" 
d="M540 -50h-200q-21 0 -35 15l-200 200q-15 14 -15 35v400q0 21 15 35l200 200q14 15 35 15h200q21 0 35 -15l200 -200q15 -14 15 -35v-400q0 -21 -15 -35l-200 -200q-14 -15 -35 -15zM361 50h158l171 171v358l-171 171h-158l-171 -171v-358zM290 -200q0 21 215 235
q14 15 35 15t35.5 -14.5t14.5 -35.5t-15 -35l-164 -165l164 -165q15 -14 15 -35t-14.5 -35.5t-35.5 -14.5t-35 15l-200 200q-15 14 -15 35z" />
    <glyph glyph-name="hek" unicode="&#x315;" horiz-adv-x="280" 
d="M190 1000q0 -21 -14.5 -35.5t-35.5 -14.5t-35.5 14.5t-14.5 35.5v200q0 21 14.5 35.5t35.5 14.5t35.5 -14.5t14.5 -35.5v-200z" />
    <glyph glyph-name="uni0326" unicode="&#x326;" horiz-adv-x="280" 
d="M190 -300q0 -21 -14.5 -35.5t-35.5 -14.5t-35.5 14.5t-14.5 35.5v200q0 21 14.5 35.5t35.5 14.5t35.5 -14.5t14.5 -35.5v-200z" />
    <glyph glyph-name="longs" unicode="&#x17f;" horiz-adv-x="280" 
d="M190 0q0 -21 -14.5 -35.5t-35.5 -14.5t-35.5 14.5t-14.5 35.5v1000q0 21 15 35l200 200q14 15 35 15t35.5 -14.5t14.5 -35.5t-15 -35l-185 -186v-979z" />
    <glyph glyph-name="uni01CD" unicode="&#x1cd;" horiz-adv-x="1080" 
d="M540 1129l-350 -350v-329h700v329zM105 835l400 400q14 15 35 15t435 -415q15 -14 15 -35v-800q0 -21 -14.5 -35.5t-35.5 -14.5t-35.5 14.5t-14.5 35.5v350h-700v-350q0 -21 -14.5 -35.5t-35.5 -14.5t-35.5 14.5t-14.5 35.5v800q0 21 15 35zM505 1365l-200 200
q-15 14 -15 35t14.5 35.5t35.5 14.5t35 -15l165 -164l165 164q14 15 35 15t35.5 -14.5t14.5 -35.5t-15 -35l-200 -200q-14 -15 -35 -15t-35 15z" />
    <glyph glyph-name="uni01CE" unicode="&#x1ce;" 
d="M690 221v358l-171 171h-158l-171 -171v-358l171 -171h158zM790 0q0 -21 -14.5 -35.5t-35.5 -14.5t-35.5 14.5t-14.5 35.5v79l-115 -114q-14 -15 -35 -15h-200q-21 0 -35 15l-200 200q-15 14 -15 35v400q0 21 15 35l200 200q14 15 35 15h200q21 0 35 -15l200 -200
q15 -14 15 -35v-600zM405 965l-200 200q-15 14 -15 35t14.5 35.5t35.5 14.5t35 -15l165 -164l165 164q14 15 35 15t35.5 -14.5t14.5 -35.5t-15 -35l-200 -200q-14 -15 -35 -15t-35 15z" />
    <glyph glyph-name="uni01CF" unicode="&#x1cf;" horiz-adv-x="280" 
d="M190 0q0 -21 -14.5 -35.5t-35.5 -14.5t-35.5 14.5t-14.5 35.5v1200q0 21 14.5 35.5t35.5 14.5t35.5 -14.5t14.5 -35.5v-1200zM105 1365l-200 200q-15 14 -15 35t14.5 35.5t35.5 14.5t35 -15l165 -164l165 164q14 15 35 15t35.5 -14.5t14.5 -35.5t-15 -35l-200 -200
q-14 -15 -35 -15t-35 15z" />
    <glyph glyph-name="uni01D0" unicode="&#x1d0;" horiz-adv-x="280" 
d="M190 0q0 -21 -14.5 -35.5t-35.5 -14.5t-35.5 14.5t-14.5 35.5v800q0 21 14.5 35.5t35.5 14.5t35.5 -14.5t14.5 -35.5v-800zM105 965l-200 200q-15 14 -15 35t14.5 35.5t35.5 14.5t35 -15l165 -164l165 164q14 15 35 15t35.5 -14.5t14.5 -35.5t-15 -35l-200 -200
q-14 -15 -35 -15t-35 15z" />
    <glyph glyph-name="uni01D1" unicode="&#x1d1;" horiz-adv-x="1080" 
d="M305 -35l-200 200q-15 14 -15 35v800q0 21 15 35l200 200q14 15 35 15h400q21 0 35 -15l200 -200q15 -14 15 -35v-800q0 -21 -15 -35l-200 -200q-14 -15 -35 -15h-400q-21 0 -35 15zM190 221l171 -171h358l171 171v758l-171 171h-358l-171 -171v-758zM505 1365l-200 200
q-15 14 -15 35t14.5 35.5t35.5 14.5t35 -15l165 -164l165 164q14 15 35 15t35.5 -14.5t14.5 -35.5t-15 -35l-200 -200q-14 -15 -35 -15t-35 15z" />
    <glyph glyph-name="uni01D2" unicode="&#x1d2;" 
d="M540 -50h-200q-21 0 -35 15l-200 200q-15 14 -15 35v400q0 21 15 35l200 200q14 15 35 15h200q21 0 35 -15l200 -200q15 -14 15 -35v-400q0 -21 -15 -35l-200 -200q-14 -15 -35 -15zM361 50h158l171 171v358l-171 171h-158l-171 -171v-358zM405 965l-200 200
q-15 14 -15 35t14.5 35.5t35.5 14.5t35 -15l165 -164l165 164q14 15 35 15t35.5 -14.5t14.5 -35.5t-15 -35l-200 -200q-14 -15 -35 -15t-35 15z" />
    <glyph glyph-name="uni01D3" unicode="&#x1d3;" horiz-adv-x="1080" 
d="M890 221v979q0 21 14.5 35.5t35.5 14.5t35.5 -14.5t14.5 -35.5v-1000q0 -21 -15 -35l-200 -200q-14 -15 -35 -15h-400q-21 0 -35 15l-200 200q-15 14 -15 35v1000q0 21 14.5 35.5t35.5 14.5t35.5 -14.5t14.5 -35.5v-979l171 -171h358zM505 1365l-200 200q-15 14 -15 35
t14.5 35.5t35.5 14.5t35 -15l165 -164l165 164q14 15 35 15t35.5 -14.5t14.5 -35.5t-15 -35l-200 -200q-14 -15 -35 -15t-35 15z" />
    <glyph glyph-name="uni01D4" unicode="&#x1d4;" 
d="M90 200v600q0 21 14.5 35.5t35.5 14.5t35.5 -14.5t14.5 -35.5v-579l171 -171h158l171 171v579q0 21 14.5 35.5t35.5 14.5t35.5 -14.5t14.5 -35.5v-800q0 -21 -14.5 -35.5t-35.5 -14.5t-35.5 14.5t-14.5 35.5v79l-115 -114q-14 -15 -35 -15h-200q-21 0 -35 15l-200 200
q-15 14 -15 35zM405 965l-200 200q-15 14 -15 35t14.5 35.5t35.5 14.5t35 -15l165 -164l165 164q14 15 35 15t35.5 -14.5t14.5 -35.5t-15 -35l-200 -200q-14 -15 -35 -15t-35 15z" />
    <glyph glyph-name="uni0226" unicode="&#x226;" horiz-adv-x="1080" 
d="M540 1129l-350 -350v-329h700v329zM105 835l400 400q14 15 35 15t435 -415q15 -14 15 -35v-800q0 -21 -14.5 -35.5t-35.5 -14.5t-35.5 14.5t-14.5 35.5v350h-700v-350q0 -21 -14.5 -35.5t-35.5 -14.5t-35.5 14.5t-14.5 35.5v800q0 21 15 35zM588.5 1551
q21.5 -19 21.5 -51t-21.5 -51t-48.5 -19t-48.5 19t-21.5 51t21.5 51t48.5 19t48.5 -19z" />
    <glyph glyph-name="uni0227" unicode="&#x227;" 
d="M690 221v358l-171 171h-158l-171 -171v-358l171 -171h158zM790 0q0 -21 -14.5 -35.5t-35.5 -14.5t-35.5 14.5t-14.5 35.5v79l-115 -114q-14 -15 -35 -15h-200q-21 0 -35 15l-200 200q-15 14 -15 35v400q0 21 15 35l200 200q14 15 35 15h200q21 0 35 -15l200 -200
q15 -14 15 -35v-600zM488.5 1151q21.5 -19 21.5 -51t-21.5 -51t-48.5 -19t-48.5 19t-21.5 51t21.5 51t48.5 19t48.5 -19z" />
    <glyph glyph-name="uni022E" unicode="&#x22e;" horiz-adv-x="1080" 
d="M305 -35l-200 200q-15 14 -15 35v800q0 21 15 35l200 200q14 15 35 15h400q21 0 35 -15l200 -200q15 -14 15 -35v-800q0 -21 -15 -35l-200 -200q-14 -15 -35 -15h-400q-21 0 -35 15zM190 221l171 -171h358l171 171v758l-171 171h-358l-171 -171v-758zM588.5 1551
q21.5 -19 21.5 -51t-21.5 -51t-48.5 -19t-48.5 19t-21.5 51t21.5 51t48.5 19t48.5 -19z" />
    <glyph glyph-name="uni022F" unicode="&#x22f;" 
d="M540 -50h-200q-21 0 -35 15l-200 200q-15 14 -15 35v400q0 21 15 35l200 200q14 15 35 15h200q21 0 35 -15l200 -200q15 -14 15 -35v-400q0 -21 -15 -35l-200 -200q-14 -15 -35 -15zM361 50h158l171 171v358l-171 171h-158l-171 -171v-358zM488.5 1151q21.5 -19 21.5 -51
t-21.5 -51t-48.5 -19t-48.5 19t-21.5 51t21.5 51t48.5 19t48.5 -19z" />
  </font>
</defs>
</svg>
